<svg width="115" height="103" viewBox="0 0 115 103" fill="none" xmlns="http://www.w3.org/2000/svg">
<rect x="0.5" y="46.5" width="114" height="39" stroke="#C2C2C2"/>
<path d="M53.4898 78.0004C53.4848 78.3181 53.4834 78.6356 53.481 78.9536L53.4792 79.0873L53.3455 79.0926C53.0284 79.103 52.7098 79.1065 52.3905 79.1084C52.3732 82.3376 52.3828 85.5654 52.3818 88.7938V88.9328L52.2428 88.9345C51.9748 88.9373 51.7051 88.9399 51.4355 88.9469L51.2896 88.9504L51.2913 88.8044C51.2968 88.4888 51.2945 88.1736 51.2878 87.8599C50.1925 87.8508 49.096 87.8452 48.0007 87.8635C48.0021 88.9546 47.9986 90.0454 48.0007 91.1365C48.3182 91.1426 48.6395 91.1574 48.961 91.1347L49.1369 91.1224L49.1105 91.2966C49.0645 91.6116 49.0952 91.9305 49.0964 92.2463C49.3995 92.2622 49.7046 92.2651 50.011 92.2656H50.1411L50.1517 92.3958C50.2025 93.0703 50.1773 93.7476 50.1886 94.4254C50.5034 94.4382 50.8202 94.4434 51.1366 94.4465L51.2737 94.4482L51.2755 94.5854C51.2806 95.2621 51.279 95.9385 51.2896 96.615C51.6073 96.6201 51.9272 96.6362 52.2481 96.6168L52.4099 96.608L52.3976 96.768C52.3442 97.4445 52.3905 98.1264 52.3853 98.8047C52.6947 98.8108 53.0038 98.8152 53.3139 98.817H53.4528L53.4546 98.9559C53.4682 100.001 53.4615 101.046 53.4757 102.092C55.2795 102.118 57.0847 102.12 58.8891 102.118C60.7365 102.115 62.5836 102.131 64.431 102.087C64.4014 101.044 64.4948 100.003 64.4521 98.9612L64.4468 98.8117L64.5963 98.8152C64.9064 98.824 65.2169 98.8179 65.5249 98.8082C65.5364 97.7716 65.5377 96.7336 65.539 95.697V95.5686L65.6656 95.5563C65.9805 95.5261 66.298 95.5239 66.6171 95.5264C66.6248 94.3653 66.6032 93.205 66.6382 92.044V92.0405V92.037C66.5997 90.6424 66.627 89.2464 66.6101 87.8512C66.2972 87.8536 65.985 87.8503 65.6744 87.8459L65.539 87.8441L65.5355 87.7087C65.5292 87.401 65.5253 87.0914 65.5302 86.7818C65.2091 86.7725 64.89 86.7825 64.5717 86.7642L64.4486 86.7572L64.4398 86.6341C64.4172 86.3141 64.4283 85.991 64.424 85.6668C63.7433 85.6641 63.0632 85.6697 62.3838 85.6597L62.2466 85.658L62.2449 85.5208C62.2396 85.2136 62.2359 84.9062 62.2396 84.5975C61.1954 84.5422 60.1484 84.578 59.1037 84.5658L58.9701 84.564L58.9648 84.4321C58.9505 84.1157 58.9447 83.7984 58.9454 83.4789C58.2662 83.4756 57.5871 83.4811 56.9088 83.4666L56.7734 83.4631L56.7716 83.3276C56.7582 81.922 56.7658 80.5159 56.761 79.1101C56.5799 79.1084 56.3988 79.107 56.2176 79.1066C56.0825 79.1064 55.948 79.107 55.8131 79.1084L55.6689 79.1101L55.6706 78.9659C55.6755 78.6433 55.6749 78.3206 55.6442 78.0004C54.9259 78.0025 54.208 78.0046 53.4898 78.0004H53.4898Z" fill="white"/>
<path d="M53.4896 78C54.2079 78.0042 54.9262 78.0028 55.6444 78.0007C55.6789 78.3609 55.6775 78.7232 55.6705 79.0841C54.9402 79.0911 54.2107 79.082 53.4805 79.0911C53.4833 78.7274 53.484 78.3637 53.4896 78Z" fill="#1C1C1C"/>
<path d="M52.3905 79.108C52.7536 79.1059 53.1173 79.1066 53.4803 79.0911C53.481 83.1074 53.4873 87.1237 53.4831 91.14C53.1173 91.1484 52.7514 91.1484 52.3856 91.1407C52.3786 90.7812 52.3786 90.421 52.3835 90.0608C52.0198 90.0468 51.6561 90.0489 51.2924 90.0503C51.2804 89.6831 51.2776 89.3151 51.2917 88.9479C51.6547 88.9345 52.0184 88.9387 52.3821 88.9331C52.3835 85.6583 52.373 82.3835 52.3905 79.108Z" fill="#1C1C1C"/>
<path d="M55.6745 79.1095C56.0368 79.1045 56.3991 79.1067 56.7614 79.1102C56.7663 80.5622 56.7564 82.0149 56.7719 83.467C57.4965 83.486 58.2211 83.4754 58.9457 83.4789C58.945 83.8412 58.9457 84.2035 58.9668 84.5658C60.0573 84.5834 61.1498 84.5398 62.2395 84.5975C62.2353 84.9513 62.2374 85.3052 62.2452 85.6591C62.9712 85.6724 63.6979 85.664 64.4246 85.6668C64.4295 86.0305 64.4063 86.3963 64.445 86.7586C64.8059 86.7903 65.1682 86.7713 65.5298 86.7819C65.5242 87.1364 65.527 87.491 65.5361 87.8456C65.8935 87.8519 66.2516 87.8547 66.6104 87.8519C66.6273 89.2483 66.5998 90.6448 66.6385 92.0405C66.6034 93.2027 66.6245 94.3649 66.6167 95.5271C66.2565 95.5243 65.8963 95.5229 65.539 95.5672C65.5376 96.6471 65.5369 97.7276 65.5249 98.8075C65.1661 98.8188 64.8066 98.8307 64.4485 98.8132C64.4077 97.7143 64.4267 96.614 64.4373 95.5144C64.7982 95.518 65.1598 95.518 65.5214 95.5151C65.5221 92.9614 65.5242 90.4084 65.5256 87.8547C65.1647 87.8498 64.8038 87.8505 64.4429 87.8547C64.4225 87.4994 64.4457 87.1421 64.4169 86.7875C64.0588 86.7185 63.693 86.7608 63.3314 86.7593C63.3236 87.8547 63.344 88.9501 63.3222 90.0461C62.9649 90.0468 62.6068 90.0468 62.2494 90.0475C62.2248 88.5863 62.2501 87.1252 62.2409 85.664C61.5086 85.6598 60.7763 85.6619 60.0446 85.664C60.0446 86.7586 60.0559 87.8533 60.0432 88.9472C59.6802 88.955 59.3179 88.955 58.9556 88.9479C58.9486 87.4882 58.9472 86.0277 58.9647 84.5679C58.2317 84.5644 57.4993 84.5637 56.7663 84.5722C56.7586 86.0305 56.7719 87.4889 56.7663 88.9472C56.3998 88.9578 56.0325 88.9585 55.666 88.9479C55.666 85.6689 55.6681 82.3892 55.6745 79.1095Z" fill="#1C1C1C"/>
<path d="M48.0013 87.8631C49.0967 87.8448 50.1927 87.8505 51.2881 87.8596C51.2958 88.2226 51.3021 88.5849 51.2916 88.9479C50.5649 88.9648 49.8381 88.9522 49.1121 88.9578C49.0854 89.681 49.1508 90.4063 49.1016 91.1288C48.7358 91.171 48.3671 91.1429 48.0006 91.1358C47.9985 90.0447 48.0027 88.9543 48.0013 87.8631Z" fill="#1C1C1C"/>
<path d="M49.1308 91.1534C49.4825 91.0992 49.8399 91.1196 50.1945 91.1294C50.2022 91.4946 50.2029 91.8604 50.1994 92.2262C50.5652 92.2283 50.9303 92.2276 51.2962 92.2325C51.3046 92.9607 51.2962 93.6888 51.3004 94.4169C51.6613 94.4148 52.0229 94.4155 52.3845 94.4204C52.3796 95.1507 52.4316 95.8865 52.357 96.6132C52.0011 96.6456 51.6444 96.6203 51.2891 96.6146C51.2779 95.8928 51.2793 95.1711 51.2729 94.4493C50.9113 94.4472 50.5497 94.4408 50.1881 94.426C50.1762 93.7071 50.2114 92.9867 50.1459 92.2698C49.7963 92.2712 49.4459 92.2649 49.097 92.2466C49.0956 91.8822 49.0478 91.5121 49.1308 91.1534Z" fill="#1C1C1C"/>
<path d="M52.4074 96.6182C52.7648 96.5901 53.1243 96.6069 53.4831 96.6091C53.4929 97.3358 53.4838 98.0625 53.4859 98.7885C53.8503 98.7871 54.2161 98.7871 54.5812 98.7998C54.5883 99.5265 54.5749 100.254 54.5855 100.981C57.4987 100.988 60.4119 100.986 63.3251 100.985C63.3363 100.257 63.3222 99.53 63.33 98.8019C63.7028 98.7969 64.0757 98.792 64.4486 98.8131C64.5077 99.9036 64.4007 100.995 64.4317 102.087C62.5843 102.131 60.7369 102.115 58.8895 102.117C57.085 102.12 55.2805 102.117 53.4767 102.091C53.462 101 53.4697 99.9092 53.4535 98.8188C53.0975 98.8181 52.7416 98.8124 52.3856 98.8054C52.3912 98.0766 52.3328 97.3428 52.4074 96.6182Z" fill="#1C1C1C"/>
<line x1="20" y1="73.5" x2="50" y2="73.5" stroke="#C2C2C2"/>
<line x1="20" y1="66.5" x2="50" y2="66.5" stroke="#C2C2C2"/>
<line x1="20" y1="59.5" x2="50" y2="59.5" stroke="#C2C2C2"/>
<circle cx="26.5" cy="66.5" r="1.5" fill="#C2C2C2"/>
<circle cx="35.5" cy="59.5" r="1.5" fill="#C2C2C2"/>
<circle cx="44.5" cy="73.5" r="1.5" fill="#C2C2C2"/>
<path d="M68.81 66.49C68.81 67.4167 68.4867 68.1433 67.84 68.67C67.1933 69.1967 66.28 69.48 65.1 69.52V70.26H64.17V69.52C62.99 69.4733 62.0733 69.1867 61.42 68.66C60.7733 68.1333 60.45 67.41 60.45 66.49C60.45 65.5633 60.7733 64.8367 61.42 64.31C62.0733 63.7833 62.99 63.4967 64.17 63.45V62.74H65.1V63.45C66.2733 63.4967 67.1833 63.7867 67.83 64.32C68.4833 64.8467 68.81 65.57 68.81 66.49ZM65.1 68.74C65.9933 68.6867 66.6733 68.47 67.14 68.09C67.6133 67.7033 67.85 67.1667 67.85 66.48C67.85 65.8067 67.61 65.28 67.13 64.9C66.6567 64.5133 65.98 64.2933 65.1 64.24V68.74ZM61.42 66.49C61.42 67.17 61.6567 67.7033 62.13 68.09C62.61 68.47 63.29 68.6867 64.17 68.74V64.24C63.2767 64.2933 62.5933 64.51 62.12 64.89C61.6533 65.27 61.42 65.8033 61.42 66.49ZM70.3478 63H71.3378V70H70.3478V63ZM79.1538 63V70H78.1738V63.87H75.0738L75.0038 65.92C74.9704 66.8867 74.8904 67.67 74.7638 68.27C74.6438 68.87 74.4504 69.3233 74.1838 69.63C73.9171 69.93 73.5571 70.08 73.1038 70.08C72.8971 70.08 72.6871 70.0533 72.4738 70L72.5438 69.11C72.6504 69.1367 72.7571 69.15 72.8638 69.15C73.1504 69.15 73.3804 69.0367 73.5538 68.81C73.7271 68.5767 73.8571 68.23 73.9438 67.77C74.0304 67.31 74.0871 66.7033 74.1138 65.95L74.2238 63H79.1538ZM84.4041 65.44C85.2375 65.44 85.8741 65.6267 86.3141 66C86.7608 66.3733 86.9841 66.9233 86.9841 67.65C86.9841 68.4167 86.7441 69 86.2641 69.4C85.7908 69.8 85.1108 70 84.2241 70H81.3341V63H82.3241V65.44H84.4041ZM84.1841 69.21C84.7641 69.21 85.2075 69.08 85.5141 68.82C85.8275 68.5533 85.9841 68.17 85.9841 67.67C85.9841 66.71 85.3841 66.23 84.1841 66.23H82.3241V69.21H84.1841ZM92.5895 63.87H90.1895V70H89.2095V63.87H86.8195V63H92.5895V63.87ZM96.5348 63C97.4415 63 98.1548 63.2167 98.6748 63.65C99.1948 64.0833 99.4548 64.68 99.4548 65.44C99.4548 66.2 99.1948 66.7967 98.6748 67.23C98.1548 67.6633 97.4415 67.88 96.5348 67.88H94.8048V70H93.8048V63H96.5348ZM96.5048 67.01C97.1382 67.01 97.6215 66.8767 97.9548 66.61C98.2882 66.3367 98.4548 65.9467 98.4548 65.44C98.4548 64.9333 98.2882 64.5467 97.9548 64.28C97.6215 64.0067 97.1382 63.87 96.5048 63.87H94.8048V67.01H96.5048Z" fill="#C2C2C2"/>
<rect x="46.5" y="6.5" width="18" height="29" rx="7.5" fill="white" stroke="#C2C2C2"/>
<path d="M46 14C46 9.58172 49.5817 6 54 6H56V16H46V14Z" fill="#FF1E3C"/>
<path d="M64.5 14C64.5 9.85786 61.1421 6.5 57 6.5H55.5V15.5H64.5V14Z" fill="white" stroke="#C2C2C2"/>
<rect x="54.5" y="12.5" width="2" height="7" rx="1" fill="white" stroke="#C2C2C2"/>
<path d="M46 6L41 1" stroke="#C2C2C2" stroke-linecap="round"/>
<path d="M48 4L46 1" stroke="#C2C2C2" stroke-linecap="round"/>
<path d="M44 8L41 6" stroke="#C2C2C2" stroke-linecap="round"/>
</svg>
