<svg width="17" height="17" viewBox="0 0 17 17" fill="none" xmlns="http://www.w3.org/2000/svg">
<path d="M11.8769 7.84593V7.84454H9.16722V4.46649H4.66455V12.0751H6.02218V5.60367H7.81934V8.91753H10.5765V12.0751H11.8769V7.84593Z" fill="white"/>
<path d="M11.8684 4.46771H10.5806V5.75559H11.8684V4.46771Z" fill="white"/>
<path d="M8.27001 1.04509C4.28639 1.04509 1.04509 4.28639 1.04509 8.27C1.04509 12.2536 4.28639 15.4949 8.27001 15.4949C12.2536 15.4949 15.4949 12.2536 15.4949 8.27C15.4949 4.28639 12.255 1.04509 8.27001 1.04509ZM8.27001 16.54C3.71013 16.54 0 12.8299 0 8.27C0 3.71013 3.71013 0 8.27001 0C12.8299 0 16.54 3.71013 16.54 8.27C16.54 12.8299 12.8299 16.54 8.27001 16.54Z" fill="white"/>
</svg>
