<svg id="floor--svg"  viewBox="0 0 1920 1080" xmlns:xlink="http://www.w3.org/1999/xlink" version="1.0" xmlns="http://www.w3.org/2000/svg"
		 style="background-image: url(&quot;/img/projects/1/102-1592295616-1920x85-.jpg&quot;);
		 background-size: contain;background-repeat: no-repeat;background-position: center center;">
		<polygon data-sec="1" data-build="null" data-floor="1" class="floor-svg-polygon" points="615,278,799,252,902,257,906,639,799,642,616,615"></polygon>
		<polygon data-sec="1" data-build="2" data-floor="6" class="floor-svg-polygon" points="989.5,576,1203,597,1283.5,593.5,1279,609,1203.5,615,991.5,592.5"></polygon>
		<polygon data-sec="1" data-build="2" data-floor="7" class="floor-svg-polygon" points="990.5,561,1203,578.5,1282.5,574,1282.5,593,1202,598.5,988.5,576.5"></polygon>
		<polygon data-sec="1" data-build="2" data-floor="8" class="floor-svg-polygon" points="990,548,1199,561,1284.5,560.5,1282.5,575,1203.5,579.5,989.5,562"></polygon>
		<polygon data-sec="1" data-build="2" data-floor="9" class="floor-svg-polygon" points="990.5,534,1203,546,1281.5,542.5,1283.5,561,1199.5,563,989.5,548.5"></polygon>
		<polygon data-sec="1" data-build="2" data-floor="10" class="floor-svg-polygon" points="990.5,517.5,1199,528,1282.5,525.5,1282,542.5,1201.5,547,990.5,535.5"></polygon>
		<polygon data-sec="1" data-build="2" data-floor="11" class="floor-svg-polygon" points="989.5,502.5,1203,512.5,1283,509,1283,527,1198.5,529.5,990,518"></polygon>
		<polygon data-sec="1" data-build="2" data-floor="12" class="floor-svg-polygon" points="988,488.5,1198.5,493.5,1283.5,493,1282,510,1203.5,514.5,988.5,504.5"></polygon>
		<polygon data-sec="1" data-build="2" data-floor="13" class="floor-svg-polygon" points="991,473.5,1203,480,1282.5,477.5,1283,493.5,1198.5,494,987,490.5"></polygon>
		<polygon data-sec="1" data-build="2" data-floor="14" class="floor-svg-polygon" points="989.5,458.5,1200,461,1282,460,1282,477,1202,480,990,474.5"></polygon>
		<polygon data-sec="1" data-build="2" data-floor="15" class="floor-svg-polygon" points="990.5,442,1202.5,445.5,1282.5,443.5,1282.5,461,1199,461.5,989.5,459.5"></polygon>
		<polygon data-sec="1" data-build="2" data-floor="16" class="floor-svg-polygon" points="993.5,428.5,1203.5,428,1282,427.5,1282.5,444,1201.5,446,990.5,442"></polygon>
		<polygon data-sec="1" data-build="2" data-floor="17" class="floor-svg-polygon" points="992.5,413.5,1205,410.5,1281.5,411.5,1282,428.5,1201,429.5,992.5,428.5"></polygon>
		<polygon data-sec="1" data-build="2" data-floor="18" class="floor-svg-polygon" points="994.5,399.5,1201.5,394.5,1285,395,1282,411.5,1206,411,993,414"></polygon>
		<polygon data-sec="1" data-build="2" data-floor="19" class="floor-svg-polygon" points="993.5,383,1205,377,1283.5,379.5,1285,396,1201,396,994,400.5"></polygon>
		<polygon data-sec="1" data-build="2" data-floor="20" class="floor-svg-polygon" points="994.5,369,1201,360.5,1284,362,1283,378.5,1204.5,379.5,993,384.5"></polygon>
		<polygon data-sec="1" data-build="2" data-floor="21" class="floor-svg-polygon" points="994,355,1204.5,343.5,1284,346,1284,362,1200.5,361.5,994,370.5"></polygon>
		<polygon data-sec="1" data-build="2" data-floor="22" class="floor-svg-polygon" points="995.5,340,1204,325.5,1284.5,329,1283,347,1204.5,344,993.5,356"></polygon>
		<polygon data-sec="1" data-build="2" data-floor="23" class="floor-svg-polygon" points="994,324.5,1204.5,310,1283,315,1285.5,330,1203.5,326.5,994.5,341.5"></polygon>
		<polygon data-sec="1" data-build="2" data-floor="24" class="floor-svg-polygon" points="995,296.5,1206.5,277.5,1285.5,282,1282.5,315.5,1207,310,992,325"></polygon>

	<symbol id="info-svg-polygon-left" viewBox="0 0 60 30" data-build="1" class="info-svg-polygon-left">
		<path fill-rule="evenodd" clip-rule="evenodd" d="M-0.000435142 28.4214L50.5259 28.4214V21.7107L59.5259 14.2107L50.5259 6.71073L50.5259 0.00033548L-0.000435142 0.00033548L-0.000435142 28.4214Z" class="floor-rect"  />
		<text x="25" y="13" class="floor-text">15</text>
	</symbol>
	<use x="500" y="0" width="60px" height="30px" data-build="1" xlink:href="#info-svg-polygon-left" class="floor-info-svg"></use>


	<symbol id="info-svg-polygon-right" viewBox="0 0 60 30" data-build="2" class="info-svg-polygon-right">
		<path fill-rule="evenodd" clip-rule="evenodd" d="M59.5263 0H9V6.71065L0 14.2107L9 21.7107V28.4211H59.5263V0Z" class="floor-rect"  />
		<text x="35" y="13" class="floor-text">15</text>
	</symbol>
	<use x="1300" y="0" width="60px" height="30px" data-build="2" xlink:href="#info-svg-polygon-right" class="floor-info-svg"></use>

</svg>