<svg id="floor--svg"  viewBox="0 0 1920 1080" xmlns:xlink="http://www.w3.org/1999/xlink"  version="1.0" xmlns="http://www.w3.org/2000/svg"
		 style="background-image: url(&quot;/img/projects/1/55-1592294472-1920x85-.jpg&quot;);
		 background-size: contain;background-repeat: no-repeat;background-position: center center;">
		<polygon data-sec="1" data-build="null" data-floor="1" class="floor-svg-polygon" points="1012,269,1249,241,1341,248,1338,623,1246,631,1013,604"></polygon>
		<polygon data-sec="1" data-build="2" data-floor="6" class="floor-svg-polygon" points="596,603.5,780.5,636,908,629.5,903.5,650.5,783.5,660,596.5,624"></polygon>
		<polygon data-sec="1" data-build="2" data-floor="7" class="floor-svg-polygon" points="596.5,586.5,784.5,615.5,905.5,607.5,907.5,630,780.5,637,595,604"></polygon>
		<polygon data-sec="1" data-build="2" data-floor="8" class="floor-svg-polygon" points="594.5,567.5,780.5,594,910,588,905.5,608.5,784.5,615.5,595,587"></polygon>
		<polygon data-sec="1" data-build="2" data-floor="9" class="floor-svg-polygon" points="596,549,778,568.5,905.5,566,909,588.5,780.5,593.5,594,567.5"></polygon>
		<polygon data-sec="1" data-build="2" data-floor="10" class="floor-svg-polygon" points="594.5,530,781.5,549.5,910.5,545,905.5,565,777.5,569.5,595.5,549"></polygon>
		<polygon data-sec="1" data-build="2" data-floor="11" class="floor-svg-polygon" points="595.5,511.5,781.5,526,906,523.5,909.5,546,781,550.5,594.5,531.5"></polygon>
		<polygon data-sec="1" data-build="2" data-floor="12" class="floor-svg-polygon" points="592,494.5,781,506.5,908.5,504,906,523.5,782,527.5,595,511.5"></polygon>
		<polygon data-sec="1" data-build="2" data-floor="13" class="floor-svg-polygon" points="594.5,475.5,781.5,483.5,905.5,481.5,908,505,780,507.5,592,495.5"></polygon>
		<polygon data-sec="1" data-build="2" data-floor="14" class="floor-svg-polygon" points="592.5,456,779,461.5,908.5,460,905,480.5,780,483.5,594,475"></polygon>
		<polygon data-sec="1" data-build="2" data-floor="15" class="floor-svg-polygon" points="594.5,438,780,439.5,906,439.5,906.5,460,778.5,462,592,457"></polygon>
		<polygon data-sec="1" data-build="2" data-floor="16" class="floor-svg-polygon" points="593.5,419,777,418,910.5,418.5,906.5,440,779.5,440,596,439.5"></polygon>
		<polygon data-sec="1" data-build="2" data-floor="17" class="floor-svg-polygon" points="595.5,399.5,777.5,396,907,396,910.5,419,776,419,592,419.5"></polygon>
		<polygon data-sec="1" data-build="2" data-floor="18" class="floor-svg-polygon" points="593.5,382,770,373.5,908,376,907,396.5,777.5,398,594,399.5"></polygon>
		<polygon data-sec="1" data-build="2" data-floor="19" class="floor-svg-polygon" points="594,363.5,775,352,904.5,354,908,376.5,769.5,375,593.5,383.5"></polygon>
		<polygon data-sec="1" data-build="2" data-floor="20" class="floor-svg-polygon" points="593,344,779.5,330.5,903,333.5,902,355,775.5,353.5,593,364.5"></polygon>
		<polygon data-sec="1" data-build="2" data-floor="21" class="floor-svg-polygon" points="594,326.5,777,308.5,906,312,903,334.5,778.5,330.5,591.5,344"></polygon>
		<polygon data-sec="1" data-build="2" data-floor="22" class="floor-svg-polygon" points="594.5,308.5,777,286.5,895.5,291,896.5,310.5,774.5,308,593.5,327.5"></polygon>
		<polygon data-sec="1" data-build="2" data-floor="23" class="floor-svg-polygon" points="593.5,289.5,781,264.5,903.5,269,905,291.5,777,286.5,593,309"></polygon>
		<polygon data-sec="1" data-build="2" data-floor="24" class="floor-svg-polygon" points="594,254,780.5,221.5,906.5,228,903,269,781,265,592.5,288.5"></polygon>

	<symbol id="info-svg-polygon-left" viewBox="0 0 60 30" data-build="2" class="info-svg-polygon-left">
		<path fill-rule="evenodd" clip-rule="evenodd" d="M-0.000435142 28.4214L50.5259 28.4214V21.7107L59.5259 14.2107L50.5259 6.71073L50.5259 0.00033548L-0.000435142 0.00033548L-0.000435142 28.4214Z" class="floor-rect"  />
		<text x="25" y="13" class="floor-text">15</text>
	</symbol>
	<use x="520" y="0" width="60px" height="30px" data-build="2" xlink:href="#info-svg-polygon-left" class="floor-info-svg"></use>


	<symbol id="info-svg-polygon-right" viewBox="0 0 60 30" data-build="1" class="info-svg-polygon-right">
		<path fill-rule="evenodd" clip-rule="evenodd" d="M59.5263 0H9V6.71065L0 14.2107L9 21.7107V28.4211H59.5263V0Z" class="floor-rect"  />
		<text x="35" y="13" class="floor-text">не у продажу</text>
	</symbol>
	<use x="1380" y="0" width="60px" height="30px" data-build="1" xlink:href="#info-svg-polygon-right" class="floor-info-svg"></use>

</svg>