<svg width="223" height="51" viewBox="0 0 223 51" fill="none" xmlns="http://www.w3.org/2000/svg">
<path d="M211 13.8266H222V49.0815H1V1.08154H1.47922H1.97048H2.46084H2.95031H3.43888H3.92656H4.41336H4.89927H5.38431H5.86847H6.35176H6.83418H7.31573H7.79642H8.27626H8.75524H9.23336H9.71064H10.1871H10.6627H11.1374H11.6114H12.0844H12.5567H13.0282H13.4988H13.9686H14.4376H14.9058H15.3731H15.8397H16.3055H16.7705H17.2346H17.698H18.1607H18.6225H19.0835H19.5438H20.0033H20.4621H20.92H21.3772H21.8337H22.2894H22.7443H23.1986H23.652H24.1047H24.5567H25.008H25.4585H25.9083H26.3573H26.8057H27.2533H27.7002H28.1465H28.592H29.0368H29.4809H29.9243H30.367H30.809H31.2504H31.691H32.131H32.5703H33.009H33.4469H33.8843H34.3209H34.7569H35.1922H35.6269H36.061H36.4944H36.9271H37.3592H37.7907H38.2216H38.6518H39.0815H39.5104H39.9388H40.3666H40.7938H41.2203H41.6463H42.0716H42.4964H42.9205H43.3441H43.7671H44.1895H44.6114H45.0326H45.4533H45.8735H46.293H46.712H47.1305H47.5484H47.9657H48.3825H48.7988H49.2145H49.6297H50.0443H50.4585H50.8721H51.2851H51.6977H52.1097H52.5213H52.9323H53.3428H53.7528H54.1623H54.5714H54.9799H55.388H55.7955H56.2026H56.6092H57.0154H57.421H57.8262H58.231H58.6352H59.0391H59.4424H59.8454H60.2478H60.6499H61.0515H61.4526H61.8534H62.2537H62.6535H63.053H63.452H63.8507H64.2489H64.6467H65.0441H65.4411H65.8377H66.2339H66.6297H67.0252H67.4202H67.8149H68.2092H68.6031H68.9967H69.3899H69.7827H70.1751H70.5673H70.959H71.3504H71.7415H72.1322H72.5226H72.9127H73.3024H73.6918H74.0809H74.4697H74.8581H75.2462H75.634H76.0215H76.4087H76.7956H77.1823H77.5686H77.9546H78.3403H78.7258H79.111H79.4959H79.8805H80.2649H80.649H81.0328H81.4164H81.7997H82.1828H82.5656H82.9482H83.3305H83.7126H84.0945H84.4762H84.8576H85.2388H85.6197H86.0005H86.381H86.7614H87.1415H87.5214H87.9011H88.2807H88.66H89.0392H89.4181H89.7969H90.1755H90.5539H90.9322H91.3103H91.6882H92.066H92.4436H92.821H93.1983H93.5755H93.9525H94.3294H94.7061H95.0827H95.4592H95.8355H96.2118H96.5879H96.9639H97.3397H97.7155H98.0912H98.4667H98.8422H99.2176H99.5928H99.968H100.343H100.718H101.093H101.468H101.843H102.218H102.592H102.967H103.341H103.716H104.09H104.465H104.839H105.213H105.588H105.962H106.336H106.71H107.085H107.459H107.833H108.207H108.581H108.955H109.329H109.703H110.078H110.452H110.826H111.2H111.574H111.948H112.323H112.697H113.071H113.446H113.82H114.194H114.569H114.943H115.318H115.692H116.067H116.442H116.817H117.192H117.567H117.942H118.317H118.692H119.067H119.443H119.818H120.194H120.569H120.945H121.321H121.697H122.073H122.45H122.826H123.203H123.579H123.956H124.333H124.71H125.087H125.464H125.842H126.22H126.597H126.975H127.354H127.732H128.11H128.489H128.868H129.247H129.626H130.005H130.385H130.765H131.145H131.525H131.905H132.286H132.667H133.048H133.429H133.811H134.192H134.574H134.956H135.339H135.721H136.104H136.487H136.871H137.255H137.638H138.023H138.407H138.792H139.177H139.562H139.948H140.333H140.719H141.106H141.493H141.88H142.267H142.654H143.042H143.431H143.819H144.208H144.597H144.987H145.376H145.767H146.157H146.548H146.939H147.331H147.722H148.115H148.507H148.9H149.293H149.687H150.081H150.476H150.87H151.266H151.661H152.057H152.453H152.85H153.247H153.645H154.043H154.441H154.84H155.239H155.638H156.038H156.439H156.84H157.241H157.643H158.045H158.448H158.851H159.254H159.658H160.062H160.467H160.873H161.278H161.685H162.091H162.499H162.906H163.315H163.723H164.132H164.542H164.952H165.363H165.774H166.186H166.598H167.011H167.424H167.838H168.252H168.667H169.082H169.498H169.914H170.331H170.749H171.167H171.586H172.005H172.424H172.845H173.266H173.687H174.109H174.532H174.955H175.379H175.803H176.228H176.653H177.079H177.506H177.934H178.361H178.79H179.219H179.649H180.079H180.51H180.942H181.374H181.807H182.241H182.675H183.11H183.546H183.982H184.419H184.856H185.294H185.733H186.173H186.613H187.054H187.495H187.937H188.38H188.824H189.268H189.713H190.159H190.605H191.053H191.5H191.949H192.398H192.848H193.299H193.75H194.203H194.656H195.109H195.564H196.019H196.475H196.931H197.389H197.847H198.306H198.766H199.226H199.688H200.15H200.612H201.076H201.54H202.006H202.472H202.938H203.406H203.874H204.344H204.814H205.285H205.756H206.229H206.702H207.176H207.651H208.127H208.604H209.081H209.56H210V1.08935V1.10942V1.12963V1.14998V1.17047V1.19109V1.21185V1.23275V1.25377V1.27494V1.29623V1.31765V1.33921V1.3609V1.38272V1.40466V1.42673V1.44894V1.47126V1.49372V1.5163V1.539V1.56183V1.58478V1.60785V1.63104V1.65436V1.67779V1.70135V1.72502V1.74881V1.77271V1.79674V1.82088V1.84513V1.8695V1.89398V1.91857V1.94327V1.96809V1.99301V2.01805V2.04319V2.06845V2.09381V2.11927V2.14484V2.17052V2.1963V2.22219V2.24817V2.27426V2.30046V2.32675V2.35314V2.37963V2.40622V2.4329V2.45969V2.48657V2.51354V2.54061V2.56778V2.59503V2.62238V2.64982V2.67735V2.70497V2.73268V2.76048V2.78837V2.81635V2.84441V2.87255V2.90079V2.9291V2.9575V2.98598V3.01455V3.04319V3.07192V3.10072V3.12961V3.15857V3.18761V3.21673V3.24592V3.27519V3.30453V3.33395V3.36344V3.393V3.42263V3.45234V3.48211V3.51195V3.54187V3.57185V3.60189V3.632V3.66218V3.69243V3.72273V3.75311V3.78354V3.81403V3.84459V3.87521V3.90588V3.93662V3.96741V3.99826V4.02917V4.06013V4.09115V4.12222V4.15335V4.18453V4.21576V4.24704V4.27838V4.30976V4.34119V4.37267V4.4042V4.43578V4.4674V4.49907V4.53078V4.56253V4.59433V4.62617V4.65806V4.68998V4.72195V4.75395V4.78599V4.81807V4.85019V4.88235V4.91454V4.94676V4.97902V5.01131V5.04364V5.076V5.10839V5.14081V5.17326V5.20574V5.23824V5.27078V5.30334V5.33593V5.36854V5.40118V5.43384V5.46652V5.49923V5.53196V5.5647V5.59747V5.63026V5.66307V5.69589V5.72874V5.7616V5.79447V5.82736V5.86026V5.89318V5.92611V5.95905V5.992V6.02496V6.05794V6.09092V6.12391V6.15691V6.18991V6.22292V6.25593V6.28895V6.32198V6.355V6.38803V6.42106V6.45409V6.48712V6.52015V6.55318V6.58621V6.61923V6.65225V6.68526V6.71827V6.75128V6.78428V6.81727V6.85025V6.88322V6.91618V6.94913V6.98208V7.01501V7.04792V7.08083V7.11371V7.14659V7.17945V7.21229V7.24511V7.27792V7.31071V7.34348V7.37623V7.40896V7.44166V7.47435V7.50701V7.53965V7.57226V7.60485V7.63741V7.66994V7.70245V7.73493V7.76738V7.7998V7.83219V7.86454V7.89687V7.92916V7.96142V7.99365V8.02584V8.05799V8.09011V8.12219V8.15423V8.18624V8.2182V8.25013V8.28201V8.31385V8.34565V8.37741V8.40912V8.44078V8.47241V8.50398V8.53551V8.56699V8.59842V8.62981V8.66114V8.69242V8.72365V8.75483V8.78596V8.81703V8.84805V8.87901V8.90992V8.94077V8.97157V9.0023V9.03298V9.06359V9.09415V9.12465V9.15508V9.18545V9.21576V9.246V9.27618V9.30629V9.33634V9.36632V9.39623V9.42607V9.45585V9.48555V9.51518V9.54475V9.57424V9.60365V9.63299V9.66226V9.69146V9.72057V9.74961V9.77857V9.80746V9.83626V9.86499V9.89364V9.9222V9.95068V9.97908V10.0074V10.0356V10.0638V10.0918V10.1198V10.1477V10.1755V10.2032V10.2308V10.2584V10.2858V10.3132V10.3404V10.3676V10.3946V10.4216V10.4485V10.4753V10.502V10.5286V10.555V10.5814V10.6077V10.6339V10.66V10.686V10.7119V10.7377V10.7633V10.7889V10.8144V10.8397V10.865V10.8901V10.9152V10.9401V10.9649V10.9896V11.0142V11.0387V11.0631V11.0873V11.1114V11.1355V11.1594V11.1832V11.2068V11.2304V11.2538V11.2771V11.3003V11.3234V11.3464V11.3692V11.3919V11.4145V11.4369V11.4592V11.4814V11.5035V11.5255V11.5473V11.569V11.5905V11.612V11.6332V11.6544V11.6754V11.6963V11.7171V11.7377V11.7582V11.7786V11.7988V11.8188V11.8388V11.8586V11.8782V11.8977V11.9171V11.9363V11.9554V11.9743V11.9931V12.0118V12.0303V12.0486V12.0668V12.0849V12.1028V12.1206V12.1382V12.1556V12.1729V12.1901V12.207V12.2239V12.2406V12.2571V12.2735V12.2897V12.3057V12.3216V12.3373V12.3529V12.3683V12.3836V12.3986V12.4136V12.4283V12.4429V12.4573V12.4716V12.4857V12.4996V12.5133V12.5269V12.5403V12.5536V12.5666V12.5795V12.5922V12.6048V12.6172V12.6293V12.6414V12.6532V12.6649V12.6764V12.6877V12.6988V12.7097V12.7205V12.7311V12.7415V12.7517V12.7617V12.7715V12.7812V12.7907V12.7999V12.809V12.8179V12.8266V13.8266H211Z" stroke="#FF1E3C" stroke-width="2"/>
<path d="M222.977 0.0849609H219.227V3.80973H222.977V0.0849609Z" fill="#FF1E3C"/>
<path d="M59.8755 25.4315C60.3155 25.5515 60.6589 25.7615 60.9055 26.0615C61.1522 26.3549 61.2755 26.7082 61.2755 27.1215C61.2755 27.5349 61.1422 27.8982 60.8755 28.2115C60.6155 28.5182 60.2655 28.7549 59.8255 28.9215C59.3922 29.0815 58.9189 29.1615 58.4055 29.1615C57.9389 29.1615 57.4755 29.0915 57.0155 28.9515C56.5555 28.8115 56.1355 28.6015 55.7555 28.3215L56.1055 27.5815C56.4122 27.8215 56.7555 28.0015 57.1355 28.1215C57.5155 28.2415 57.8989 28.3015 58.2855 28.3015C58.8455 28.3015 59.3155 28.1849 59.6955 27.9515C60.0755 27.7115 60.2655 27.3849 60.2655 26.9715C60.2655 26.6182 60.1222 26.3482 59.8355 26.1615C59.5489 25.9682 59.1455 25.8715 58.6255 25.8715H57.0655V25.0615H58.5555C59.0022 25.0615 59.3489 24.9715 59.5955 24.7915C59.8489 24.6049 59.9755 24.3482 59.9755 24.0215C59.9755 23.6549 59.8122 23.3649 59.4855 23.1515C59.1589 22.9382 58.7455 22.8315 58.2455 22.8315C57.9189 22.8315 57.5855 22.8782 57.2455 22.9715C56.9122 23.0649 56.5955 23.2049 56.2955 23.3915L55.9755 22.5715C56.3289 22.3715 56.7022 22.2215 57.0955 22.1215C57.4889 22.0215 57.8822 21.9715 58.2755 21.9715C58.7689 21.9715 59.2222 22.0482 59.6355 22.2015C60.0489 22.3549 60.3755 22.5782 60.6155 22.8715C60.8622 23.1649 60.9855 23.5082 60.9855 23.9015C60.9855 24.2549 60.8855 24.5649 60.6855 24.8315C60.4922 25.0982 60.2222 25.2982 59.8755 25.4315ZM69.9916 27.3315H66.2716L65.5016 29.0815H64.4716L67.6416 22.0815H68.6316L71.8116 29.0815H70.7616L69.9916 27.3315ZM69.6416 26.5315L68.1316 23.1015L66.6216 26.5315H69.6416ZM79.8797 25.4515C80.353 25.5649 80.7097 25.7682 80.9497 26.0615C81.1964 26.3482 81.3197 26.7182 81.3197 27.1715C81.3197 27.7782 81.0964 28.2482 80.6497 28.5815C80.2097 28.9149 79.5664 29.0815 78.7197 29.0815H75.5197V22.0815H78.5297C79.2964 22.0815 79.893 22.2382 80.3197 22.5515C80.753 22.8582 80.9697 23.3015 80.9697 23.8815C80.9697 24.2615 80.873 24.5849 80.6797 24.8515C80.493 25.1182 80.2264 25.3182 79.8797 25.4515ZM76.5097 25.1615H78.4597C78.9464 25.1615 79.3164 25.0649 79.5697 24.8715C79.8297 24.6782 79.9597 24.3949 79.9597 24.0215C79.9597 23.6482 79.8297 23.3649 79.5697 23.1715C79.3097 22.9715 78.9397 22.8715 78.4597 22.8715H76.5097V25.1615ZM78.6997 28.2915C79.773 28.2915 80.3097 27.8915 80.3097 27.0915C80.3097 26.6915 80.173 26.3982 79.8997 26.2115C79.633 26.0182 79.233 25.9215 78.6997 25.9215H76.5097V28.2915H78.6997ZM90.0404 27.3315H86.3204L85.5504 29.0815H84.5204L87.6904 22.0815H88.6804L91.8604 29.0815H90.8104L90.0404 27.3315ZM89.6904 26.5315L88.1804 23.1015L86.6704 26.5315H89.6904ZM101.589 22.0815V29.0815H100.589V25.9615H96.5685V29.0815H95.5685V22.0815H96.5685V25.0915H100.589V22.0815H101.589ZM111.082 22.9515H108.682V29.0815H107.702V22.9515H105.312V22.0815H111.082V22.9515ZM118.995 27.3315H115.275L114.505 29.0815H113.475L116.645 22.0815H117.635L120.815 29.0815H119.765L118.995 27.3315ZM118.645 26.5315L117.135 23.1015L115.625 26.5315H118.645ZM130.072 26.0015H128.742V29.0815H127.762V26.0015H126.422L124.462 29.0815H123.292L125.602 25.4415L123.462 22.0815H124.532L126.402 25.1215H127.762V22.0815H128.742V25.1215H130.082L131.962 22.0815H133.032L130.892 25.4615L133.202 29.0815H132.032L130.072 26.0015ZM136.75 22.0815H137.74V27.4815L141.88 22.0815H142.8V29.0815H141.82V23.6915L137.67 29.0815H136.75V22.0815ZM152.293 22.9515H149.893V29.0815H148.913V22.9515H146.523V22.0815H152.293V22.9515ZM156.008 22.0815H156.998V27.4815L161.138 22.0815H162.058V29.0815H161.078V23.6915L156.928 29.0815H156.008V22.0815ZM174.616 22.0815C175.523 22.0815 176.236 22.2982 176.756 22.7315C177.276 23.1649 177.536 23.7615 177.536 24.5215C177.536 25.2815 177.276 25.8782 176.756 26.3115C176.236 26.7449 175.523 26.9615 174.616 26.9615H172.886V29.0815H171.886V22.0815H174.616ZM174.586 26.0915C175.219 26.0915 175.703 25.9582 176.036 25.6915C176.369 25.4182 176.536 25.0282 176.536 24.5215C176.536 24.0149 176.369 23.6282 176.036 23.3615C175.703 23.0882 175.219 22.9515 174.586 22.9515H172.886V26.0915H174.586ZM181.505 22.0815H184.455C185.195 22.0815 185.852 22.2282 186.425 22.5215C186.998 22.8149 187.442 23.2282 187.755 23.7615C188.075 24.2882 188.235 24.8949 188.235 25.5815C188.235 26.2682 188.075 26.8782 187.755 27.4115C187.442 27.9382 186.998 28.3482 186.425 28.6415C185.852 28.9349 185.195 29.0815 184.455 29.0815H181.505V22.0815ZM184.395 28.2115C184.962 28.2115 185.458 28.1015 185.885 27.8815C186.318 27.6615 186.652 27.3549 186.885 26.9615C187.118 26.5615 187.235 26.1015 187.235 25.5815C187.235 25.0615 187.118 24.6049 186.885 24.2115C186.652 23.8115 186.318 23.5015 185.885 23.2815C185.458 23.0615 184.962 22.9515 184.395 22.9515H182.505V28.2115H184.395ZM193.267 22.9515V25.3915H196.777V26.2515H193.267V29.0815H192.267V22.0815H197.207V22.9515H193.267Z" fill="#140101"/>
<path d="M26.66 38.0815C27.5575 38.0815 29.0861 37.4738 32.0223 32.2749C33.7143 31.4988 35.5714 30.8035 37.4074 30.2593C38.7416 29.8643 40.0768 29.5538 41.3816 29.3363C43.5326 30.6565 46.0323 31.5018 47.8119 31.5018C49.7795 31.5018 49.9826 30.3888 49.9982 30.0479C50.0196 29.581 49.8531 29.1488 49.517 28.7971C48.8035 28.0502 47.3487 27.6715 45.1938 27.6715C44.1213 27.6715 42.9364 27.7682 41.6677 27.9588C40.3841 27.1121 39.3239 26.1143 38.5918 25.0629C37.9039 24.076 37.2935 22.9963 36.7747 21.8502C38.1795 17.736 38.4529 15.0338 37.5871 13.8168C37.2446 13.336 36.7372 13.0815 36.1193 13.0815C35.4294 13.0815 34.8654 13.3865 34.4884 13.9635C33.3687 15.6768 34.2386 19.2546 35.3617 21.9054C34.8385 23.3824 34.1856 24.974 33.4662 26.526C32.655 28.2768 31.8528 29.8688 31.081 31.2618C28.8764 32.3049 25.3609 34.2443 25.0272 36.1315C24.9308 36.6785 25.0919 37.1799 25.4934 37.5813C25.8207 37.9085 26.2241 38.0815 26.66 38.0815ZM45.1935 28.9874C47.6849 28.9874 48.4039 29.5371 48.5651 29.7057C48.6754 29.821 48.6868 29.9132 48.682 30.0032C48.657 30.0421 48.4367 30.1857 47.8116 30.1857C46.8347 30.1857 45.2902 29.8288 43.6279 29.0535C44.1747 29.0096 44.6976 28.9874 45.1935 28.9874ZM35.5903 14.6832C35.7212 14.4829 35.8795 14.3974 36.1193 14.3974C36.3396 14.3974 36.4366 14.4702 36.5144 14.5793C36.9003 15.1218 36.9262 16.7963 36.0107 19.9113C35.1644 17.374 35.1216 15.4002 35.5903 14.6832ZM34.6604 27.079C35.1902 25.9357 35.6853 24.7702 36.1213 23.6418L36.1388 23.681L36.1665 23.6007C36.5755 24.3763 37.0253 25.1168 37.5116 25.8149C38.112 26.6771 38.9005 27.5024 39.8321 28.249L39.7001 28.2696L39.7565 28.3057C38.8541 28.4968 37.943 28.7285 37.0337 28.9979C35.7053 29.3915 34.3653 29.8621 33.0803 30.3846L33.1217 30.3104L33.0695 30.3349C33.5927 29.3243 34.125 28.2352 34.6604 27.079ZM26.3233 36.3604C26.4322 35.7443 27.5611 34.6488 29.8299 33.3807C27.7981 36.5793 26.8515 36.7657 26.66 36.7657C26.597 36.7657 26.5247 36.7518 26.4239 36.6513C26.3161 36.5429 26.3052 36.4629 26.3233 36.3604Z" fill="#ED1D24"/>
</svg>
