<svg preserveAspectRatio="xMidYMid slice" id="floor--svg"  viewBox="0 0 1920 1213" version="1.0" xmlns="http://www.w3.org/2000/svg"><polygon  data-sec="1" data-build="1" data-floor="2" class="s3d-svg__house js-s3d-svg__house" points="691.25,926.75,690,901.75,717.5,903,738.5,903.75,757,903.75,777,906,813.5,910,849,914.75,883.75,921,917.75,926,959.75,935.5,1004,949.75,1117,945,1116.75,918.5,1117.75,904,1131,902,1145.25,899.25,1158,894.75,1157.75,907,1141,910.5,1125.5,915.25,1117.25,920.25,1117.25,973,1003.5,979,982.5,971.5,958.25,964,929.5,957.5,899.25,950.25,849.25,942,797,936.75,757.25,931.5"></polygon><polygon  data-sec="1" data-build="1" data-floor="3" class="s3d-svg__house js-s3d-svg__house" points="690,901.25,689.75,872,716.75,873,737.5,872.75,756.5,874.25,776.25,876,814.5,879.5,849.25,884,883.5,887.25,915.25,891.75,943.5,897.5,970.75,903.5,1003,911,1117.25,904.5,1118.5,885.5,1124.5,883,1135.5,881,1143.75,878.75,1157.75,875.5,1158,895,1145,899,1131.25,902.25,1117.75,904.5,1117,945.5,1004,950,959,935.5,917.25,926,883.75,921.25,848.5,914.75,813,910,775.5,905.75,756.75,904,716.75,903"></polygon><polygon  data-sec="1" data-build="1" data-floor="4" class="s3d-svg__house js-s3d-svg__house" points="689.5,872,689.5,855.75,716.75,858.75,737.5,860.5,756,862,775.75,862.75,794.75,865,813.25,866.5,849,870.25,865.75,872,899.5,876.25,928.75,881.25,956.75,886.75,982.5,893.25,1003,894.75,1116.5,890,1118,889.5,1117.5,885.5,1119,884.5,1118.5,863.5,1157.5,855,1157.5,875,1144.25,878.25,1123.75,882.5,1118.25,887.25,1117.25,904.25,1003,911.5,970.25,903.25,942.75,897.25,915,892,883,887,848,884,814.25,880.25,775,876.25,755.25,874.5,737,873.25,715.75,873.5"></polygon><polygon  data-sec="1" data-build="1" data-floor="5" class="s3d-svg__house js-s3d-svg__house" points="690.25,855.75,690.25,835.5,736.25,837.25,776,840.25,795.25,842,831.75,845.25,866.5,849,899,853.25,930.5,858.25,957.5,862.75,993,871.5,1003,872.75,1117.25,868.75,1117,862.75,1118.5,862.75,1118.75,841,1157,835.5,1157.75,854.75,1117.75,865,1118.5,889.75,1003,894.25,981.5,894,956.25,887,928,881,899.25,876.75,865.75,872.25,849.5,870,813.25,866.75,794.75,865.25,775.5,862.5,756,862,736.75,860.5,716.25,858.75"></polygon><polygon  data-sec="1" data-build="1" data-floor="6" class="s3d-svg__house js-s3d-svg__house" points="689.75,835.5,690,814.5,716,815.5,737.5,815,775.25,818,795.25,818.75,832.25,822.75,866.5,826,899.5,829.75,930.5,833,970,840.25,1002.25,846.75,1115.75,842,1117.75,841.75,1118.75,820.5,1156.75,813.25,1157,836.25,1118.75,841.5,1118.25,870,1002.25,872.75,992.5,871.5,957,862.25,930.75,858,899,853,865.5,848.5,832,845.5,794.75,842.25,776.25,840.25,735.75,837.5"></polygon><polygon  data-sec="1" data-build="1" data-floor="7" class="s3d-svg__house js-s3d-svg__house" points="689.5,814.75,689.75,790.5,716.5,791.75,737.25,793.5,756.75,794.5,795.75,797,831.75,799.75,866.75,802.25,899.25,804.75,930.5,809.5,957.25,813.25,981.75,817.75,1002.75,822.25,1117.75,818.25,1118.5,800.25,1157.5,794.5,1157.25,813.25,1118,820.75,1118.5,842,1002.5,847.25,969.5,840.5,929.75,832.5,898.5,829.75,866.25,825.75,831.25,822.75,794.5,819.25,775.5,818,737.25,815.5,716.5,815.75"></polygon><polygon  data-sec="1" data-build="1" data-floor="8" class="s3d-svg__house js-s3d-svg__house" points="689,791.5,689.25,770.25,736.25,772.75,756.75,773.75,794,775.75,832,777.25,882.75,780.5,929.5,785,970,790.75,1002.25,795.5,1117.25,791,1119,790.25,1118.25,777.25,1157.25,771.25,1157.5,794.75,1118.75,800.25,1118,817.75,1002.5,822.75,981.5,818,956.25,813.25,930,809.25,899,804.75,866.5,802.25,831.25,800,795.5,797,757,794.75,736.25,793.75,716,792.5"></polygon><polygon  data-sec="1" data-build="1" data-floor="9" class="s3d-svg__house js-s3d-svg__house" points="689.25,769.75,689.5,749.5,736,749.75,775,751.5,813.75,754,849,755.25,882.5,756.75,914.75,759.75,944,763.75,968.75,766,1001.75,770,1117,766.75,1118.5,766.5,1118.75,756.5,1157.25,750.5,1157,771.5,1117.75,776.75,1118,791,1002,796,970.25,791,929.5,785.25,882,780.75,832.25,777.5,793.75,776.25,735.75,772.75,689.5,772"></polygon><polygon  data-sec="1" data-build="1" data-floor="10" class="s3d-svg__house js-s3d-svg__house" points="689,749.5,689.75,727,736.75,727.5,776,728.5,813.5,729.75,848.5,732.5,898,734.5,942.25,738.25,982.25,743,1002,744,1118.25,743.5,1118.5,736,1157.75,730.5,1157.25,750,1118.75,755.5,1119,766.5,1001.25,770,969.5,766,943.25,763.75,914.75,759.5,882,756.75,848.75,756,813.25,754.25,774.75,751.25,735.75,750.5"></polygon><polygon  data-sec="1" data-build="1" data-floor="11" class="s3d-svg__house js-s3d-svg__house" points="689.25,727,689.75,705.5,716.25,704.75,737,704.75,757,705,775.75,706.25,813,707,849.25,707.75,899.25,710,930.5,712,970.25,715.75,994.75,718,1118.75,718.25,1118.5,714.75,1157,711.75,1157.5,730.5,1119.25,735.25,1119,743,1001.75,744.5,981.75,742.75,941.75,738.25,898,734.75,847.75,732.75,812.5,729.75,775.5,729,736.5,728.25"></polygon><polygon  data-sec="1" data-build="1" data-floor="12" class="s3d-svg__house js-s3d-svg__house" points="689.5,705,689.75,683,716.75,682.25,737.75,682,757,683,794.75,684.25,832.5,684.75,866.25,685.75,899.5,687,943.75,690.75,981.5,692.25,993.75,692.75,1118.5,694,1157.5,692,1157.5,711.5,1118.5,714.75,1118.5,718.25,994.5,718.5,970,716.25,930,712.5,899.25,710,848.5,708.25,812.5,707,775.75,706.5,756.75,705.5,736.75,705.25,716,704.75"></polygon><polygon  data-sec="1" data-build="1" data-floor="13" class="s3d-svg__house js-s3d-svg__house" points="689.75,683.25,689.75,661.25,717.5,660.75,757.5,662,795.25,662.75,831,663.75,866.25,664,900,664.75,932,665.25,971.5,667,999.5,667.25,1118.5,668.75,1156.75,668,1157,691.5,1119.25,693.75,994,693.25,981.5,691.5,944,691,899.25,687,865.25,686,832,684.5,794.5,684.5,756.25,683.25,738,682.75,717,682"></polygon><polygon  data-sec="1" data-build="1" data-floor="14" class="s3d-svg__house js-s3d-svg__house" points="689.75,661,690.25,640.25,736.75,640.5,776,640,812.75,640,866.5,640,914.25,640.25,957,640.75,994.25,640.5,998.75,640.25,1118,642.5,1156,643.5,1156.75,667.75,1118,668.5,999.5,667.5,970.75,666.75,932,665,899.25,665.25,865.75,664.25,830.25,664,794.5,663,757,662.5,717,661.25"></polygon><polygon  data-sec="1" data-build="1" data-floor="15" class="s3d-svg__house js-s3d-svg__house" points="689.75,640,690.5,617.5,736,616.5,775.75,617,814.25,616.75,848.5,618,914.25,617,943.25,616,1003,616.25,1156,619,1156.25,642.75,999,640,994.5,640.5,956.75,641,914,640.75,866,639.75,812.75,640,775.75,639.75,737,640.75"></polygon><polygon  data-sec="1" data-build="1" data-floor="16" class="s3d-svg__house js-s3d-svg__house" points="690.75,618.25,691.25,596,737,595.75,775.75,595.25,814,594.75,850,594,882.75,594,914.5,593.75,969,593.25,994.25,591.5,1118.25,593,1118.75,599,1156.25,600,1156.5,619.25,1001.75,616,943,616.5,848.25,617.75,813.5,616.75,775.25,616.75,735.5,617"></polygon><polygon  data-sec="1" data-build="1" data-floor="17" class="s3d-svg__house js-s3d-svg__house" points="691.25,595.5,691,575.25,736.75,574.75,775.75,573.5,831,572.5,882.75,571.5,929.25,569.75,969.25,567.5,993.75,566.25,1118.75,567,1156,568.75,1156,600.25,1118.25,598,1118.25,594.75,1118.25,593.5,994.5,591.5,968.5,593.5,913.5,594.5,882.5,593.5,849.75,594.25,813.5,595.25"></polygon><polygon  data-sec="1" data-build="1" data-floor="18" class="s3d-svg__house js-s3d-svg__house" points="690.75,574.5,691.25,551.75,737,551.5,776,551,831,550,882.5,547.5,929.25,545.75,969.25,544.5,994,541.75,1002.5,540.5,1117.5,542,1156.5,546,1156.5,569,1118.25,566.75,993.75,566.25,970,567.5,928.75,570,883,571.5,830.75,572.5,736.25,574.25"></polygon><polygon  data-sec="1" data-build="1" data-floor="19" class="s3d-svg__house js-s3d-svg__house" points="690.5,551.5,690.75,529.75,737,529.5,776,529.5,831.75,527.5,882.75,524.25,929,521.5,970.75,519,1002.25,514.75,1118.75,516.25,1156.5,520.75,1156.75,546.25,1116.75,541.25,1002.5,540.5,993,541.75,969.25,545.25,927.75,546,882.75,547.75,831,550.25,736.75,551.75"></polygon><polygon  data-sec="1" data-build="1" data-floor="20" class="s3d-svg__house js-s3d-svg__house" points="691.25,530,691.5,510.25,737,507.25,795.25,505.5,848.5,503.5,883.25,501.5,929.75,497.5,971.25,493.5,1003.25,489.5,1118,490.5,1156.75,497.75,1156.5,520.75,1118.25,516,1002.25,515,969.5,519,928.5,522,883,524.25,830.5,527.75,736.75,530.5,690.75,531.5"></polygon><polygon  data-sec="1" data-build="1" data-floor="21" class="s3d-svg__house js-s3d-svg__house" points="691,509.75,690.5,486,736.5,485.75,775.75,484.25,814.25,482.25,866.5,479.5,913.75,475.75,957.5,471,993.75,466.75,1003,465.5,1118,467.25,1118.25,470,1156.75,477.5,1156.75,497.75,1117.75,490.25,1003.25,489,970.5,493,929,497.75,848.5,503.5,794.5,505.5"></polygon><polygon  data-sec="1" data-build="1" data-floor="22" class="s3d-svg__house js-s3d-svg__house" points="690.25,486.25,690.75,465.5,736.75,464,775.25,461.75,813.75,460,849,456.75,899.75,453.75,944.25,447.5,982.25,441.75,1002.75,438.25,1118.5,438.75,1119,450.25,1156.75,458.5,1157,477,1118.75,470.5,1118.5,467.75,1002.5,465.25,993,466.75,957,471,913.5,475.5,865.25,479.75,775.75,484,735.25,486"></polygon><polygon  data-sec="1" data-build="1" data-floor="23" class="s3d-svg__house js-s3d-svg__house" points="691,465.75,691,444.5,737.25,441.25,775,439.5,831.75,435.25,882.75,431.25,943,423.25,994,414,1003,412.5,1118,414.5,1118.5,439,1156.75,447,1156.75,458,1119.25,449.75,1118.75,438.75,1002.5,437.75,982,442,943.25,448,899.5,453.5,848.5,457.25,813,460,775.5,462.25,736.25,463.75"></polygon><polygon  data-sec="1" data-build="1" data-floor="24" class="s3d-svg__house js-s3d-svg__house" points="690.5,444.25,690.75,421.25,737,418.5,775.75,416.5,814,415.75,865.5,409,914,403.5,957.75,396.75,1003,385.75,1117.75,387.5,1118.5,414.5,1156.5,423,1156.5,446.5,1118.75,437.75,1119,415.25,1002.25,412.5,994.25,414.25,942.75,422.5,882.75,431.25,773.5,439.25,736.25,441.75"></polygon><polygon  data-sec="1" data-build="1" data-floor="25" class="s3d-svg__house js-s3d-svg__house" points="691.25,421.5,691,400.75,736,398.25,775.25,395,814,392,850.5,387.75,882.75,384.5,929.5,377.5,976.5,368.5,1002.75,362.75,1117.25,362.5,1118.25,387.75,1155.75,395,1156.5,422.75,1119,415.25,1118.25,388.5,1002.75,385.25,957.5,397,913,403.5,864.5,408.75,813.75,415.75,736.75,418.75"></polygon><polygon  data-sec="1" data-build="1" data-floor="26" class="s3d-svg__house js-s3d-svg__house" points="690.5,401.25,691.5,379,755.5,374.25,812.75,369,867.5,362.25,945.5,350,1003.25,334.75,1116.5,337.75,1117,362.75,1156.5,371.25,1156.25,395,1118.5,388.25,1117,363,1003.25,362.5,975.75,368.75,929.5,377.5,882.25,384.75,813.75,391.5,775,395,735.75,398"></polygon><polygon  data-sec="1" data-build="1" data-floor="27" class="s3d-svg__house js-s3d-svg__house" points="691,378.5,692.25,336,747.25,332,805,326.75,876.25,317,945,302.75,1002.25,285,1115,290.5,1116,337.75,1117,337.75,1117,342.5,1156,353.75,1156.75,371.25,1117,362.25,1115.5,337.75,1003.25,334.5,944.5,349.75,866,362.25,755,374.5"></polygon></svg>