<svg preserveAspectRatio="xMidYMid slice" id="floor--svg"  viewBox="0 0 1920 1213" version="1.0" xmlns="http://www.w3.org/2000/svg"><polygon  data-sec="1" data-build="1" data-floor="2" class="s3d-svg__house js-s3d-svg__house" points="690.66666666667,902.83333333333,707.16666666667,903.5,746.66666666667,906.5,786,910.16666666667,823.66666666667,914.16666666667,859,919,892.33333333333,924.83333333333,923.16666666667,930.5,952.5,937.66666666667,978.5,944.33333333333,1003.3333333333,950.5,1117.1666666667,945.83333333333,1118.664352417,894.46297200521,1158.0666656494,884.89998372396,1158.5,906.88891601562,1117.3333333333,918.83333333333,1117,971.88891601562,1003.1666666667,979.22224934896,977.33333333333,969.05558268229,951.16666666667,961.05558268229,907.66666666667,951.22224934896,874.5,945.22224934896,840.5,940.88891601562,803.16666666667,936.5,767.16666666667,932.83333333333,737.16666666667,930.33333333333,691.33333333333,928.16666666667"></polygon><polygon  data-sec="1" data-build="1" data-floor="3" class="s3d-svg__house js-s3d-svg__house" points="690.5,880.5,728,882.66666666667,767.83333333333,885.66666666667,805.33333333333,888.66666666667,841.83333333333,893.33333333333,875,897.16666666667,908.5,903.33333333333,937.83333333333,908.5,965.5,915.33333333333,1003.6666666667,924.5,1117.3333333333,918.83333333333,1119.5,876.83333333333,1157.6666666667,868.16666666667,1158.0666656494,884.89998372396,1118.664352417,894.46297200521,1117.1666666667,945.83333333333,1003.3333333333,950.5,978.5,944.33333333333,952.5,937.66666666667,923.16666666667,930.5,892.33333333333,924.83333333333,859,919,823.66666666667,914.16666666667,786,910.16666666667,746.66666666667,906.5,707.16666666667,903.5,690.66666666667,902.83333333333"></polygon><polygon  data-sec="1" data-build="1" data-floor="4" class="s3d-svg__house js-s3d-svg__house" points="689.83333333333,859.44441731771,706.33101908366,859.75927734375,746.66435241699,862.42594401042,786.33101908366,865.09261067708,823.16435241699,868.75927734375,858.99768575033,872.25927734375,891.83101908366,876.42594401042,922.83101908366,882.09261067708,951.83101908366,887.92594401042,977.83333333333,893.72224934896,1003,898.88891601562,1118.664352417,894.46297200521,1118.8310190837,854.29630533854,1157.164352417,844.96297200521,1157.6666666667,868.16666666667,1119.5,876.83333333333,1117.3333333333,918.83333333333,1003.6666666667,924.5,965.5,915.33333333333,937.83333333333,908.5,908.5,903.33333333333,875,897.16666666667,841.83333333333,893.33333333333,805.33333333333,888.66666666667,767.83333333333,885.66666666667,728,882.66666666667,690.5,880.5"></polygon><polygon  data-sec="1" data-build="1" data-floor="5" class="s3d-svg__house js-s3d-svg__house" points="689.63588968913,837.59090169271,705.66471354167,837.33333333333,746.998046875,839.66666666667,786.16471354167,842.16666666667,822.33138020833,846.16666666667,858.66471354167,850.16666666667,892.16471354167,853.16666666667,922.83138020833,857.83333333333,951.498046875,862.66666666667,977.83138020833,868.5,1002.998046875,873.5,1119.0666656494,870.43334960938,1118.8999989827,832.26668294271,1156.8999989827,823.76668294271,1157.164352417,844.96297200521,1118.8310190837,854.29630533854,1118.664352417,894.46297200521,1003,898.88891601562,977.83333333333,893.72224934896,951.83101908366,887.92594401042,922.83101908366,882.09261067708,891.83101908366,876.42594401042,858.99768575033,872.25927734375,823.16435241699,868.75927734375,786.33101908366,865.09261067708,746.66435241699,862.42594401042,706.33101908366,859.75927734375,689.83333333333,859.44441731771"></polygon><polygon  data-sec="1" data-build="1" data-floor="6" class="s3d-svg__house js-s3d-svg__house" points="689.66471354167,815.16666666667,706.33138020833,815.16666666667,746.66471354167,817.16666666667,786.16471354167,820.16666666667,822.83138020833,823.16666666667,858.83138020833,826,892.16471354167,829,938.33138020833,836,964.83138020833,840.66666666667,1003.6647135417,847.66666666667,1118.664352417,844.20369466146,1118.3310190837,810.37036132812,1156.9976857503,803.37036132812,1156.8999989827,823.76668294271,1118.8999989827,832.26668294271,1119.0666656494,870.43334960938,1002.998046875,873.5,977.83138020833,868.5,951.498046875,862.66666666667,922.83138020833,857.83333333333,892.16471354167,853.16666666667,858.66471354167,850.16666666667,822.33138020833,846.16666666667,786.16471354167,842.16666666667,746.998046875,839.66666666667,705.66471354167,837.33333333333,689.63588968913,837.59090169271"></polygon><polygon  data-sec="1" data-build="1" data-floor="7" class="s3d-svg__house js-s3d-svg__house" points="690.13588968913,793.95450846354,726.80255635579,794.45450846354,766.96922302246,796.28784179688,805.13588968913,799.12117513021,840.46922302246,801.95450846354,875.63588968913,804.78784179688,907.96922302246,807.95450846354,937.46922302246,811.78784179688,964.63588968913,816.45450846354,1003.3025563558,823.62117513021,1119.1358896891,821.12117513021,1118.866666158,788.63330078125,1157.5,782.16666666667,1156.9976857503,803.37036132812,1118.3310190837,810.37036132812,1118.664352417,844.20369466146,1003.6647135417,847.66666666667,964.83138020833,840.66666666667,938.33138020833,836,892.16471354167,829,858.83138020833,826,822.83138020833,823.16666666667,786.16471354167,820.16666666667,746.66471354167,817.16666666667,706.33138020833,815.16666666667,689.66471354167,815.16666666667"></polygon><polygon  data-sec="1" data-build="1" data-floor="8" class="s3d-svg__house js-s3d-svg__house" points="689.63588968913,772.12117513021,706.96922302246,771.95450846354,747.30255635579,773.78784179688,786.46922302246,775.62117513021,823.96922302246,777.45450846354,858.63588968913,780.12117513021,907.46922302246,784.62117513021,937.96922302246,787.62117513021,977.80255635579,793.62117513021,1002.9692230225,798.12117513021,1119.0666656494,795.43334960938,1118.664352417,767.88891601562,1157.3999989827,763.93334960938,1157.5,782.16666666667,1118.866666158,788.63330078125,1119.1358896891,821.12117513021,1003.3025563558,823.62117513021,964.63588968913,816.45450846354,937.46922302246,811.78784179688,907.96922302246,807.95450846354,875.63588968913,804.78784179688,840.46922302246,801.95450846354,805.13588968913,799.12117513021,766.96922302246,796.28784179688,726.80255635579,794.45450846354,690.13588968913,793.95450846354"></polygon><polygon  data-sec="1" data-build="1" data-floor="9" class="s3d-svg__house js-s3d-svg__house" points="689.83101908366,750.72224934896,727.33101908366,750.72224934896,766.66435241699,752.38891601562,804.99768575033,754.55558268229,841.33101908366,756.05558268229,875.49768575033,757.72224934896,907.33101908366,760.72224934896,937.83101908366,763.05558268229,964.83101908366,766.72224934896,1003.4976857503,771.72224934896,1118.664352417,767.88891601562,1118.9976857503,749.72224934896,1157.164352417,746.05558268229,1157.3999989827,763.93334960938,1118.664352417,767.88891601562,1119.0666656494,795.43334960938,1002.9692230225,798.12117513021,977.80255635579,793.62117513021,937.96922302246,787.62117513021,907.46922302246,784.62117513021,858.63588968913,780.12117513021,823.96922302246,777.45450846354,786.46922302246,775.62117513021,747.30255635579,773.78784179688,706.96922302246,771.95450846354,689.63588968913,772.12117513021"></polygon><polygon  data-sec="1" data-build="1" data-floor="10" class="s3d-svg__house js-s3d-svg__house" points="689.83333333333,728.33333333333,706.66666666667,727.83333333333,747.33333333333,728.16666666667,786.33333333333,730.16666666667,823.33333333333,731.5,859.16666666667,733.5,892,735.66666666667,923.16666666667,737.83333333333,952.5,740.27775065104,978.5,742.77775065104,1003.3333333333,745.44441731771,1118.6666666667,743.61108398438,1119.1358896891,725.93937174479,1135.6358896891,723.60603841146,1156.8025563558,721.10603841146,1157.164352417,746.05558268229,1118.9976857503,749.72224934896,1118.664352417,767.88891601562,1003.4976857503,771.72224934896,964.83101908366,766.72224934896,937.83101908366,763.05558268229,907.33101908366,760.72224934896,875.49768575033,757.72224934896,841.33101908366,756.05558268229,804.99768575033,754.55558268229,766.66435241699,752.38891601562,727.33101908366,750.72224934896,689.83101908366,750.72224934896"></polygon><polygon  data-sec="1" data-build="1" data-floor="11" class="s3d-svg__house js-s3d-svg__house" points="690.33333333333,707.05558268229,747.66666666667,706.88891601562,786.66666666667,707.88891601562,824.33333333333,708.88891601562,859.66666666667,710.38891601562,892.33333333333,711.88891601562,923.16666666667,713.55558268229,963.83333333333,716.55558268229,993.66666666667,719.22224934896,1004,720.22224934896,1119,718.22224934896,1119.498046875,703.66666666667,1156.998046875,701.83333333333,1156.8025563558,721.10603841146,1135.6358896891,723.60603841146,1119.1358896891,725.93937174479,1118.6666666667,743.61108398438,1003.3333333333,745.44441731771,978.5,742.77775065104,952.5,740.27775065104,923.16666666667,737.83333333333,892,735.66666666667,859.16666666667,733.5,823.33333333333,731.5,786.33333333333,730.16666666667,747.33333333333,728.16666666667,706.66666666667,727.83333333333,689.83333333333,728.33333333333"></polygon><polygon  data-sec="1" data-build="1" data-floor="12" class="s3d-svg__house js-s3d-svg__house" points="690.66471354167,684.375,727.33138020833,684.54166666667,767.33138020833,685.20833333333,804.83138020833,686.04166666667,840.83138020833,687.04166666667,875.66471354167,687.875,907.498046875,689.375,937.83138020833,690.20833333333,964.998046875,692.20833333333,993.66435241699,694.48152669271,1003.164352417,693.64819335938,1118.4976857503,693.48152669271,1118.664352417,682.31486002604,1156.664352417,680.31486002604,1156.998046875,701.83333333333,1119.498046875,703.66666666667,1119,718.22224934896,1004,720.22224934896,993.66666666667,719.22224934896,963.83333333333,716.55558268229,923.16666666667,713.55558268229,892.33333333333,711.88891601562,859.66666666667,710.38891601562,824.33333333333,708.88891601562,786.66666666667,707.88891601562,747.66666666667,706.88891601562,690.33333333333,707.05558268229"></polygon><polygon  data-sec="1" data-build="1" data-floor="13" class="s3d-svg__house js-s3d-svg__house" points="690.66471354167,662.33333333333,727.16471354167,663,766.66471354167,663.5,804.66471354167,664,841.33138020833,663.66666666667,875.83138020833,664.66666666667,907.998046875,665.16666666667,937.83138020833,666,965.66471354167,667,992.498046875,668.16666666667,1002.998046875,666.16666666667,1118.998046875,667.16666666667,1119.664352417,660.83333333333,1156.8310190837,659.5,1156.664352417,680.31486002604,1118.664352417,682.31486002604,1118.4976857503,693.48152669271,1003.164352417,693.64819335938,993.66435241699,694.48152669271,964.998046875,692.20833333333,937.83138020833,690.20833333333,907.498046875,689.375,875.66471354167,687.875,840.83138020833,687.04166666667,804.83138020833,686.04166666667,767.33138020833,685.20833333333,727.33138020833,684.54166666667,690.66471354167,684.375"></polygon><polygon  data-sec="1" data-build="1" data-floor="14" class="s3d-svg__house js-s3d-svg__house" points="691.16435241699,640.72224934896,726.66435241699,640.55558268229,766.83101908366,640.88891601562,803.83101908366,640.38891601562,839.99768575033,641.05558268229,875.99768575033,641.22224934896,907.66435241699,642.05558268229,937.16435241699,642.22224934896,964.99768575033,642.38891601562,991.99768575033,643.05558268229,1003.3310190837,641.38891601562,1119.3333333333,640,1157.1666666667,640.16666666667,1156.8310190837,659.5,1119.664352417,660.83333333333,1118.998046875,667.16666666667,1002.998046875,666.16666666667,992.498046875,668.16666666667,965.66471354167,667,937.83138020833,666,907.998046875,665.16666666667,875.83138020833,664.66666666667,841.33138020833,663.66666666667,804.66471354167,664,766.66471354167,663.5,727.16471354167,663,690.66471354167,662.33333333333"></polygon><polygon  data-sec="1" data-build="1" data-floor="15" class="s3d-svg__house js-s3d-svg__house" points="691.33333333333,618.16666666667,727.33333333333,618.16666666667,767.16666666667,618,805.5,617.83333333333,841.66666666667,618,876.16666666667,617.83333333333,907.66666666667,617.83333333333,937.83333333333,618,965,617.83333333333,993.33333333333,616.66666666667,1003.3333333333,615.33333333333,1118.6666666667,615.66666666667,1119.5,619,1157,619.16666666667,1157.1666666667,640.16666666667,1119.3333333333,640,1003.3310190837,641.38891601562,991.99768575033,643.05558268229,964.99768575033,642.38891601562,937.16435241699,642.22224934896,907.66435241699,642.05558268229,875.99768575033,641.22224934896,839.99768575033,641.05558268229,803.83101908366,640.38891601562,766.83101908366,640.88891601562,726.66435241699,640.55558268229,691.16435241699,640.72224934896"></polygon><polygon  data-sec="1" data-build="1" data-floor="16" class="s3d-svg__house js-s3d-svg__house" points="691.23333231608,596.80000813802,707.39999898275,597.06665039062,747.89999898275,596.73331705729,787.06666564941,596.39998372396,824.23333231608,595.73331705729,859.56666564941,595.56665039062,892.73333231608,594.89998372396,924.06666564941,594.56665039062,964.56666564941,593.39998372396,993.56666564941,592.56665039062,1003.5666656494,590.06665039062,1118.8999989827,590.89998372396,1119.2333323161,598.23331705729,1156.7333323161,599.39998372396,1157,619.16666666667,1119.5,619,1118.6666666667,615.66666666667,1003.3333333333,615.33333333333,993.33333333333,616.66666666667,965,617.83333333333,937.83333333333,618,907.66666666667,617.83333333333,876.16666666667,617.83333333333,841.66666666667,618,805.5,617.83333333333,767.16666666667,618,727.33333333333,618.16666666667,691.33333333333,618.16666666667"></polygon><polygon  data-sec="1" data-build="1" data-floor="17" class="s3d-svg__house js-s3d-svg__house" points="691.13588968913,574.40905761719,727.63588968913,574.57572428385,766.80255635579,574.24239095052,805.30255635579,573.40905761719,841.96922302246,572.57572428385,875.80255635579,571.74239095052,907.96922302246,570.40905761719,938.30255635579,569.24239095052,964.96922302246,568.57572428385,993.13588968913,567.40905761719,1003.6358896891,564.74239095052,1118.4692230225,565.57572428385,1118.9692230225,577.07572428385,1156.9692230225,578.74239095052,1156.7333323161,599.39998372396,1119.2333323161,598.23331705729,1118.8999989827,590.89998372396,1003.5666656494,590.06665039062,993.56666564941,592.56665039062,964.56666564941,593.39998372396,924.06666564941,594.56665039062,892.73333231608,594.89998372396,859.56666564941,595.56665039062,824.23333231608,595.73331705729,787.06666564941,596.39998372396,747.89999898275,596.73331705729,707.39999898275,597.06665039062,691.23333231608,596.80000813802"></polygon><polygon  data-sec="1" data-build="1" data-floor="18" class="s3d-svg__house js-s3d-svg__house" points="690.66435241699,552.16666666667,726.83101908366,551.83333333333,767.66435241699,551.66666666667,804.99768575033,550.5,841.83101908366,549.5,876.16435241699,548.83333333333,907.66435241699,547.33333333333,937.33101908366,545.83333333333,964.66435241699,543.83333333333,991.99768575033,541.83333333333,1003.4976857503,538.83333333333,1118.664352417,539.5,1119,555,1135.8333333333,555.66666666667,1157.1666666667,557.83333333333,1156.9692230225,578.74239095052,1118.9692230225,577.07572428385,1118.4692230225,565.57572428385,1003.6358896891,564.74239095052,993.13588968913,567.40905761719,964.96922302246,568.57572428385,938.30255635579,569.24239095052,907.96922302246,570.40905761719,875.80255635579,571.74239095052,841.96922302246,572.57572428385,805.30255635579,573.40905761719,766.80255635579,574.24239095052,727.63588968913,574.57572428385,691.13588968913,574.40905761719"></polygon><polygon  data-sec="1" data-build="1" data-floor="19" class="s3d-svg__house js-s3d-svg__house" points="690.83138020833,530.54166666667,728.16666666667,529.66666666667,767.66666666667,529.5,805.66666666667,528.33333333333,842,526.66666666667,876.5,524.83333333333,907.66666666667,523,937.5,521.16666666667,965.16666666667,518.66666666667,991.33333333333,516.33333333333,1003.8333333333,512.5,1119,512.94445800781,1119.5,532.5,1136.5,535.83333333333,1157.1666666667,538.33333333333,1157.1666666667,557.83333333333,1135.8333333333,555.66666666667,1119,555,1118.664352417,539.5,1003.4976857503,538.83333333333,991.99768575033,541.83333333333,964.66435241699,543.83333333333,937.33101908366,545.83333333333,907.66435241699,547.33333333333,876.16435241699,548.83333333333,841.83101908366,549.5,804.99768575033,550.5,767.66435241699,551.66666666667,726.83101908366,551.83333333333,690.66435241699,552.16666666667"></polygon><polygon  data-sec="1" data-build="1" data-floor="20" class="s3d-svg__house js-s3d-svg__house" points="690.83138020833,508.58333333333,707.498046875,508.375,747.16471354167,507.20833333333,786.998046875,505.875,823.998046875,504.20833333333,859.66471354167,502.875,892.33138020833,500.54166666667,923.83138020833,498.54166666667,951.66471354167,495.20833333333,977.33138020833,491.20833333333,991.66471354167,488.375,1004.1647135417,484.54166666667,1118.7333323161,484.86665852865,1119,512.94445800781,1135.6666666667,514.44445800781,1157.1666666667,517.94445800781,1157.1666666667,538.33333333333,1136.5,535.83333333333,1119.5,532.5,1119,512.94445800781,1003.8333333333,512.5,991.33333333333,516.33333333333,965.16666666667,518.66666666667,937.5,521.16666666667,907.66666666667,523,876.5,524.83333333333,842,526.66666666667,805.66666666667,528.33333333333,767.66666666667,529.5,728.16666666667,529.66666666667,690.83138020833,530.54166666667"></polygon><polygon  data-sec="1" data-build="1" data-floor="21" class="s3d-svg__house js-s3d-svg__house" points="690.49768575033,487.20373535156,726.80255635579,486.74243164062,767.46922302246,484.90909830729,805.46922302246,482.90909830729,841.63588968913,480.57576497396,876.30255635579,478.90909830729,908.13588968913,476.24243164062,938.30255635579,473.57576497396,965.46922302246,469.90909830729,989.30255635579,466.40909830729,1003.3025563558,462.07576497396,1117.9692230225,463.40909830729,1119.1358896891,491.07576497396,1136.3025563558,493.40909830729,1157.1358896891,496.74243164062,1157.1666666667,517.94445800781,1135.6666666667,514.44445800781,1119,512.94445800781,1118.7333323161,484.86665852865,1004.1647135417,484.54166666667,991.66471354167,488.375,977.33138020833,491.20833333333,951.66471354167,495.20833333333,923.83138020833,498.54166666667,892.33138020833,500.54166666667,859.66471354167,502.875,823.998046875,504.20833333333,786.998046875,505.875,747.16471354167,507.20833333333,707.498046875,508.375,690.83138020833,508.58333333333"></polygon><polygon  data-sec="1" data-build="1" data-floor="22" class="s3d-svg__house js-s3d-svg__house" points="690.83333333333,464.5,727.83333333333,464.66666666667,767.83333333333,463,806.33333333333,461,842,458.33333333333,875.5,455,909,451.83333333333,937.73333231608,448.66666666667,965.39999898275,444.83333333333,990.23333231608,440,1003.5666656494,436.33333333333,1118.3333333333,437.83333333333,1118.6666666667,449.33333333333,1119.0666656494,469.56665039062,1136.5666656494,472.89998372396,1157.0666656494,475.89998372396,1157.1358896891,496.74243164062,1136.3025563558,493.40909830729,1119.1358896891,491.07576497396,1117.9692230225,463.40909830729,1003.3025563558,462.07576497396,989.30255635579,466.40909830729,965.46922302246,469.90909830729,938.30255635579,473.57576497396,908.13588968913,476.24243164062,876.30255635579,478.90909830729,841.63588968913,480.57576497396,805.46922302246,482.90909830729,767.46922302246,484.90909830729,726.80255635579,486.74243164062,690.49768575033,487.20373535156"></polygon><polygon  data-sec="1" data-build="1" data-floor="23" class="s3d-svg__house js-s3d-svg__house" points="691.16666666667,443,727.16666666667,442,767.66666666667,440,805.16666666667,438.33333333333,841.16666666667,435.5,875.99768575033,432.0185139974,908.66435241699,428.68518066406,937.99768575033,425.35184733073,964.49768575033,420.18518066406,989.33101908366,415.18518066406,1003.6666666667,410.33333333333,1117.6666666667,413.66666666667,1118.2333323161,427.33333333333,1118.6666666667,449.33333333333,1135.3333333333,452,1156.8333333333,455.66666666667,1157.0666656494,475.89998372396,1136.5666656494,472.89998372396,1119.0666656494,469.56665039062,1118.6666666667,449.33333333333,1118.3333333333,437.83333333333,1003.5666656494,436.33333333333,990.23333231608,440,965.39999898275,444.83333333333,937.73333231608,448.66666666667,909,451.83333333333,875.5,455,842,458.33333333333,806.33333333333,461,767.83333333333,463,727.83333333333,464.66666666667,690.83333333333,464.5"></polygon><polygon  data-sec="1" data-build="1" data-floor="24" class="s3d-svg__house js-s3d-svg__house" points="691.33333333333,421.5,707,421.16666666667,747.83333333333,419.16666666667,786.33333333333,417,824.16666666667,413.83333333333,859.5,410.5,892.33333333333,405.83333333333,923.66666666667,402.83333333333,951.83333333333,397.5,978,392.83333333333,1003.1666666667,386.22220865885,1117.8333333333,390.05554199219,1118.0952402751,406.35713704427,1118.2333323161,427.33333333333,1136.5666656494,431.66666666667,1156.8999989827,434.83333333333,1156.8333333333,455.66666666667,1135.3333333333,452,1118.6666666667,449.33333333333,1117.6666666667,413.66666666667,1003.6666666667,410.33333333333,989.33101908366,415.18518066406,964.49768575033,420.18518066406,937.99768575033,425.35184733073,908.66435241699,428.68518066406,875.99768575033,432.0185139974,841.16666666667,435.5,805.16666666667,438.33333333333,767.66666666667,440,727.16666666667,442,691.16666666667,443"></polygon><polygon  data-sec="1" data-build="1" data-floor="25" class="s3d-svg__house js-s3d-svg__house" points="691,399.16666666667,728.23333231608,398.16666666667,767.73333231608,395.83333333333,805.56666564941,393.16666666667,841.73333231608,389.16666666667,876.39999898275,385.33333333333,908.56666564941,380.83333333333,937.73333231608,375.83333333333,965.73333231608,370.16666666667,989.73333231608,364.33333333333,1003.2619069417,358.85713704427,1118.4285736084,361.97619628906,1118.2619069417,384.02380371094,1118.0952402751,406.35713704427,1135.5952402751,410.1904703776,1156.9285736084,415.02380371094,1156.8999989827,434.83333333333,1136.5666656494,431.66666666667,1118.2333323161,427.33333333333,1117.8333333333,390.05554199219,1003.1666666667,386.22220865885,978,392.83333333333,951.83333333333,397.5,923.66666666667,402.83333333333,892.33333333333,405.83333333333,859.5,410.5,824.16666666667,413.83333333333,786.33333333333,417,747.83333333333,419.16666666667,707,421.16666666667,691.33333333333,421.5"></polygon><polygon  data-sec="1" data-build="1" data-floor="26" class="s3d-svg__house js-s3d-svg__house" points="691,376.83333333333,727.80255635579,375.66666666667,767.63588968913,373,805.63588968913,369.5,842.30255635579,366.33333333333,876.46922302246,361.33333333333,908.63588968913,357,937.46922302246,351,965.96922302246,344.33333333333,989.63588968913,338,1003.6666666667,333.16666666667,1115.3333333333,337.5,1115.6666666667,341.16666666667,1118.5952402751,343.64286295573,1118.4285736084,361.97619628906,1118.2619069417,384.02380371094,1135.9285736084,388.6904703776,1156.5952402751,391.85713704427,1156.9285736084,415.02380371094,1135.5952402751,410.1904703776,1118.0952402751,406.35713704427,1118.4285736084,361.97619628906,1003.2619069417,358.85713704427,989.73333231608,364.33333333333,965.73333231608,370.16666666667,937.73333231608,375.83333333333,908.56666564941,380.83333333333,876.39999898275,385.33333333333,841.73333231608,389.16666666667,805.56666564941,393.16666666667,767.73333231608,395.83333333333,728.23333231608,398.16666666667,691,399.16666666667"></polygon><polygon  data-sec="1" data-build="1" data-floor="27" class="s3d-svg__house js-s3d-svg__house" points="690.66666666667,353.66666666667,736.83333333333,351.16666666667,775.83333333333,347.66666666667,813.33333333333,343.83333333333,849.83333333333,339.16666666667,882.5,334.83333333333,915,329.16666666667,943.66666666667,322.66666666667,969.5,316.33333333333,993.83333333333,308.66666666667,1003.6666666667,305.66666666667,1115.6666666667,310.16666666667,1115.6666666667,341.16666666667,1118.5952402751,343.64286295573,1118.4285736084,361.97619628906,1129.9285736084,364.97619628906,1149.0952402751,368.8095296224,1156.7619069417,369.14286295573,1156.5952402751,391.85713704427,1135.9285736084,388.6904703776,1118.2619069417,384.02380371094,1118.8333333333,344,1115.6666666667,341.33333333333,1115.3333333333,337.5,1003.6666666667,333.16666666667,989.63588968913,338,965.96922302246,344.33333333333,937.46922302246,351,908.63588968913,357,876.46922302246,361.33333333333,842.30255635579,366.33333333333,805.63588968913,369.5,767.63588968913,373,727.80255635579,375.66666666667,691,376.83333333333"></polygon></svg>