<svg preserveAspectRatio="xMidYMid slice" id="floor--svg"  viewBox="0 0 1920 1213" version="1.0" xmlns="http://www.w3.org/2000/svg"><polygon  data-sec="1" data-build="1" data-floor="2" class="s3d-svg__house js-s3d-svg__house" points="655.5,912.5,655.75,935.5,687,936.75,710.75,937.75,735.25,938.75,780,940.25,814.75,942.75,871.25,947,943.5,955.75,1069.5,975,1150.25,958.75,1151,930.75,1067.5,941.5,1018,937.25,984.5,934,944,929,903.5,924.25,880.5,922.25,859.5,919.75,837.5,918.75,815.25,917.75,792.25,916.5,746.5,914.5,655.25,910"></polygon><polygon  data-sec="1" data-build="1" data-floor="3" class="s3d-svg__house js-s3d-svg__house" points="655,910,656,889,687,889.25,710.75,890.25,734.5,891,757,891.25,780.25,892,803.25,893.25,826.5,894.75,848,895.5,870.25,896.75,892.25,898.5,913,901,934.75,903.75,954,905.75,975,907.5,994.5,910.5,1014.25,913,1033.5,915.5,1066.75,918.25,1150.25,909,1150.5,931.25,1067.5,942,1017.75,937,984.25,934.25,943.75,928.75,902.75,924,880,922,860,919.75,839.25,919,815,917.75,792.25,917,746.25,914.75"></polygon><polygon  data-sec="1" data-build="1" data-floor="4" class="s3d-svg__house js-s3d-svg__house" points="656.25,889,656,867.75,686.5,867.75,711,868.25,734.75,868.5,757.75,869,781,869.75,804,871.5,826.5,872,849,873.75,870.5,874.5,891.75,876.5,914,878,934.75,879.5,954.25,882.25,974.25,884,994.75,887.25,1013.75,889,1033.25,891.25,1065.25,892.25,1149.75,884.75,1150.25,909,1067,918.5,1033,915.5,1013.75,912.75,994.75,910.25,974.5,907.75,953.5,906.25,913,901.25,891,899,870.75,896.75,847.75,896.25,826.5,894.5,779.5,892,757,891.5,734.25,890.5,710.75,890.5,687,889"></polygon><polygon  data-sec="1" data-build="1" data-floor="5" class="s3d-svg__house js-s3d-svg__house" points="655.5,868,656,844.25,687.25,844.75,710.5,844.5,734.5,845.5,757.75,845.75,780.25,846.5,803.5,848,826,848.75,848.5,849.25,870.5,851,891.5,852.25,913.5,855,933.25,856.25,954.5,857.5,976,858.75,994.75,861.5,1014,863.75,1034.75,865.25,1064.25,868.75,1149.5,861.75,1149.75,884.5,1065.25,892.5,1033,891.25,1013.25,888.5,994.5,887.75,973.75,884,954.25,881.5,935,879.5,913.5,878,890.25,876.5,869.75,874.75,849.25,873.5,826.5,872,803.75,871.5,780.75,870,757.5,868.75,734.5,868.5,710,868.25,686.25,868.25"></polygon><polygon  data-sec="1" data-build="1" data-floor="6" class="s3d-svg__house js-s3d-svg__house" points="655.5,820.5,686.75,821.25,710.75,822,734.5,823,757.5,823,780.75,823.75,804.25,824.75,826,825,848.75,826.5,870.5,827.75,892.25,829,912.5,830.25,935,832.25,955.25,833.75,975.25,835.75,995,838,1014,839.25,1032.5,841.75,1065.25,841.5,1149.5,837.25,1149.75,861.5,1063.75,868.75,1034.25,865,1013.75,864.25,993.5,861,975.75,858.5,953.25,858,932,856.25,913,855.25,890.75,853,869.75,851.25,848.25,849,825,848.75,803.25,847.75,779.75,846.75,757.75,846,733.75,845.25,710.75,844.5,686.25,844.75,655.25,843.75"></polygon><polygon  data-sec="1" data-build="1" data-floor="7" class="s3d-svg__house js-s3d-svg__house" points="655.5,820.5,655.75,797,688,798.5,710.75,798.25,735,798.75,757.5,799.5,781,799.75,803.75,800.75,827,802.25,848.75,802.75,870.5,804,892.5,805,913.5,806,934.75,807.5,954.75,809.75,975.25,811.75,994.25,813.75,1014.5,814.5,1033.5,816,1064.25,817,1149.25,812.5,1150.25,837.5,1065,841.25,1032,842.25,1013.75,839,994.75,838.25,975.25,835.75,955,834.25,934.75,832.25,912.25,830.25,892.25,829,870,828.5,848.5,826.25,825.5,825,803.75,825.25,780.75,823.75,756.75,823.25,734.25,823,711,822,686.75,821.25"></polygon><polygon  data-sec="1" data-build="1" data-floor="8" class="s3d-svg__house js-s3d-svg__house" points="655.45383453369,797.47723388672,655.95383453369,775.97723388672,686.95383453369,776.72723388672,710.70383453369,776.72723388672,734.45383453369,777.47723388672,757.70383453369,777.72723388672,780.70383453369,777.72723388672,803.95383453369,778.47723388672,826.70383453369,779.47723388672,848.70383453369,779.47723388672,870.20383453369,780.72723388672,891.95383453369,782.22723388672,913.45383453369,783.72723388672,934.70383453369,784.22723388672,954.45383453369,784.97723388672,974.95383453369,786.97723388672,994.45383453369,787.97723388672,1014.4538345337,789.47723388672,1032.7038345337,791.97723388672,1064.7038345337,793.47723388672,1149.9538345337,787.72723388672,1149.4538345337,812.22723388672,1063.9538345337,817.47723388672,1032.7038345337,816.47723388672,1014.4538345337,814.72723388672,992.95383453369,813.72723388672,973.95383453369,811.22723388672,953.45383453369,809.47723388672,933.45383453369,806.97723388672,912.45383453369,806.22723388672,891.45383453369,804.72723388672,869.45383453369,803.72723388672,847.95383453369,802.72723388672,826.45383453369,802.22723388672,803.95383453369,800.97723388672,780.45383453369,799.72723388672,757.70383453369,799.47723388672,734.95383453369,799.22723388672,710.20383453369,798.47723388672,688.20383453369,798.47723388672"></polygon><polygon  data-sec="1" data-build="1" data-floor="9" class="s3d-svg__house js-s3d-svg__house" points="655.75,775.25,655.25,752,688.25,753,711.25,753.25,735,753.25,758,753.75,781,754.25,804,754.5,826,756,849.5,756.5,870.75,756.75,891.25,757.75,913,759.25,934.75,760,955,761.25,975,762.5,994.5,763.75,1014.5,765,1033.5,766.25,1051.5,767.75,1064.5,768.25,1150.25,763.5,1150.25,787.5,1065,793.5,1032.5,791.75,1014,789,994,788.5,974.75,786.5,954.75,784,933.5,784.25,913,783.25,891.5,782,870,781,848.5,779.5,826.75,778.75,803.75,779,780.25,777.25,757.25,777.5,734.25,777.25,710.75,776.5,686.5,776.25"></polygon><polygon  data-sec="1" data-build="1" data-floor="10" class="s3d-svg__house js-s3d-svg__house" points="655.75,752.25,656,729.75,688.25,730,711.5,731,734.5,731,758.25,731.5,781.25,732.25,803.25,732.5,826.25,733,849.5,733.75,871.5,734,893.5,735.5,913.5,735.75,934.5,736.5,954.75,737.5,975.25,739,995,739.75,1015,740.75,1033.5,741,1065.75,742.25,1150,739.75,1150.25,764,1064.75,768.25,1051.25,767.75,1033,765.75,1014,764.75,994,763.75,974.75,762,955.25,761.5,934.5,759.25,912.5,759,890.75,758.25,871,756.75,848.75,757,825.5,755.75,803.75,754.25,780.5,753.5,757.5,753.25,735,753,710.25,752.75,687.25,753"></polygon><polygon  data-sec="1" data-build="1" data-floor="11" class="s3d-svg__house js-s3d-svg__house" points="656.5,729.25,656.75,707.75,688.5,708.25,711.5,708,735.25,708,757.5,707.5,781.25,708,804,707.75,827.25,709,848.25,710,871,711,892.5,711.25,913.5,712.25,955,713.25,994.25,714.5,1033.25,715.75,1066,716.5,1149.5,714,1149.75,739.75,1065.75,742.25,1033.25,740.75,1014.75,741,994.5,739.25,975,739,954.25,737.25,934.25,736.5,913.25,735,870.75,734.75,825.5,732.75,801.75,733,780.25,731.75,757.5,731.25,734.75,731.75,711,730.75,687.5,729.75"></polygon><polygon  data-sec="1" data-build="1" data-floor="12" class="s3d-svg__house js-s3d-svg__house" points="656.75,707.5,656,685.25,688,686,711.75,686.5,736.25,686.25,758.25,686.5,781.5,686.75,804,688,827,687.5,848.75,688.25,870.25,687.75,892.5,688.75,913.5,688.5,934.75,689.75,954.5,689.75,975,690.75,994.25,690.25,1014.5,691.25,1032.75,691.25,1065.25,692.25,1150,689.75,1149.25,713.75,1066,716,1033.25,716.5,993.75,714,955,713.25,912.75,712,892,710.75,870.5,711.25,847.75,709.5,826.25,708.75,803.5,707.75,781,708.25,757.5,707.25,734.25,708.25,711,707.75,688,708.25"></polygon><polygon  data-sec="1" data-build="1" data-floor="13" class="s3d-svg__house js-s3d-svg__house" points="656.25,685,656.5,663.5,687.75,662.5,711.25,662.25,734.25,662.25,758.25,663.25,782,663,804.25,663.5,827,664.25,849.25,664.5,871,664.5,892.25,665.5,913.75,665,935,665.75,955,666.25,974.75,666.75,994.5,667,1014.25,666.75,1032.25,668.25,1051.5,668.25,1064.5,668.75,1149.75,666.5,1150,689.75,1065,692.5,1032.75,691,1014,691.5,993.5,690,974.5,691,954.25,689.75,934.75,689.75,912.75,688.75,892,688.5,870.25,688.75,826.75,687.5,781.75,687.5,758.5,686.75,735.5,686.25,712,686.75,688,686"></polygon><polygon  data-sec="1" data-build="1" data-floor="14" class="s3d-svg__house js-s3d-svg__house" points="656.25,663.75,657,640.5,687.75,640.5,711.25,640.5,734.75,640.75,758,641,781,640.5,804,641,826.25,641.75,848.75,641.5,870.5,641.75,892.5,641.75,914.25,641.5,935.25,641.5,954.5,641.25,974.75,641.5,994.75,641.5,1014.25,641.75,1032,642,1051,642.75,1064.75,643,1149.25,641.75,1149.75,667,1063.5,668.5,1051.25,667.75,1031.5,668,1013.25,667,993.5,667,973.75,666.75,954.25,666,934.25,665.5,913,665.25,891.5,665.25,870.25,664.75,849.5,664.75,827,664.25,804,664.25,781.25,663.25,758.5,663.75,734.25,662.25,711.25,662.25,688.25,662.75"></polygon><polygon  data-sec="1" data-build="1" data-floor="15" class="s3d-svg__house js-s3d-svg__house" points="657,640.25,656.75,617.75,687.25,617.5,711.25,617,735,617.5,758,617.75,780.75,617.25,803.25,617.5,826.5,617.75,848.75,618.25,870.75,617.25,892.75,617.75,913.75,617.25,934.75,618.25,954.25,618,974.75,617.75,994.75,618.5,1013.75,617.75,1031.5,617.75,1064.25,618,1148.25,617,1148.75,641.5,1065,643.5,1051.5,642.5,1032,642,1014,641.5,993.75,641.5,974.25,641.75,953.75,641.5,934.25,641.25,913.75,641.75,892.5,641.75,869.75,641.75,848,642,825.25,641.75,804.25,640.5,780.5,641.25,757.25,641.25,733.5,640.75"></polygon><polygon  data-sec="1" data-build="1" data-floor="16" class="s3d-svg__house js-s3d-svg__house" points="656.5,617.25,657.5,594.75,687.5,594.75,711,594.75,735,595.25,758.25,595.75,781.25,595.5,803.5,595.25,826.75,594.75,849,595.25,870.5,595.25,892.75,595,913.5,594.25,934.25,594,954.25,593.5,975,594,994.75,593.75,1013,593.75,1032.75,592.75,1065.25,592.5,1148,593.5,1148,617.25,1063.75,618.5,1030.75,617.25,1013.25,617.5,994,618.5,974.75,618,953.75,618.25,933.25,618.25,913.75,617.75,892,618.25,871,617.75,848.5,618.25,802.25,617.75,757.75,618,711.5,617,688,617.5"></polygon><polygon  data-sec="1" data-build="1" data-floor="17" class="s3d-svg__house js-s3d-svg__house" points="657.25,594,657.25,571,687.75,572,711.25,572.25,735.25,572.25,758.25,572.25,781.75,573,804,572.5,826.75,572,848.75,572,870.75,572.25,892,571.75,913.75,571,934,571,954.5,569.75,974.75,569.75,994.5,569,1013.25,569.25,1033.5,568.25,1065.25,568.25,1147,568,1147.5,593.75,1064.75,591.5,1032.25,593,1013,593.75,994.75,593.5,974.75,593.75,953.75,594,934.25,594.75,913,594.25,891.5,595.75,870,595.75,848.5,594.75,825.5,594.75,781,595,735,595.25,686.5,595"></polygon><polygon  data-sec="1" data-build="1" data-floor="18" class="s3d-svg__house js-s3d-svg__house" points="656.25,570.75,657,548,688,548.75,712.25,548.75,735.5,548.5,758.5,548.75,781,549,804.25,549.5,827.5,548.75,848.25,548.5,870.5,548.25,893.5,547.5,913.25,547.75,933.75,547.25,955,546.5,975,545,994.5,544.5,1014.25,544.75,1033.25,543.75,1064.5,543,1147.5,543.25,1147.25,567.75,1065,568.25,1032.4538345337,568.63635253906,1012.9538345337,568.63635253906,993.70383453369,569.13635253906,974.45383453369,569.88635253906,953.70383453369,570.38635253906,933.45383453369,570.88635253906,913.20383453369,571.38635253906,891.45383453369,572.13635253906,870.20383453369,572.38635253906,847.95383453369,572.38635253906,826.45383453369,572.63635253906,803.45383453369,572.88635253906,781.45383453369,573.38635253906,757.70383453369,572.38635253906,734.95383453369,572.63635253906,710.95383453369,572.38635253906,686.95383453369,571.88635253906"></polygon><polygon  data-sec="1" data-build="1" data-floor="19" class="s3d-svg__house js-s3d-svg__house" points="656.5,547.5,657,527.25,687.5,526.75,712.25,526.75,735,526.75,757.75,526.5,781.5,525.5,803.5,525.25,826.5,525.25,849,525,870.5,524,892.5,524,914.25,523.75,934.75,523.25,954.25,523,975.5,522.5,994.75,521,1013.75,520.25,1032.5,519.5,1064.5,519,1148,518.75,1147.75,543.25,1064.25,542.75,1032.75,544,1014,544.5,993.5,544.5,974.5,545.75,954.25,546.25,933.25,547.25,912.5,547.5,892.75,548,870.25,548.25,847.75,548.75,826.75,548.75,804,548.5,780.5,549,757.25,549.25,711.5,549.25,656.75,549"></polygon><polygon  data-sec="1" data-build="1" data-floor="20" class="s3d-svg__house js-s3d-svg__house" points="656.5,526.75,656.25,505.25,712,504.25,736,504.25,758.5,504,781.5,503.5,803.5,502.75,826.75,502.75,849.25,502.25,870.5,501.5,892.25,500.5,913.5,500.25,934.75,499,954.5,498.75,975.25,497.25,995.25,496.5,1014.5,495.75,1032,494.25,1052.25,493.25,1065.25,493.5,1147.5,493.75,1147.75,519,1064.5,519.25,1031.75,519.5,1013.75,520.25,994.5,521.5,974.75,522.75,953.75,523.25,933.75,523.25,913.25,524,891.25,523.75,869.75,524.25,847.75,526,802.75,525.75,757,526.5,711.5,527.5,687.5,527.5,656.5,528"></polygon><polygon  data-sec="1" data-build="1" data-floor="21" class="s3d-svg__house js-s3d-svg__house" points="656.34999847412,505,656.59999847412,482.75,687.84999847412,481.75,711.84999847412,481.25,735.34999847412,481.25,758.34999847412,480.75,780.59999847412,480.25,803.59999847412,480.25,827.34999847412,480,848.84999847412,479.25,871.09999847412,479,892.34999847412,477.25,913.59999847412,477,934.84999847412,475.25,955.09999847412,473.75,974.59999847412,473.5,1013.5999984741,471.25,1063.8499984741,467.25,1148.5999984741,469.25,1148.3499984741,493.75,1065.3499984741,493.75,1052.3499984741,493.5,1031.8499984741,494.25,1014.5999984741,496,995.09999847412,496.5,974.84999847412,497,954.59999847412,498.5,934.09999847412,499.5,913.59999847412,500.5,892.34999847412,501,870.84999847412,501.5,848.84999847412,502.75,826.09999847412,503,803.34999847412,502.75,781.34999847412,504.25,759.34999847412,503.75,711.59999847412,504.25"></polygon><polygon  data-sec="1" data-build="1" data-floor="22" class="s3d-svg__house js-s3d-svg__house" points="656.59999847412,483,656.84999847412,460.75,687.59999847412,460,711.59999847412,459.5,735.09999847412,459,757.59999847412,458.25,781.84999847412,458.25,803.84999847412,457.5,827.09999847412,456.75,848.84999847412,455.5,869.59999847412,455.5,893.59999847412,454.75,913.59999847412,453.75,934.59999847412,452,954.59999847412,451.25,994.59999847412,447.25,1034.5999984741,444,1065.3499984741,441.5,1148.8499984741,444.25,1148.8499984741,469.25,1064.0999984741,467.5,1013.5999984741,471.25,974.34999847412,473.25,954.59999847412,473.75,914.09999847412,476.75,870.59999847412,479,826.59999847412,480,803.09999847412,480.25,780.59999847412,480.25,757.84999847412,481.25,735.09999847412,481.25,711.59999847412,481.75,687.34999847412,482.25"></polygon><polygon  data-sec="1" data-build="1" data-floor="23" class="s3d-svg__house js-s3d-svg__house" points="656.45383453369,460.5,656.95383453369,437.5,687.70383453369,436.75,711.70383453369,436.5,734.70383453369,436,757.95383453369,435.25,780.20383453369,434.5,803.70383453369,434,826.70383453369,432.75,849.20383453369,432,870.95383453369,431.5,892.95383453369,431,912.95383453369,429.75,934.45383453369,428.04544067383,953.95383453369,426.79544067383,974.20383453369,425.54544067383,994.20383453369,424.04544067383,1014.4538345337,422.06817626953,1065.2038345337,417.06817626953,1148.2038345337,420.81817626953,1148.2038345337,444.79544067383,1064.7038345337,442.04544067383,1033.9538345337,444.29544067383,993.95383453369,447.04544067383,954.20383453369,450.79544067383,934.45383453369,452.54544067383,912.20383453369,454.54544067383,869.45383453369,455.54544067383,826.70383453369,457.54544067383,780.45383453369,458.29544067383,734.45383453369,459.29544067383,686.95383453369,460.29544067383"></polygon><polygon  data-sec="1" data-build="1" data-floor="24" class="s3d-svg__house js-s3d-svg__house" points="656.70383453369,437.79544067383,656.95383453369,416.04544067383,687.45383453369,414.79544067383,711.45383453369,414.29544067383,734.45383453369,414.04544067383,757.95383453369,413.29544067383,781.70383453369,413.54544067383,803.70383453369,412.04544067383,825.95383453369,411.29544067383,869.95383453369,408.04544067383,913.20383453369,406.54544067383,954.45383453369,403.54544067383,994.45383453369,400.29544067383,1031.9538345337,394.54544067383,1064.4538345337,391.54544067383,1148.7038345337,397.04544067383,1148.2038345337,420.54544067383,1064.9538345337,417.29544067383,1014.2038345337,422.54544067383,993.45383453369,424.54544067383,974.20383453369,426.04544067383,952.95383453369,427.29544067383,933.70383453369,428.79544067383,911.70383453369,430.29544067383,892.45383453369,430.79544067383,870.20383453369,432.04544067383,848.45383453369,432.04544067383,803.20383453369,434.29544067383,779.95383453369,434.54544067383,733.70383453369,436.29544067383,686.95383453369,437.54544067383"></polygon><polygon  data-sec="1" data-build="1" data-floor="25" class="s3d-svg__house js-s3d-svg__house" points="656.45383453369,416.04544067383,656.70383453369,393.54544067383,687.95383453369,392.04544067383,712.20383453369,391.79544067383,735.45383453369,391.29544067383,758.95383453369,390.54544067383,780.95383453369,389.54544067383,802.95383453369,388.79544067383,826.70383453369,388.04544067383,849.20383453369,386.79544067383,870.45383453369,385.04544067383,892.70383453369,384.29544067383,934.70383453369,380.79544067383,974.45383453369,377.29544067383,1013.9538345337,373.04544067383,1051.4538345337,368.79544067383,1064.7038345337,367.29544067383,1148.4538345337,373.29544067383,1148.2038345337,397.29544067383,1063.7038345337,391.29544067383,1031.7038345337,394.79544067383,993.95383453369,399.79544067383,952.95383453369,403.04544067383,911.95383453369,406.29544067383,869.45383453369,408.29544067383,824.95383453369,411.29544067383,803.20383453369,412.54544067383,781.45383453369,413.54544067383,757.45383453369,413.04544067383,733.70383453369,414.54544067383,711.45383453369,414.29544067383,686.95383453369,415.54544067383"></polygon><polygon  data-sec="1" data-build="1" data-floor="26" class="s3d-svg__house js-s3d-svg__house" points="656.25,393.5,656.75,370.5,688,369,711.5,368.5,735,368,758.25,367.5,803,366,827,364.25,848.75,362.25,871.25,361.5,892.25,360,913.75,358.75,935,357.25,954.75,354.75,974.5,352,1013.75,346.75,1065.25,340.25,1148.25,347.25,1148.75,373,1064.75,367.25,1050.75,369.25,1013.75,373.25,973.5,376.75,934.5,381.5,892.75,384.25,869.75,385,848,387,826.25,388,802.25,388.75,780.5,389.25,758.5,390.75,735.5,391.5,711.25,392.25,688,392.5"></polygon><polygon  data-sec="1" data-build="1" data-floor="27" class="s3d-svg__house js-s3d-svg__house" points="657,370,658.25,325.25,722,323.75,768.5,322.25,815.75,319.75,860.25,316,913.25,311.25,965.75,305,1024.25,297.5,1065.25,289.5,1149,299.25,1148.5,346.75,1065,340,1013.75,346.75,974,352.25,954.75,355.25,934.25,357.25,892.75,359.75,870.75,361.25,849.25,362,826.25,364.75,803,366,758.25,367.75,711.75,369"></polygon></svg>