<svg preserveAspectRatio="xMidYMid slice" id="floor--svg"  viewBox="0 0 1920 1213" version="1.0" xmlns="http://www.w3.org/2000/svg"><polygon  data-sec="1" data-build="1" data-floor="2" class="s3d-svg__house js-s3d-svg__house" points="1150.8313802083,936.04166666667,1067.8313802083,943.54166666667,1052.498046875,941.375,1014.1647135417,936.375,975.33138020833,931.70833333333,933.66471354167,926.70833333333,892.33138020833,923.04166666667,848.66471354167,919.54166666667,803.83138020833,916.70833333333,757.498046875,914.375,710.498046875,913.04166666667,655.83138020833,912.54166666667,656,936.16666666667,698.33333333333,937.5,747.66666666667,939.16666666667,792.5,941.16666666667,847,944.16666666667,890.33333333333,947.5,934.33333333333,952.16666666667,975.33333333333,959.16666666667,1015,966.83333333333,1067.3333333333,976.22224934896,1151.1666666667,965.33333333333"></polygon><polygon  data-sec="1" data-build="1" data-floor="3" class="s3d-svg__house js-s3d-svg__house" points="1150.6653645833,910.91666666667,1068.6653645833,919.25,1052.1653645833,917.91666666667,1013.9986979167,912.25,974.99869791667,907.75,933.83333333333,904.27775065104,892,899.61108398438,849.16666666667,896.27775065104,804,894.44441731771,757.83333333333,891.61108398438,711.16666666667,890.27775065104,656.5,890.11108398438,655.83138020833,912.54166666667,710.498046875,913.04166666667,757.498046875,914.375,803.83138020833,916.70833333333,848.66471354167,919.54166666667,892.33138020833,923.04166666667,933.66471354167,926.70833333333,975.33138020833,931.70833333333,1014.1647135417,936.375,1052.498046875,941.375,1067.8313802083,943.54166666667,1150.8313802083,936.04166666667"></polygon><polygon  data-sec="1" data-build="1" data-floor="4" class="s3d-svg__house js-s3d-svg__house" points="1150.6666666667,890.11108398438,1067.8333333333,894.27775065104,1051.3333333333,893.11108398438,1014.3333333333,887.77775065104,975.66666666667,883.77775065104,934.33333333333,879.77775065104,892.5,876.11108398438,849.16666666667,873.44441731771,803.16666666667,870.94441731771,757.66666666667,869.44441731771,711.16666666667,867.66666666667,656.5,867.16666666667,656.5,890.11108398438,711.16666666667,890.27775065104,757.83333333333,891.61108398438,804,894.44441731771,849.16666666667,896.27775065104,892,899.61108398438,933.83333333333,904.27775065104,974.99869791667,907.75,1013.9986979167,912.25,1052.1653645833,917.91666666667,1068.6653645833,919.25,1150.6653645833,910.91666666667"></polygon><polygon  data-sec="1" data-build="1" data-floor="5" class="s3d-svg__house js-s3d-svg__house" points="1150.6666666667,862.88891601562,1067.6666666667,866.88891601562,1052,867.22224934896,1014.1653645833,863.5,974.66536458333,859.33333333333,934.49869791667,855,891.16536458333,851.83333333333,848.99869791667,849,803.66536458333,846.33333333333,757.49869791667,846.33333333333,710.66536458333,845,656.49869791667,844.5,656.5,867.16666666667,711.16666666667,867.66666666667,757.66666666667,869.44441731771,803.16666666667,870.94441731771,849.16666666667,873.44441731771,892.5,876.11108398438,934.33333333333,879.77775065104,975.66666666667,883.77775065104,1014.3333333333,887.77775065104,1051.3333333333,893.11108398438,1067.8333333333,894.27775065104,1150.6666666667,890.11108398438"></polygon><polygon  data-sec="1" data-build="1" data-floor="6" class="s3d-svg__house js-s3d-svg__house" points="1150.6666666667,839.55558268229,1067.8333333333,842.88891601562,1052.5,841.88891601562,1014,838.22224934896,975,834.88891601562,935.16666666667,832.22224934896,891.83333333333,829.22224934896,848.33333333333,826.88891601562,803.66666666667,824.22224934896,757,823.55558268229,710.66666666667,823.88891601562,656.33333333333,822.88891601562,656.49869791667,844.5,710.66536458333,845,757.49869791667,846.33333333333,803.66536458333,846.33333333333,848.99869791667,849,891.16536458333,851.83333333333,934.49869791667,855,974.66536458333,859.33333333333,1014.1653645833,863.5,1052,867.22224934896,1067.6666666667,866.88891601562,1150.6666666667,862.88891601562"></polygon><polygon  data-sec="1" data-build="1" data-floor="7" class="s3d-svg__house js-s3d-svg__house" points="1151.1647135417,813.04166666667,1067.3313802083,818.375,1014.498046875,813.875,974.498046875,811.20833333333,934.16471354167,807.04166666667,891.66471354167,805.375,848.33138020833,802.875,803.33138020833,800.54166666667,757.83138020833,800.20833333333,710.66471354167,799.20833333333,656.33138020833,799.20833333333,656.33333333333,822.88891601562,710.66666666667,823.88891601562,757,823.55558268229,803.66666666667,824.22224934896,848.33333333333,826.88891601562,891.83333333333,829.22224934896,935.16666666667,832.22224934896,975,834.88891601562,1014,838.22224934896,1052.5,841.88891601562,1067.8333333333,842.88891601562,1150.6666666667,839.55558268229"></polygon><polygon  data-sec="1" data-build="1" data-floor="8" class="s3d-svg__house js-s3d-svg__house" points="1150.6666666667,789.61108398438,1067,793.61108398438,1014.5,788.77775065104,974.5,786.11108398438,934.66666666667,783.61108398438,892.33333333333,781.77775065104,849.16666666667,779.77775065104,803.33333333333,777.77775065104,758.33333333333,777.44441731771,710.33333333333,776.44441731771,656.33333333333,776.11108398438,656.33138020833,799.20833333333,710.66471354167,799.20833333333,757.83138020833,800.20833333333,803.33138020833,800.54166666667,848.33138020833,802.875,891.66471354167,805.375,934.16471354167,807.04166666667,974.498046875,811.20833333333,1014.498046875,813.875,1067.3313802083,818.375,1151.1647135417,813.04166666667"></polygon><polygon  data-sec="1" data-build="1" data-floor="9" class="s3d-svg__house js-s3d-svg__house" points="1150.6653645833,764.5,1067.6653645833,767.33333333333,1013.9986979167,765,974.16536458333,761.83333333333,934.66536458333,759,891.66536458333,757,849.49869791667,755.5,803.99869791667,755.33333333333,757.49869791667,754.33333333333,710.16536458333,754,656.49869791667,754,656.33333333333,776.11108398438,710.33333333333,776.44441731771,758.33333333333,777.44441731771,803.33333333333,777.77775065104,849.16666666667,779.77775065104,892.33333333333,781.77775065104,934.66666666667,783.61108398438,974.5,786.11108398438,1014.5,788.77775065104,1067,793.61108398438,1150.6666666667,789.61108398438"></polygon><polygon  data-sec="1" data-build="1" data-floor="10" class="s3d-svg__house js-s3d-svg__house" points="1150.6653645833,740.41666666667,1068.1653645833,741.91666666667,1033.4986979167,741.75,994.99869791667,738.75,954.16536458333,736.41666666667,912.49869791667,735.41666666667,871.49869791667,733.91666666667,827.49869791667,732.41666666667,778.99869791667,731.41666666667,710.99869791667,730.75,656.49869791667,731.41666666667,656.49869791667,754,710.16536458333,754,757.49869791667,754.33333333333,803.99869791667,755.33333333333,849.49869791667,755.5,891.66536458333,757,934.66536458333,759,974.16536458333,761.83333333333,1013.9986979167,765,1067.6653645833,767.33333333333,1150.6653645833,764.5"></polygon><polygon  data-sec="1" data-build="1" data-floor="11" class="s3d-svg__house js-s3d-svg__house" points="1151,716.11108398438,1068,716.94441731771,1051,717.77775065104,1014.3333333333,714.94441731771,975.33333333333,712.94441731771,934.33333333333,712.11108398438,892.5,711.61108398438,849,710.27775065104,803.33333333333,709.11108398438,758.5,709.44441731771,711,708.94441731771,656.66666666667,708.77775065104,656.49869791667,731.41666666667,710.99869791667,730.75,778.99869791667,731.41666666667,827.49869791667,732.41666666667,871.49869791667,733.91666666667,912.49869791667,735.41666666667,954.16536458333,736.41666666667,994.99869791667,738.75,1033.4986979167,741.75,1068.1653645833,741.91666666667,1150.6653645833,740.41666666667"></polygon><polygon  data-sec="1" data-build="1" data-floor="12" class="s3d-svg__house js-s3d-svg__house" points="1150.9986979167,690.25,1066.998046875,691.16666666667,1050.6647135417,692.33333333333,1013.8313802083,690.66666666667,974.83138020833,689.66666666667,934.498046875,687.83333333333,892.33138020833,687,848.66471354167,686.5,803.33101908366,686.83333333333,757.66435241699,686.33333333333,710.49768575033,686.83333333333,656.33101908366,686.33333333333,656.66666666667,708.77775065104,711,708.94441731771,758.5,709.44441731771,803.33333333333,709.11108398438,849,710.27775065104,892.5,711.61108398438,934.33333333333,712.11108398438,975.33333333333,712.94441731771,1014.3333333333,714.94441731771,1051,717.77775065104,1068,716.94441731771,1151,716.11108398438"></polygon><polygon  data-sec="1" data-build="1" data-floor="13" class="s3d-svg__house js-s3d-svg__house" points="1150.498046875,665.16666666667,1067.998046875,666.83333333333,1051.498046875,667,1014.1647135417,666.33333333333,975.33138020833,665.5,933.998046875,664.83333333333,892.83138020833,663.83333333333,848.998046875,663.83333333333,803.83138020833,663.16666666667,757.998046875,663.66666666667,711.498046875,663.5,656.498046875,663.5,656.33101908366,686.33333333333,710.49768575033,686.83333333333,757.66435241699,686.33333333333,803.33101908366,686.83333333333,848.66471354167,686.5,892.33138020833,687,934.498046875,687.83333333333,974.83138020833,689.66666666667,1013.8313802083,690.66666666667,1050.6647135417,692.33333333333,1066.998046875,691.16666666667,1150.9986979167,690.25"></polygon><polygon  data-sec="1" data-build="1" data-floor="14" class="s3d-svg__house js-s3d-svg__house" points="1149.9986979167,641.33333333333,1067.6653645833,641.83333333333,1052.1653645833,642.5,1014.4986979167,641.83333333333,975.49869791667,641.83333333333,935.16536458333,641.33333333333,892.49869791667,641,848.99869791667,640.5,803.99869791667,640.5,758.49869791667,640,711.16536458333,640.33333333333,656.99869791667,640.5,656.498046875,663.5,711.498046875,663.5,757.998046875,663.66666666667,803.83138020833,663.16666666667,848.998046875,663.83333333333,892.83138020833,663.83333333333,933.998046875,664.83333333333,975.33138020833,665.5,1014.1647135417,666.33333333333,1051.498046875,667,1067.998046875,666.83333333333,1150.498046875,665.16666666667"></polygon><polygon  data-sec="1" data-build="1" data-floor="15" class="s3d-svg__house js-s3d-svg__house" points="1149.1647135417,615.95833333333,1067.998046875,615.625,1051.1653645833,617.33333333333,1013.9986979167,617,974.66536458333,617,934.66536458333,617,892.16536458333,617.5,849.16536458333,617.33333333333,803.99869791667,617.5,757.49869791667,618,710.66536458333,617.83333333333,657.66536458333,618,656.99869791667,640.5,711.16536458333,640.33333333333,758.49869791667,640,803.99869791667,640.5,848.99869791667,640.5,892.49869791667,641,935.16536458333,641.33333333333,975.49869791667,641.83333333333,1014.4986979167,641.83333333333,1052.1653645833,642.5,1067.6653645833,641.83333333333,1149.9986979167,641.33333333333"></polygon><polygon  data-sec="1" data-build="1" data-floor="16" class="s3d-svg__house js-s3d-svg__house" points="1149.6666666667,591.44445800781,1067,591.61112467448,1051.3333333333,592.44445800781,1014.3333333333,592.94445800781,975.16666666667,593.77779134115,934.66666666667,593.77779134115,892.66666666667,594.44445800781,849.16666666667,594.77779134115,804,595.11112467448,758.33333333333,595.44445800781,711.33333333333,595.61112467448,657.16666666667,596.27779134115,657.66536458333,618,710.66536458333,617.83333333333,757.49869791667,618,803.99869791667,617.5,849.16536458333,617.33333333333,892.16536458333,617.5,934.66536458333,617,974.66536458333,617,1013.9986979167,617,1051.1653645833,617.33333333333,1067.998046875,615.625,1149.1647135417,615.95833333333"></polygon><polygon  data-sec="1" data-build="1" data-floor="17" class="s3d-svg__house js-s3d-svg__house" points="1149.498046875,566.5,1067.498046875,566,1051.6647135417,566.83333333333,1014.1647135417,567.66666666667,974.998046875,569.5,934.998046875,570.16666666667,892.16471354167,570.5,848.66471354167,571,804.498046875,572.33333333333,757.83138020833,572.33333333333,710.83138020833,572.66666666667,656.66471354167,573.66666666667,657.16666666667,596.27779134115,711.33333333333,595.61112467448,758.33333333333,595.44445800781,804,595.11112467448,849.16666666667,594.77779134115,892.66666666667,594.44445800781,934.66666666667,593.77779134115,975.16666666667,593.77779134115,1014.3333333333,592.94445800781,1051.3333333333,592.44445800781,1067,591.61112467448,1149.6666666667,591.44445800781"></polygon><polygon  data-sec="1" data-build="1" data-floor="18" class="s3d-svg__house js-s3d-svg__house" points="1149.8333333333,542.94445800781,1067.6666666667,540.27779134115,1051.8333333333,542.22220865885,1014.3333333333,543.88887532552,976.33333333333,545.22220865885,934.66666666667,546.55554199219,893,547.55554199219,849.33333333333,548.88887532552,804,549.22220865885,758.5,550.22220865885,711.66666666667,550.38887532552,657.66666666667,551.05554199219,656.66471354167,573.66666666667,710.83138020833,572.66666666667,757.83138020833,572.33333333333,804.498046875,572.33333333333,848.66471354167,571,892.16471354167,570.5,934.998046875,570.16666666667,974.998046875,569.5,1014.1647135417,567.66666666667,1051.6647135417,566.83333333333,1067.498046875,566,1149.498046875,566.5"></polygon><polygon  data-sec="1" data-build="1" data-floor="19" class="s3d-svg__house js-s3d-svg__house" points="1149.8333333333,518.22220865885,1066,515.72220865885,1051.6666666667,517.88887532552,1013.6666666667,519.72220865885,975.33333333333,521.88887532552,934.66666666667,522.88887532552,892.66666666667,524.88887532552,849.33333333333,525.22220865885,803.66666666667,525.88887532552,757.83333333333,527.22220865885,712,527.72220865885,657.33333333333,527.88887532552,657.66666666667,551.05554199219,711.66666666667,550.38887532552,758.5,550.22220865885,804,549.22220865885,849.33333333333,548.88887532552,893,547.55554199219,934.66666666667,546.55554199219,976.33333333333,545.22220865885,1014.3333333333,543.88887532552,1051.8333333333,542.22220865885,1067.6666666667,540.27779134115,1149.8333333333,542.94445800781"></polygon><polygon  data-sec="1" data-build="1" data-floor="20" class="s3d-svg__house js-s3d-svg__house" points="1149.6666666667,493.88887532552,1067,490.22220865885,1051.1666666667,492.55554199219,1014.3333333333,495.05554199219,975,497.55554199219,934.33333333333,499.22220865885,892.5,500.88887532552,848.66666666667,502.55554199219,803.83333333333,503.22220865885,759,503.88887532552,711.83333333333,504.38887532552,657,505.22220865885,657.33333333333,527.88887532552,712,527.72220865885,757.83333333333,527.22220865885,803.66666666667,525.88887532552,849.33333333333,525.22220865885,892.66666666667,524.88887532552,934.66666666667,522.88887532552,975.33333333333,521.88887532552,1013.6666666667,519.72220865885,1051.6666666667,517.88887532552,1066,515.72220865885,1149.8333333333,518.22220865885"></polygon><polygon  data-sec="1" data-build="1" data-floor="21" class="s3d-svg__house js-s3d-svg__house" points="1149.3310190837,469.38891601562,1066.3310190837,465.72224934896,1050.9976857503,467.72224934896,1013.8310190837,470.38891601562,973.83101908366,473.05558268229,933.99768575033,475.55558268229,893.16435241699,477.05558268229,848.49768575033,478.88891601562,803.66435241699,480.22224934896,757.33101908366,481.05558268229,710.66435241699,482.22224934896,656.83101908366,483.05558268229,657,505.22220865885,711.83333333333,504.38887532552,759,503.88887532552,803.83333333333,503.22220865885,848.66666666667,502.55554199219,892.5,500.88887532552,934.33333333333,499.22220865885,975,497.55554199219,1014.3333333333,495.05554199219,1051.1666666667,492.55554199219,1067,490.22220865885,1149.6666666667,493.88887532552"></polygon><polygon  data-sec="1" data-build="1" data-floor="22" class="s3d-svg__house js-s3d-svg__house" points="1149.4976857503,444.07409667969,1066.4976857503,441.07409667969,1051.164352417,442.74076334635,1013.9976857503,445.74076334635,974.33101908366,448.90743001302,934.33101908366,451.40743001302,892.16435241699,453.57409667969,847.99768575033,455.40743001302,802.99768575033,457.07409667969,757.83101908366,458.40743001302,711.83101908366,459.74076334635,657.16435241699,461.07409667969,656.83101908366,483.05558268229,710.66435241699,482.22224934896,757.33101908366,481.05558268229,803.66435241699,480.22224934896,848.49768575033,478.88891601562,893.16435241699,477.05558268229,933.99768575033,475.55558268229,973.83101908366,473.05558268229,1013.8310190837,470.38891601562,1050.9976857503,467.72224934896,1066.3310190837,465.72224934896,1149.3310190837,469.38891601562"></polygon><polygon  data-sec="1" data-build="1" data-floor="23" class="s3d-svg__house js-s3d-svg__house" points="1149.3333333333,420.16666666667,1066.5,416,1051.5,417.83333333333,1013.8333333333,421.33333333333,974.66666666667,425,934.5,427.83333333333,893,430.5,848.66666666667,432.33333333333,803.5,434.5,757.16666666667,435.66666666667,711.16666666667,438,657,438,657.16435241699,461.07409667969,711.83101908366,459.74076334635,757.83101908366,458.40743001302,802.99768575033,457.07409667969,847.99768575033,455.40743001302,892.16435241699,453.57409667969,934.33101908366,451.40743001302,974.33101908366,448.90743001302,1013.9976857503,445.74076334635,1051.164352417,442.74076334635,1066.4976857503,441.07409667969,1149.4976857503,444.07409667969"></polygon><polygon  data-sec="1" data-build="1" data-floor="24" class="s3d-svg__house js-s3d-svg__house" points="1149.6647135417,395.33333333333,1066.998046875,389.5,1052.3313802083,391.83333333333,1013.998046875,396.16666666667,973.998046875,400.16666666667,934.16471354167,404.33333333333,891.33138020833,406.83333333333,848.16471354167,409,803.83138020833,412,757.998046875,413.5,711.16471354167,414.66666666667,656.66471354167,416,657,438,711.16666666667,438,757.16666666667,435.66666666667,803.5,434.5,848.66666666667,432.33333333333,893,430.5,934.5,427.83333333333,974.66666666667,425,1013.8333333333,421.33333333333,1051.5,417.83333333333,1066.5,416,1149.3333333333,420.16666666667"></polygon><polygon  data-sec="1" data-build="1" data-floor="25" class="s3d-svg__house js-s3d-svg__house" points="1149.8310190837,370.68518066406,1066.664352417,365.0185139974,1051.164352417,367.35184733073,1013.9976857503,372.5185139974,974.49768575033,376.68518066406,933.99768575033,380.5185139974,891.99768575033,383.68518066406,848.66435241699,386.18518066406,803.49768575033,388.85184733073,757.99768575033,390.5185139974,711.16435241699,392.35184733073,657.33101908366,393.85184733073,656.66471354167,416,711.16471354167,414.66666666667,757.998046875,413.5,803.83138020833,412,848.16471354167,409,891.33138020833,406.83333333333,934.16471354167,404.33333333333,973.998046875,400.16666666667,1013.998046875,396.16666666667,1052.3313802083,391.83333333333,1066.998046875,389.5,1149.6647135417,395.33333333333"></polygon><polygon  data-sec="1" data-build="1" data-floor="26" class="s3d-svg__house js-s3d-svg__house" points="1149.6666666667,346,1066.8333333333,340.16666666667,1032.6666666667,345.33333333333,994.83333333333,350.33333333333,955.16666666667,355.16666666667,913.16666666667,358.83333333333,870.83333333333,361.33333333333,826.5,364.5,781.83333333333,367.16666666667,735.16666666667,368.33333333333,687.5,369.16666666667,657.33333333333,369.33333333333,657.33101908366,393.85184733073,711.16435241699,392.35184733073,757.99768575033,390.5185139974,803.49768575033,388.85184733073,848.66435241699,386.18518066406,891.99768575033,383.68518066406,933.99768575033,380.5185139974,974.49768575033,376.68518066406,1013.9976857503,372.5185139974,1051.164352417,367.35184733073,1066.664352417,365.0185139974,1149.8310190837,370.68518066406"></polygon><polygon  data-sec="1" data-build="1" data-floor="27" class="s3d-svg__house js-s3d-svg__house" points="1149.8333333333,320.66666666667,1067,311.16666666667,1024,318.5,985.83333333333,324.66666666667,944.33333333333,328.5,903.33333333333,332.83333333333,861.5,336.16666666667,815.83333333333,338.5,770.33333333333,341.66666666667,723,343.16666666667,676,344,657.16666666667,344,657.33333333333,369.33333333333,687.5,369.16666666667,735.16666666667,368.33333333333,781.83333333333,367.16666666667,826.5,364.5,870.83333333333,361.33333333333,913.16666666667,358.83333333333,955.16666666667,355.16666666667,994.83333333333,350.33333333333,1032.6666666667,345.33333333333,1066.8333333333,340.16666666667,1149.6666666667,346"></polygon></svg>