<svg version="1.1" id="floor--svg" xmlns="http://www.w3.org/2000/svg" xmlns:xlink="http://www.w3.org/1999/xlink" x="0px" y="0px"
	 viewBox="0 0 1920 1080" style="enable-background:new 0 0 1920 1080;" xml:space="preserve">

<polygon class="floor-svg-polygon" data-build="2" data-floor="24" points="592,261 803.9,232.7 913.9,240 913.9,245.8 910.8,245.8 910.8,261 913.9,261 913.9,265.9 908,265.9
	908,280.9 910.9,280.9 910.9,283.2 803.9,278.1 594.5,300.2 594.5,296.2 603.9,296 603.9,284 592,284 592,280 594.1,280 
	594.1,266.1 592,266.1 "/>
<polygon class="floor-svg-polygon" data-build="2" data-floor="23" points="910.6,301.1 914.8,301.1 914.8,303 798.9,299.1 592,318 592,315.7 594.9,314.6 594.9,300.2
	803.9,278.1 910.9,283.2 "/>
<polygon class="floor-svg-polygon" data-build="2" data-floor="22" points="914.8,306 908.6,306 908.6,320.9 910.4,320.9 910.4,323.3 803.7,319.2 594.7,335.4 594.7,332.7
	603.7,332 603.7,319.8 592,319.8 592,318 798.9,299.1 914.8,303 "/>
<polygon class="floor-svg-polygon" data-build="2" data-floor="21" points="910.4,340 913.9,340 913.9,342.4 799.5,340 593,353.1 593,350.3 594.5,350.3 594.5,335.4 803.7,319.2
	910.4,323.3 "/>
<polygon class="floor-svg-polygon" data-build="2" data-floor="20" points="913.9,345 908.9,345 908.9,360.9 910.4,360.9 910.4,363 804.2,360.5 595.8,370.9 595.8,367.8
	603.8,367.8 603.8,355.3 593,355.3 593,353.1 799.5,340 913.9,342.4 "/>
<polygon class="floor-svg-polygon" data-build="2" data-floor="19" points="910.8,380 914.8,380 914.8,382.2 799.4,381.1 593,388.5 593,386.1 595.8,386.1 595.8,370.9
	804.2,360.5 910.4,363 "/>
<polygon class="floor-svg-polygon" data-build="2" data-floor="18" points="914.8,384.4 908.8,384.4 908.8,399.7 911.2,399.7 911.2,402.3 804,401.6 595.8,405.3 595.8,403
	603.7,403 603.7,390.3 593,390.3 593,388.5 799.4,381.1 914.8,382.2 "/>
<polygon class="floor-svg-polygon" data-build="2" data-floor="17" points="910.8,419.1 915.2,419.1 915.2,421.9 799.9,421.3 593.5,423.1 593.5,421.1 596,421.1 596,405.3
	804,401.6 911.2,402.3 "/>
<polygon class="floor-svg-polygon" data-build="2" data-floor="16" points="915.2,424 908.9,424 908.9,439.1 910.9,439.1 910.9,441.7 804.7,441.7 596,440.3 596,438.1
	604.9,438.1 604.9,425.8 593.5,425.8 593.5,423.1 799.9,421.3 915.2,421.9 "/>
<polygon class="floor-svg-polygon" data-build="2" data-floor="15" points="910.9,458.8 914.9,458.8 914.9,461.8 800,462.6 594.2,458.1 594.2,455.1 596.1,455.1 596.1,440.3
	804.7,441.7 910.9,441.7 "/>
<polygon class="floor-svg-polygon" data-build="2" data-floor="14" points="914.9,464 908.4,464 908.4,479.2 910,479.2 910,481.3 804.9,482.8 596.2,475.9 596.2,473.4
	604.7,473.4 604.7,460.2 594.2,460.2 594.2,458.1 800,462.6 914.9,461.8 "/>
<polygon class="floor-svg-polygon" data-build="2" data-floor="13" points="909.8,497.7 914.9,497.7 914.9,500.6 799.9,502.9 594.2,493.4 594.2,491.3 596.2,491.3 596.2,475.9
	804.9,482.8 910,481.3 "/>
<polygon class="floor-svg-polygon" data-build="2" data-floor="12" points="914.9,502.9 909.9,502.9 909.9,520.4 804.9,523.4 596.7,510.9 596.7,507.9 604.9,507.9 604.9,495.1
	594.2,495.1 594.2,493.4 799.9,502.9 914.9,500.6 "/>
<polygon class="floor-svg-polygon" data-build="2" data-floor="11" points="909.9,537.8 914.9,537.8 914.9,539.6 800.1,542.9 594.2,527.3 594.2,525.2 596.8,525.2 596.8,510.9
	804.9,523.4 909.9,520.4 "/>
<polygon class="floor-svg-polygon" data-build="2" data-floor="10" points="914.9,541.8 909.3,541.8 909.3,556.4 912.1,556.4 912.1,559 801.7,563.8 596.8,545.6 596.8,542.9
	605.7,543.6 605.7,530.3 594.2,530.3 594.2,527.3 800.1,542.9 914.9,539.6 "/>
<polygon class="floor-svg-polygon" data-build="2" data-floor="9" points="912,573 914,573 914,577 915.3,577 915.3,579.1 799.9,583.5 594.2,562.6 594.2,559.9 596.8,559.9
	596.8,545.6 801.7,563.8 912.1,559 "/>
<polygon class="floor-svg-polygon" data-build="2" data-floor="8" points="915.3,582 909.2,582 909.2,596.1 912.2,596.1 912.2,599.2 804.6,604.6 596.9,580.8 596.9,578.2
	599.8,578.2 599.8,575.1 604.8,575.1 604.8,565 594.2,565 594.2,562.6 799.9,583.5 915.3,579.1 "/>
<polygon class="floor-svg-polygon" data-build="2" data-floor="7" points="912,611.8 914.3,611.8 914.3,616 915.3,616 915.3,618.1 799.9,624.4 595,597 595,594.9 596.9,594.9
	596.9,580.8 804.6,604.6 912.2,599.2 "/>
<polygon class="floor-svg-polygon" data-build="2" data-floor="6" points="915.3,621 908.9,621 908.9,639.9 805,648.3 597.9,617.1 597.9,611.4 605.8,611.4 605.8,600.3
	595,600.3 595,597 799.9,624.4 915.3,618.1 "/>
<polygon class="floor-svg-polygon" data-build="1" data-floor="24" points="977,282.4 1215.9,260.6 1298,265.8 1298,270.1 1294.2,270.1 1294.2,283.6 1298,283.6 1298,287.6
	1291.7,287.6 1291.7,301.1 1294,301.1 1294,303.2 1215.4,299.2 980.1,315.6 980.1,313.1 986,313.1 986,302 976.2,302 976.2,298.2 
	979.8,298.2 979.8,285.9 977,285.9 "/>
<polygon class="floor-svg-polygon" data-build="1" data-floor="23" points="1293.9,318 1298,318 1298,320 1210,316.9 976.2,331.5 976.2,329 979.9,329 979.9,315.6 1215.4,299.2
	1294,303.2 "/>
<polygon class="floor-svg-polygon" data-build="1" data-floor="22" points="1298,322 1291.2,322 1291.2,334.9 1293.9,334.9 1293.9,337.2 1215.8,334.4 980,346.4 980,343.9
	985.8,343.9 985.8,333.1 976.2,333.1 976.2,331.5 1210,316.9 1298,320 "/>
<polygon class="floor-svg-polygon" data-build="1" data-floor="21" points="1293.9,351.8 1298,351.8 1298,354.1 1210.1,352.2 976.2,362.2 976.2,360.1 979.9,360.1 979.9,346.4
	1215.8,334.4 1293.9,337.2 "/>
<polygon class="floor-svg-polygon" data-build="1" data-floor="20" points="1298,356.1 1291,356.1 1291,369.9 1293.9,369.9 1293.9,371.4 1215,370.1 979.9,377.6 979.9,375
	986.1,375 986.1,364.2 976.2,364.2 976.2,362.2 1210.1,352.2 1298,354.1 "/>
<polygon class="floor-svg-polygon" data-build="1" data-floor="19" points="1293.9,386.5 1297.3,386.5 1297.3,388.6 1210,387.2 977.1,393 977.1,391 979.8,391 979.8,377.6
	1215,370.1 1293.9,371.4 "/>
<polygon class="floor-svg-polygon" data-build="1" data-floor="18" points="1297.3,390.9 1290.9,390.9 1290.9,404 1293.1,404 1293.1,406 1215.1,405.1 979.9,408.5 979.9,406.1
	986.2,406.1 986.2,394.8 977.1,394.8 977.1,393 1210,387.2 1297.3,388.6 "/>
<polygon class="floor-svg-polygon" data-build="1" data-floor="17" points="1292.9,420.9 1296.9,420.9 1296.9,422.8 1210,422.8 977.1,424 977.1,421.9 979.9,421.9 979.9,408.5
	1215.1,405.1 1293.1,406 "/>
<polygon class="floor-svg-polygon" data-build="1" data-floor="16" points="1296.9,425 1290.9,425 1290.9,438.1 1292.9,438.1 1292.9,440 1214.7,440.5 980.1,439.5 980.1,437.1
	986.4,437.1 986.4,425.9 977.1,425.9 977.1,424 1210,422.8 1296.9,422.8 "/>
<polygon class="floor-svg-polygon" data-build="1" data-floor="15" points="1292.9,454.8 1296.9,454.8 1296.9,457 1209.1,458 977.1,454.4 977.1,452.9 979.9,452.9 979.9,439.5
	1214.7,440.5 1292.9,440 "/>
<polygon class="floor-svg-polygon" data-build="1" data-floor="14" points="1296.9,459 1290.1,459 1290.1,472.1 1292.9,472.1 1292.9,473.8 1214.1,475.3 980.1,470.4 980.1,467.9
	986.2,467.9 986.2,456.2 977.1,456.2 977.1,454.4 1209.1,458 1296.9,457 "/>
<polygon class="floor-svg-polygon" data-build="1" data-floor="13" points="1292.9,488.9 1296.9,488.9 1296.9,491.1 1209.1,492.9 977.1,485.3 977.1,482.9 979.9,482.9
	979.9,470.4 1214.1,475.3 1292.9,473.8 "/>
<polygon class="floor-svg-polygon" data-build="1" data-floor="12" points="1296.9,492.9 1290,492.9 1290,505.9 1291.8,505.9 1291.8,508.2 1214,511 979.9,501.1 979.9,498.8
	988.7,498.8 988.7,487 977.1,487 977.1,485.3 1209.1,492.9 1296.9,491.1 "/>
<polygon class="floor-svg-polygon" data-build="1" data-floor="11" points="1291.9,522.8 1295.9,522.8 1295.9,525.3 1209.1,527.9 977.1,516.3 977.1,514 979.9,514 979.9,501.1
	1214,511 1291.8,508.2 "/>
<polygon class="floor-svg-polygon" data-build="1" data-floor="10" points="1295.9,527.9 1289.5,527.9 1289.5,540 1292.1,540 1292.1,541.9 1214,545.9 979.6,532 979.6,529.4
	986.1,529.4 986.1,518.2 977.1,518.2 977.1,516.3 1209.1,527.9 1295.9,525.3 "/>
<polygon class="floor-svg-polygon" data-build="1" data-floor="9" points="1292,555.7 1295.9,555.7 1295.9,559.5 1204.8,562.9 976,546.5 976,544.4 979.4,544.4 979.6,532
	1214,545.9 1292.1,541.9 "/>
<polygon class="floor-svg-polygon" data-build="1" data-floor="8" points="1295.9,562.1 1290,562.1 1290,573.9 1292.1,573.9 1292.1,576 1213.9,580.9 979.1,562.9 979.1,559.9
	985.9,559.9 985.9,549 976,548 976,546.5 1204.8,562.9 1295.9,559.5 "/>
<polygon class="floor-svg-polygon" data-build="1" data-floor="7" points="1291.9,587.8 1295.1,587.8 1295.1,591 1295.9,591 1295.9,593.1 1208,598 976,577.3 976,574.8
	978,574.8 978,572.9 979,572.9 979.1,562.9 1213.9,580.9 1292.1,576 "/>
<polygon class="floor-svg-polygon" data-build="1" data-floor="6" points="1295.9,596 1289,596 1289,607.9 1292.1,607.9 1292.1,611.9 1214,618 980,594.7 980,590.7 984.9,590.7
	984.9,580 976,579 976,577.3 1208,598 1295.9,593.1 "/>

	<!-- удалить этот полигон когда дом будет в продаже -->
	<polygon class="floor-svg-polygon" style="z-index:555;" data-build="1" data-floor="6" points="977,282.4 1215.9,260.6 1298,265.8  1295.1,611.9 1214,618 980,594.7 "/>


	<symbol id="info-svg-polygon-left58" viewBox="0 0 60 30" data-build="2" class="info-svg-polygon-left">
		<path fill-rule="evenodd" clip-rule="evenodd" d="M-0.000435142 28.4214L50.5259 28.4214V21.7107L59.5259 14.2107L50.5259 6.71073L50.5259 0.00033548L-0.000435142 0.00033548L-0.000435142 28.4214Z" class="floor-rect"  />
		<text x="25" y="13" class="floor-text">15</text>
	</symbol>
	<use x="520" y="0" width="60px" height="30px" data-build="2" xlink:href="#info-svg-polygon-left58" class="floor-info-svg"></use>


	<symbol id="info-svg-polygon-right58" viewBox="0 0 60 30" data-build="1" class="info-svg-polygon-right">
		<path fill-rule="evenodd" clip-rule="evenodd" d="M59.5263 0H9V6.71065L0 14.2107L9 21.7107V28.4211H59.5263V0Z" class="floor-rect"  />
		<text x="35" y="13" class="floor-text">не у продажу</text>
	</symbol>
	<use x="1320" y="0" width="60px" height="30px" data-build="1" xlink:href="#info-svg-polygon-right58" class="floor-info-svg"></use>

</svg>
