<svg version="1.1" id="Layer_1" xmlns="http://www.w3.org/2000/svg" xmlns:xlink="http://www.w3.org/1999/xlink" x="0px" y="0px"
	 viewBox="0 0 1920 1080" style="enable-background:new 0 0 1920 1080;" xml:space="preserve">

<polygon class="floor-svg-polygon" data-build="1" data-floor="24" points="570.1,263.1 645.9,256.7 916.8,277.2 916.8,283 913,283 913,298 906.4,298 906.4,309.9 917.9,309.9
	917.9,312.1 906.5,312.1 649.9,296.7 570.9,300.8 570.9,297.8 577.8,297.8 577.8,286.1 576.2,286.1 576.2,268 570.1,268 "/>
<polygon class="floor-svg-polygon" data-build="1" data-floor="23" points="917.9,312.1 917.9,314.2 912.2,314.2 912.2,328.2 646.1,314.1 576.8,318.3 576.8,303.3 570.8,303.3
	570.8,300.8 649.9,296.7 906.5,312.1 "/>
<polygon class="floor-svg-polygon" data-build="1" data-floor="22" points="912,330 906.1,330 906.1,342 917.9,342 917.9,343.8 906.1,343.8 649.7,332.5 570.8,336 570.8,333.1
	577.9,333.1 577.9,321 576.9,321 576.9,318.3 646.1,314.1 912.2,328.2 "/>
<polygon class="floor-svg-polygon" data-build="1" data-floor="21" points="917.9,346.1 912.1,346.1 912.1,360.4 646.8,350.7 577,353.3 577,338.1 570.8,338.1 570.8,336
	649.7,332.5 906.1,343.8 917.9,343.8 "/>
<polygon class="floor-svg-polygon" data-build="1" data-floor="20" points="912,362 906,362 906,374 917.9,374 917.9,375.9 643.7,368.9 571.6,370.6 571.6,368.1 577.7,368.1
	577.7,355.2 577,355.2 577,353.3 646.8,350.7 912.1,360.4 "/>
<polygon class="floor-svg-polygon" data-build="1" data-floor="19" points="917.9,378 912,378 912,391.9 646.9,386.8 577.9,388 577.9,372 571.6,372 571.6,370.6 643.7,368.9
	917.9,375.9 "/>
<polygon class="floor-svg-polygon" data-build="1" data-floor="18" points="912,394 906.1,394 906.1,405.9 917.9,405.9 917.9,408 650.8,404.7 572.1,405.9 572.1,400.3
	577.9,400.3 577.9,388 646.9,386.8 912,391.9 "/>
<polygon class="floor-svg-polygon" data-build="1" data-floor="17" points="917.9,410.1 913,410.1 913,423.9 646.7,422.8 578.1,422.9 578.1,408 572.1,408 572.1,405.9
	650.8,404.7 917.9,408 "/>
<polygon class="floor-svg-polygon" data-build="1" data-floor="16" points="912.9,425.8 905.8,425.8 905.8,436.6 918.1,436.6 918.1,439.4 644.8,440.1 572.1,440.1 572.1,437.9
	578.7,437.9 578.7,424.9 578.1,424.9 578.1,422.9 646.7,422.8 913,423.9 "/>
<polygon class="floor-svg-polygon" data-build="1" data-floor="15" points="918.1,441 913.2,441 913.2,455.9 646.7,458.5 578.1,457.7 578.1,442 572.1,442 572.1,440.1
	644.8,440.1 918.1,439.4 "/>
<polygon class="floor-svg-polygon" data-build="1" data-floor="14" points="913,457 905.9,457 905.9,469 917.1,469 917.1,471 651.4,476.5 572.1,475 572.1,471.6 578.7,471.6
	578.7,459 578,459 578,457.7 646.7,458.5 913.2,455.9 "/>
<polygon class="floor-svg-polygon" data-build="1" data-floor="13" points="917,473 913,473 913,487.1 647.2,494.6 578.6,492.1 578.6,478.1 572.1,478.1 572.1,475 651.4,476.5
	917.1,471 "/>
<polygon class="floor-svg-polygon" data-build="1" data-floor="12" points="913,488.9 906,488.9 906,500.1 918.1,500.1 918.1,502.1 646.1,512.3 572.1,509.9 572.1,507 581.9,507
	581.9,494.6 578.8,494.6 578.8,492.1 647.2,494.6 913,487.1 "/>
<polygon class="floor-svg-polygon" data-build="1" data-floor="11" points="918.1,504 913,504 913,518.8 648.1,529.8 578.8,526.7 578.8,512 572.1,512 572.1,509.9 646.1,512.3
	918.1,502.1 "/>
<polygon class="floor-svg-polygon" data-build="1" data-floor="10" points="912.9,519.9 906.9,519.9 906.9,532.1 918.1,532.1 918.1,533.9 645.8,547.5 639.4,547.5 572.6,544.2
	572.6,541.7 581.8,541.9 581.8,528.1 578.9,528.1 578.8,526.7 648.1,529.8 913,518.8 "/>
<polygon class="floor-svg-polygon" data-build="1" data-floor="9" points="918.1,536 913,536 913,550.2 648.1,566 579,561.4 579,546.2 572.6,546.1 572.6,544.2 639.4,547.5
	645.8,547.5 918.1,533.9 "/>
<polygon class="floor-svg-polygon" data-build="1" data-floor="8" points="913,552 907.1,552 907.1,563.9 917.9,563.9 917.9,565.5 646.3,583.7 573,578.9 573,576.1 582.9,576.9
	583,563 578.9,563 578.9,561.4 648.1,566 913,550.2 "/>
<polygon class="floor-svg-polygon" data-build="1" data-floor="7" points="917.9,567 913.1,567 913.1,581.7 648.3,601.9 579,595.4 579,581.1 573,581.1 573,578.9 646.3,583.7
	917.9,565.5 "/>
<polygon class="floor-svg-polygon" data-build="1" data-floor="6" points="913,583 907,583 907,595 917.9,595 917.9,598.2 653,621.1 573,615.3 573,611 575.5,607.9 580.2,607.9
	580.2,597.2 578.8,597.2 578.8,595.4 648.3,601.9 913.1,581.7 "/>
<polygon class="floor-svg-polygon" data-build="2" data-floor="24" points="924.9,234.2 1013.9,226.9 1289,254.8 1289,260 1284,260 1283.9,277.1 1276,277.1 1276,291.9
	1287.9,291.9 1287.9,294.1 1276,293.6 1033.6,272.6 924.9,278.4 924.9,275.6 932.2,275.6 932.2,240.4 924.9,240.4 "/>
<polygon class="floor-svg-polygon" data-build="2" data-floor="23" points="1287.8,295.9 1283.8,295.9 1283.8,312.1 1275.9,312.1 1040.1,294.1 932.2,298.3 932.2,281.2
	924.9,281.2 924.9,278.4 1033.6,272.6 1276,293.6 1287.9,294.1 "/>
<polygon class="floor-svg-polygon" data-build="2" data-floor="22" points="1283.8,314 1276,314 1276,327.9 1287.9,327.9 1287.9,330.7 1276,330.1 1034,315.2 924.9,319.8
	924.9,317 931.7,317 931.7,298.3 1040.1,294.1 1275.9,312.1 1283.8,312.1 "/>
<polygon class="floor-svg-polygon" data-build="2" data-floor="21" points="1287.9,333.1 1284.1,333.1 1284.1,348.9 1039.5,336.6 932.4,339.6 932.4,322.5 924.9,322.5
	924.9,319.8 1034,315.2 1276,330.1 1287.9,330.7 "/>
<polygon class="floor-svg-polygon" data-build="2" data-floor="20" points="1283.9,350.9 1275.9,350.9 1275.9,365 1287.9,365.8 1287.9,367.8 1033.6,358 924.9,360.4 924.9,357.8
	931.8,357.8 932.4,339.6 1039.5,336.6 1284.1,348.9 "/>
<polygon class="floor-svg-polygon" data-build="2" data-floor="19" points="1283.4,386 999.3,378.1 931.3,381 931.3,363.3 924.9,363.3 924.9,360.4 1033.6,358 1287.9,367.8
	1287.9,370.2 1283.6,370.2 "/>
<polygon class="floor-svg-polygon" data-build="2" data-floor="18" points="1283.4,388.1 1275.2,388.1 1275.2,401.9 1287.9,401.9 1287.9,404.1 992.1,400.3 925.5,401.7
	925.5,398.8 931.8,398.8 931.8,383.2 931.8,381 999.3,378.1 1283.4,386 "/>
<polygon class="floor-svg-polygon" data-build="2" data-floor="17" points="1287.9,405.9 1283.7,405.9 1283.7,422.3 999.1,421.1 931.1,421.5 931.1,404.1 925.5,404.1 925.5,401.7
	992.1,400.3 1287.9,404.1 "/>
<polygon class="floor-svg-polygon" data-build="2" data-floor="16" points="1283.5,423.8 1275.1,423.8 1275.1,438 1287.9,438 1287.9,440.8 1275.1,440.8 1033.8,442.2 925.5,442.2
	925.5,439.4 931.7,439.4 931.7,423.9 931,423.9 931,421.5 999.1,421.1 1283.7,422.3 "/>
<polygon class="floor-svg-polygon" data-build="2" data-floor="15" points="1287.6,443.9 1282.3,443.9 1282.3,459 1028.5,463.6 931,461.8 931,443.9 925.5,443.9 925.5,442.2
	1033.8,442.2 1287.9,440.8 "/>
<polygon class="floor-svg-polygon" data-build="2" data-floor="14" points="1282.3,461 1275,461 1275,474.8 1286.9,474.8 1286.9,477.2 1033.3,484.8 925.5,482.8 925.5,480
	931.9,480 931.9,464.1 930.9,464.1 930.9,461.8 1028.5,463.6 1282.3,459 "/>
<polygon class="floor-svg-polygon" data-build="2" data-floor="13" points="1286.9,479 1282.2,479 1281.9,496 1028.9,506.3 931.3,502.7 931.3,485.3 925.5,485.3 925.5,482.8
	1033.3,484.8 1286.9,477.2 "/>
<polygon class="floor-svg-polygon" data-build="2" data-floor="12" points="1281.8,497.9 1272.2,497.9 1272.2,512 1286.9,512 1286.9,513.9 1033.6,527.2 925,523.2 925,520.9
	938.9,520.9 938.9,505.1 931.4,505.1 931.4,502.7 1028.9,506.3 1281.9,496 "/>
<polygon class="floor-svg-polygon" data-build="2" data-floor="11" points="1286.9,516 1282.1,516 1282.1,532.6 1039.1,547.8 931.5,543.3 931.5,526.1 925,526.1 925,523.2
	1033.6,527.2 1286.9,513.9 "/>
<polygon class="floor-svg-polygon" data-build="2" data-floor="10" points="1281.9,534.2 1274.3,535.4 1274.3,543.8 1284.8,544.9 1284.8,547.8 1286.9,547.8 1286.9,550
	1033.9,569.3 924.9,564 924.9,560.9 926.8,560.9 926.8,558 931.7,558 931.7,543.3 1039.1,547.8 1282.1,532.6 "/>
<polygon class="floor-svg-polygon" data-build="2" data-floor="9" points="1286.9,552.1 1282.2,552.1 1282.2,568.7 1028.8,590.6 931,583.7 931,567 923.7,567 923.7,565.5
	925,564.1 1033.9,569.3 1286.9,550 "/>
<polygon class="floor-svg-polygon" data-build="2" data-floor="8" points="1282,571 1274.2,571 1274.2,582.9 1276.9,582.9 1276.9,581.2 1284.8,581.2 1284.8,583.9 1286.9,583.9
	1286.9,586 1033.4,611.2 925,604.7 925,601.9 927,601.9 927,598 932,598 932,586 931,586 931,583.7 1028.8,590.6 1282.2,568.7 "/>
<polygon class="floor-svg-polygon" data-build="2" data-floor="7" points="1286.9,589 1281.9,589.1 1281.9,605 1029,633 931.2,623.3 931.2,606.9 925,606.9 925,604.7
	1033.4,611.2 1286.9,586 "/>
<polygon class="floor-svg-polygon" data-build="2" data-floor="6" points="1281.9,606.9 1281.9,605 1029,633 931.2,623.3 931.2,625.9 932.2,625.9 932.2,642.9 926.1,642.9
	926.1,647.9 1017,655.2 1034.9,655.2 1286,624.9 1286,620.1 1274,620.1 1274,608 "/>

	<!-- удалить этот полигон когда дом будет в продаже -->
<polygon class="floor-svg-polygon" style="z-index:555;" data-build="1" data-floor="6" points="570.1,263.1 645.9,256.7 916.8,277.2  917.9,598.2 653,621.1 573,615.3 "/>


	<symbol id="info-svg-polygon-left92" viewBox="0 0 60 30" data-build="1" class="info-svg-polygon-left">
		<path fill-rule="evenodd" clip-rule="evenodd" d="M-0.000435142 28.4214L50.5259 28.4214V21.7107L59.5259 14.2107L50.5259 6.71073L50.5259 0.00033548L-0.000435142 0.00033548L-0.000435142 28.4214Z" class="floor-rect"  />
		<text x="25" y="13" class="floor-text">15</text>
	</symbol>
	<use x="500" y="0" width="60px" height="30px" data-build="1" xlink:href="#info-svg-polygon-left92" class="floor-info-svg"></use>


	<symbol id="info-svg-polygon-right92" viewBox="0 0 60 30" data-build="2" class="info-svg-polygon-right">
		<path fill-rule="evenodd" clip-rule="evenodd" d="M59.5263 0H9V6.71065L0 14.2107L9 21.7107V28.4211H59.5263V0Z" class="floor-rect"  />
		<text x="35" y="13" class="floor-text">15</text>
	</symbol>
	<use x="1300" y="0" width="60px" height="30px" data-build="2" xlink:href="#info-svg-polygon-right92" class="floor-info-svg"></use>

</svg>
