<svg width="128" height="140" viewBox="0 0 128 140" fill="none" xmlns="http://www.w3.org/2000/svg">
<path d="M69.2812 136.364C77.25 136.364 90 135.127 90 130.182C90 125.236 74.0625 124 66.0938 124C57.0625 124 39 125.236 39 130.182C39 135.127 59.7188 136.364 59.7188 136.364M59.7188 136.364L57 133.5M59.7188 136.364L57 139" stroke="#C2C2C2" stroke-linecap="round"/>
<path d="M55.06 123.4C56.0867 123.456 56.866 123.736 57.398 124.24C57.9393 124.735 58.21 125.383 58.21 126.186C58.21 126.746 58.0747 127.245 57.804 127.684C57.5333 128.113 57.132 128.454 56.6 128.706C56.068 128.958 55.4193 129.084 54.654 129.084C53.9447 129.084 53.2727 128.972 52.638 128.748C52.0127 128.515 51.5087 128.207 51.126 127.824L51.616 127.026C51.9427 127.362 52.3767 127.637 52.918 127.852C53.4593 128.057 54.038 128.16 54.654 128.16C55.4567 128.16 56.0773 127.987 56.516 127.642C56.9547 127.287 57.174 126.802 57.174 126.186C57.174 125.579 56.9547 125.103 56.516 124.758C56.0773 124.413 55.4147 124.24 54.528 124.24H53.828V123.498L56.544 120.096H51.532V119.2H57.832V119.914L55.06 123.4ZM63.6903 123.134C64.3343 123.134 64.9037 123.255 65.3983 123.498C65.9023 123.741 66.2943 124.086 66.5743 124.534C66.8543 124.973 66.9943 125.486 66.9943 126.074C66.9943 126.671 66.8497 127.199 66.5603 127.656C66.271 128.113 65.8697 128.468 65.3563 128.72C64.8523 128.963 64.283 129.084 63.6483 129.084C62.351 129.084 61.357 128.659 60.6663 127.81C59.9757 126.951 59.6303 125.743 59.6303 124.184C59.6303 123.092 59.817 122.168 60.1903 121.412C60.5637 120.656 61.0863 120.087 61.7583 119.704C62.4303 119.312 63.2143 119.116 64.1103 119.116C65.081 119.116 65.8557 119.293 66.4343 119.648L66.0283 120.46C65.5617 120.152 64.927 119.998 64.1243 119.998C63.0417 119.998 62.1923 120.343 61.5763 121.034C60.9603 121.715 60.6523 122.709 60.6523 124.016C60.6523 124.249 60.6663 124.515 60.6943 124.814C60.937 124.282 61.3243 123.871 61.8563 123.582C62.3883 123.283 62.9997 123.134 63.6903 123.134ZM63.6063 128.23C64.3157 128.23 64.8897 128.039 65.3283 127.656C65.7763 127.264 66.0003 126.746 66.0003 126.102C66.0003 125.458 65.7763 124.945 65.3283 124.562C64.8897 124.179 64.2923 123.988 63.5363 123.988C63.0417 123.988 62.603 124.081 62.2203 124.268C61.847 124.455 61.553 124.711 61.3383 125.038C61.1237 125.365 61.0163 125.729 61.0163 126.13C61.0163 126.503 61.1143 126.849 61.3103 127.166C61.5157 127.483 61.8143 127.74 62.2063 127.936C62.5983 128.132 63.065 128.23 63.6063 128.23ZM72.0676 129.084C71.3116 129.084 70.6349 128.883 70.0376 128.482C69.4496 128.081 68.9876 127.507 68.6516 126.76C68.3249 126.004 68.1616 125.117 68.1616 124.1C68.1616 123.083 68.3249 122.201 68.6516 121.454C68.9876 120.698 69.4496 120.119 70.0376 119.718C70.6349 119.317 71.3116 119.116 72.0676 119.116C72.8236 119.116 73.4956 119.317 74.0836 119.718C74.6809 120.119 75.1476 120.698 75.4836 121.454C75.8196 122.201 75.9876 123.083 75.9876 124.1C75.9876 125.117 75.8196 126.004 75.4836 126.76C75.1476 127.507 74.6809 128.081 74.0836 128.482C73.4956 128.883 72.8236 129.084 72.0676 129.084ZM72.0676 128.16C72.6369 128.16 73.1363 128.001 73.5656 127.684C74.0043 127.367 74.3449 126.905 74.5876 126.298C74.8303 125.691 74.9516 124.959 74.9516 124.1C74.9516 123.241 74.8303 122.509 74.5876 121.902C74.3449 121.295 74.0043 120.833 73.5656 120.516C73.1363 120.199 72.6369 120.04 72.0676 120.04C71.4983 120.04 70.9943 120.199 70.5556 120.516C70.1263 120.833 69.7903 121.295 69.5476 121.902C69.3049 122.509 69.1836 123.241 69.1836 124.1C69.1836 124.959 69.3049 125.691 69.5476 126.298C69.7903 126.905 70.1263 127.367 70.5556 127.684C70.9943 128.001 71.4983 128.16 72.0676 128.16ZM79.6291 123.778C79.1905 123.778 78.7891 123.675 78.4251 123.47C78.0611 123.255 77.7718 122.971 77.5571 122.616C77.3518 122.261 77.2491 121.869 77.2491 121.44C77.2491 121.011 77.3518 120.619 77.5571 120.264C77.7718 119.9 78.0611 119.615 78.4251 119.41C78.7891 119.195 79.1905 119.088 79.6291 119.088C80.0678 119.088 80.4691 119.195 80.8331 119.41C81.1971 119.615 81.4818 119.9 81.6871 120.264C81.9018 120.619 82.0091 121.011 82.0091 121.44C82.0091 121.869 81.9018 122.261 81.6871 122.616C81.4818 122.971 81.1971 123.255 80.8331 123.47C80.4691 123.675 80.0678 123.778 79.6291 123.778ZM79.6291 122.854C80.0305 122.854 80.3618 122.719 80.6231 122.448C80.8938 122.177 81.0291 121.841 81.0291 121.44C81.0291 121.029 80.8938 120.689 80.6231 120.418C80.3618 120.147 80.0305 120.012 79.6291 120.012C79.2278 120.012 78.8918 120.147 78.6211 120.418C78.3505 120.689 78.2151 121.029 78.2151 121.44C78.2151 121.841 78.3505 122.177 78.6211 122.448C78.8918 122.719 79.2278 122.854 79.6291 122.854Z" fill="#C2C2C2"/>
<path d="M55.06 123.4L53.4946 122.155L51.0845 125.186L54.9511 125.397L55.06 123.4ZM57.398 124.24L56.0225 125.692L56.0356 125.704L56.0489 125.716L57.398 124.24ZM57.804 127.684L59.4959 128.751L59.501 128.742L59.5061 128.734L57.804 127.684ZM56.6 128.706L55.7438 126.899L56.6 128.706ZM52.638 128.748L51.9388 130.622L51.9555 130.628L51.9724 130.634L52.638 128.748ZM51.126 127.824L49.4217 126.777L48.5959 128.122L49.7118 129.238L51.126 127.824ZM51.616 127.026L53.05 125.632L51.2573 123.788L49.9117 125.979L51.616 127.026ZM52.918 127.852L52.1807 129.711L52.1947 129.717L52.2087 129.722L52.918 127.852ZM56.516 127.642L57.7531 129.213L57.7633 129.205L57.7734 129.197L56.516 127.642ZM56.516 124.758L57.7531 123.187L57.7531 123.187L56.516 124.758ZM53.828 124.24H51.828V126.24H53.828V124.24ZM53.828 123.498L52.265 122.25L51.828 122.798V123.498H53.828ZM56.544 120.096L58.107 121.344L60.6999 118.096H56.544V120.096ZM51.532 120.096H49.532V122.096H51.532V120.096ZM51.532 119.2V117.2H49.532V119.2H51.532ZM57.832 119.2H59.832V117.2H57.832V119.2ZM57.832 119.914L59.3974 121.159L59.832 120.612V119.914H57.832ZM54.9511 125.397C55.6933 125.438 55.9509 125.624 56.0225 125.692L58.7735 122.788C57.7811 121.848 56.4801 121.474 55.1689 121.403L54.9511 125.397ZM56.0489 125.716C56.1337 125.794 56.21 125.886 56.21 126.186H60.21C60.21 124.881 59.745 123.675 58.7471 122.764L56.0489 125.716ZM56.21 126.186C56.21 126.408 56.1611 126.538 56.1019 126.634L59.5061 128.734C59.9883 127.953 60.21 127.084 60.21 126.186H56.21ZM56.1121 126.617C56.0747 126.677 55.9886 126.783 55.7438 126.899L57.4562 130.513C58.2754 130.125 58.9919 129.55 59.4959 128.751L56.1121 126.617ZM55.7438 126.899C55.5472 126.992 55.2086 127.084 54.654 127.084V131.084C55.6301 131.084 56.5888 130.924 57.4562 130.513L55.7438 126.899ZM54.654 127.084C54.1591 127.084 53.7132 127.007 53.3036 126.862L51.9724 130.634C52.8322 130.937 53.7303 131.084 54.654 131.084V127.084ZM53.3372 126.874C52.9193 126.718 52.6787 126.548 52.5402 126.41L49.7118 129.238C50.3387 129.865 51.1061 130.311 51.9388 130.622L53.3372 126.874ZM52.8303 128.871L53.3203 128.073L49.9117 125.979L49.4217 126.777L52.8303 128.871ZM50.182 128.42C50.7472 129.001 51.4389 129.417 52.1807 129.711L53.6553 125.993C53.3145 125.858 53.1382 125.723 53.05 125.632L50.182 128.42ZM52.2087 129.722C52.9908 130.019 53.8113 130.16 54.654 130.16V126.16C54.2647 126.16 53.9279 126.096 53.6273 125.982L52.2087 129.722ZM54.654 130.16C55.7145 130.16 56.8365 129.935 57.7531 129.213L55.2789 126.071C55.3181 126.04 55.1988 126.16 54.654 126.16V130.16ZM57.7734 129.197C58.7289 128.425 59.174 127.343 59.174 126.186H55.174C55.174 126.221 55.1709 126.236 55.1714 126.233C55.1721 126.229 55.1759 126.213 55.187 126.188C55.1982 126.163 55.213 126.139 55.2294 126.118C55.2455 126.098 55.2574 126.088 55.2586 126.087L57.7734 129.197ZM59.174 126.186C59.174 125.027 58.7195 123.947 57.7531 123.187L55.2789 126.329C55.276 126.327 55.2617 126.315 55.243 126.292C55.224 126.268 55.2066 126.24 55.1931 126.211C55.1642 126.148 55.174 126.126 55.174 126.186H59.174ZM57.7531 123.187C56.8076 122.442 55.6168 122.24 54.528 122.24V126.24C54.8483 126.24 55.0591 126.272 55.1857 126.305C55.3092 126.337 55.3193 126.361 55.2789 126.329L57.7531 123.187ZM54.528 122.24H53.828V126.24H54.528V122.24ZM55.828 124.24V123.498H51.828V124.24H55.828ZM55.391 124.746L58.107 121.344L54.981 118.848L52.265 122.25L55.391 124.746ZM56.544 118.096H51.532V122.096H56.544V118.096ZM53.532 120.096V119.2H49.532V120.096H53.532ZM51.532 121.2H57.832V117.2H51.532V121.2ZM55.832 119.2V119.914H59.832V119.2H55.832ZM56.2666 118.669L53.4946 122.155L56.6254 124.645L59.3974 121.159L56.2666 118.669ZM65.3983 123.498L64.5175 125.294L64.5241 125.297L64.5307 125.3L65.3983 123.498ZM66.5743 124.534L64.8783 125.594L64.8834 125.602L64.8885 125.61L66.5743 124.534ZM66.5603 127.656L68.2505 128.725L68.2505 128.725L66.5603 127.656ZM65.3563 128.72L66.224 130.522L66.2308 130.519L66.2377 130.515L65.3563 128.72ZM60.6663 127.81L59.1079 129.064L59.1146 129.072L60.6663 127.81ZM60.1903 121.412L58.3971 120.526H58.3971L60.1903 121.412ZM61.7583 119.704L62.748 121.442L62.7571 121.437L62.7661 121.432L61.7583 119.704ZM66.4343 119.648L68.2232 120.542L69.0437 118.901L67.4795 117.943L66.4343 119.648ZM66.0283 120.46L64.9267 122.129L66.8087 123.371L67.8172 121.354L66.0283 120.46ZM61.5763 121.034L63.0599 122.375L63.0689 122.365L61.5763 121.034ZM60.6943 124.814L58.7031 125.001L59.4028 132.465L62.514 125.644L60.6943 124.814ZM61.8563 123.582L62.8119 125.339L62.8237 125.333L62.8354 125.326L61.8563 123.582ZM65.3283 127.656L66.6431 129.163L66.6454 129.161L65.3283 127.656ZM65.3283 124.562L64.0136 126.069L64.0215 126.076L64.0294 126.083L65.3283 124.562ZM62.2203 124.268L61.3435 122.47L61.3347 122.475L61.3259 122.479L62.2203 124.268ZM61.3383 125.038L59.6669 123.94V123.94L61.3383 125.038ZM61.3103 127.166L59.6087 128.217L59.6198 128.235L59.6312 128.253L61.3103 127.166ZM62.2063 127.936L63.1008 126.147L62.2063 127.936ZM63.6903 125.134C64.0803 125.134 64.3397 125.206 64.5175 125.294L66.2792 121.702C65.4677 121.304 64.5883 121.134 63.6903 121.134V125.134ZM64.5307 125.3C64.715 125.389 64.8108 125.486 64.8783 125.594L68.2703 123.474C67.7779 122.686 67.0897 122.093 66.266 121.696L64.5307 125.3ZM64.8885 125.61C64.9376 125.687 64.9943 125.816 64.9943 126.074H68.9943C68.9943 125.156 68.7711 124.258 68.2602 123.458L64.8885 125.61ZM64.9943 126.074C64.9943 126.333 64.9364 126.482 64.8702 126.587L68.2505 128.725C68.7629 127.915 68.9943 127.009 68.9943 126.074H64.9943ZM64.8702 126.587C64.7896 126.714 64.6765 126.826 64.475 126.925L66.2377 130.515C67.0629 130.11 67.7524 129.513 68.2505 128.725L64.8702 126.587ZM64.4887 126.918C64.2897 127.014 64.0232 127.084 63.6483 127.084V131.084C64.5428 131.084 65.415 130.912 66.224 130.522L64.4887 126.918ZM63.6483 127.084C62.829 127.084 62.4571 126.842 62.2181 126.548L59.1146 129.072C60.2569 130.477 61.873 131.084 63.6483 131.084V127.084ZM62.2248 126.556C61.9177 126.175 61.6303 125.472 61.6303 124.184H57.6303C57.6303 126.013 58.0337 127.728 59.1079 129.064L62.2248 126.556ZM61.6303 124.184C61.6303 123.312 61.7803 122.709 61.9836 122.298L58.3971 120.526C57.8537 121.627 57.6303 122.872 57.6303 124.184H61.6303ZM61.9836 122.298C62.1969 121.866 62.4543 121.609 62.748 121.442L60.7687 117.966C59.7184 118.564 58.9305 119.446 58.3971 120.526L61.9836 122.298ZM62.7661 121.432C63.0883 121.244 63.514 121.116 64.1103 121.116V117.116C62.9147 117.116 61.7723 117.38 60.7506 117.976L62.7661 121.432ZM64.1103 121.116C64.8625 121.116 65.2325 121.257 65.3892 121.353L67.4795 117.943C66.4789 117.33 65.2995 117.116 64.1103 117.116V121.116ZM64.6455 118.754L64.2395 119.566L67.8172 121.354L68.2232 120.542L64.6455 118.754ZM67.13 118.791C66.223 118.192 65.1561 117.998 64.1243 117.998V121.998C64.6979 121.998 64.9004 122.112 64.9267 122.129L67.13 118.791ZM64.1243 117.998C62.578 117.998 61.1447 118.513 60.0838 119.703L63.0689 122.365C63.2399 122.173 63.5053 121.998 64.1243 121.998V117.998ZM60.0928 119.693C59.0272 120.871 58.6523 122.422 58.6523 124.016H62.6523C62.6523 122.997 62.8935 122.559 63.0599 122.375L60.0928 119.693ZM58.6523 124.016C58.6523 124.326 58.6708 124.656 58.7031 125.001L62.6856 124.627C62.6619 124.374 62.6523 124.172 62.6523 124.016H58.6523ZM62.514 125.644C62.5699 125.521 62.6462 125.429 62.8119 125.339L60.9008 121.825C60.0025 122.314 59.3041 123.043 58.8747 123.984L62.514 125.644ZM62.8354 125.326C63.0307 125.216 63.2966 125.134 63.6903 125.134V121.134C62.7028 121.134 61.746 121.35 60.8773 121.838L62.8354 125.326ZM63.6063 130.23C64.6888 130.23 65.7648 129.929 66.6431 129.163L64.0136 126.149C64.0015 126.159 63.9825 126.174 63.9364 126.189C63.885 126.206 63.7822 126.23 63.6063 126.23V130.23ZM66.6454 129.161C67.5659 128.356 68.0003 127.269 68.0003 126.102H64.0003C64.0003 126.147 63.9964 126.173 63.9945 126.183C63.9927 126.192 63.9922 126.19 63.9966 126.18C64.0011 126.169 64.0073 126.159 64.0135 126.15C64.0194 126.142 64.0206 126.143 64.0113 126.151L66.6454 129.161ZM68.0003 126.102C68.0003 124.934 67.5649 123.842 66.6273 123.041L64.0294 126.083C64.0353 126.088 64.0311 126.085 64.0223 126.074C64.0182 126.068 64.0139 126.062 64.0097 126.054C64.0055 126.047 64.002 126.04 63.9993 126.034C63.9935 126.021 63.9933 126.016 63.9948 126.024C63.9964 126.032 64.0003 126.057 64.0003 126.102H68.0003ZM66.6431 123.055C65.7425 122.269 64.6282 121.988 63.5363 121.988V125.988C63.7484 125.988 63.8754 126.015 63.9413 126.036C63.9734 126.046 63.9917 126.056 64.0003 126.06C64.0086 126.065 64.0121 126.068 64.0136 126.069L66.6431 123.055ZM63.5363 121.988C62.7869 121.988 62.0402 122.131 61.3435 122.47L63.0972 126.066C63.1658 126.032 63.2965 125.988 63.5363 125.988V121.988ZM61.3259 122.479C60.6594 122.812 60.0884 123.298 59.6669 123.94L63.0098 126.136C63.0176 126.124 63.0346 126.097 63.1148 126.057L61.3259 122.479ZM59.6669 123.94C59.2319 124.602 59.0163 125.349 59.0163 126.13H63.0163C63.0163 126.119 63.0171 126.114 63.0171 126.114C63.0171 126.114 63.0167 126.117 63.0152 126.122C63.0137 126.127 63.0119 126.131 63.0101 126.135C63.0085 126.139 63.0079 126.139 63.0098 126.136L59.6669 123.94ZM59.0163 126.13C59.0163 126.874 59.2175 127.583 59.6087 128.217L63.0119 126.115C63.0091 126.11 63.0089 126.109 63.0099 126.112C63.0109 126.114 63.0124 126.118 63.0139 126.123C63.0153 126.128 63.0161 126.132 63.0164 126.135C63.0167 126.137 63.0163 126.136 63.0163 126.13H59.0163ZM59.6312 128.253C60.0598 128.915 60.652 129.395 61.3119 129.725L63.1008 126.147C63.0355 126.115 63.0034 126.09 62.9919 126.08C62.9816 126.071 62.9839 126.071 62.9895 126.079L59.6312 128.253ZM61.3119 129.725C62.0393 130.089 62.8261 130.23 63.6063 130.23V126.23C63.3039 126.23 63.1574 126.175 63.1008 126.147L61.3119 129.725ZM70.0376 128.482L68.9101 130.134L68.9161 130.138L68.9222 130.142L70.0376 128.482ZM68.6516 126.76L66.8157 127.553L66.8216 127.567L66.8278 127.581L68.6516 126.76ZM68.6516 121.454L66.8239 120.642L66.8193 120.652L68.6516 121.454ZM70.0376 119.718L68.9222 118.058L68.9161 118.062L68.9101 118.066L70.0376 119.718ZM74.0836 119.718L72.9561 121.37L72.9621 121.374L72.9682 121.378L74.0836 119.718ZM75.4836 121.454L73.656 122.266L73.6598 122.275L75.4836 121.454ZM75.4836 126.76L77.3075 127.581L77.3112 127.572L75.4836 126.76ZM74.0836 128.482L72.9682 126.822L72.9621 126.826L72.9561 126.83L74.0836 128.482ZM73.5656 127.684L72.3934 126.064L72.3851 126.07L72.3768 126.076L73.5656 127.684ZM74.5876 126.298L76.4445 127.041V127.041L74.5876 126.298ZM74.5876 121.902L76.4445 121.159V121.159L74.5876 121.902ZM73.5656 120.516L72.3768 122.124L72.3851 122.13L72.3934 122.136L73.5656 120.516ZM70.5556 120.516L69.3834 118.896L69.3751 118.902L69.3668 118.908L70.5556 120.516ZM69.5476 121.902L71.4045 122.645V122.645L69.5476 121.902ZM69.5476 126.298L71.4045 125.555L69.5476 126.298ZM70.5556 127.684L69.3668 129.292L69.3751 129.298L69.3834 129.304L70.5556 127.684ZM72.0676 127.084C71.6877 127.084 71.4034 126.99 71.153 126.822L68.9222 130.142C69.8665 130.777 70.9355 131.084 72.0676 131.084V127.084ZM71.1651 126.83C70.9247 126.666 70.6834 126.401 70.4754 125.939L66.8278 127.581C67.2918 128.612 67.9745 129.495 68.9101 130.134L71.1651 126.83ZM70.4875 125.967C70.2914 125.513 70.1616 124.907 70.1616 124.1H66.1616C66.1616 125.328 66.3585 126.495 66.8157 127.553L70.4875 125.967ZM70.1616 124.1C70.1616 123.292 70.2917 122.695 70.4839 122.256L66.8193 120.652C66.3582 121.706 66.1616 122.873 66.1616 124.1H70.1616ZM70.4792 122.266C70.6892 121.794 70.9308 121.53 71.1651 121.37L68.9101 118.066C67.9683 118.709 67.286 119.602 66.824 120.642L70.4792 122.266ZM71.153 121.378C71.4034 121.21 71.6877 121.116 72.0676 121.116V117.116C70.9355 117.116 69.8665 117.423 68.9222 118.058L71.153 121.378ZM72.0676 121.116C72.4476 121.116 72.7214 121.21 72.9561 121.37L75.2111 118.066C74.2698 117.424 73.1996 117.116 72.0676 117.116V121.116ZM72.9682 121.378C73.2085 121.54 73.4495 121.802 73.656 122.266L77.3112 120.642C76.8457 119.594 76.1534 118.699 75.199 118.058L72.9682 121.378ZM73.6598 122.275C73.8551 122.709 73.9876 123.299 73.9876 124.1H77.9876C77.9876 122.866 77.7841 121.693 77.3074 120.633L73.6598 122.275ZM73.9876 124.1C73.9876 124.9 73.8554 125.499 73.656 125.948L77.3112 127.572C77.7838 126.509 77.9876 125.335 77.9876 124.1H73.9876ZM73.6598 125.939C73.4553 126.394 73.2147 126.656 72.9682 126.822L75.199 130.142C76.1472 129.505 76.8399 128.62 77.3074 127.581L73.6598 125.939ZM72.9561 126.83C72.7214 126.99 72.4476 127.084 72.0676 127.084V131.084C73.1996 131.084 74.2698 130.776 75.2111 130.134L72.9561 126.83ZM72.0676 130.16C73.0347 130.16 73.9574 129.881 74.7544 129.292L72.3768 126.076C72.3152 126.121 72.2392 126.16 72.0676 126.16V130.16ZM74.7378 129.304C75.5414 128.723 76.0906 127.926 76.4445 127.041L72.7306 125.555C72.5993 125.884 72.4671 126.01 72.3934 126.064L74.7378 129.304ZM76.4445 127.041C76.8063 126.136 76.9516 125.137 76.9516 124.1H72.9516C72.9516 124.78 72.8542 125.246 72.7306 125.555L76.4445 127.041ZM76.9516 124.1C76.9516 123.063 76.8063 122.064 76.4445 121.159L72.7306 122.645C72.8542 122.954 72.9516 123.42 72.9516 124.1H76.9516ZM76.4445 121.159C76.0906 120.274 75.5414 119.477 74.7378 118.896L72.3934 122.136C72.4671 122.19 72.5993 122.316 72.7306 122.645L76.4445 121.159ZM74.7544 118.908C73.9574 118.319 73.0347 118.04 72.0676 118.04V122.04C72.2392 122.04 72.3151 122.079 72.3768 122.124L74.7544 118.908ZM72.0676 118.04C71.1004 118.04 70.1813 118.318 69.3834 118.896L71.7278 122.136C71.8072 122.079 71.8961 122.04 72.0676 122.04V118.04ZM69.3668 118.908C68.5781 119.491 68.0404 120.285 67.6906 121.159L71.4045 122.645C71.5401 122.306 71.6744 122.176 71.7444 122.124L69.3668 118.908ZM67.6906 121.159C67.3289 122.064 67.1836 123.063 67.1836 124.1H71.1836C71.1836 123.42 71.2809 122.954 71.4045 122.645L67.6906 121.159ZM67.1836 124.1C67.1836 125.137 67.3289 126.136 67.6906 127.041L71.4045 125.555C71.2809 125.246 71.1836 124.78 71.1836 124.1H67.1836ZM67.6906 127.041C68.0404 127.915 68.5781 128.709 69.3668 129.292L71.7444 126.076C71.6744 126.024 71.5401 125.894 71.4045 125.555L67.6906 127.041ZM69.3834 129.304C70.1813 129.882 71.1004 130.16 72.0676 130.16V126.16C71.8961 126.16 71.8072 126.121 71.7278 126.064L69.3834 129.304ZM78.4251 123.47L77.4092 125.193L77.4257 125.203L77.4425 125.212L78.4251 123.47ZM77.5571 122.616L75.8263 123.618L75.836 123.635L75.8461 123.652L77.5571 122.616ZM77.5571 120.264L75.8344 119.248L75.8303 119.255L75.8263 119.262L77.5571 120.264ZM78.4251 119.41L79.4078 121.152L79.4245 121.143L79.4411 121.133L78.4251 119.41ZM80.8331 119.41L79.8172 121.133L79.8337 121.143L79.8505 121.152L80.8331 119.41ZM81.6871 120.264L79.9452 121.247L79.9602 121.273L79.9761 121.3L81.6871 120.264ZM81.6871 122.616L79.9761 121.58L79.966 121.597L79.9563 121.614L81.6871 122.616ZM80.8331 123.47L81.8158 125.212L81.8325 125.203L81.8491 125.193L80.8331 123.47ZM80.6231 122.448L79.2089 121.034L79.1965 121.046L79.1843 121.059L80.6231 122.448ZM80.6231 120.418L79.1843 121.807L79.1965 121.82L79.2089 121.832L80.6231 120.418ZM78.6211 120.418L80.0353 121.832L78.6211 120.418ZM78.6211 122.448L80.0353 121.034L80.0353 121.034L78.6211 122.448ZM79.6291 121.778C79.517 121.778 79.4568 121.756 79.4078 121.728L77.4425 125.212C78.1214 125.595 78.8639 125.778 79.6291 125.778V121.778ZM79.4411 121.747C79.3563 121.697 79.3081 121.646 79.2681 121.58L75.8461 123.652C76.2355 124.295 76.766 124.813 77.4092 125.193L79.4411 121.747ZM79.288 121.614C79.2675 121.579 79.2491 121.535 79.2491 121.44H75.2491C75.2491 122.204 75.4361 122.944 75.8263 123.618L79.288 121.614ZM79.2491 121.44C79.2491 121.345 79.2675 121.301 79.288 121.266L75.8263 119.262C75.4361 119.936 75.2491 120.676 75.2491 121.44H79.2491ZM79.2799 121.28C79.318 121.215 79.3536 121.183 79.4078 121.152L77.4425 117.668C76.7687 118.048 76.2256 118.585 75.8344 119.248L79.2799 121.28ZM79.4411 121.133C79.4853 121.107 79.5336 121.088 79.6291 121.088V117.088C78.8473 117.088 78.093 117.284 77.4092 117.687L79.4411 121.133ZM79.6291 121.088C79.7247 121.088 79.773 121.107 79.8172 121.133L81.8491 117.687C81.1653 117.284 80.4109 117.088 79.6291 117.088V121.088ZM79.8505 121.152C79.8969 121.178 79.919 121.2 79.9452 121.247L83.4291 119.281C83.0446 118.6 82.4974 118.053 81.8158 117.668L79.8505 121.152ZM79.9761 121.3C79.9948 121.33 80.0091 121.362 80.0091 121.44H84.0091C84.0091 120.659 83.8088 119.907 83.3981 119.228L79.9761 121.3ZM80.0091 121.44C80.0091 121.518 79.9948 121.55 79.9761 121.58L83.3981 123.652C83.8088 122.973 84.0091 122.221 84.0091 121.44H80.0091ZM79.9563 121.614C79.9288 121.661 79.8945 121.702 79.8172 121.747L81.8491 125.193C82.4998 124.809 83.0348 124.28 83.418 123.618L79.9563 121.614ZM79.8505 121.728C79.8014 121.756 79.7412 121.778 79.6291 121.778V125.778C80.3943 125.778 81.1368 125.595 81.8158 125.212L79.8505 121.728ZM79.6291 124.854C80.5327 124.854 81.3966 124.526 82.0619 123.837L79.1843 121.059C79.2365 121.005 79.3178 120.944 79.4224 120.901C79.5242 120.859 79.6019 120.854 79.6291 120.854V124.854ZM82.0373 123.862C82.7028 123.197 83.0291 122.343 83.0291 121.44H79.0291C79.0291 121.412 79.0346 121.34 79.0725 121.246C79.111 121.15 79.1648 121.078 79.2089 121.034L82.0373 123.862ZM83.0291 121.44C83.0291 120.542 82.7123 119.679 82.0373 119.004L79.2089 121.832C79.1603 121.784 79.1063 121.709 79.0689 121.615C79.0327 121.524 79.0291 121.457 79.0291 121.44H83.0291ZM82.0619 119.029C81.3966 118.34 80.5327 118.012 79.6291 118.012V122.012C79.6019 122.012 79.5242 122.007 79.4224 121.965C79.3178 121.922 79.2365 121.861 79.1843 121.807L82.0619 119.029ZM79.6291 118.012C78.726 118.012 77.8724 118.338 77.2069 119.004L80.0353 121.832C79.9913 121.876 79.9191 121.93 79.8233 121.969C79.7295 122.006 79.6569 122.012 79.6291 122.012V118.012ZM77.2069 119.004C76.532 119.679 76.2151 120.542 76.2151 121.44H80.2151C80.2151 121.457 80.2116 121.524 80.1753 121.615C80.138 121.709 80.084 121.784 80.0353 121.832L77.2069 119.004ZM76.2151 121.44C76.2151 122.343 76.5414 123.197 77.2069 123.862L80.0353 121.034C80.0794 121.078 80.1332 121.15 80.1718 121.246C80.2096 121.34 80.2151 121.412 80.2151 121.44H76.2151ZM77.2069 123.862C77.8724 124.528 78.726 124.854 79.6291 124.854V120.854C79.6569 120.854 79.7295 120.86 79.8233 120.897C79.9191 120.936 79.9913 120.99 80.0353 121.034L77.2069 123.862Z" fill="white"/>
<path d="M68.5 96.727V46.5H83.8531L97.5 55.273V105.5H82.1469L68.5 96.727Z" fill="white" stroke="#C2C2C2"/>
<path d="M82 55H97M82 55L68.5 46.5M82 55V105" stroke="#C2C2C2" stroke-linecap="round"/>
<path d="M30.5 96.727V46.5H45.8531L59.5 55.273V105.5H44.1469L30.5 96.727Z" fill="white" stroke="#C2C2C2"/>
<path d="M44 55H59M44 55L30.5 46.5M44 55V105" stroke="#C2C2C2" stroke-linecap="round"/>
<rect y="66" width="20" height="20" fill="#FF1E3C"/>
<path d="M6 72V80M6 80H14M6 80L14 72" stroke="white"/>
<path d="M7.49026 82.0004C7.48533 82.3181 7.48386 82.6356 7.48146 82.9536L7.4797 83.0873L7.34604 83.0926C7.02888 83.103 6.71027 83.1065 6.39103 83.1084C6.37371 86.3376 6.38329 89.5654 6.38224 92.7938V92.9328L6.2433 92.9345C5.97527 92.9373 5.70558 92.9399 5.43603 92.9469L5.29006 92.9504L5.29181 92.8044C5.29733 92.4888 5.29498 92.1736 5.2883 91.8599C4.19294 91.8508 3.09653 91.8452 2.00118 91.8635C2.00259 92.9546 1.99907 94.0454 2.00118 95.1365C2.3187 95.1426 2.64002 95.1574 2.96147 95.1347L3.13734 95.1224L3.11096 95.2966C3.06495 95.6116 3.09569 95.9305 3.09689 96.2463C3.39996 96.2622 3.70509 96.2651 4.01144 96.2656H4.14159L4.15214 96.3958C4.20297 97.0703 4.17781 97.7476 4.18907 98.4254C4.50385 98.4382 4.82069 98.4434 5.13704 98.4465L5.27423 98.4482L5.27598 98.5854C5.28105 99.2621 5.27952 99.9385 5.29006 100.615C5.60778 100.62 5.92773 100.636 6.24857 100.617L6.41038 100.608L6.39806 100.768C6.34466 101.444 6.39096 102.126 6.38576 102.805C6.69517 102.811 7.00428 102.815 7.31438 102.817H7.45332L7.45508 102.956C7.46871 104.001 7.462 105.046 7.47618 106.092C9.27996 106.118 11.0851 106.12 12.8896 106.118C14.737 106.115 16.5841 106.131 18.4315 106.087C18.4019 105.044 18.4953 104.003 18.4526 102.961L18.4473 102.812L18.5968 102.815C18.9068 102.824 19.2174 102.818 19.5254 102.808C19.5369 101.772 19.5381 100.734 19.5395 99.697V99.5686L19.6661 99.5563C19.981 99.5261 20.2985 99.5239 20.6176 99.5264C20.6253 98.3653 20.6037 97.205 20.6387 96.044V96.0405V96.037C20.6002 94.6424 20.6274 93.2464 20.6106 91.8512C20.2976 91.8536 19.9855 91.8503 19.6749 91.8459L19.5395 91.8441L19.536 91.7087C19.5297 91.401 19.5258 91.0914 19.5307 90.7818C19.2096 90.7725 18.8905 90.7825 18.5722 90.7642L18.4491 90.7572L18.4403 90.6341C18.4177 90.3141 18.4288 89.991 18.4244 89.6668C17.7438 89.6641 17.0637 89.6697 16.3843 89.6597L16.2471 89.658L16.2453 89.5208C16.2401 89.2136 16.2364 88.9062 16.2401 88.5975C15.1959 88.5422 14.1489 88.578 13.1042 88.5658L12.9705 88.564L12.9653 88.4321C12.951 88.1157 12.9452 87.7984 12.9459 87.4789C12.2666 87.4756 11.5876 87.4811 10.9093 87.4666L10.7738 87.4631L10.7721 87.3276C10.7587 85.922 10.7663 84.5159 10.7615 83.1101C10.5804 83.1084 10.3992 83.107 10.2181 83.1066C10.083 83.1064 9.94848 83.107 9.81357 83.1084L9.66935 83.1101L9.67111 82.9659C9.67594 82.6433 9.67539 82.3206 9.64473 82.0004C8.92644 82.0025 8.20853 82.0046 7.49025 82.0004H7.49026Z" fill="white"/>
<path d="M7.48913 82C8.2074 82.0042 8.92568 82.0028 9.64395 82.0007C9.67843 82.3609 9.67702 82.7232 9.66998 83.0841C8.93975 83.0911 8.21022 83.082 7.47998 83.0911C7.48279 82.7274 7.4835 82.3637 7.48913 82Z" fill="#1C1C1C"/>
<path d="M6.39055 83.108C6.75356 83.1059 7.11727 83.1066 7.48027 83.0911C7.48098 87.1074 7.48731 91.1237 7.48309 95.14C7.11727 95.1484 6.75145 95.1484 6.38562 95.1407C6.37859 94.7812 6.37859 94.421 6.38351 94.0608C6.0198 94.0468 5.65609 94.0489 5.29238 94.0503C5.28042 93.6831 5.27761 93.3151 5.29168 92.9479C5.65469 92.9345 6.0184 92.9387 6.38211 92.9331C6.38352 89.6583 6.37296 86.3835 6.39055 83.108Z" fill="#1C1C1C"/>
<path d="M9.67446 83.1095C10.0368 83.1045 10.3991 83.1067 10.7614 83.1102C10.7663 84.5622 10.7564 86.0149 10.7719 87.467C11.4965 87.486 12.2211 87.4754 12.9457 87.4789C12.945 87.8412 12.9457 88.2035 12.9668 88.5658C14.0573 88.5834 15.1498 88.5398 16.2395 88.5975C16.2353 88.9513 16.2374 89.3052 16.2452 89.6591C16.9712 89.6724 17.6979 89.664 18.4246 89.6668C18.4295 90.0305 18.4063 90.3963 18.445 90.7586C18.8059 90.7903 19.1682 90.7713 19.5298 90.7819C19.5242 91.1364 19.527 91.491 19.5361 91.8456C19.8935 91.8519 20.2516 91.8547 20.6104 91.8519C20.6273 93.2483 20.5998 94.6448 20.6385 96.0405C20.6034 97.2027 20.6245 98.3649 20.6167 99.5271C20.2565 99.5243 19.8963 99.5229 19.539 99.5672C19.5376 100.647 19.5369 101.728 19.5249 102.808C19.1661 102.819 18.8066 102.831 18.4485 102.813C18.4077 101.714 18.4267 100.614 18.4373 99.5144C18.7982 99.518 19.1598 99.518 19.5214 99.5151C19.5221 96.9614 19.5242 94.4084 19.5256 91.8547C19.1647 91.8498 18.8038 91.8505 18.4429 91.8547C18.4225 91.4994 18.4457 91.1421 18.4169 90.7875C18.0588 90.7185 17.693 90.7608 17.3314 90.7593C17.3236 91.8547 17.344 92.9501 17.3222 94.0461C16.9649 94.0468 16.6068 94.0468 16.2494 94.0475C16.2248 92.5863 16.2501 91.1252 16.2409 89.664C15.5086 89.6598 14.7763 89.6619 14.0446 89.664C14.0446 90.7586 14.0559 91.8533 14.0432 92.9472C13.6802 92.955 13.3179 92.955 12.9556 92.9479C12.9486 91.4882 12.9472 90.0277 12.9647 88.5679C12.2317 88.5644 11.4993 88.5637 10.7663 88.5722C10.7586 90.0305 10.7719 91.4889 10.7663 92.9472C10.3998 92.9578 10.0325 92.9585 9.66602 92.9479C9.66602 89.6689 9.66813 86.3892 9.67446 83.1095Z" fill="#1C1C1C"/>
<path d="M2.00131 91.8631C3.09666 91.8448 4.19272 91.8505 5.28807 91.8596C5.29581 92.2226 5.30214 92.5849 5.29159 92.9479C4.56487 92.9648 3.83815 92.9522 3.11214 92.9578C3.0854 93.681 3.15083 94.4063 3.10158 95.1288C2.73576 95.171 2.36713 95.1429 2.0006 95.1358C1.99849 94.0447 2.00271 92.9543 2.00131 91.8631Z" fill="#1C1C1C"/>
<path d="M3.13127 95.1534C3.48302 95.0992 3.8404 95.1196 4.19496 95.1295C4.2027 95.4946 4.20341 95.8604 4.19989 96.2262C4.56571 96.2283 4.93083 96.2276 5.29665 96.2326C5.30509 96.9607 5.29665 97.6888 5.30087 98.4169C5.66177 98.4148 6.02337 98.4155 6.38497 98.4204C6.38004 99.1507 6.4321 99.8865 6.35753 100.613C6.00156 100.646 5.64488 100.62 5.28961 100.615C5.27836 99.8929 5.27976 99.1711 5.27343 98.4493C4.91183 98.4472 4.55023 98.4409 4.18863 98.4261C4.17667 97.7071 4.21185 96.9867 4.14642 96.2698C3.79678 96.2713 3.44644 96.2649 3.0975 96.2466C3.09609 95.8822 3.04826 95.5122 3.13127 95.1534Z" fill="#1C1C1C"/>
<path d="M6.40741 100.618C6.76479 100.59 7.12428 100.607 7.48307 100.609C7.49292 101.336 7.48377 102.062 7.48588 102.789C7.8503 102.787 8.21612 102.787 8.58124 102.8C8.58827 103.526 8.5749 104.254 8.58546 104.981C11.4987 104.988 14.4119 104.986 17.3251 104.985C17.3363 104.257 17.3222 103.53 17.33 102.802C17.7028 102.797 18.0757 102.792 18.4486 102.813C18.5077 103.904 18.4007 104.995 18.4317 106.087C16.5843 106.131 14.7369 106.115 12.8895 106.117C11.085 106.12 9.28052 106.117 7.47674 106.091C7.46196 105 7.4697 103.909 7.45352 102.819C7.09755 102.818 6.74158 102.812 6.3856 102.805C6.39123 102.077 6.33284 101.343 6.40741 100.618Z" fill="#1C1C1C"/>
<rect x="127.5" y="85.5" width="19" height="19" transform="rotate(-180 127.5 85.5)" stroke="#C2C2C2"/>
<path d="M122 80L122 72M122 72L114 72M122 72L114 80" stroke="#C2C2C2"/>
<rect x="53.5" y="6.5" width="18" height="29" rx="7.5" fill="white" stroke="#C2C2C2"/>
<path d="M53 14C53 9.58172 56.5817 6 61 6H63V16H53V14Z" fill="#FF1E3C"/>
<path d="M71.5 14C71.5 9.85786 68.1421 6.5 64 6.5H62.5V15.5H71.5V14Z" fill="white" stroke="#C2C2C2"/>
<rect x="61.5" y="12.5" width="2" height="7" rx="1" fill="white" stroke="#C2C2C2"/>
<path d="M53 6L48 1" stroke="#C2C2C2" stroke-linecap="round"/>
<path d="M55 4L53 1" stroke="#C2C2C2" stroke-linecap="round"/>
<path d="M51 8L48 6" stroke="#C2C2C2" stroke-linecap="round"/>
</svg>
