<svg width="51" height="51" viewBox="0 0 51 51" fill="none" xmlns="http://www.w3.org/2000/svg">
<rect x="25.4561" width="36" height="36" transform="rotate(45 25.4561 0)" fill="#FF1E3C"/>
<path d="M26.9763 30.3665C26.9763 31.2687 26.2273 31.9998 25.3029 31.9998C24.3785 31.9998 23.6294 31.2687 23.6294 30.3665C23.6294 29.4643 24.3785 28.7332 25.3029 28.7332C26.2273 28.7176 26.9763 29.4487 26.9763 30.3665Z" fill="white"/>
<path d="M21 22.2622C21 22.9777 22.3069 23.3199 22.6575 22.3555C23.1197 21.0644 24.9048 19.7111 26.2435 20.7066C28.1402 22.1066 24.6657 24.8133 24.1876 25.8244C24.0282 26.1355 23.9804 26.571 23.9644 27.0221C23.9644 27.2555 24.1716 27.4421 24.4107 27.4421H26.116C26.3551 27.4421 26.5623 27.271 26.6261 27.0688C26.6579 26.9444 26.7217 26.8199 26.7854 26.711C27.2954 25.871 29.7499 24.7977 29.7499 22.2777C29.7339 19.9133 27.7736 18 25.367 18C22.9604 18 21 19.9133 21 22.2622Z" fill="white"/>
</svg>
