<svg width="26" height="23" viewBox="0 0 26 23" fill="none" xmlns="http://www.w3.org/2000/svg">
<path d="M24.9655 19.6731C24.1507 19.196 23.4265 18.5929 22.7209 17.9692C22.3769 17.6488 22.039 17.3203 21.7115 16.981C21.5451 16.8137 21.3873 16.6384 21.2319 16.4615C21.0741 16.2864 20.9199 16.1078 20.7685 15.9269C19.5561 14.4811 18.5017 12.8929 17.6607 11.1963C16.8062 9.50648 16.1713 7.70793 15.7373 5.87269C15.316 4.03421 15.1031 2.14988 15.1854 0.278767L15.2609 0.271484C15.3205 0.730025 15.3659 1.19018 15.4373 1.64657C15.5137 2.10241 15.5757 2.56041 15.6742 3.01221L15.8074 3.69219L15.9652 4.36679C16.0626 4.81858 16.1977 5.26067 16.3153 5.70734C16.5805 6.59179 16.8629 7.47218 17.2081 8.32911L17.333 8.65198L17.4684 8.9708C17.5596 9.18281 17.6467 9.3967 17.7411 9.60736C17.935 10.0265 18.1255 10.447 18.3375 10.8573C19.1572 12.5121 20.1368 14.0873 21.2489 15.5622C21.8054 16.2994 22.3972 17.0101 23.0216 17.6903C23.6479 18.3679 24.3004 19.0277 25.0117 19.6132L24.9655 19.6731Z" fill="#FCFCFC"/>
<path d="M0.919171 19.6595C1.73402 19.1823 2.45825 18.5792 3.16386 17.9556C3.50777 17.6351 3.84574 17.3066 4.17319 16.9673C4.33961 16.8001 4.4974 16.6247 4.65277 16.4478C4.81056 16.2727 4.96485 16.0942 5.11616 15.9132C6.3286 14.4674 7.38297 12.8793 8.22399 11.1827C9.07849 9.49281 9.71344 7.69426 10.1474 5.85902C10.5687 4.02054 10.7816 2.13621 10.6993 0.265095L10.6238 0.257812C10.5642 0.716353 10.5188 1.17651 10.4474 1.63289C10.371 2.08874 10.309 2.54674 10.2105 2.99854L10.0773 3.67852L9.91951 4.35312C9.82214 4.80491 9.687 5.247 9.5694 5.69367C9.30426 6.57812 9.02185 7.45851 8.6766 8.31544L8.55171 8.63831L8.41631 8.95713C8.32514 9.16914 8.23801 9.38304 8.14361 9.59369C7.94967 10.0129 7.75924 10.4334 7.54724 10.8436C6.72753 12.4984 5.74787 14.0736 4.63578 15.5485C4.07932 16.2857 3.48754 16.9964 2.86311 17.6767C2.2368 18.3542 1.58432 19.014 0.873047 19.5996L0.919171 19.6595Z" fill="#FCFCFC"/>
<path d="M3.52051 22.3051C4.12093 21.6965 4.82168 21.2043 5.54753 20.7525C5.91328 20.5308 6.29252 20.332 6.67527 20.1362C6.86731 20.0401 7.06449 19.9546 7.26085 19.867L7.85857 19.6231C9.46643 19.0019 11.2005 18.6623 12.9446 18.6499C14.6892 18.6343 16.4335 18.9706 18.0444 19.5956C19.6511 20.2333 21.1303 21.149 22.3635 22.3104L22.3209 22.373C21.967 22.1532 21.6213 21.9199 21.2606 21.7116L20.715 21.4077C20.6235 21.3578 20.534 21.3046 20.4412 21.2574L20.1601 21.1215L19.5994 20.8472C19.4095 20.7622 19.2163 20.6848 19.0248 20.6033C18.6453 20.4318 18.2469 20.309 17.8564 20.1666C16.2739 19.6555 14.6121 19.3893 12.9494 19.4068C11.2879 19.4187 9.62745 19.6868 8.04333 20.1974C7.25033 20.4493 6.4762 20.7606 5.72636 21.1217C4.97597 21.4799 4.24311 21.8859 3.56582 22.3655L3.52051 22.3051Z" fill="#FCFCFC"/>
</svg>
