<svg version="1.1" id="Layer_1" xmlns="http://www.w3.org/2000/svg" xmlns:xlink="http://www.w3.org/1999/xlink" x="0px" y="0px"
	 viewBox="0 0 1920 1080" style="enable-background:new 0 0 1920 1080;" xml:space="preserve">
	<polygon class="floor-svg-polygon" data-build="1" data-floor="24" points="603,293.7 836.6,270.1 944.5,276.3 944.5,274.3 937,273.6 937,258.5 949.2,258.5 949.2,253 944.9,253
		944.9,237.9 949.2,237.9 949.2,235.5 836.9,227.4 600,257 600,258.9 603,258.9 603,273 600,273 600,277.2 605,277.2 605,291 
		603,291 	"/>
	<polygon class="floor-svg-polygon" data-build="1" data-floor="23" points="944.6,295 948.2,295 948.2,297.1 831.1,291.7 600,312.2 600,309.9 603.1,309.8 603.1,293.7
		836.6,270.1 944.5,276.3 	"/>
	<polygon class="floor-svg-polygon" data-build="1" data-floor="22" points="948.2,300.1 936.8,300.1 936.8,315.9 944.7,315.9 944.7,318.1 837.1,314 603,330.6 603,328.3
		605,328.3 605,313.9 600,313.9 600,312.2 831.1,291.7 948.2,297.1 	"/>
	<polygon class="floor-svg-polygon" data-build="1" data-floor="21" points="944.9,335.7 949.2,335.7 949.2,338.5 830.8,335.2 600.8,348.9 600.8,346.9 603.1,346.9 603.1,330.6
		837.1,314 944.7,318.1 	"/>
	<polygon class="floor-svg-polygon" data-build="1" data-floor="20" points="936.6,341.1 936.6,357.2 944.5,357.2 944.5,360 836.9,356.8 603.5,367.7 603.5,365.6 605.8,365.6
		605.8,351.1 600.8,351.1 600.8,348.9 830.8,335.2 949.2,338.5 949.2,341 	"/>
	<polygon class="floor-svg-polygon" data-build="1" data-floor="19" points="944.4,377.9 949,377.9 949,380.2 832.1,377.9 600.8,385.8 600.8,384 603.5,384 603.5,367.7
		836.9,356.8 944.5,360 	"/>
	<polygon class="floor-svg-polygon" data-build="1" data-floor="18" points="949,382.9 936.9,382.9 936.9,398.5 944.9,398.5 944.9,400.7 836.9,399.7 603.8,404 603.8,402.1
		605.9,402.1 605.9,388 600.8,388 600.8,385.8 832.1,377.9 949,380.2 	"/>
	<polygon class="floor-svg-polygon" data-build="1" data-floor="17" points="944.9,419 949,419 949,421.1 832,421.1 600.8,422.2 600.8,420.1 603.9,420.1 603.8,404 836.9,399.7
		944.9,400.7 	"/>
	<polygon class="floor-svg-polygon" data-build="1" data-floor="16" points="949,424 937,424 937,439.9 944.2,439.9 944.2,442.2 836.8,442.2 604.1,440.9 604.1,438.9 605.7,438.9
		605.7,424.8 600.8,424.8 600.8,422.2 832,421.1 949,421.1 	"/>
	<polygon class="floor-svg-polygon" data-build="1" data-floor="15" points="944.2,442.2 944.2,459.8 949,459.8 949,462.4 832,463.5 604,459 604,440.9 836.8,442.2 	"/>
	<polygon class="floor-svg-polygon" data-build="1" data-floor="14" points="937,481 944.9,481 944.9,483.1 837.1,485.3 604,477.5 604,475.1 606.7,475.1 606.7,461 608.9,461
		608.9,459.1 832,463.5 949,462.4 949,466 937.3,466 	"/>
	<polygon class="floor-svg-polygon" data-build="1" data-floor="13" points="945.2,501.1 949,501.1 949,503.9 832.1,506.1 602,495.6 602,493 603,493 603,490 604,490 604,477.5
		837.1,485.3 944.9,483.1 	"/>
	<polygon class="floor-svg-polygon" data-build="1" data-floor="12" points="937.3,506.1 937.3,522 944.8,522 944.8,525 837.3,528.3 604.8,514.5 604.8,512 607,512 607,498
		602,498 602,495.6 832.1,506.1 949,503.9 949,506.1 	"/>
	<polygon class="floor-svg-polygon" data-build="1" data-floor="11" points="944.8,542 949,542 949,544.8 832,549.2 602,532.1 602,529.8 604.9,529.8 604.9,514.5 837.3,528.3
		944.8,525 	"/>
	<polygon class="floor-svg-polygon" data-build="1" data-floor="10" points="937,562.9 945.8,562.9 945.8,565.7 837.6,570.7 605,550.8 605,548.3 607,548.3 607,534.1 602,534.1
		602,532.1 832,549.2 949,544.8 949,548 937,548 	"/>
	<polygon class="floor-svg-polygon" data-build="1" data-floor="9" points="945.9,582.9 949,582.9 949,586.1 832,591.6 602,568.2 602,566.1 604.8,566.1 605,550.8 837.6,570.7
		945.8,565.7 	"/>
	<polygon class="floor-svg-polygon" data-build="1" data-floor="8" points="949,589 938.1,589 938.1,599 942,600 942,602.9 946,602.9 946,606.4 838,613.6 604.7,586.8
		604.7,584.2 607,584.2 607,571 602,571 602,568.2 832,591.6 949,586.1 	"/>
	<polygon class="floor-svg-polygon" data-build="1" data-floor="7" points="946,620 948,621 948,623.9 949,623.9 949,626.9 831.8,634.8 602,605.1 602,603.2 603.9,601.9
		603.9,599 604.9,599 604.7,586.8 838,613.6 946,606.4 	"/>
	<polygon class="floor-svg-polygon" data-build="1" data-floor="6" points="949,629.9 937,630.2 937,650.9 837.9,658.9 605.8,625.9 605.8,620.9 607.9,620.9 607.9,607.9
		602,606.9 602,605.1 831.8,634.8 949,626.9 	"/>

	<polygon class="floor-svg-polygon" data-build="2" data-floor="24" points="990.1,277.8 1250,255.3 1331.8,261 1331.8,264.8 1326.9,265 1326.9,277.8 1329.9,277.8 1331.8,279
		1331.8,283 1323.1,283 1323.1,297.1 1327.1,297.1 1327.1,298.6 1323,298.6 1250,294.3 993.9,311.4 993.9,309 995.9,309 995.9,297 
		990.1,297 990.1,293 993.1,293 993.1,281 990.1,281 	"/>
	<polygon class="floor-svg-polygon" data-build="2" data-floor="23" points="1327.1,298.6 1327.1,314 1330.1,314.1 1331.8,314.1 1331.8,315.9 1244.9,312.4 990.1,327.2
		990.1,326.1 991.3,325.5 991.3,323.1 993.9,323.1 993.9,311.4 1250,294.3 1323,298.6 	"/>
	<polygon class="floor-svg-polygon" data-build="2" data-floor="22" points="1322,319 1322,331.9 1326.9,331.9 1326.9,334 1244,330.7 993,343.7 993,341.3 996,341.3 996,329
		990.1,329 990.1,327.2 1244.9,312.4 1331.8,315.9 1331.8,318.2 	"/>
	<polygon class="floor-svg-polygon" data-build="2" data-floor="21" points="1326.8,350 1326.8,334 1244,330.7 993,343.7 993,355 990.1,357.5 990.1,359.4 1243,349 1331,351.7
		1331,350 	"/>
	<polygon class="floor-svg-polygon" data-build="2" data-floor="20" points="1331,354 1322,354 1322,367.9 1326.2,367.9 1326.2,369.8 1243,367.5 993.7,375.9 993.7,374 995.7,374
		995.7,361 990.1,361 990.1,359.4 1243,349 1331,351.7 	"/>
	<polygon class="floor-svg-polygon" data-build="2" data-floor="19" points="1326.2,369.8 1326.2,385 1330.8,385 1330.8,387 1243.9,385.8 990.1,391.5 990.1,389.5 993.7,389.2
		993.7,375.9 1243,367.5 	"/>
	<polygon class="floor-svg-polygon" data-build="2" data-floor="18" points="1321.9,402.8 1325.9,402.8 1325.9,405.1 1249.3,404 993.7,407.5 993.7,405.6 995.8,405.6 995.8,393
		990.1,393 990.1,391.5 1243.9,385.8 1330.8,387 1330.8,389.1 1321.8,389.1 	"/>
	<polygon class="floor-svg-polygon" data-build="2" data-floor="17" points="1325.9,421 1329.9,421 1329.9,422.8 1244.1,421.9 993.7,422.8 993.7,407.5 1249.3,404 1325.9,405.1
		"/>
	<polygon class="floor-svg-polygon" data-build="2" data-floor="16" points="1329.9,424.8 1321.2,424.8 1321.2,435.1 1321.2,438.4 1325.9,438.4 1325.9,440.6 1243.1,440.6
		994.1,439.8 994.1,437.9 995.9,437.9 995.9,424.8 993.7,424.8 993.7,422.8 1244.1,421.9 1329.9,422.8 	"/>
	<polygon class="floor-svg-polygon" data-build="2" data-floor="15" points="1325.9,456 1329.9,456 1329.9,457.8 1243.9,458.7 991.3,454.9 991.3,453.2 994.2,453.2 994.2,439.8
		1243.1,440.6 1325.9,440.6 	"/>
	<polygon class="floor-svg-polygon" data-build="2" data-floor="14" points="1329.9,460.1 1321.1,460.1 1321.1,473 1326.1,473 1326.1,476 1242.9,477.2 993,471.5 993,469.1
		995.9,469.1 995.9,457.1 991.3,457.1 991.3,454.9 1243.9,458.7 1329.9,457.8 	"/>
	<polygon class="floor-svg-polygon" data-build="2" data-floor="13" points="1326,491 1329.9,491 1329.9,493.4 1242.6,495.3 990.1,486.9 990.1,485.3 992.9,485.3 992.9,471.5
		1242.9,477.2 1326.1,476 	"/>
	<polygon class="floor-svg-polygon" data-build="2" data-floor="12" points="1321.3,508.2 1326.1,508.2 1326.1,511.3 1242.1,513.9 992.9,503.7 992.9,501.2 994.7,501.2
		994.7,489.8 990.1,489.8 990.1,486.9 1242.6,495.3 1329.9,493.4 1329.9,496.1 1321.1,496.1 	"/>
	<polygon class="floor-svg-polygon" data-build="2" data-floor="11" points="1326.1,526.9 1329.9,526.9 1329.9,528.8 1242.7,531.3 990.1,518.8 990.1,516.9 993,516.9 993,503.7
		1242.1,513.9 1326.1,511.3 	"/>
	<polygon class="floor-svg-polygon" data-build="2" data-floor="10" points="1329.9,531 1321,531 1321,544 1324.9,544 1324.9,546.9 1241.9,550.1 993.8,534.9 993.8,533.1
		995.7,533.1 995.7,521.1 990.1,521.1 990.1,518.8 1242.7,531.3 1329.9,528.8 	"/>
	<polygon class="floor-svg-polygon" data-build="2" data-floor="9" points="1324.8,561.5 1329,561.5 1329,564.2 1242.9,567.6 990.1,550.8 990.1,548.4 994.1,548.4 994.1,534.9
		1241.9,550.1 1324.9,546.9 	"/>
	<polygon class="floor-svg-polygon" data-build="2" data-floor="8" points="1329,566 1321,566 1321,578.4 1325,578.4 1325,581.3 1241.9,586.1 993,567.6 993,565 995,565 995,553
		990.1,553 990.1,550.8 1242.9,567.6 1329,564.2 	"/>
	<polygon class="floor-svg-polygon" data-build="2" data-floor="7" points="1324.9,594.1 1327.2,594.1 1329,597.1 1329,599.2 1241.9,604.2 990.1,582.4 990.1,580.2 993.1,580.2
		993.1,567.6 1241.9,586.1 1325,581.3 	"/>
	<polygon class="floor-svg-polygon" data-build="2" data-floor="6" points="1329,601.2 1320.1,601.2 1320.1,614 1324.1,614 1324.1,618 1241.7,624.9 992.8,600.9 992.8,596.3
		994.8,596.3 994.8,584.8 990.1,584.8 990.1,582.4 1241.9,604.2 1329,599.2 	"/>

	<!-- удалить этот полигон когда дом будет в продаже -->
	<polygon class="floor-svg-polygon" style="z-index:555;" data-build="1" data-floor="6" points="949.2,235.5 836.9,227.4 600,257  605.8,625.9 837.9,658.9 950,650.9 "/>


	<symbol id="info-svg-polygon-left119" viewBox="0 0 60 30" data-build="1" class="info-svg-polygon-left">
		<path fill-rule="evenodd" clip-rule="evenodd" d="M-0.000435142 28.4214L50.5259 28.4214V21.7107L59.5259 14.2107L50.5259 6.71073L50.5259 0.00033548L-0.000435142 0.00033548L-0.000435142 28.4214Z" class="floor-rect"  />
		<text x="25" y="13" class="floor-text">15</text>
	</symbol>
	<use x="520" y="0" width="60px" height="30px" data-build="1" xlink:href="#info-svg-polygon-left119" class="floor-info-svg"></use>


	<symbol id="info-svg-polygon-right119" viewBox="0 0 60 30" data-build="2" class="info-svg-polygon-right">
		<path fill-rule="evenodd" clip-rule="evenodd" d="M59.5263 0H9V6.71065L0 14.2107L9 21.7107V28.4211H59.5263V0Z" class="floor-rect"  />
		<text x="35" y="13" class="floor-text">15</text>
	</symbol>
	<use x="1330" y="0" width="60px" height="30px" data-build="2" xlink:href="#info-svg-polygon-right119" class="floor-info-svg"></use>

</svg>
