<svg preserveAspectRatio="xMidYMid slice" id="floor--svg"  viewBox="0 0 1920 1213" version="1.0" xmlns="http://www.w3.org/2000/svg"><polygon  data-sec="1" data-build="1" data-floor="2" class="s3d-svg__house js-s3d-svg__house" points="772.5,936.5,772.5,936.5,772.5,936.5,772.5,936.5,812,932.25,812,932.25,812,932.25,812,932.25,834.75,930,834.75,930,834.75,930,834.75,930,859,928,859,928,859,928,859,928,883,926.5,883,926.5,883,926.5,883,926.5,906,924.5,906,924.5,906,924.5,906,924.5,930.5,924.5,930.5,924.5,930.5,924.5,930.5,924.5,968,923.25,968,923.25,968,923.25,968,923.25,993,922.5,993,922.5,993,922.5,993,922.5,1019.25,921.75,1019.25,921.75,1019.25,921.75,1019.25,921.75,1043.5,923,1043.5,923,1043.5,923,1043.5,923,1070.25,924,1070.25,924,1070.25,924,1070.25,924,1094.5,925,1094.5,925,1094.5,925,1094.5,925,1119.5,926.75,1119.5,926.75,1119.5,926.75,1119.5,926.75,1145.25,929,1145.25,929,1145.25,929,1145.25,929,1169.25,929,1169.25,929,1169.25,929,1169.25,929,1190.5,930,1190.5,930,1190.5,930,1190.5,930,1236,917.25,1236,917.25,1236,917.25,1236,917.25,1237,940.5,1237,940.5,1237,940.5,1237,940.5,1191.25,954.75,1191.25,954.75,1191.25,954.75,1191.25,954.75,1146,953.25,1146,953.25,1146,953.25,1146,953.25,1118.75,951.5,1118.75,951.5,1118.75,951.5,1118.75,951.5,1068.75,949.75,1068.75,949.75,1068.75,949.75,1068.75,949.75,1009,949.75,1009,949.75,1009,949.75,1009,949.75,964.75,951,964.75,951,964.75,951,964.75,951,904.75,951,904.75,951,904.75,951,904.75,951,856.25,954.75,856.25,954.75,856.25,954.75,856.25,954.75,773.25,964.25,773.25,964.25,773.25,964.25,773.25,964.25,699,945.5,699,945.5,699,945.5,699,945.5,700,922,700,922,700,922,700,922"></polygon><polygon  data-sec="1" data-build="1" data-floor="3" class="s3d-svg__house js-s3d-svg__house" points="699.5,921.75,699.5,921.75,700,898.25,700,898.25,774.75,911,774.75,911,802.25,910,802.25,910,823.25,908.25,823.25,908.25,845.25,906.75,845.25,906.75,868.25,905.5,868.25,905.5,894.25,903.5,894.25,903.5,918.25,902.5,918.25,902.5,943,901.75,943,901.75,967.5,902.5,967.5,902.5,993,902.25,993,902.25,1019,901.5,1019,901.5,1044.25,901,1044.25,901,1069.75,901.25,1069.75,901.25,1094.25,902.75,1094.25,902.75,1121,903.5,1121,903.5,1145.25,905,1145.25,905,1170.5,905,1170.5,905,1190,905,1190,905,1236.5,892.5,1236.5,892.5,1236.25,917,1236.25,917,1189.75,929.5,1189.75,929.5,1169.5,929.5,1169.5,929.5,1144.75,929.5,1144.75,929.5,1119.25,926.75,1119.25,926.75,1094.5,924.5,1094.5,924.5,1071,924.5,1071,924.5,1044,923,1044,923,1019.25,921.25,1019.25,921.25,992.25,922.5,992.25,922.5,968.5,923,968.5,923,930.25,924.5,930.25,924.5,906.5,924,906.5,924,882.25,926,882.25,926,858.5,928.25,858.5,928.25,834.75,930.75,834.75,930.75,811.5,931.75,811.5,931.75,772.25,936.75,772.25,936.75"></polygon><polygon  data-sec="1" data-build="1" data-floor="4" class="s3d-svg__house js-s3d-svg__house" points="699.75,898.25,699.75,898.25,700.5,877.25,700.5,877.25,774,887.25,774,887.25,800.5,886,800.5,886,822.75,884.5,822.75,884.5,846,883,846,883,868.5,881.5,868.5,881.5,893.75,880.5,893.75,880.5,918.25,879.25,918.25,879.25,942.75,878.75,942.75,878.75,967.75,878.5,967.75,878.5,992.5,878,992.5,878,1018.5,878.25,1018.5,878.25,1043.75,877.5,1043.75,877.5,1069.75,878.25,1069.75,878.25,1094,879.5,1094,879.5,1119,880.75,1119,880.75,1144.25,882,1144.25,882,1169,883.25,1169,883.25,1190.25,881.75,1190.25,881.75,1236.75,869.75,1236.75,869.75,1236.5,893.25,1236.5,893.25,1189.5,906,1189.5,906,1171,905.25,1171,905.25,1144.25,905.5,1144.25,905.5,1121.5,904,1121.5,904,1093.5,902,1093.5,902,1068.75,901.5,1068.75,901.5,1044,902.25,1044,902.25,1018.25,902.25,1018.25,902.25,992.25,902,992.25,902,967,902.75,967,902.75,943,901.25,943,901.25,916.75,902.25,916.75,902.25,894,903.5,894,903.5,867.75,906,867.75,906,844.5,907,844.5,907,822.75,908.75,822.75,908.75,801.75,909.75,801.75,909.75,774.5,911.75,774.5,911.75"></polygon><polygon  data-sec="1" data-build="1" data-floor="5" class="s3d-svg__house js-s3d-svg__house" points="699.75,877,699.75,877,700.25,855.75,700.25,855.75,774.5,861.5,774.5,861.5,801.25,861.5,801.25,861.5,822.75,860.75,822.75,860.75,845.5,859.25,845.5,859.25,868.75,858.25,868.75,858.25,894,857.25,894,857.25,918,855.25,918,855.25,942.25,855,942.25,855,967.5,853.75,967.5,853.75,992.5,854.5,992.5,854.5,1019,854.5,1019,854.5,1044,854.5,1044,854.5,1069.75,854.5,1069.75,854.5,1093.75,855.25,1093.75,855.25,1119.25,856.25,1119.25,856.25,1144.5,857,1144.5,857,1169.25,858,1169.25,858,1190.5,858.5,1190.5,858.5,1236.75,846.25,1236.75,846.25,1236.5,869.75,1236.5,869.75,1189.75,882.25,1189.75,882.25,1168.5,883.25,1168.5,883.25,1143.25,881.75,1143.25,881.75,1119,881,1119,881,1094.5,880.25,1094.5,880.25,1070,877.75,1070,877.75,1042.25,878,1042.25,878,1018,878,1018,878,992,877.75,992,877.75,967.25,878.5,967.25,878.5,942.25,879,942.25,879,917.75,879,917.75,879,893.5,880.25,893.5,880.25,867.75,882.25,867.75,882.25,846.25,883,846.25,883,823,884.75,823,884.75,800,886.25,800,886.25,773.5,887,773.5,887"></polygon><polygon  data-sec="1" data-build="1" data-floor="6" class="s3d-svg__house js-s3d-svg__house" points="700,855.5,700,855.5,700.25,835,700.25,835,773.5,839,773.5,839,801.25,838,801.25,838,823.75,836.25,823.75,836.25,846,835,846,835,868.75,833.5,868.75,833.5,894.5,832.5,894.5,832.5,917.75,831.75,917.75,831.75,942.75,830.75,942.75,830.75,968.25,831,968.25,831,992.5,831.25,992.5,831.25,1018,831.25,1018,831.25,1043.5,831.25,1043.5,831.25,1069.25,831.75,1069.25,831.75,1094,832,1094,832,1119.75,833,1119.75,833,1144.75,833.75,1144.75,833.75,1169.25,835.25,1169.25,835.25,1190.25,834.5,1190.25,834.5,1236.75,823,1236.75,823,1237,845.75,1237,845.75,1190,858.25,1190,858.25,1169,858.5,1169,858.5,1144.5,856.75,1144.5,856.75,1118.75,856.25,1118.75,856.25,1093,855.75,1093,855.75,1069.75,854.75,1069.75,854.75,1043,854.25,1043,854.25,1018.5,855,1018.5,855,992,854.25,992,854.25,967.5,853.75,967.5,853.75,942.25,854.75,942.25,854.75,917.25,855.25,917.25,855.25,893.5,856.75,893.5,856.75,868,857.75,868,857.75,844.25,859.25,844.25,859.25,821.5,860.5,821.5,860.5,801.25,862,801.25,862,774.25,861.75,774.25,861.75"></polygon><polygon  data-sec="1" data-build="1" data-floor="7" class="s3d-svg__house js-s3d-svg__house" points="700.75,834.75,700.75,834.75,700.75,811,700.75,811,774.5,812.75,774.5,812.75,800.75,812.25,800.75,812.25,823.25,811.75,823.25,811.75,845.5,811.25,845.5,811.25,868.75,809.75,868.75,809.75,893.5,809.5,893.5,809.5,917.5,808.5,917.5,808.5,942.75,808,942.75,808,967,808,967,808,992.75,807.75,992.75,807.75,1018.5,807.75,1018.5,807.75,1043.75,807.75,1043.75,807.75,1069.5,807,1069.5,807,1093.25,808,1093.25,808,1119.25,808.75,1119.25,808.75,1144.75,809.25,1144.75,809.25,1190.25,810,1190.25,810,1236.5,797.75,1236.5,797.75,1236.25,822.5,1236.25,822.5,1190.75,834.75,1190.75,834.75,1169.25,835.25,1169.25,835.25,1144.25,833.25,1144.25,833.25,1120.25,832.25,1120.25,832.25,1093.5,832.25,1093.5,832.25,1069,832.25,1069,832.25,1043,830.75,1043,830.75,1017.5,831.5,1017.5,831.5,992.25,831.75,992.25,831.75,967,830.5,967,830.5,942.5,831.5,942.5,831.5,917,831.75,917,831.75,893.75,832,893.75,832,868.75,833,868.75,833,846.25,835.25,846.25,835.25,823.75,836.75,823.75,836.75,800.5,838.75,800.5,838.75,773.5,839.25,773.5,839.25"></polygon><polygon  data-sec="1" data-build="1" data-floor="8" class="s3d-svg__house js-s3d-svg__house" points="700.5,810.75,700.5,810.75,700.25,785.25,700.25,785.25,774,787.25,774,787.25,800.75,787.25,800.75,787.25,824,786.25,824,786.25,846,786,846,786,869.25,785.5,869.25,785.5,893.75,784.25,893.75,784.25,918.25,784.5,918.25,784.5,942.75,783.5,942.75,783.5,967.75,783.5,967.75,783.5,992.75,784,992.75,784,1019,783.25,1019,783.25,1044.5,782.75,1044.5,782.75,1070.25,783,1070.25,783,1093.25,783.5,1093.25,783.5,1119.75,784,1119.75,784,1144.75,785.5,1144.75,785.5,1170.25,786.25,1170.25,786.25,1190.75,784.5,1190.75,784.5,1236.75,773,1236.75,773,1236.5,797.75,1236.5,797.75,1189.75,810.25,1189.75,810.25,1166,809.25,1166,809.25,1143.75,809.75,1143.75,809.75,1119,809.25,1119,809.25,1093.5,807.5,1093.5,807.5,1068.25,807.5,1068.25,807.5,1043,808,1043,808,1017.75,808.25,1017.75,808.25,992.25,807.5,992.25,807.5,966.75,808,966.75,808,942.5,807.5,942.5,807.5,917.25,809.25,917.25,809.25,893,809.75,893,809.75,868.75,810.75,868.75,810.75,845.25,811.5,845.25,811.5,823,812,823,812,800.25,812.75,800.25,812.75,775,813,775,813"></polygon><polygon  data-sec="1" data-build="1" data-floor="9" class="s3d-svg__house js-s3d-svg__house" points="700,785,700,785,700.5,760.75,700.5,760.75,774.25,761,774.25,761,801.75,763.5,801.75,763.5,823.5,763,823.5,763,846,762,846,762,868.75,761.5,868.75,761.5,893,761,893,761,917.25,760.25,917.25,760.25,942.5,760.5,942.5,760.5,967.75,760.25,967.75,760.25,992.75,759.75,992.75,759.75,1018.5,760.25,1018.5,760.25,1043.5,759.75,1043.5,759.75,1070,759.75,1070,759.75,1094,759.75,1094,759.75,1119.75,761.5,1119.75,761.5,1144.75,760.75,1144.75,760.75,1190.75,760,1190.75,760,1236.25,748.75,1236.25,748.75,1237,772.5,1237,772.5,1190.5,784.25,1190.5,784.25,1170,786.75,1170,786.75,1144.5,785.5,1144.5,785.5,1119.5,784.5,1119.5,784.5,1092.25,783.5,1092.25,783.5,1070,783,1070,783,1044,783.25,1044,783.25,1019.25,783,1019.25,783,993.25,784.5,993.25,784.5,967.5,783.5,967.5,783.5,942.75,783.5,942.75,783.5,918.25,785,918.25,785,894,784.5,894,784.5,868.25,785.25,868.25,785.25,845.75,785.75,845.75,785.75,824,786.75,824,786.75,800.25,787,800.25,787,773.25,787.5,773.25,787.5"></polygon><polygon  data-sec="1" data-build="1" data-floor="10" class="s3d-svg__house js-s3d-svg__house" points="700.5,761.25,700.5,761.25,701,738,701,738,773.75,739,773.75,739,800.25,739.25,800.25,739.25,823.75,739,823.75,739,846,738.75,846,738.75,868.5,738,868.5,738,894,737.25,894,737.25,917.5,736.25,917.5,736.25,941.5,737.25,941.5,737.25,967.75,737.25,967.75,737.25,992.25,736.75,992.25,736.75,1018.5,737.5,1018.5,737.5,1043.75,737.25,1043.75,737.25,1069.5,737.25,1069.5,737.25,1093.75,737.25,1093.75,737.25,1120,738,1120,738,1145,738.75,1145,738.75,1169.25,738,1169.25,738,1190.25,737.75,1190.25,737.75,1235.75,729.5,1235.75,729.5,1236.5,748.25,1236.5,748.25,1190.75,760.5,1190.75,760.5,1144.75,761.5,1144.75,761.5,1120,761.75,1120,761.75,1094.25,759.75,1094.25,759.75,1070,760.25,1070,760.25,1043.5,759.75,1043.5,759.75,1018.25,760,1018.25,760,992.75,760.25,992.75,760.25,967.75,759.25,967.75,759.25,942.25,760.75,942.25,760.75,917,760.5,917,760.5,892.75,761.75,892.75,761.75,868.25,761.25,868.25,761.25,846,762.75,846,762.75,822.5,763.5,822.5,763.5,800.5,763.75,800.5,763.75,773.5,761.5,773.5,761.5"></polygon><polygon  data-sec="1" data-build="1" data-floor="11" class="s3d-svg__house js-s3d-svg__house" points="700.75,738,700.75,738,701,713.75,701,713.75,773.75,716.5,773.75,716.5,800.25,716.5,800.25,716.5,823.5,715.25,823.5,715.25,845,714.75,845,714.75,869,713.75,869,713.75,893.5,713.5,893.5,713.5,917.5,713,917.5,713,941.75,712.75,941.75,712.75,967.5,713.25,967.5,713.25,992.25,713,992.25,713,1018.75,713.75,1018.75,713.75,1043.75,713.25,1043.75,713.25,1069.75,713.5,1069.75,713.5,1093.75,713.75,1093.75,713.75,1119.75,714,1119.75,714,1145.25,715,1145.25,715,1170.5,714.5,1170.5,714.5,1190.5,713,1190.5,713,1235.75,706,1235.75,706,1236.25,728.75,1236.25,728.75,1190.75,738,1190.75,738,1169.25,738.5,1169.25,738.5,1144.5,738.5,1144.5,738.5,1119.75,737.25,1119.75,737.25,1093.5,737.5,1093.5,737.5,1069.75,737.25,1069.75,737.25,1042.5,737.75,1042.5,737.75,1017.75,737.5,1017.75,737.5,991.75,736.5,991.75,736.5,967.25,736.75,967.25,736.75,941.25,737.5,941.25,737.5,917.5,736,917.5,736,894.25,737,894.25,737,868,738.5,868,738.5,845,738.75,845,738.75,823.25,739,823.25,739,800,739.25,800,739.25,773.75,739,773.75,739"></polygon><polygon  data-sec="1" data-build="1" data-floor="12" class="s3d-svg__house js-s3d-svg__house" points="700.75,714,700.75,714,701.25,689.5,701.25,689.5,774.25,687.5,774.25,687.5,800.75,688.25,800.75,688.25,823.75,688.25,823.75,688.25,845.5,688.75,845.5,688.75,868.75,689.75,868.75,689.75,893.5,689,893.5,689,917.5,689.5,917.5,689.5,943,689.25,943,689.25,967.25,689.25,967.25,689.25,993.25,688.25,993.25,688.25,1018.75,688.5,1018.75,688.5,1044,688,1044,688,1069.5,688.25,1069.5,688.25,1093,689,1093,689,1119.25,689.75,1119.25,689.75,1144.5,690,1144.5,690,1170.25,690.75,1170.25,690.75,1190,689.25,1190,689.25,1235.5,682.75,1235.5,682.75,1236,705.5,1236,705.5,1190.5,713.25,1190.5,713.25,1170.25,714.5,1170.25,714.5,1145.5,714.75,1145.5,714.75,1119.75,714,1119.75,714,1094,713.75,1094,713.75,1069.25,713.75,1069.25,713.75,1043,714,1043,714,1018.25,714.5,1018.25,714.5,992,712.75,992,712.75,967.5,713.75,967.5,713.75,941.5,713,941.5,713,917.5,713.5,917.5,713.5,893.75,713.75,893.75,713.75,868.75,714.25,868.75,714.25,845,714.25,845,714.25,822.5,715.5,822.5,715.5,800.75,716.25,800.75,716.25,772.75,716.5,772.75,716.5"></polygon><polygon  data-sec="1" data-build="1" data-floor="13" class="s3d-svg__house js-s3d-svg__house" points="700.75,689.25,700.75,689.25,700.75,661.5,700.75,661.5,773.25,660.5,773.25,660.5,800,664.75,800,664.75,823,665.75,823,665.75,845.75,666.25,845.75,666.25,869,665.75,869,665.75,892.75,666,892.75,666,917.5,665.5,917.5,665.5,942.5,664.75,942.5,664.75,967.75,665.5,967.75,665.5,992.75,666,992.75,666,1019,666.75,1019,666.75,1044,666.75,1044,666.75,1070.5,665,1070.5,665,1094.25,665.5,1094.25,665.5,1120,664.75,1120,664.75,1145,665.25,1145,665.25,1189.75,663,1189.75,663,1235.25,657.75,1235.25,657.75,1236,682.5,1236,682.5,1189.25,689.5,1189.25,689.5,1170,691.25,1170,691.25,1144.25,689.75,1144.25,689.75,1118.75,690.5,1118.75,690.5,1093.25,688.75,1093.25,688.75,1069.25,688,1069.25,688,1043.5,688.25,1043.5,688.25,1018.75,688.5,1018.75,688.5,992.25,688.75,992.25,688.75,967,689.25,967,689.25,942.25,689.25,942.25,689.25,916.5,689.25,916.5,689.25,892.5,689.5,892.5,689.5,869,690.25,869,690.25,845.5,689.75,845.5,689.75,823,689,823,689,801.5,688.25,801.5,688.25,774.25,686.75,774.25,686.75"></polygon><polygon  data-sec="1" data-build="1" data-floor="14" class="s3d-svg__house js-s3d-svg__house" points="700.45383453369,661.77270507812,700.45383453369,661.77270507812,700.70383453369,638.52270507812,700.70383453369,638.52270507812,772.95383453369,636.52270507812,772.95383453369,636.52270507812,790.45383453369,640.27270507812,790.45383453369,640.27270507812,822.70383453369,642.02270507812,822.70383453369,642.02270507812,845.20383453369,641.52270507812,845.20383453369,641.52270507812,868.45383453369,642.02270507812,868.45383453369,642.02270507812,893.20383453369,643.02270507812,893.20383453369,643.02270507812,916.95383453369,642.02270507812,916.95383453369,642.02270507812,942.20383453369,642.27270507812,942.20383453369,642.27270507812,966.95383453369,642.77270507812,966.95383453369,642.77270507812,992.70383453369,642.77270507812,992.70383453369,642.77270507812,1018.7038345337,642.77270507812,1018.7038345337,642.77270507812,1043.7038345337,642.27270507812,1043.7038345337,642.27270507812,1069.4538345337,642.02270507812,1069.4538345337,642.02270507812,1107.9538345337,642.77270507812,1107.9538345337,642.77270507812,1144.7038345337,641.52270507812,1144.7038345337,641.52270507812,1189.9538345337,638.27270507812,1189.9538345337,638.27270507812,1235.2038345337,636.27270507812,1235.2038345337,636.27270507812,1234.9538345337,657.77270507812,1234.9538345337,657.77270507812,1189.7038345337,663.77270507812,1189.7038345337,663.77270507812,1143.9538345337,665.52270507812,1143.9538345337,665.52270507812,1119.2038345337,666.02270507812,1119.2038345337,666.02270507812,1093.4538345337,666.02270507812,1093.4538345337,666.02270507812,1070.7038345337,665.52270507812,1070.7038345337,665.52270507812,1042.9538345337,667.27270507812,1042.9538345337,667.27270507812,1018.9538345337,667.02270507812,1018.9538345337,667.02270507812,992.20383453369,666.52270507812,992.20383453369,666.52270507812,967.95383453369,665.27270507812,967.95383453369,665.27270507812,941.95383453369,665.77270507812,941.95383453369,665.77270507812,916.95383453369,666.27270507812,916.95383453369,666.27270507812,892.95383453369,666.52270507812,892.95383453369,666.52270507812,868.95383453369,666.02270507812,868.95383453369,666.02270507812,845.70383453369,666.52270507812,845.70383453369,666.52270507812,822.45383453369,666.77270507812,822.45383453369,666.77270507812,799.95383453369,665.27270507812,799.95383453369,665.27270507812,772.70383453369,660.52270507812,772.70383453369,660.52270507812"></polygon><polygon  data-sec="1" data-build="1" data-floor="15" class="s3d-svg__house js-s3d-svg__house" points="700.75,638.75,700.75,638.75,701,615.75,701,615.75,773.75,613,773.75,613,801,615.75,801,615.75,823.75,616.5,823.75,616.5,846.25,616.75,846.25,616.75,869,616.5,869,616.5,894,617.25,894,617.25,917.75,617.75,917.75,617.75,942.5,618,942.5,618,967.75,617.75,967.75,617.75,992.25,618,992.25,618,1019,618,1019,618,1043.75,616.75,1043.75,616.75,1069.5,617.5,1069.5,617.5,1093.25,617.25,1093.25,617.25,1120,618,1120,618,1144.25,616.25,1144.25,616.25,1170,615.25,1170,615.25,1190.25,612.75,1190.25,612.75,1236,613,1236,613,1235.5,636.25,1235.5,636.25,1189.75,638.5,1189.75,638.5,1145.5,641,1145.5,641,1108.5,643,1108.5,643,1069.5,641.75,1069.5,641.75,1044,642.5,1044,642.5,1018.5,642.5,1018.5,642.5,991.5,642,991.5,642,966.5,642.5,966.5,642.5,941.75,642.25,941.75,642.25,916.5,642.5,916.5,642.5,893,643.5,893,643.5,867.75,641.5,867.75,641.5,845,642.25,845,642.25,823,642.25,823,642.25,790.5,640.5,790.5,640.5,771.75,636.5,771.75,636.5"></polygon><polygon  data-sec="1" data-build="1" data-floor="16" class="s3d-svg__house js-s3d-svg__house" points="700.5,615.75,700.5,615.75,700.5,591,700.5,591,773.75,590.75,773.75,590.75,800,593,800,593,823.25,593.75,823.25,593.75,846,593.25,846,593.25,869.25,593.5,869.25,593.5,894.75,593.5,894.75,593.5,918,592.75,918,592.75,943,593.5,943,593.5,967.25,593.25,967.25,593.25,993,593.75,993,593.75,1019,593.75,1019,593.75,1045,594,1045,594,1069.75,593.75,1069.75,593.75,1094.25,594.5,1094.25,594.5,1120.25,595,1120.25,595,1144.75,593.5,1144.75,593.5,1190.5,589.25,1190.5,589.25,1235.5,590.5,1235.5,590.5,1235.75,612.75,1235.75,612.75,1190.25,613.5,1190.25,613.5,1169.25,615.75,1169.25,615.75,1143.75,616.75,1143.75,616.75,1120.25,618,1120.25,618,1092.25,617.25,1092.25,617.25,1069,618,1069,618,1043,617,1043,617,1018.75,618.75,1018.75,618.75,992,618.5,992,618.5,967.75,618.75,967.75,618.75,942.5,618.25,942.5,618.25,917.25,618,917.25,618,893.25,617,893.25,617,868.75,617.25,868.75,617.25,846.75,617.25,846.75,617.25,823.5,617.5,823.5,617.5,801,616,801,616,773.75,613.25,773.75,613.25"></polygon><polygon  data-sec="1" data-build="1" data-floor="17" class="s3d-svg__house js-s3d-svg__house" points="700.5,590.75,700.5,590.75,700.5,567.25,700.5,567.25,773.75,565,773.75,565,802.25,568,802.25,568,824.75,569,824.75,569,846,569.5,846,569.5,868.75,569.75,868.75,569.75,893.25,569.5,893.25,569.5,918,570,918,570,943,570.25,943,570.25,967.5,570.5,967.5,570.5,992.5,570.25,992.5,570.25,1019,570.75,1019,570.75,1043.75,570.75,1043.75,570.75,1068.75,570.25,1068.75,570.25,1094,570,1094,570,1120,570,1120,570,1144,568.5,1144,568.5,1168.75,568.75,1168.75,568.75,1189.5,567.5,1189.5,567.5,1236,568,1236,568,1235.5,590,1235.5,590,1190.25,589.25,1190.25,589.25,1144.5,594,1144.5,594,1119.75,595.75,1119.75,595.75,1093.25,594.25,1093.25,594.25,1069,594.25,1069,594.25,1044.25,594.5,1044.25,594.5,1019,593.5,1019,593.5,992.75,594,992.75,594,966.75,593.25,966.75,593.25,942.5,594,942.5,594,917.75,593,917.75,593,894.25,594,894.25,594,869,593.25,869,593.25,845.25,593.75,845.25,593.75,823.25,594,823.25,594,799.75,593.25,799.75,593.25,773,590.25,773,590.25"></polygon><polygon  data-sec="1" data-build="1" data-floor="18" class="s3d-svg__house js-s3d-svg__house" points="700.25,567,700.25,567,700,544.25,700,544.25,773.25,541.75,773.25,541.75,800.75,543,800.75,543,824,544,824,544,846,545,846,545,869.25,545,869.25,545,893.5,546,893.5,546,918.5,546.5,918.5,546.5,942.25,546.5,942.25,546.5,968,548,968,548,992.5,547.75,992.5,547.75,1018.5,548.5,1018.5,548.5,1044.25,547.75,1044.25,547.75,1070.25,547.5,1070.25,547.5,1093.75,546,1093.75,546,1119.75,546.75,1119.75,546.75,1144.75,547.5,1144.75,547.5,1168.75,544.75,1168.75,544.75,1189.5,544.5,1189.5,544.5,1236.25,546.75,1236.25,546.75,1235.5,568,1235.5,568,1189.75,568.25,1189.75,568.25,1168.75,568.75,1168.75,568.75,1143.75,569,1143.75,569,1119.5,569.5,1119.5,569.5,1093.5,569.5,1093.5,569.5,1068.5,570.25,1068.5,570.25,1043,570.75,1043,570.75,1018.5,571.25,1018.5,571.25,992.75,570.5,992.75,570.5,967,570.75,967,570.75,942.75,570.75,942.75,570.75,917.75,570.75,917.75,570.75,893.25,569.75,893.25,569.75,868,570.25,868,570.25,846.25,570,846.25,570,825,569.25,825,569.25,802.25,568.5,802.25,568.5,773.5,565.25,773.5,565.25"></polygon><polygon  data-sec="1" data-build="1" data-floor="19" class="s3d-svg__house js-s3d-svg__house" points="699.75,543.75,699.75,543.75,700.75,521.25,700.75,521.25,773.25,517.75,773.25,517.75,801.25,519.5,801.25,519.5,823.75,520,823.75,520,846.5,520.5,846.5,520.5,868.75,521.75,868.75,521.75,893.5,522,893.5,522,917.75,523,917.75,523,943,522.75,943,522.75,967.75,524,967.75,524,992.75,524.25,992.75,524.25,1018.25,524.5,1018.25,524.5,1043.25,523.75,1043.25,523.75,1068.5,523.75,1068.5,523.75,1093.25,523,1093.25,523,1119,523.25,1119,523.25,1144.75,523,1144.75,523,1169,522.75,1169,522.75,1190.25,521.25,1190.25,521.25,1236,523.5,1236,523.5,1235.75,546.25,1235.75,546.25,1189.5,544.25,1189.5,544.25,1168.75,546,1168.75,546,1145,548,1145,548,1120.25,547,1120.25,547,1094,546.25,1094,546.25,1069.5,547.5,1069.5,547.5,1044,547.75,1044,547.75,1018.75,548,1018.75,548,992.25,548.25,992.25,548.25,967.5,548,967.5,548,941.5,546.75,941.5,546.75,918.25,546.5,918.25,546.5,893.5,546.25,893.5,546.25,869.25,544.75,869.25,544.75,845.5,545.25,845.5,545.25,824.5,544.25,824.5,544.25,800.5,542.75,800.5,542.75,773.5,542.5,773.5,542.5"></polygon><polygon  data-sec="1" data-build="1" data-floor="20" class="s3d-svg__house js-s3d-svg__house" points="700.5,521.25,700.5,521.25,700.75,498,700.75,498,773.75,492.5,773.75,492.5,801.75,494,801.75,494,824,495.25,824,495.25,845.5,496.5,845.5,496.5,868.75,498,868.75,498,894.25,499,894.25,499,918,500,918,500,943,500,943,500,968.25,501.5,968.25,501.5,992.5,501,992.5,501,1018.5,501.25,1018.5,501.25,1043.75,500.5,1043.75,500.5,1069.5,500.75,1069.5,500.75,1094.5,500.75,1094.5,500.75,1119,500,1119,500,1144,500,1144,500,1169.75,499,1169.75,499,1190,498,1190,498,1236.25,501,1236.25,501,1236.25,523.25,1236.25,523.25,1189.75,521.5,1189.75,521.5,1169.5,523.25,1169.5,523.25,1144.75,523,1144.75,523,1119.25,523.5,1119.25,523.5,1093,523.25,1093,523.25,1068.5,524.25,1068.5,524.25,1043.5,525,1043.5,525,1018,524.25,1018,524.25,992.5,524.25,992.5,524.25,967.25,524.25,967.25,524.25,942.75,522.75,942.75,522.75,917.25,523,917.25,523,893.25,522,893.25,522,868.5,521.75,868.5,521.75,846,521,846,521,823.75,520.5,823.75,520.5,801.25,519.75,801.25,519.75,773.5,518.25,773.5,518.25"></polygon><polygon  data-sec="1" data-build="1" data-floor="21" class="s3d-svg__house js-s3d-svg__house" points="700.25,498,700.25,498,700.5,473,700.5,473,773,469,773,469,802,471.25,802,471.25,823.75,472,823.75,472,845.5,473.25,845.5,473.25,869,474,869,474,892.5,475,892.5,475,917,476,917,476,942.25,476.25,942.25,476.25,967.75,477.75,967.75,477.75,992.75,478,992.75,478,1019,478.25,1019,478.25,1044,478,1044,478,1068.75,477.75,1068.75,477.75,1094,477,1094,477,1119.5,476.25,1119.5,476.25,1145,476.25,1145,476.25,1190,474.5,1190,474.5,1235.5,478.5,1235.5,478.5,1236.25,500.5,1236.25,500.5,1190,498,1190,498,1169.25,500,1169.25,500,1143.25,499.75,1143.25,499.75,1119,500.25,1119,500.25,1093.75,500.5,1093.75,500.5,1069.5,500.25,1069.5,500.25,1044.25,500.5,1044.25,500.5,1018.5,501,1018.5,501,992.5,500.5,992.5,500.5,967.75,501.5,967.75,501.5,942.75,500,942.75,500,918.5,500,918.5,500,894,499,894,499,869.5,498,869.5,498,845.25,496.5,845.25,496.5,824.5,495,824.5,495,801.25,494,801.25,494,773.5,492.25,773.5,492.25"></polygon><polygon  data-sec="1" data-build="1" data-floor="22" class="s3d-svg__house js-s3d-svg__house" points="700,472.75,700,472.75,701,449.25,701,449.25,773.75,443.5,773.75,443.5,801.5,446,801.5,446,823.75,447.75,823.75,447.75,845.25,449.25,845.25,449.25,868.5,449.75,868.5,449.75,894.25,451.5,894.25,451.5,918,452,918,452,943,452.75,943,452.75,967,454.5,967,454.5,992.5,454.25,992.5,454.25,1018.75,454.25,1018.75,454.25,1043,454,1043,454,1069.5,454.25,1069.5,454.25,1094,454,1094,454,1119.75,452.5,1119.75,452.5,1144.5,453,1144.5,453,1169,451.5,1169,451.5,1189.75,450.5,1189.75,450.5,1235.75,454,1235.75,454,1235.5,478.5,1235.5,478.5,1189.75,474.5,1189.75,474.5,1145.25,477,1145.25,477,1120,476,1120,476,1093.5,477.5,1093.5,477.5,1069.5,477.5,1069.5,477.5,1043.75,478,1043.75,478,1019.25,478,1019.25,478,993,478.5,993,478.5,967,478.25,967,478.25,942,476.25,942,476.25,917.25,476.75,917.25,476.75,891.75,475.25,891.75,475.25,869.25,474.25,869.25,474.25,845.25,473.5,845.25,473.5,824.25,472.5,824.25,472.5,802.25,471.25,802.25,471.25,772.75,469.5,772.75,469.5"></polygon><polygon  data-sec="1" data-build="1" data-floor="23" class="s3d-svg__house js-s3d-svg__house" points="700.75,449.25,700.75,449.25,701,425.75,701,425.75,773.5,420.75,773.5,420.75,801.5,424,801.5,424,823.5,424.75,823.5,424.75,845.5,426.25,845.5,426.25,868.25,427.5,868.25,427.5,893.25,428.75,893.25,428.75,917.5,430,917.5,430,942.25,429.5,942.25,429.5,967,430.75,967,430.75,992.5,431.75,992.5,431.75,1018.75,431.75,1018.75,431.75,1043.75,431.25,1043.75,431.25,1068.75,430.75,1068.75,430.75,1093.5,430.5,1093.5,430.5,1119.75,430,1119.75,430,1144.5,429.25,1144.5,429.25,1167.75,427,1167.75,427,1190.25,426,1190.25,426,1235.5,432,1235.5,432,1235.75,454.25,1235.75,454.25,1189.75,450.75,1189.75,450.75,1168.75,451.75,1168.75,451.75,1144.25,453,1144.25,453,1120,453,1120,453,1094.25,453.5,1094.25,453.5,1069.5,453.5,1069.5,453.5,1042.75,454.5,1042.75,454.5,1018.5,454.25,1018.5,454.25,992,454.5,992,454.5,966.75,455,966.75,455,943,453.25,943,453.25,917.75,452.25,917.75,452.25,893.75,451.5,893.75,451.5,868.5,450,868.5,450,845.25,449.5,845.25,449.5,824,447.75,824,447.75,801.25,446.5,801.25,446.5,773.5,443.5,773.5,443.5"></polygon><polygon  data-sec="1" data-build="1" data-floor="24" class="s3d-svg__house js-s3d-svg__house" points="701,425.75,701,425.75,700.75,402.25,700.75,402.25,773,394.25,773,394.25,801,396.25,801,396.25,824,398.5,824,398.5,844.75,400.5,844.75,400.5,869.25,402.25,869.25,402.25,893.5,403.5,893.5,403.5,917.75,404.75,917.75,404.75,943,405.5,943,405.5,967.75,406.25,967.75,406.25,992.5,407,992.5,407,1019.25,407.25,1019.25,407.25,1043.75,407.25,1043.75,407.25,1069.25,406.75,1069.25,406.75,1093.5,406.25,1093.5,406.25,1119.75,405,1119.75,405,1143.75,404,1143.75,404,1168.5,403.25,1168.5,403.25,1190,401,1190,401,1235.75,407.75,1235.75,407.75,1235.25,432,1235.25,432,1189.75,426,1189.75,426,1168,427.75,1168,427.75,1144.25,429,1144.25,429,1120,429.5,1120,429.5,1092.5,430.5,1092.5,430.5,1068.5,431,1068.5,431,1043.25,431.25,1043.25,431.25,1018,432.25,1018,432.25,992.25,432.5,992.25,432.5,966.5,430.75,966.5,430.75,941.75,429.5,941.75,429.5,916,430.25,916,430.25,893,428.75,893,428.75,868.25,427.5,868.25,427.5,845.5,426,845.5,426,823,424.75,823,424.75,801,423.75,801,423.75,772.25,421,772.25,421"></polygon><polygon  data-sec="1" data-build="1" data-floor="25" class="s3d-svg__house js-s3d-svg__house" points="700.75,402.25,700.75,402.25,700.75,378.25,700.75,378.25,772.75,369.75,772.75,369.75,801.5,373,801.5,373,824,375.25,824,375.25,845.25,376.5,845.25,376.5,869,377.5,869,377.5,893,378.25,893,378.25,918.25,379.25,918.25,379.25,942.75,380.25,942.75,380.25,967.75,381.5,967.75,381.5,993.25,382,993.25,382,1018,383,1018,383,1043.25,383,1043.25,383,1069.5,382.5,1069.5,382.5,1093.75,382,1093.75,382,1119,381.25,1119,381.25,1144.5,381.25,1144.5,381.25,1190.25,377.5,1190.25,377.5,1236,385,1236,385,1236,408.5,1236,408.5,1189.25,400.75,1189.25,400.75,1168,403.5,1168,403.5,1143.75,404.5,1143.75,404.5,1119,405.5,1119,405.5,1092.5,405.5,1092.5,405.5,1068.25,405.75,1068.25,405.75,1043.25,407,1043.25,407,1019,408,1019,408,992.25,407.25,992.25,407.25,968,406.25,968,406.25,943.25,406.25,943.25,406.25,917.5,405.25,917.5,405.25,893.75,403.5,893.75,403.5,868.5,401.75,868.5,401.75,844.75,400.25,844.75,400.25,824.5,398,824.5,398,801,396.5,801,396.5,773,394.5,773,394.5"></polygon><polygon  data-sec="1" data-build="1" data-floor="26" class="s3d-svg__house js-s3d-svg__house" points="700.75,377.75,700.75,377.75,700.75,355,700.75,355,773.25,344.25,773.25,344.25,802.25,347.5,802.25,347.5,823.75,349.75,823.75,349.75,846.5,351.25,846.5,351.25,869,352.5,869,352.5,894,354.5,894,354.5,917.5,355.25,917.5,355.25,942.75,355.75,942.75,355.75,967.5,356.75,967.5,356.75,992.75,356,992.75,356,1018.5,357,1018.5,357,1043,356.75,1043,356.75,1068.25,356.25,1068.25,356.25,1093.5,357.25,1093.5,357.25,1120,356.5,1120,356.5,1144.75,354.5,1144.75,354.5,1169.25,353.25,1169.25,353.25,1190.25,353,1190.25,353,1235.25,362.25,1235.25,362.25,1235.75,384.75,1235.75,384.75,1189.75,377.25,1189.75,377.25,1144.75,382,1144.75,382,1118.5,380.75,1118.5,380.75,1093.5,382.25,1093.5,382.25,1069.75,382.5,1069.75,382.5,1043.25,382.75,1043.25,382.75,1018,383.5,1018,383.5,992.75,381.5,992.75,381.5,968,381.75,968,381.75,942.5,380.25,942.5,380.25,917.75,379.25,917.75,379.25,869.25,377.5,869.25,377.5,845.25,376.75,845.25,376.75,824.25,374.75,824.25,374.75,801.5,372.75,801.5,372.75,772.5,370.25,772.5,370.25"></polygon><polygon  data-sec="1" data-build="1" data-floor="27" class="s3d-svg__house js-s3d-svg__house" points="700.16666666667,354.83333333333,773.33333333333,343.5,802.5,347.16666666667,823.5,349.33333333333,846.5,350.83333333333,869,352,894,354,917.66666666667,355,942.5,355,968.33333333333,356.5,992.5,356,1018.3333333333,356.83333333333,1042.8333333333,356.5,1068.1666666667,356,1093,356.83333333333,1119.8333333333,356.16666666667,1145,353.83333333333,1168.6666666667,353.33333333333,1189.3333333333,352.83333333333,1235.6666666667,361.83333333333,1236.1666666667,337.5,1190.3333333333,327.33333333333,1168.6666666667,328.16666666667,1133.3333333333,330.33333333333,1082.8333333333,330.83333333333,1030,331.66666666667,955.5,331.33333333333,906,327.33333333333,858.5,325.33333333333,801,320.83333333333,771.83333333333,318.83333333333,700.83333333333,331.33333333333"></polygon></svg>