<svg version="1.1" id="floor--svg" xmlns="http://www.w3.org/2000/svg" xmlns:xlink="http://www.w3.org/1999/xlink" x="0px" y="0px"
	 viewBox="0 0 1920 1080" style="enable-background:new 0 0 1920 1080;" xml:space="preserve">

<polygon class="floor-svg-polygon" data-build="2" data-floor="6" points="653.2,266.3 729.7,260.5 987.9,280.8 987.9,285.1 983.3,285.1 983.3,312 987.9,312 987.9,314
	983.2,314 734.1,298.7 653.2,303.3 653.2,300.9 664.1,300.9 664.1,288.5 659,288.5 659,271 653.2,271 "/>
<polygon class="floor-svg-polygon" data-build="2" data-floor="6" points="987.9,315.9 983,315.9 983,329.5 729.9,316.5 659.7,320.5 659.7,306 653.2,306 653.2,303.3
	734.1,298.7 983.2,314 987.9,314 "/>
<polygon class="floor-svg-polygon" data-build="2" data-floor="6" points="983,343.9 987.9,343.9 987.9,345.3 983,345.3 733.9,334.6 654.2,337.6 654.2,335.1 664.1,335.1
	664.1,323.2 659.9,323.2 659.7,320.5 729.9,316.5 983,329.5 "/>
<polygon class="floor-svg-polygon" data-build="2" data-floor="6" points="987.9,346.9 982.9,346.9 982.9,361.4 730.1,352.2 660.1,354.1 660.1,339.5 654.2,339.5 654.2,337.6
	733.9,334.6 983,345.3 987.9,345.3 "/>
<polygon class="floor-svg-polygon" data-build="2" data-floor="6" points="982.9,373.9 987.9,373.9 987.9,376.1 982.9,376.1 733.7,369.7 654.2,372.2 654.2,369.7 664.1,369.7
	664.1,356.9 660.1,356.9 660.1,354.1 730.1,352.2 982.9,361.4 "/>
<polygon class="floor-svg-polygon" data-build="2" data-floor="6" points="987.9,378 983,378 983,392.3 729.9,387 660.1,389.1 660.1,373.9 654.2,373.9 654.2,372.2 733.7,369.7
	982.9,376.1 987.9,376.1 "/>
<polygon class="floor-svg-polygon" data-build="2" data-floor="6" points="982.9,405.9 987.9,405.9 987.9,407.6 982.9,407.6 734,405.4 654.2,405.8 654.2,403.5 664.7,403.5
	664.7,390.9 660.1,390.9 660.1,389.1 729.9,387 983,392.3 "/>
<polygon class="floor-svg-polygon" data-build="2" data-floor="6" points="987.9,409.9 983,409.9 983,423 730.7,422.9 660,423 660,408.1 654.2,408.1 654.2,405.8 734,405.4
	982.9,407.6 987.9,407.6 "/>
<polygon class="floor-svg-polygon" data-build="2" data-floor="6" points="983,436.9 988.1,436.9 988.1,439 983,439 734.1,440.3 654.2,440.3 654.2,438.1 664.9,438.1
	664.9,424.8 660.1,424.8 660,423 730.7,422.9 983,423 "/>
<polygon class="floor-svg-polygon" data-build="2" data-floor="6" points="988,440.9 983,440.9 983,454.4 730.9,457.8 660.9,457.4 660.9,442 654.2,442 654.2,440.3 734.1,440.3
	983,439 988.1,439 "/>
<polygon class="floor-svg-polygon" data-build="2" data-floor="6" points="982.9,467.9 987.9,467.9 987.9,470.1 982.9,470.1 733.9,475.7 654.9,474.4 654.9,472.1 664.9,472.1
	664.9,459.1 660.9,459.1 660.9,457.4 730.9,457.8 983,454.4 "/>
<polygon class="floor-svg-polygon" data-build="2" data-floor="6" points="987.9,472 983,472 983,485.8 730.9,493.1 664.9,492.2 664.9,490 661,490 661,476.1 654.9,476.1
	654.9,474.4 733.9,475.7 982.9,470.1 987.9,470.1 "/>
<polygon class="floor-svg-polygon" data-build="2" data-floor="6" points="982.9,499 987.9,499 987.9,501 982.9,501 733.9,510.9 654.9,508.5 654.9,506 664.9,506 664.9,492.2
	730.9,493.1 983,485.8 "/>
<polygon class="floor-svg-polygon" data-build="2" data-floor="6" points="987.9,502.9 983,502.9 983,516.8 734.5,528 661,525.2 661,510.1 654.9,510.1 654.9,508.5 733.9,510.9
	982.9,501 987.9,501 "/>
<polygon class="floor-svg-polygon" data-build="2" data-floor="6" points="983,529.9 987.9,529.9 987.9,532 983,532 734.6,545.9 654.9,542.1 654.9,540 652,540 653,538 656,538
	656,537 665,537 665,527 661,527 661,525.2 734.5,528 983,516.8 "/>
<polygon class="floor-svg-polygon" data-build="2" data-floor="6" points="987.9,534 983.1,534 983.1,548.6 731.1,563.1 660.9,558.6 660.9,544.1 654.9,544.1 654.9,542.1
	734.6,545.9 983,532 987.9,532 "/>
<polygon class="floor-svg-polygon" data-build="2" data-floor="6" points="983.1,560.8 987.9,560.8 987.9,563.1 983.1,563.1 735.8,580.4 654.9,576.1 654.9,573.4 657,573.4
	657,571 665,570.9 665,560.8 661.1,560.8 660.9,558.6 731.1,563.1 983.1,548.6 "/>
<polygon class="floor-svg-polygon" data-build="2" data-floor="6" points="987.9,564.9 983.1,564.9 983.1,578.7 732.1,598.6 661,593.6 661,578.2 654.9,578.2 654.9,576.1
	735.8,580.4 983.1,563.1 987.9,563.1 "/>
<polygon class="floor-svg-polygon" data-build="2" data-floor="6" points="983.1,591.9 987.9,591.9 987.9,596.2 983.1,596.2 735.2,618 655.8,612.1 655.8,607.5 665.8,607.5
	665.8,595.6 661.2,594.8 661,593.6 732.1,598.6 983.1,578.7 "/>
<polygon class="floor-svg-polygon" data-build="1" data-floor="6" points="1013.2,238.1 1118.5,230.1 1362.1,257.2 1362.1,261.8 1358.9,261.8 1358,262.9 1358,279.4 1357,279.4
	1357,294 1361.9,294 1361.9,296.1 1122.3,275.4 1013.2,281.4 1013.2,278.7 1026,277.9 1026,264 1018.8,264 1018.8,243 1013.2,243
	"/>
<polygon class="floor-svg-polygon" data-build="1" data-floor="6" points="1362,298 1358,298 1358,313.8 1129.1,296.6 1018.3,301.5 1018.3,284 1013.2,284 1013.2,281.4
	1122.3,275.4 1361.9,296.1 "/>
<polygon class="floor-svg-polygon" data-build="1" data-floor="6" points="1358,315.9 1357,315.9 1357,330 1362,330 1362,332.4 1121.8,317.2 1013.2,321.3 1013.2,319 1025.8,319
	1025.8,303.9 1018.3,303.9 1018.3,301.5 1129.1,296.6 1358,313.8 "/>
<polygon class="floor-svg-polygon" data-build="1" data-floor="6" points="1362,335 1357.9,335 1357.9,350 1121.7,337.6 1018.3,341.2 1018.3,324.6 1013.2,324.6 1013.2,321.3
	1121.8,317.2 1362,332.4 "/>
<polygon class="floor-svg-polygon" data-build="1" data-floor="6" points="1357.9,352 1356.9,352 1356.9,366 1361.6,366 1361.6,368.8 1122.1,359.2 1013.2,361.4 1013.2,359.4
	1025.8,359.4 1025.8,344.1 1018.3,344.1 1018.3,341.2 1121.7,337.6 1357.9,350 "/>
<polygon class="floor-svg-polygon" data-build="1" data-floor="6" points="1361.6,370.9 1357,370.9 1357,386.2 1122.9,379.5 1018.8,381.7 1018.8,364.1 1013.2,364.1
	1013.2,361.4 1122.1,359.2 1361.6,368.8 "/>
<polygon class="floor-svg-polygon" data-build="1" data-floor="6" points="1357,388 1356,388 1356,403.1 1361,403 1361,404.6 1121.8,400.8 1012.9,402.1 1012.9,399.9
	1025.9,399.9 1025.9,383.9 1018.9,383.9 1018.8,381.7 1122.9,379.5 1357,386.2 "/>
<polygon class="floor-svg-polygon" data-build="1" data-floor="6" points="1361,406.1 1356,406.1 1356,423 1120.4,421.3 1019,421.5 1019,404 1012.9,404 1012.9,402.1
	1121.8,400.8 1361,404.6 "/>
<polygon class="floor-svg-polygon" data-build="1" data-floor="6" points="1356,438.8 1361,438.8 1361,440.7 1356,440.7 1111.6,441.8 1012.9,441.8 1012.9,439.3 1025.9,439.3
	1025.9,423.9 1019.2,423.9 1019.2,421.5 1120.4,421.3 1356,423 "/>
<polygon class="floor-svg-polygon" data-build="1" data-floor="6" points="1361,442 1356,442 1356,458.3 1118.3,462.7 1018.1,461.1 1018.1,444 1012.9,444 1012.9,441.8
	1111.6,441.8 1361,440.7 "/>
<polygon class="floor-svg-polygon" data-build="1" data-floor="6" points="1356,474 1360,474 1360,475.8 1120.9,483.6 1012.1,481.6 1012.1,479.2 1026.8,479.2 1026.8,463.9
	1018.1,463.9 1018.1,461.1 1118.3,462.7 1356,458.3 "/>
<polygon class="floor-svg-polygon" data-build="1" data-floor="6" points="1360,477.4 1356,477.4 1356,494 1117.9,504.6 1018,501 1018,484.1 1012.1,484.1 1012.1,481.6
	1120.9,483.6 1360,475.8 "/>
<polygon class="floor-svg-polygon" data-build="1" data-floor="6" points="1355.7,509.9 1360,509.9 1360,512.4 1120.9,525.2 1012.1,521.7 1012.1,519 1025.8,519 1025.8,503.7
	1018.1,503.7 1018.1,501 1117.9,504.6 1356,494 "/>
<polygon class="floor-svg-polygon" data-build="1" data-floor="6" points="1360,516 1356,516 1356,530.7 1117.9,545.9 1018,541.1 1018,524 1012.1,524 1012.1,521.7 1120.9,525.2
	1360,512.4 "/>
<polygon class="floor-svg-polygon" data-build="1" data-floor="6" points="1356,532 1355,532 1355,545.9 1360,545.9 1360,547.9 1121.1,566.6 1012.1,561.4 1012.1,558.1
	1025.9,558.1 1025.9,543.7 1018,543.7 1018,541.1 1117.9,545.9 1356,530.7 "/>
<polygon class="floor-svg-polygon" data-build="1" data-floor="6" points="1360,550.1 1355.9,550.1 1355.9,566.2 1117.9,587.4 1018,580.8 1018,564 1012.1,564 1012.1,561.4
	1121.1,566.6 1360,547.9 "/>
<polygon class="floor-svg-polygon" data-build="1" data-floor="6" points="1356,581 1360,581 1360,583.4 1121,607.4 1012.1,600.8 1012.1,597.8 1025.9,598.6 1025.9,583.1
	1018,583.1 1018,580.8 1117.9,587.4 1355.9,566.2 "/>
<polygon class="floor-svg-polygon" data-build="1" data-floor="6" points="1360,586 1355.2,586 1355.2,602.2 1117.9,628.4 1018.1,619.9 1018.1,604 1012.1,604 1012.1,600.8
	1121,607.4 1360,583.4 "/>
<polygon class="floor-svg-polygon" data-build="1" data-floor="6" points="1355.2,603.8 1354,603.8 1354,617.5 1358.9,617.5 1358.9,621.4 1120.8,651 1012.1,642.7 1012.1,637.9
	1025.9,638.9 1025.9,622 1018.1,622 1018.1,619.9 1117.9,628.4 1355.2,602.2 "/>

	<!-- удалить этот полигон когда дом будет в продаже -->
<polygon class="floor-svg-polygon" style="z-index:555;" data-build="1" data-floor="6" points="1013.2,238.1 1118.5,230.1 1362.1,257.2   1358.9,621.4 1120.8,651 1012.1,642.7 "/>

	<symbol id="info-svg-polygon-left32" viewBox="0 0 60 30" data-build="2" class="info-svg-polygon-left">
			<path fill-rule="evenodd" clip-rule="evenodd" d="M-0.000435142 28.4214L50.5259 28.4214V21.7107L59.5259 14.2107L50.5259 6.71073L50.5259 0.00033548L-0.000435142 0.00033548L-0.000435142 28.4214Z" class="floor-rect"  />
		<!--			<path fill-rule="evenodd" clip-rule="evenodd" d="M59.5263 0H9V6.71065L0 14.2107L9 21.7107V28.4211H59.5263V0Z" class="floor-rect"  />-->
		<text x="25" y="13" class="floor-text">15</text>
		</symbol>
	<use x="580" y="0" width="60px" height="30px" data-build="2" xlink:href="#info-svg-polygon-left32" class="floor-info-svg"></use>


	<symbol id="info-svg-polygon-right32" viewBox="0 0 60 30" data-build="1" class="info-svg-polygon-right">
		<path fill-rule="evenodd" clip-rule="evenodd" d="M59.5263 0H9V6.71065L0 14.2107L9 21.7107V28.4211H59.5263V0Z" class="floor-rect"  />
		<text x="35" y="13" class="floor-text">15</text>
	</symbol>
	<use x="1380" y="0" width="60px" height="30px" data-build="1" xlink:href="#info-svg-polygon-right32" class="floor-info-svg"></use>


	<!--	<symbol id="info-svg-polygon-1" viewBox="0 0 275 93" data-build="null" class="info-svg-helper">-->
<!--		<rect x="0.4" y="33.5" style="opacity:0.7;fill:#FF1E3C;" width="274" height="50"/>-->
<!--		<polygon style="opacity:0.7;fill:#FF1E3C;" points="137.4,93 145.3,83.5 129.5,83.5 "/>-->
<!--		<text x="23" y="65" class="floor-text-helper">Дніпровська гавань</text>-->
<!--		<rect x="121.4" y="7.1" transform="matrix(0.7071 -0.7071 0.7071 0.7071 23.8985 103.9556)" style="fill:#FF1E3C;"  width="32" height="32"/>-->
<!--		<polygon style="fill:#FFFFFF;" points="133.3,30.1 133.3,18.2 136.5,18.2 136.5,24.3 141.6,24.3 141.6,30.1 143.9,30.1 143.9,22.3 139,22.3 139,16.1 130.8,16.1 130.8,30.1"/>-->
<!--		<rect x="141.5" y="16.1" style="fill:#FFFFFF;" width="2.5" height="2.5"/>-->
<!--	</symbol>-->
<!--	<use x="1360" y="500" width="275px" height="93px" data-build="null" xlink:href="#info-svg-polygon-1" class="floor-info-helper"></use>-->


<!--	<symbol id="info-svg-polygon-2" viewBox="0 0 213 93" data-build="null" class="info-svg-helper">-->
<!--		<rect x="0.3" y="33.5" style="opacity:0.7;fill:#FF1E3C;" width="213" height="50"/>-->
<!--		<polygon style="opacity:0.7;fill:#FF1E3C;" points="106.4,93 114.3,83.5 98.5,83.5 "/>-->
<!--		<text x="31" y="65" class="floor-text-helper">Вербне озеро</text>-->
<!--		<rect x="90.4" y="7.1" transform="matrix(0.7071 -0.7071 0.7071 0.7071 14.8188 82.0353)" style="fill:#FF1E3C;"  width="32" height="32"/>-->
<!--		<polygon style="fill:#FFFFFF;" points="102.3,30.1 102.3,18.2 105.5,18.2 105.5,24.3 110.6,24.3 110.6,30.1 112.9,30.1 112.9,22.3-->
<!--				108,22.3 108,16.1 99.8,16.1 99.8,30.1"/>-->
<!--		<rect x="110.5" y="16.1" style="fill:#FFFFFF;" width="2.5" height="2.5"/>-->
<!--	</symbol>-->
<!--	<use x="1060" y="400" width="213px" height="93px" data-build="null" xlink:href="#info-svg-polygon-2" class="floor-info-helper"></use>-->

<!--	<symbol id="info-svg-polygon-3" viewBox="0 0 167 93" data-build="null" class="info-svg-helper">-->
<!--		<rect x="0.7" y="33.5" style="opacity:0.7;fill:#FF1E3C;" width="165.5" height="50"/>-->
<!--		<polygon style="opacity:0.7;fill:#FF1E3C;" points="83.4,93 91.3,83.5 75.5,83.5 "/>-->
<!--		<text x="33" y="65" class="floor-text-helper">Оболонь</text>-->
<!--		<rect x="67.4" y="7.1" transform="matrix(0.7071 -0.7071 0.7071 0.7071 8.0823 65.7718)" style="fill:#FF1E3C;"  width="32" height="32"/>-->
<!--		<polygon style="fill:#FFFFFF;" points="79.3,30.1 79.3,18.2 82.5,18.2 82.5,24.3 87.6,24.3 87.6,30.1 89.9,30.1 89.9,22.3 85,22.3 85,16.1-->
<!--				76.8,16.1 76.8,30.1"/>-->
<!--		<rect x="87.5" y="16.1" style="fill:#FFFFFF;" width="2.5" height="2.5"/>-->
<!--	</symbol>-->
<!--	<use x="860" y="600" width="167px" height="93px" data-build="null" xlink:href="#info-svg-polygon-3" class="floor-info-helper"></use>-->

<!--	<symbol id="info-svg-polygon-4" viewBox="0 0 201 93" data-build="null" class="info-svg-helper">-->
<!--		<rect x="0" y="33.5" style="opacity:0.7;fill:#FF1E3C;" width="200" height="50"/>-->
<!--		<polygon style="opacity:0.7;fill:#FF1E3C;" points="100.4,93 108.3,83.5 92.5,83.5"/>-->
<!--		<text x="67.2" y="65" class="floor-text-helper">Почайна</text>-->
<!--		<circle style="fill:none;stroke:#FFFFFF;stroke-miterlimit:10;stroke-dasharray:0;stroke-dashoffset:0" cx="45.3" cy="59.2" r="11.6"/>-->
<!--		<path style="fill:#FFFFFF;" d="M48.3,54.4l-3.1,3.8l-3.1-3.8l-4.5,8.2h3.1l1.7-3.1l2.8,3.1l2.8-3.1l1.7,3.1h3.1L48.3,54.4z"/>-->
<!--		<rect x="84.4" y="7.1" transform="matrix(0.7071 -0.7071 0.7071 0.7071 13.0615 77.7927)" style="fill:#FF1E3C;"  width="32" height="32"/>-->
<!--		<polygon style="fill:#FFFFFF;" points="96.3,30.1 96.3,18.2 99.5,18.2 99.5,24.3 104.6,24.3 104.6,30.1 106.9,30.1 106.9,22.3 102,22.3-->
<!--				102,16.1 93.8,16.1 93.8,30.1"/>-->
<!--		<rect x="104.5" y="16.1" style="fill:#FFFFFF;" width="2.5" height="2.5"/>-->
<!--	</symbol>-->
<!--	<use x="560" y="600" width="200.8px" height="93px" data-build="null" xlink:href="#info-svg-polygon-4" class="floor-info-helper"></use>-->


</svg>
