<svg preserveAspectRatio="xMidYMid slice" id="floor--svg"  viewBox="0 0 1920 1213" version="1.0" xmlns="http://www.w3.org/2000/svg"><polygon  data-sec="1" data-build="1" data-floor="2" class="s3d-svg__house js-s3d-svg__house" points="700.46922302246,927.40909830729,773.39999898275,935.93334960938,790.56666564941,935.43334960938,813.39999898275,932.76668294271,859.39999898275,929.60001627604,906.23333231608,926.43334960938,956.39999898275,924.76668294271,1006.8999989827,924.93334960938,1057.3999989827,924.43334960938,1107.7333323161,926.76668294271,1170.5666656494,929.93334960938,1190.6666666667,927.38891601562,1237.1666666667,917.55558268229,1236.7333323161,942.56665039062,1191.3999989827,950.89998372396,1170.8999989827,954.23331705729,1084,950,1031.5,949.33333333333,981.83333333333,949.83333333333,931.33333333333,951,882.83333333333,953.66666666667,835.83333333333,956.5,791.16666666667,961.83333333333,773,964.5,700.66666666667,951.5"></polygon><polygon  data-sec="1" data-build="1" data-floor="3" class="s3d-svg__house js-s3d-svg__house" points="700.63588968913,903.42423502604,772.30255635579,911.59090169271,789.80255635579,910.59090169271,835.30255635579,906.42423502604,881.46922302246,903.59090169271,906.30255635579,902.09090169271,930.80255635579,901.25756835938,956.30255635579,901.42423502604,1006.3025563558,901.09090169271,1057.1358896891,901.59090169271,1107.4692230225,903.25756835938,1169.6358896891,906.75756835938,1190.1358896891,905.09090169271,1237.3025563558,896.75756835938,1237.1666666667,917.55558268229,1190.6666666667,927.38891601562,1170.5666656494,929.93334960938,1107.7333323161,926.76668294271,1057.3999989827,924.43334960938,1006.8999989827,924.93334960938,956.39999898275,924.76668294271,906.23333231608,926.43334960938,859.39999898275,929.60001627604,813.39999898275,932.76668294271,790.56666564941,935.43334960938,773.39999898275,935.93334960938,700.46922302246,927.40909830729"></polygon><polygon  data-sec="1" data-build="1" data-floor="4" class="s3d-svg__house js-s3d-svg__house" points="700.66666666667,880.16666666667,773.16666666667,887.66666666667,790.5,886.5,813,884.33333333333,859.5,880.83333333333,906.66666666667,879,956,878,1006.8333333333,877.16666666667,1058.1666666667,877.66666666667,1108,879.5,1169.6666666667,882.66666666667,1190.8333333333,880.83333333333,1237.1666666667,871.5,1237.3025563558,896.75756835938,1190.1358896891,905.09090169271,1169.6358896891,906.75756835938,1107.4692230225,903.25756835938,1057.1358896891,901.59090169271,1006.3025563558,901.09090169271,956.30255635579,901.42423502604,930.80255635579,901.25756835938,906.30255635579,902.09090169271,881.46922302246,903.59090169271,835.30255635579,906.42423502604,789.80255635579,910.59090169271,772.30255635579,911.59090169271,700.63588968913,903.42423502604"></polygon><polygon  data-sec="1" data-build="1" data-floor="5" class="s3d-svg__house js-s3d-svg__house" points="700.66666666667,855.33333333333,772,862.33333333333,790.5,861.66666666667,813.33333333333,859.5,859.5,856.5,906,854.5,955.33333333333,853.66666666667,1005.8333333333,853.33333333333,1057.8333333333,853.66666666667,1108.3333333333,855.5,1169.5,858.16666666667,1190.5,856.83333333333,1237.5,848.5,1237.1666666667,871.5,1190.8333333333,880.83333333333,1169.6666666667,882.66666666667,1108,879.5,1058.1666666667,877.66666666667,1006.8333333333,877.16666666667,956,878,906.66666666667,879,859.5,880.83333333333,813,884.33333333333,790.5,886.5,773.16666666667,887.66666666667,700.66666666667,880.16666666667"></polygon><polygon  data-sec="1" data-build="1" data-floor="6" class="s3d-svg__house js-s3d-svg__house" points="700.66666666667,831.16666666667,771.83101908366,837.40747070312,790.33101908366,837.24080403646,812.83101908366,836.07413736979,858.99768575033,833.07413736979,905.49768575033,831.74080403646,955.99768575033,830.74080403646,1005.4976857503,830.90747070312,1056.9976857503,830.90747070312,1108.3310190837,832.24080403646,1168.9976857503,834.24080403646,1190.164352417,832.74080403646,1237.664352417,825.24080403646,1237.5,848.5,1190.5,856.83333333333,1169.5,858.16666666667,1108.3333333333,855.5,1057.8333333333,853.66666666667,1005.8333333333,853.33333333333,955.33333333333,853.66666666667,906,854.5,859.5,856.5,813.33333333333,859.5,790.5,861.66666666667,772,862.33333333333,700.66666666667,855.33333333333"></polygon><polygon  data-sec="1" data-build="1" data-floor="7" class="s3d-svg__house js-s3d-svg__house" points="700.63588968913,807.30297851562,772.13588968913,813.30297851562,790.33101908366,812.87036132812,811.99768575033,811.70369466146,858.83101908366,809.20369466146,906.33101908366,807.53702799479,955.66435241699,807.03702799479,1005.4976857503,807.03702799479,1056.9976857503,807.37036132812,1107.8310190837,808.03702799479,1169.6358896891,810.60603841146,1189.1358896891,809.27270507812,1237.4692230225,803.10603841146,1237.664352417,825.24080403646,1190.164352417,832.74080403646,1168.9976857503,834.24080403646,1108.3310190837,832.24080403646,1056.9976857503,830.90747070312,1005.4976857503,830.90747070312,955.99768575033,830.74080403646,905.49768575033,831.74080403646,858.99768575033,833.07413736979,812.83101908366,836.07413736979,790.33101908366,837.24080403646,771.83101908366,837.40747070312,700.66666666667,831.16666666667"></polygon><polygon  data-sec="1" data-build="1" data-floor="8" class="s3d-svg__house js-s3d-svg__house" points="700.63588968913,783.77270507812,772.46922302246,788.93937174479,789.96922302246,788.43937174479,813.30255635579,787.10603841146,859.13588968913,785.10603841146,906.63588968913,783.60603841146,955.63588968913,782.93937174479,1006.3025563558,782.43937174479,1057.4692230225,783.60603841146,1108.5,784.66666666667,1169.3333333333,786.33333333333,1189.6666666667,784.5,1237,779.5,1237.4692230225,803.10603841146,1189.1358896891,809.27270507812,1169.6358896891,810.60603841146,1107.8310190837,808.03702799479,1056.9976857503,807.37036132812,1005.4976857503,807.03702799479,955.66435241699,807.03702799479,906.33101908366,807.53702799479,858.83101908366,809.20369466146,811.99768575033,811.70369466146,790.33101908366,812.87036132812,772.13588968913,813.30297851562,700.63588968913,807.30297851562"></polygon><polygon  data-sec="1" data-build="1" data-floor="9" class="s3d-svg__house js-s3d-svg__house" points="700.56666564941,760.46663411458,771.66666666667,764.33333333333,790.83333333333,764.33333333333,813.46922302246,762.66666666667,859.46922302246,760.5,906.80255635579,759.66666666667,955.96922302246,759.5,1006.9692230225,759,1058.3025563558,759.66666666667,1108.1358896891,760.66666666667,1169.8025563558,761.66666666667,1190.6358896891,760,1237.4692230225,756,1237,779.5,1189.6666666667,784.5,1169.3333333333,786.33333333333,1108.5,784.66666666667,1057.4692230225,783.60603841146,1006.3025563558,782.43937174479,955.63588968913,782.93937174479,906.63588968913,783.60603841146,859.13588968913,785.10603841146,813.30255635579,787.10603841146,789.96922302246,788.43937174479,772.46922302246,788.93937174479,700.63588968913,783.77270507812"></polygon><polygon  data-sec="1" data-build="1" data-floor="10" class="s3d-svg__house js-s3d-svg__house" points="701,736.16666666667,772,738.83333333333,813.33333333333,738.33333333333,859.5,737,905.66666666667,736.33333333333,956.33333333333,735.5,1007.1666666667,735.5,1058.6666666667,736.16666666667,1107.8333333333,736.5,1169.6666666667,738.5,1190.3333333333,736.16666666667,1237,731.83333333333,1237.4692230225,756,1190.6358896891,760,1169.8025563558,761.66666666667,1108.1358896891,760.66666666667,1058.3025563558,759.66666666667,1006.9692230225,759,955.96922302246,759.5,906.80255635579,759.66666666667,859.46922302246,760.5,813.46922302246,762.66666666667,790.83333333333,764.33333333333,771.66666666667,764.33333333333,700.56666564941,760.46663411458"></polygon><polygon  data-sec="1" data-build="1" data-floor="11" class="s3d-svg__house js-s3d-svg__house" points="700.83333333333,712.66666666667,771.16666666667,714.83333333333,790.16666666667,715.16666666667,835.33333333333,713.33333333333,882.5,712,931.83333333333,711.5,981.33333333333,711.83333333333,1032.8333333333,712.33333333333,1083.8333333333,712.66666666667,1133.6666666667,714.16666666667,1170,714.5,1190.8333333333,712.16666666667,1236.998046875,709.375,1237,731.83333333333,1190.3333333333,736.16666666667,1169.6666666667,738.5,1107.8333333333,736.5,1058.6666666667,736.16666666667,1007.1666666667,735.5,956.33333333333,735.5,905.66666666667,736.33333333333,859.5,737,813.33333333333,738.33333333333,772,738.83333333333,701,736.16666666667"></polygon><polygon  data-sec="1" data-build="1" data-floor="12" class="s3d-svg__house js-s3d-svg__house" points="701,689.16666666667,771.33333333333,689.66666666667,835.5,690,882,689.33333333333,930.33333333333,688.83333333333,982.66666666667,688.5,1031.8333333333,688,1082.8333333333,689,1133.6666666667,689.33333333333,1169.6666666667,690.16666666667,1190.3333333333,687.66666666667,1236.8333333333,686.16666666667,1236.998046875,709.375,1190.8333333333,712.16666666667,1170,714.5,1133.6666666667,714.16666666667,1083.8333333333,712.66666666667,1032.8333333333,712.33333333333,981.33333333333,711.83333333333,931.83333333333,711.5,882.5,712,835.33333333333,713.33333333333,790.16666666667,715.16666666667,771.16666666667,714.83333333333,700.83333333333,712.66666666667"></polygon><polygon  data-sec="1" data-build="1" data-floor="13" class="s3d-svg__house js-s3d-svg__house" points="701.33333333333,665.11112467448,772,664.27779134115,835.83333333333,665.44445800781,882.5,664.77779134115,932,664.77779134115,981.16666666667,665.61112467448,1031.3333333333,664.27779134115,1084,664.94445800781,1133.6666666667,665.77779134115,1169.6666666667,665.61112467448,1189.3333333333,663.44445800781,1236.3333333333,663.11112467448,1236.8333333333,686.16666666667,1190.3333333333,687.66666666667,1169.6666666667,690.16666666667,1133.6666666667,689.33333333333,1082.8333333333,689,1031.8333333333,688,982.66666666667,688.5,930.33333333333,688.83333333333,882,689.33333333333,835.5,690,771.33333333333,689.66666666667,701,689.16666666667"></polygon><polygon  data-sec="1" data-build="1" data-floor="14" class="s3d-svg__house js-s3d-svg__house" points="701,641.66666666667,771.66666666667,641.11112467448,791,641.11112467448,835.16666666667,642.11112467448,882.5,640.77779134115,930.5,641.44445800781,980.66666666667,640.94445800781,1032.3333333333,640.77779134115,1083.6666666667,640.94445800781,1133.6666666667,642.44445800781,1170,641.11112467448,1190,638.77779134115,1236.5,639.77779134115,1236.3333333333,663.11112467448,1189.3333333333,663.44445800781,1169.6666666667,665.61112467448,1133.6666666667,665.77779134115,1084,664.94445800781,1031.3333333333,664.27779134115,981.16666666667,665.61112467448,932,664.77779134115,882.5,664.77779134115,835.83333333333,665.44445800781,772,664.27779134115,701.33333333333,665.11112467448"></polygon><polygon  data-sec="1" data-build="1" data-floor="15" class="s3d-svg__house js-s3d-svg__house" points="701.66536458333,618.83333333333,770.99869791667,616.33333333333,835.49869791667,617.33333333333,881.99869791667,617.83333333333,930.49869791667,617.33333333333,980.99869791667,617.83333333333,1031.6653645833,618.5,1083.6653645833,618.83333333333,1133.4986979167,618.5,1189.8333333333,615.83333333333,1236.6666666667,617,1236.5,639.77779134115,1190,638.77779134115,1170,641.11112467448,1133.6666666667,642.44445800781,1083.6666666667,640.94445800781,1032.3333333333,640.77779134115,980.66666666667,640.94445800781,930.5,641.44445800781,882.5,640.77779134115,835.16666666667,642.11112467448,791,641.11112467448,771.66666666667,641.11112467448,701,641.66666666667"></polygon><polygon  data-sec="1" data-build="1" data-floor="16" class="s3d-svg__house js-s3d-svg__house" points="701.16666666667,594.55554199219,772,591.55554199219,835.66666666667,593.05554199219,882.5,593.88887532552,931.66666666667,593.72220865885,981.16666666667,594.55554199219,1031.8333333333,594.38887532552,1083.3333333333,595.05554199219,1133,593.72220865885,1190.5,592.22220865885,1237,593.88887532552,1236.6666666667,617,1189.8333333333,615.83333333333,1133.4986979167,618.5,1083.6653645833,618.83333333333,1031.6653645833,618.5,980.99869791667,617.83333333333,930.49869791667,617.33333333333,881.99869791667,617.83333333333,835.49869791667,617.33333333333,770.99869791667,616.33333333333,701.66536458333,618.83333333333"></polygon><polygon  data-sec="1" data-build="1" data-floor="17" class="s3d-svg__house js-s3d-svg__house" points="701,569.55554199219,771.83333333333,567.22220865885,835,569.72220865885,882.33333333333,570.22220865885,931.83333333333,570.88887532552,981.16666666667,571.72220865885,1031.8333333333,571.22220865885,1084.6666666667,570.88887532552,1133.3333333333,570.88887532552,1190.6666666667,568.38887532552,1237.1666666667,570.38887532552,1237,593.88887532552,1190.5,592.22220865885,1133,593.72220865885,1083.3333333333,595.05554199219,1031.8333333333,594.38887532552,981.16666666667,594.55554199219,931.66666666667,593.72220865885,882.5,593.88887532552,835.66666666667,593.05554199219,772,591.55554199219,701.16666666667,594.55554199219"></polygon><polygon  data-sec="1" data-build="1" data-floor="18" class="s3d-svg__house js-s3d-svg__house" points="701.49768575033,545.87040201823,771.498046875,542.66666666667,836.16471354167,546,882.498046875,546.33333333333,930.83138020833,547.83333333333,980.66471354167,548.16666666667,1031.6647135417,547.66666666667,1083.3313802083,547.83333333333,1132.998046875,546.5,1190.6647135417,545.33333333333,1236.6647135417,547.33333333333,1237.1666666667,570.38887532552,1190.6666666667,568.38887532552,1133.3333333333,570.88887532552,1084.6666666667,570.88887532552,1031.8333333333,571.22220865885,981.16666666667,571.72220865885,931.83333333333,570.88887532552,882.33333333333,570.22220865885,835,569.72220865885,771.83333333333,567.22220865885,701,569.55554199219"></polygon><polygon  data-sec="1" data-build="1" data-floor="19" class="s3d-svg__house js-s3d-svg__house" points="701.33138020833,521.375,771.16471354167,517.70833333333,835.498046875,521.04166666667,881.66471354167,522.04166666667,931.16471354167,522.20833333333,981.16471354167,523.875,1031.998046875,523.70833333333,1083.3313802083,523.375,1133.3313802083,523.375,1189.998046875,521.20833333333,1237.1647135417,523.875,1236.6647135417,547.33333333333,1190.6647135417,545.33333333333,1132.998046875,546.5,1083.3313802083,547.83333333333,1031.6647135417,547.66666666667,980.66471354167,548.16666666667,930.83138020833,547.83333333333,882.498046875,546.33333333333,836.16471354167,546,771.498046875,542.66666666667,701.49768575033,545.87040201823"></polygon><polygon  data-sec="1" data-build="1" data-floor="20" class="s3d-svg__house js-s3d-svg__house" points="701.498046875,498,771.998046875,493.66666666667,834.498046875,496.5,882.33138020833,498.83333333333,931.16471354167,499,981.16471354167,500.66666666667,1031.3313802083,500.33333333333,1082.998046875,500.66666666667,1132.498046875,499.5,1189.6647135417,497,1237.1647135417,502,1237.1647135417,523.875,1189.998046875,521.20833333333,1133.3313802083,523.375,1083.3313802083,523.375,1031.998046875,523.70833333333,981.16471354167,523.875,931.16471354167,522.20833333333,881.66471354167,522.04166666667,835.498046875,521.04166666667,771.16471354167,517.70833333333,701.33138020833,521.375"></polygon><polygon  data-sec="1" data-build="1" data-floor="21" class="s3d-svg__house js-s3d-svg__house" points="701.49869791667,473.83333333333,770.66536458333,469.33333333333,834.16536458333,473.33333333333,881.66536458333,475.33333333333,930.16536458333,476.5,981.49869791667,477.83333333333,1031.9986979167,476.83333333333,1081.6653645833,476.33333333333,1132.4986979167,475.83333333333,1189.4986979167,473.5,1236.4986979167,479,1237.1647135417,502,1189.6647135417,497,1132.498046875,499.5,1082.998046875,500.66666666667,1031.3313802083,500.33333333333,981.16471354167,500.66666666667,931.16471354167,499,882.33138020833,498.83333333333,834.498046875,496.5,771.998046875,493.66666666667,701.498046875,498"></polygon><polygon  data-sec="1" data-build="1" data-floor="22" class="s3d-svg__house js-s3d-svg__house" points="701,450,771.66666666667,444.94445800781,834.83138020833,448.79166666667,881.33138020833,450.95833333333,930.83138020833,453.125,981.33138020833,454.29166666667,1031.3313802083,453.625,1082.498046875,453.125,1132.3313802083,451.79166666667,1189.498046875,450.45833333333,1236.498046875,455.125,1236.4986979167,479,1189.4986979167,473.5,1132.4986979167,475.83333333333,1081.6653645833,476.33333333333,1031.9986979167,476.83333333333,981.49869791667,477.83333333333,930.16536458333,476.5,881.66536458333,475.33333333333,834.16536458333,473.33333333333,770.66536458333,469.33333333333,701.49869791667,473.83333333333"></polygon><polygon  data-sec="1" data-build="1" data-floor="23" class="s3d-svg__house js-s3d-svg__house" points="701.49869791667,426.75,772.498046875,420.29166666667,835.498046875,424.29166666667,881.33138020833,426.95833333333,930.66471354167,428.95833333333,981.33138020833,430.45833333333,1031.3313802083,429.625,1083.3313802083,428.45833333333,1131.998046875,427.79166666667,1189.1647135417,427.29166666667,1236.498046875,432.79166666667,1236.498046875,455.125,1189.498046875,450.45833333333,1132.3313802083,451.79166666667,1082.498046875,453.125,1031.3313802083,453.625,981.33138020833,454.29166666667,930.83138020833,453.125,881.33138020833,450.95833333333,834.83138020833,448.79166666667,771.66666666667,444.94445800781,701,450"></polygon><polygon  data-sec="1" data-build="1" data-floor="24" class="s3d-svg__house js-s3d-svg__house" points="701.16666666667,402.83333333333,773,395.66666666667,791,397,835.16666666667,400.33333333333,882.5,403,931.33333333333,405.16666666667,981.33333333333,407.16666666667,1031.8333333333,407.16666666667,1083,405.83333333333,1133.1666666667,404.83333333333,1189,403.16666666667,1236.3333333333,409.83333333333,1236.498046875,432.79166666667,1189.1647135417,427.29166666667,1131.998046875,427.79166666667,1083.3313802083,428.45833333333,1031.3313802083,429.625,981.33138020833,430.45833333333,930.66471354167,428.95833333333,881.33138020833,426.95833333333,835.498046875,424.29166666667,772.498046875,420.29166666667,701.49869791667,426.75"></polygon><polygon  data-sec="1" data-build="1" data-floor="25" class="s3d-svg__house js-s3d-svg__house" points="701.66471354167,379.375,772.498046875,371.20833333333,790.66471354167,373.04166666667,835.33138020833,376.375,882.33138020833,378.875,931.16471354167,381.20833333333,980.83138020833,383.875,1031.1647135417,383.375,1083.6647135417,382.54166666667,1132.998046875,380.875,1189.1647135417,378.375,1236.6647135417,386.04166666667,1236.3333333333,409.83333333333,1189,403.16666666667,1133.1666666667,404.83333333333,1083,405.83333333333,1031.8333333333,407.16666666667,981.33333333333,407.16666666667,931.33333333333,405.16666666667,882.5,403,835.16666666667,400.33333333333,791,397,773,395.66666666667,701.16666666667,402.83333333333"></polygon><polygon  data-sec="1" data-build="1" data-floor="26" class="s3d-svg__house js-s3d-svg__house" points="701.66666666667,355.05554199219,773.16666666667,346.38887532552,790.5,347.88887532552,835.83333333333,352.88887532552,882.33333333333,355.88887532552,931,357.88887532552,981.16666666667,360.22220865885,1031.8333333333,359.55554199219,1083.1666666667,358.38887532552,1133.6666666667,357.05554199219,1190.5,353.16666666667,1236.3333333333,363.5,1236.6647135417,386.04166666667,1189.1647135417,378.375,1132.998046875,380.875,1083.6647135417,382.54166666667,1031.1647135417,383.375,980.83138020833,383.875,931.16471354167,381.20833333333,882.33138020833,378.875,835.33138020833,376.375,790.66471354167,373.04166666667,772.498046875,371.20833333333,701.66471354167,379.375"></polygon><polygon  data-sec="1" data-build="1" data-floor="27" class="s3d-svg__house js-s3d-svg__house" points="701.16666666667,329.5,772.33333333333,318.5,823.83333333333,325.66666666667,869,329,918.33333333333,331.83333333333,967.83333333333,334.16666666667,1019.1666666667,334.5,1068.6666666667,333,1119.8333333333,332.16666666667,1169,329.16666666667,1190,327.5,1236,338.33333333333,1236.3333333333,363.5,1190.5,353.16666666667,1133.6666666667,357.05554199219,1083.1666666667,358.38887532552,1031.8333333333,359.55554199219,981.16666666667,360.22220865885,931,357.88887532552,882.33333333333,355.88887532552,835.83333333333,352.88887532552,790.5,347.88887532552,773.16666666667,346.38887532552,701.66666666667,355.05554199219"></polygon></svg>