<svg preserveAspectRatio="xMidYMid slice" id="floor--svg"  viewBox="0 0 1920 1213" version="1.0" xmlns="http://www.w3.org/2000/svg"><polygon  data-sec="1" data-build="1" data-floor="2" class="s3d-svg__house js-s3d-svg__house" points="707.56666564941,898.79996744792,746.56666564941,899.79996744792,787.06666564941,903.63330078125,822.23333231608,907.46663411458,853.73333231608,913.46663411458,879.06666564941,919.13330078125,900.33333333333,925.38891601562,907.5,928.38891601562,912.33333333333,932.05558268229,921.66666666667,943.22224934896,1031,944.05558268229,1039.3333333333,935.38891601562,1050.1666666667,927.16666666667,1064.5,920.33333333333,1082.8333333333,913.83333333333,1103.8333333333,908,1128,902.66666666667,1154,897.33333333333,1183.6666666667,893.5,1220,890.16666666667,1220.2619069417,911.45239257812,1198.5952402751,913.61905924479,1168.5952402751,920.11905924479,1141.1666666667,923.66666666667,1114.5,929.66666666667,1092.3333333333,935.83333333333,1073.3333333333,942.83333333333,1057.1666666667,949.16666666667,1041,959.66666666667,1031.1666666667,970.5,921.66666666667,970.5,912.33333333333,958.16666666667,898.5,950.83333333333,879.16666666667,943,838.33333333333,935,803.66666666667,928.83333333333,766.5,925,708,921.83333333333"></polygon><polygon  data-sec="1" data-build="1" data-floor="3" class="s3d-svg__house js-s3d-svg__house" points="707.56666564941,876.10001627604,747.56666564941,877.70003255208,787.06666564941,880.70003255208,822.56666564941,884.86669921875,853.06666564941,889.56665039062,879.23333231608,895.73331705729,899.39999898275,901.06665039062,907.06666564941,903.89998372396,912.56666564941,907.56665039062,921.73333231608,917.23331705729,1031.0666656494,918.89998372396,1039.7333323161,909.56665039062,1049.7333323161,903.73331705729,1064.8999989827,896.89998372396,1082.2333323161,891.56665039062,1104.3999989827,885.73331705729,1128.3999989827,880.89998372396,1155.2333323161,876.23331705729,1184.0666656494,872.23331705729,1219.8999989827,869.23331705729,1220,890.16666666667,1183.6666666667,893.5,1154,897.33333333333,1128,902.66666666667,1103.8333333333,908,1082.8333333333,913.83333333333,1064.5,920.33333333333,1050.1666666667,927.16666666667,1039.3333333333,935.38891601562,1031,944.05558268229,921.66666666667,943.22224934896,912.33333333333,932.05558268229,907.5,928.38891601562,900.33333333333,925.38891601562,879.06666564941,919.13330078125,853.73333231608,913.46663411458,822.23333231608,907.46663411458,787.06666564941,903.63330078125,746.56666564941,899.79996744792,707.56666564941,898.79996744792"></polygon><polygon  data-sec="1" data-build="1" data-floor="4" class="s3d-svg__house js-s3d-svg__house" points="707.33333333333,854.22224934896,747.06666564941,855.53336588542,786.89999898275,859.03336588542,822.39999898275,863.03336588542,853.89999898275,866.86669921875,879.73333231608,872.20003255208,899.23333231608,877.36669921875,907.73333231608,880.20003255208,912.23333231608,882.53336588542,922.06666564941,893.20003255208,1031.0666656494,893.36669921875,1039.0666656494,885.20003255208,1050.3999989827,878.86669921875,1064.3999989827,873.53336588542,1083.3999989827,868.20003255208,1105.3999989827,862.86669921875,1129.0666656494,858.36669921875,1155.2333323161,854.20003255208,1183.3999989827,851.53336588542,1219.8999989827,848.53336588542,1219.8999989827,869.23331705729,1184.0666656494,872.23331705729,1155.2333323161,876.23331705729,1128.3999989827,880.89998372396,1104.3999989827,885.73331705729,1082.2333323161,891.56665039062,1064.8999989827,896.89998372396,1049.7333323161,903.73331705729,1039.7333323161,909.56665039062,1031.0666656494,918.89998372396,921.73333231608,917.23331705729,912.56666564941,907.56665039062,907.06666564941,903.89998372396,899.39999898275,901.06665039062,879.23333231608,895.73331705729,853.06666564941,889.56665039062,822.56666564941,884.86669921875,787.06666564941,880.70003255208,747.56666564941,877.70003255208,707.56666564941,876.10001627604"></polygon><polygon  data-sec="1" data-build="1" data-floor="5" class="s3d-svg__house js-s3d-svg__house" points="707.5,832,726.66666666667,832.83333333333,766.5,834.83333333333,804.66666666667,839,838.5,842.33333333333,867.83333333333,847,891,851.83333333333,906.83333333333,856.16666666667,912.66666666667,858.16666666667,921.66666666667,866.5,1031.1666666667,867.33333333333,1039.5,861.16666666667,1049.4692230225,855.0302734375,1064.4692230225,850.19694010417,1082.3025563558,845.36360677083,1103.6358896891,840.86360677083,1127.9692230225,836.36360677083,1154.8025563558,832.5302734375,1183.6358896891,829.69694010417,1219.6358896891,827.19694010417,1219.8999989827,848.53336588542,1183.3999989827,851.53336588542,1155.2333323161,854.20003255208,1129.0666656494,858.36669921875,1105.3999989827,862.86669921875,1083.3999989827,868.20003255208,1064.3999989827,873.53336588542,1050.3999989827,878.86669921875,1039.0666656494,885.20003255208,1031.0666656494,893.36669921875,922.06666564941,893.20003255208,912.23333231608,882.53336588542,907.73333231608,880.20003255208,899.23333231608,877.36669921875,879.73333231608,872.20003255208,853.89999898275,866.86669921875,822.39999898275,863.03336588542,786.89999898275,859.03336588542,747.06666564941,855.53336588542,707.33333333333,854.22224934896"></polygon><polygon  data-sec="1" data-build="1" data-floor="6" class="s3d-svg__house js-s3d-svg__house" points="707.13588968913,811.10603841146,746.80255635579,812.10603841146,786.80255635579,814.77270507812,822.46922302246,817.92423502604,853.13588968913,820.92423502604,879.30255635579,825.10603841146,899.96922302246,829.60603841146,912.46922302246,835.10603841146,921.80255635579,842.10603841146,1030.6358896891,842.10603841146,1035.1358896891,837.93937174479,1043.4692230225,834.10603841146,1056.3025563558,828.60603841146,1073.1358896891,824.43937174479,1092.9692230225,820.10603841146,1116.3025563558,816.10603841146,1141.1358896891,812.60603841146,1168.6358896891,809.27270507812,1199.6358896891,807.27270507812,1220.1358896891,805.60603841146,1219.6358896891,827.19694010417,1183.6358896891,829.69694010417,1154.8025563558,832.5302734375,1127.9692230225,836.36360677083,1103.6358896891,840.86360677083,1082.3025563558,845.36360677083,1064.4692230225,850.19694010417,1049.4692230225,855.0302734375,1039.5,861.16666666667,1031.1666666667,867.33333333333,921.66666666667,866.5,912.66666666667,858.16666666667,906.83333333333,856.16666666667,891,851.83333333333,867.83333333333,847,838.5,842.33333333333,804.66666666667,839,766.5,834.83333333333,726.66666666667,832.83333333333,707.5,832"></polygon><polygon  data-sec="1" data-build="1" data-floor="7" class="s3d-svg__house js-s3d-svg__house" points="707.33101908366,789.05558268229,746.49768575033,790.22224934896,786.49768575033,792.72224934896,823.30255635579,795.56062825521,853.63588968913,799.06062825521,879.96922302246,802.54541015625,899.96922302246,806.37874348958,912.46922302246,810.21207682292,921.63588968913,816.87874348958,1030.4692230225,816.87874348958,1039.3025563558,812.04541015625,1049.9692230225,807.21207682292,1064.8025563558,803.21207682292,1082.9692230225,799.04541015625,1104.1358896891,795.71207682292,1128.3025563558,792.21207682292,1154.6358896891,789.54541015625,1183.6358896891,787.04541015625,1219.7619069417,784.85717773438,1220.1358896891,805.60603841146,1199.6358896891,807.27270507812,1168.6358896891,809.27270507812,1141.1358896891,812.60603841146,1116.3025563558,816.10603841146,1092.9692230225,820.10603841146,1073.1358896891,824.43937174479,1056.3025563558,828.60603841146,1043.4692230225,834.10603841146,1035.1358896891,837.93937174479,1030.6358896891,842.10603841146,921.80255635579,842.10603841146,912.46922302246,835.10603841146,899.96922302246,829.60603841146,879.30255635579,825.10603841146,853.13588968913,820.92423502604,822.46922302246,817.92423502604,786.80255635579,814.77270507812,746.80255635579,812.10603841146,707.13588968913,811.10603841146"></polygon><polygon  data-sec="1" data-build="1" data-floor="8" class="s3d-svg__house js-s3d-svg__house" points="707.39999898275,767.46663411458,747.73333231608,768.79996744792,787.73333231608,770.63330078125,822.39999898275,772.79996744792,853.06666564941,775.46663411458,879.56666564941,778.79996744792,900.73333231608,782.79996744792,912.39999898275,785.79996744792,921.73333231608,791.63330078125,1031.2333323161,791.29996744792,1039.0666656494,786.79996744792,1050.2333323161,783.13330078125,1064.8999989827,779.29996744792,1083.2333323161,776.13330078125,1104.2333323161,773.13330078125,1128.5666656494,770.46663411458,1154.3999989827,767.96663411458,1183.7333323161,765.46663411458,1220.2333323161,764.46663411458,1219.7619069417,784.85717773438,1183.6358896891,787.04541015625,1154.6358896891,789.54541015625,1128.3025563558,792.21207682292,1104.1358896891,795.71207682292,1082.9692230225,799.04541015625,1064.8025563558,803.21207682292,1049.9692230225,807.21207682292,1039.3025563558,812.04541015625,1030.4692230225,816.87874348958,921.63588968913,816.87874348958,912.46922302246,810.21207682292,899.96922302246,806.37874348958,879.96922302246,802.54541015625,853.63588968913,799.06062825521,823.30255635579,795.56062825521,786.49768575033,792.72224934896,746.49768575033,790.22224934896,707.33101908366,789.05558268229"></polygon><polygon  data-sec="1" data-build="1" data-floor="9" class="s3d-svg__house js-s3d-svg__house" points="707.46922302246,745.65152994792,746.96922302246,747.15152994792,787.80255635579,748.98486328125,822.13588968913,750.48486328125,853.96922302246,753.15152994792,878.63588968913,755.81819661458,899.46922302246,758.48486328125,912.30255635579,761.31819661458,921.46922302246,765.81819661458,1031.3025563558,766.31819661458,1039.1358896891,762.31819661458,1051.1358896891,758.98486328125,1064.4692230225,756.15152994792,1082.9692230225,753.65152994792,1103.3025563558,751.15152994792,1127.9692230225,747.98486328125,1154.3025563558,745.81819661458,1183.9692230225,744.15152994792,1219.8025563558,742.65152994792,1220.2333323161,764.46663411458,1183.7333323161,765.46663411458,1154.3999989827,767.96663411458,1128.5666656494,770.46663411458,1104.2333323161,773.13330078125,1083.2333323161,776.13330078125,1064.8999989827,779.29996744792,1050.2333323161,783.13330078125,1039.0666656494,786.79996744792,1031.2333323161,791.29996744792,921.73333231608,791.63330078125,912.39999898275,785.79996744792,900.73333231608,782.79996744792,879.56666564941,778.79996744792,853.06666564941,775.46663411458,822.39999898275,772.79996744792,787.73333231608,770.63330078125,747.73333231608,768.79996744792,707.39999898275,767.46663411458"></polygon><polygon  data-sec="1" data-build="1" data-floor="10" class="s3d-svg__house js-s3d-svg__house" points="707.16435241699,723.77783203125,726.66666666667,723.83333333333,767.33333333333,725.83333333333,805.33333333333,726.66666666667,838,728.5,866.83101908366,731.07405598958,890.16435241699,733.07405598958,906.33101908366,735.90738932292,921.63588968913,740.24243164062,1030.8313802083,741.04166666667,1038.3333333333,737.33333333333,1051.1666666667,735.33333333333,1064.6666666667,732.83333333333,1082.5,730.5,1104.8333333333,728,1127.8333333333,726.16666666667,1155,723.72224934896,1183.3333333333,722.05558268229,1219.3333333333,721.22224934896,1219.8025563558,742.65152994792,1183.9692230225,744.15152994792,1154.3025563558,745.81819661458,1127.9692230225,747.98486328125,1103.3025563558,751.15152994792,1082.9692230225,753.65152994792,1064.4692230225,756.15152994792,1051.1358896891,758.98486328125,1039.1358896891,762.31819661458,1031.3025563558,766.31819661458,921.46922302246,765.81819661458,912.30255635579,761.31819661458,899.46922302246,758.48486328125,878.63588968913,755.81819661458,853.96922302246,753.15152994792,822.13588968913,750.48486328125,787.80255635579,748.98486328125,746.96922302246,747.15152994792,707.46922302246,745.65152994792"></polygon><polygon  data-sec="1" data-build="1" data-floor="11" class="s3d-svg__house js-s3d-svg__house" points="707.498046875,702.29166666667,726.498046875,702.125,767.998046875,703.125,804.66471354167,704.625,838.16471354167,706.45833333333,866.33138020833,707.95833333333,891.16666666667,710.33333333333,907.33333333333,711.83333333333,921.498046875,714.75,1030.8313802083,715.41666666667,1039.8333333333,714,1050.6666666667,711.83333333333,1064,709.83333333333,1082.8333333333,707.66666666667,1103.6666666667,705.83333333333,1128.1666666667,704.33333333333,1154.8333333333,702.66666666667,1183.3333333333,701.5,1218.8333333333,701,1219.3333333333,721.22224934896,1183.3333333333,722.05558268229,1155,723.72224934896,1127.8333333333,726.16666666667,1104.8333333333,728,1082.5,730.5,1064.6666666667,732.83333333333,1051.1666666667,735.33333333333,1038.3333333333,737.33333333333,1030.8313802083,741.04166666667,921.63588968913,740.24243164062,906.33101908366,735.90738932292,890.16435241699,733.07405598958,866.83101908366,731.07405598958,838,728.5,805.33333333333,726.66666666667,767.33333333333,725.83333333333,726.66666666667,723.83333333333,707.16435241699,723.77783203125"></polygon><polygon  data-sec="1" data-build="1" data-floor="12" class="s3d-svg__house js-s3d-svg__house" points="706.99768575033,680.85188802083,725.33101908366,680.35188802083,766.66435241699,681.0185546875,803.99768575033,682.35188802083,838.33101908366,683.5185546875,867.16435241699,685.35188802083,890.49768575033,686.85188802083,906.99768575033,687.68522135417,921.49768575033,689.44449869792,1030.4976857503,689.66666666667,1039.2333323161,689.06665039062,1050.3999989827,687.56665039062,1064.8999989827,685.89998372396,1082.8999989827,684.39998372396,1104.3999989827,682.89998372396,1127.8999989827,681.56665039062,1154.7333323161,680.56665039062,1184.0666656494,679.73331705729,1218.3999989827,680.06665039062,1218.8333333333,701,1183.3333333333,701.5,1154.8333333333,702.66666666667,1128.1666666667,704.33333333333,1103.6666666667,705.83333333333,1082.8333333333,707.66666666667,1064,709.83333333333,1050.6666666667,711.83333333333,1039.8333333333,714,1030.8313802083,715.41666666667,921.498046875,714.75,907.33333333333,711.83333333333,891.16666666667,710.33333333333,866.33138020833,707.95833333333,838.16471354167,706.45833333333,804.66471354167,704.625,767.998046875,703.125,726.498046875,702.125,707.498046875,702.29166666667"></polygon><polygon  data-sec="1" data-build="1" data-floor="13" class="s3d-svg__house js-s3d-svg__house" points="707.80255635579,658.92423502604,746.66435241699,659.75927734375,786.83101908366,660.25927734375,822.66435241699,661.75927734375,852.33101908366,662.59261067708,880.16435241699,663.42594401042,899.99869791667,663.5,907.49869791667,663.5,912.99869791667,663.33333333333,921.49869791667,663.33333333333,1030.664352417,663.66666666667,1039.6358896891,664.62117513021,1049.8025563558,663.62117513021,1064.4692230225,662.62117513021,1082.9692230225,662.12117513021,1104.6358896891,660.95450846354,1128.1358896891,659.95450846354,1154.8025563558,658.78784179688,1183.4692230225,658.95450846354,1218.6358896891,658.28784179688,1218.3999989827,680.06665039062,1184.0666656494,679.73331705729,1154.7333323161,680.56665039062,1127.8999989827,681.56665039062,1104.3999989827,682.89998372396,1082.8999989827,684.39998372396,1064.8999989827,685.89998372396,1050.3999989827,687.56665039062,1039.2333323161,689.06665039062,1030.4976857503,689.66666666667,921.49768575033,689.44449869792,906.99768575033,687.68522135417,890.49768575033,686.85188802083,867.16435241699,685.35188802083,838.33101908366,683.5185546875,803.99768575033,682.35188802083,766.66435241699,681.0185546875,725.33101908366,680.35188802083,706.99768575033,680.85188802083"></polygon><polygon  data-sec="1" data-build="1" data-floor="14" class="s3d-svg__house js-s3d-svg__house" points="707.66666666667,637.27775065104,747.16666666667,637.66666666667,787.33333333333,638.83333333333,822.16666666667,639.16666666667,853.66666666667,639.66666666667,879.80255635579,639.65152994792,899.96922302246,639.81819661458,912.46922302246,639.98486328125,920.80255635579,639.15152994792,1030.8025563558,638.81819661458,1039.3333333333,639.33333333333,1050.3333333333,639.5,1064.6666666667,639,1083,638,1104.1666666667,637.5,1128,637.33333333333,1154.8333333333,637,1183.5,636.66666666667,1219.5,637.16666666667,1218.6358896891,658.28784179688,1183.4692230225,658.95450846354,1154.8025563558,658.78784179688,1128.1358896891,659.95450846354,1104.6358896891,660.95450846354,1082.9692230225,662.12117513021,1064.4692230225,662.62117513021,1049.8025563558,663.62117513021,1039.6358896891,664.62117513021,1030.664352417,663.66666666667,921.49869791667,663.33333333333,912.99869791667,663.33333333333,907.49869791667,663.5,899.99869791667,663.5,880.16435241699,663.42594401042,852.33101908366,662.59261067708,822.66435241699,661.75927734375,786.83101908366,660.25927734375,746.66435241699,659.75927734375,707.80255635579,658.92423502604"></polygon><polygon  data-sec="1" data-build="1" data-floor="15" class="s3d-svg__house js-s3d-svg__house" points="707.80255635579,616,748.33333333333,615.66666666667,787.16666666667,616.33333333333,822.5,616.16666666667,854.33333333333,616.66666666667,879.16666666667,616.16666666667,900,615.83333333333,912.33138020833,615.16666666667,921.33138020833,613.16666666667,1030.8313802083,612.83333333333,1039.1666666667,614.5,1049.6666666667,615.5,1065,615.5,1083.6666666667,615.5,1104.1666666667,615.5,1127.5,615.33333333333,1154.3333333333,615.5,1183.5,615.66666666667,1219.6666666667,616.83333333333,1219.5,637.16666666667,1183.5,636.66666666667,1154.8333333333,637,1128,637.33333333333,1104.1666666667,637.5,1083,638,1064.6666666667,639,1050.3333333333,639.5,1039.3333333333,639.33333333333,1030.8025563558,638.81819661458,920.80255635579,639.15152994792,912.46922302246,639.98486328125,899.96922302246,639.81819661458,879.80255635579,639.65152994792,853.66666666667,639.66666666667,822.16666666667,639.16666666667,787.33333333333,638.83333333333,747.16666666667,637.66666666667,707.66666666667,637.27775065104"></polygon><polygon  data-sec="1" data-build="1" data-floor="16" class="s3d-svg__house js-s3d-svg__house" points="707.83333333333,594.16666666667,747.33333333333,594,788.16666666667,593.66666666667,822.83333333333,593.66666666667,852.66666666667,593.83333333333,879.83333333333,593,899.33333333333,592.16666666667,907.5,591.66666666667,912.66666666667,591,921.83333333333,587.5,1031,587.5,1038.8025563558,589.92423502604,1049.1358896891,591.25756835938,1064.3025563558,591.92423502604,1082.3025563558,592.42423502604,1104.6358896891,592.59090169271,1127.8025563558,593.75756835938,1155.4692230225,593.75756835938,1183.3025563558,594.25756835938,1219.6358896891,595.92423502604,1219.6666666667,616.83333333333,1183.5,615.66666666667,1154.3333333333,615.5,1127.5,615.33333333333,1104.1666666667,615.5,1083.6666666667,615.5,1065,615.5,1049.6666666667,615.5,1039.1666666667,614.5,1030.8313802083,612.83333333333,921.33138020833,613.16666666667,912.33138020833,615.16666666667,900,615.83333333333,879.16666666667,616.16666666667,854.33333333333,616.66666666667,822.5,616.16666666667,787.16666666667,616.33333333333,748.33333333333,615.66666666667,707.80255635579,616"></polygon><polygon  data-sec="1" data-build="1" data-floor="17" class="s3d-svg__house js-s3d-svg__house" points="707.5,572.66666666667,747.16471354167,571.41666666667,786.998046875,571.41666666667,822.33138020833,570.91666666667,853.80255635579,570.81815592448,879.30255635579,569.65148925781,899.13588968913,568.48482259115,907.30255635579,567.48482259115,912.46922302246,566.65148925781,921.33138020833,562.75,1030.8313802083,562.58333333333,1038.8025563558,565.92423502604,1043.8025563558,567.09090169271,1056.1358896891,568.42423502604,1073.1647135417,569.70833333333,1092.1647135417,570.54166666667,1115.498046875,571.875,1141.1647135417,572.70833333333,1168.1647135417,573.375,1198.1647135417,573.875,1220.1358896891,574.66666666667,1219.6358896891,595.92423502604,1183.3025563558,594.25756835938,1155.4692230225,593.75756835938,1127.8025563558,593.75756835938,1104.6358896891,592.59090169271,1082.3025563558,592.42423502604,1064.3025563558,591.92423502604,1049.1358896891,591.25756835938,1038.8025563558,589.92423502604,1031,587.5,921.83333333333,587.5,912.66666666667,591,907.5,591.66666666667,899.33333333333,592.16666666667,879.83333333333,593,852.66666666667,593.83333333333,822.83333333333,593.66666666667,788.16666666667,593.66666666667,747.33333333333,594,707.83333333333,594.16666666667"></polygon><polygon  data-sec="1" data-build="1" data-floor="18" class="s3d-svg__house js-s3d-svg__house" points="707.16666666667,551.83333333333,748.06666564941,550.23331705729,787.23333231608,549.73331705729,823.06666564941,549.23331705729,854.39999898275,548.23331705729,879.89999898275,547.56665039062,891.06666564941,546.39998372396,900.39999898275,545.23331705729,907.80255635579,543.89392089844,912.46922302246,543.0605875651,921.23333231608,536.56665039062,1031.0666656494,536.56665039062,1035.3999989827,539.56665039062,1039.2333323161,541.06665039062,1043.7333323161,542.73331705729,1050.0666656494,543.89998372396,1064.8999989827,545.56665039062,1083.2333323161,546.89998372396,1104.8999989827,548.06665039062,1129.0666656494,548.89998372396,1141.0666656494,550.23331705729,1154.0666656494,550.56665039062,1168.3999989827,551.06665039062,1183.5666656494,551.89998372396,1219.5666656494,554.23331705729,1220.1358896891,574.66666666667,1198.1647135417,573.875,1168.1647135417,573.375,1141.1647135417,572.70833333333,1115.498046875,571.875,1092.1647135417,570.54166666667,1073.1647135417,569.70833333333,1056.1358896891,568.42423502604,1043.8025563558,567.09090169271,1038.8025563558,565.92423502604,1030.8313802083,562.58333333333,921.33138020833,562.75,912.46922302246,566.65148925781,907.30255635579,567.48482259115,899.13588968913,568.48482259115,879.30255635579,569.65148925781,853.80255635579,570.81815592448,822.33138020833,570.91666666667,786.998046875,571.41666666667,747.16471354167,571.41666666667,707.5,572.66666666667"></polygon><polygon  data-sec="1" data-build="1" data-floor="19" class="s3d-svg__house js-s3d-svg__house" points="707.13588968913,529.60603841146,726.46922302246,528.60603841146,767.13588968913,527.93937174479,804.63588968913,526.93937174479,838.96922302246,526.10603841146,867.63588968913,524.93937174479,891.30255635579,522.93937174479,900.13588968913,521.27270507812,906.96922302246,519.77270507812,912.30255635579,517.60603841146,921.33101908366,512.5185139974,1030.4976857503,511.85184733073,1034.9692230225,514.75756835938,1038.6358896891,516.92423502604,1043.4692230225,518.25756835938,1049.6358896891,519.59090169271,1064.9692230225,521.75756835938,1082.3025563558,524.09090169271,1104.8025563558,525.75756835938,1128.3025563558,527.25756835938,1154.1358896891,528.59090169271,1182.9692230225,530.42423502604,1219.4692230225,532.59090169271,1219.5666656494,554.23331705729,1183.5666656494,551.89998372396,1168.3999989827,551.06665039062,1154.0666656494,550.56665039062,1141.0666656494,550.23331705729,1129.0666656494,548.89998372396,1104.8999989827,548.06665039062,1083.2333323161,546.89998372396,1064.8999989827,545.56665039062,1050.0666656494,543.89998372396,1043.7333323161,542.73331705729,1039.2333323161,541.06665039062,1035.3999989827,539.56665039062,1031.0666656494,536.56665039062,921.23333231608,536.56665039062,912.46922302246,543.0605875651,907.80255635579,543.89392089844,900.39999898275,545.23331705729,891.06666564941,546.39998372396,879.89999898275,547.56665039062,854.39999898275,548.23331705729,823.06666564941,549.23331705729,787.23333231608,549.73331705729,748.06666564941,550.23331705729,707.16666666667,551.83333333333"></polygon><polygon  data-sec="1" data-build="1" data-floor="20" class="s3d-svg__house js-s3d-svg__house" points="707.46922302246,507.65148925781,726.30255635579,506.98482259115,767.96922302246,505.81815592448,804.80255635579,504.65148925781,839.13588968913,503.48482259115,868.13588968913,501.15148925781,891.13588968913,498.98482259115,899.96922302246,497.81815592448,907.33333333333,495.33333333333,911.83101908366,493.0185139974,921.16435241699,486.35184733073,1030.4976857503,486.35184733073,1034.5666656494,488.80000813802,1039.2333323161,491.46667480469,1044.0666656494,493.63334147135,1049.7333323161,495.63334147135,1064.7333323161,498.80000813802,1083.2333323161,500.96667480469,1104.3999989827,502.63334147135,1127.7333323161,504.46667480469,1155.7333323161,506.63334147135,1183.2333323161,508.63334147135,1219.7333323161,511.13334147135,1219.4692230225,532.59090169271,1182.9692230225,530.42423502604,1154.1358896891,528.59090169271,1128.3025563558,527.25756835938,1104.8025563558,525.75756835938,1082.3025563558,524.09090169271,1064.9692230225,521.75756835938,1049.6358896891,519.59090169271,1043.4692230225,518.25756835938,1038.6358896891,516.92423502604,1034.9692230225,514.75756835938,1030.4976857503,511.85184733073,921.33101908366,512.5185139974,912.30255635579,517.60603841146,906.96922302246,519.77270507812,900.13588968913,521.27270507812,891.30255635579,522.93937174479,867.63588968913,524.93937174479,838.96922302246,526.10603841146,804.63588968913,526.93937174479,767.13588968913,527.93937174479,726.46922302246,528.60603841146,707.13588968913,529.60603841146"></polygon><polygon  data-sec="1" data-build="1" data-floor="21" class="s3d-svg__house js-s3d-svg__house" points="707.73333231608,486.19999186198,727.06666564941,485.53332519531,768.06666564941,483.86665852865,806.39999898275,482.19999186198,838.89999898275,480.19999186198,868.23333231608,478.03332519531,891.39999898275,475.19999186198,899.89999898275,473.53332519531,907.73333231608,471.53332519531,912.83333333333,469,922,461.33333333333,1031,460.5,1035.1666666667,465,1039.1666666667,467.33333333333,1043.8333333333,469.33333333333,1049.8333333333,471.5,1056.3333333333,473.33333333333,1064.8333333333,475.33333333333,1082.1666666667,477.5,1103.6666666667,480.16666666667,1128.6666666667,483,1154.8333333333,485.33333333333,1183.5,487.66666666667,1219.7333323161,489.93334960938,1219.7333323161,511.13334147135,1183.2333323161,508.63334147135,1155.7333323161,506.63334147135,1127.7333323161,504.46667480469,1104.3999989827,502.63334147135,1083.2333323161,500.96667480469,1064.7333323161,498.80000813802,1049.7333323161,495.63334147135,1044.0666656494,493.63334147135,1039.2333323161,491.46667480469,1034.5666656494,488.80000813802,1030.4976857503,486.35184733073,921.16435241699,486.35184733073,911.83101908366,493.0185139974,907.33333333333,495.33333333333,899.96922302246,497.81815592448,891.13588968913,498.98482259115,868.13588968913,501.15148925781,839.13588968913,503.48482259115,804.80255635579,504.65148925781,767.96922302246,505.81815592448,726.30255635579,506.98482259115,707.46922302246,507.65148925781"></polygon><polygon  data-sec="1" data-build="1" data-floor="22" class="s3d-svg__house js-s3d-svg__house" points="707.59524027507,463.35713704427,726.09524027507,463.02380371094,767.9285736084,461.52380371094,805.59524027507,460.35713704427,839.09524027507,458.02380371094,868.26190694173,455.35713704427,891.06666564941,452.19999186198,900.39999898275,450.19999186198,907.73333231608,447.36665852865,912.89999898275,444.19999186198,921.56666564941,435.86665852865,1031,435.41666666667,1034.5666656494,440.23331705729,1038.8025563558,443.04545084635,1043.3025563558,445.04545084635,1049.6358896891,447.54545084635,1056.4692230225,450.04545084635,1073.3025563558,453.37878417969,1093.3025563558,457.21211751302,1115.9692230225,460.37878417969,1141.1358896891,462.87878417969,1168.9692230225,465.21211751302,1199.8025563558,468.37878417969,1219.6358896891,470.21211751302,1219.7333323161,489.93334960938,1183.5,487.66666666667,1154.8333333333,485.33333333333,1128.6666666667,483,1103.6666666667,480.16666666667,1082.1666666667,477.5,1064.8333333333,475.33333333333,1056.3333333333,473.33333333333,1049.8333333333,471.5,1043.8333333333,469.33333333333,1039.1666666667,467.33333333333,1035.1666666667,465,1031,460.5,922,461.33333333333,912.83333333333,469,907.73333231608,471.53332519531,899.89999898275,473.53332519531,891.39999898275,475.19999186198,868.23333231608,478.03332519531,838.89999898275,480.19999186198,806.39999898275,482.19999186198,768.06666564941,483.86665852865,727.06666564941,485.53332519531,707.73333231608,486.19999186198"></polygon><polygon  data-sec="1" data-build="1" data-floor="23" class="s3d-svg__house js-s3d-svg__house" points="707.63588968913,442.16666666667,726.63588968913,442.12121582031,767.63588968913,440.28788248698,805.80255635579,437.95454915365,839.30255635579,435.62121582031,854.13588968913,434.12121582031,867.96922302246,432.45454915365,880.30255635579,430.78788248698,891.30255635579,428.28788248698,899.99768575033,425.87040201823,907.16435241699,422.87040201823,912.99768575033,420.20373535156,921.49768575033,410.5370686849,1030.9692230225,409.57576497396,1034.8025563558,414.90909830729,1038.4692230225,418.40909830729,1043.8025563558,421.57576497396,1049.6358896891,423.74243164062,1056.8025563558,426.40909830729,1073.3025563558,431.07576497396,1093.3025563558,434.24243164062,1116.3025563558,437.90909830729,1140.3025563558,441.24243164062,1168.8025563558,444.57576497396,1199.3025563558,447.40909830729,1219.6358896891,449.40909830729,1219.6358896891,470.21211751302,1199.8025563558,468.37878417969,1168.9692230225,465.21211751302,1141.1358896891,462.87878417969,1115.9692230225,460.37878417969,1093.3025563558,457.21211751302,1073.3025563558,453.37878417969,1056.4692230225,450.04545084635,1049.6358896891,447.54545084635,1043.3025563558,445.04545084635,1038.8025563558,443.04545084635,1034.5666656494,440.23331705729,1031,435.41666666667,921.56666564941,435.86665852865,912.89999898275,444.19999186198,907.73333231608,447.36665852865,900.39999898275,450.19999186198,891.06666564941,452.19999186198,868.26190694173,455.35713704427,839.09524027507,458.02380371094,805.59524027507,460.35713704427,767.9285736084,461.52380371094,726.09524027507,463.02380371094,707.59524027507,463.35713704427"></polygon><polygon  data-sec="1" data-build="1" data-floor="24" class="s3d-svg__house js-s3d-svg__house" points="707,420.5,707,420.5,726.33333333333,419.66666666667,726.33333333333,419.66666666667,747.5,419.16666666667,747.5,419.16666666667,788.16666666667,417,788.16666666667,417,823,414.33333333333,823,414.33333333333,854.33333333333,411.66666666667,854.33333333333,411.66666666667,881,407.33333333333,881,407.33333333333,891.33333333333,404.33333333333,891.33333333333,404.33333333333,900,402.33333333333,900,402.33333333333,907,399.16666666667,907,399.16666666667,912.83333333333,396.16666666667,912.83333333333,396.16666666667,921.5,384.5,921.5,384.5,1031.3333333333,384.27779134115,1031.3333333333,384.27779134115,1034.6666666667,391.88887532552,1034.6666666667,391.88887532552,1039,394.72220865885,1039,394.72220865885,1043.6666666667,397.38887532552,1043.6666666667,397.38887532552,1049.5,400.38887532552,1049.5,400.38887532552,1056.3333333333,402.72220865885,1056.3333333333,402.72220865885,1073.5,407.33333333333,1073.5,407.33333333333,1093.5,411,1093.5,411,1116,415.33333333333,1116,415.33333333333,1141,419.5,1141,419.5,1169.1666666667,423.33333333333,1169.1666666667,423.33333333333,1199.3333333333,426.5,1199.3333333333,426.5,1219.5,428.16666666667,1219.5,428.16666666667,1219.6358896891,449.40909830729,1219.6358896891,449.40909830729,1199.3025563558,447.40909830729,1199.3025563558,447.40909830729,1168.8025563558,444.57576497396,1168.8025563558,444.57576497396,1140.3025563558,441.24243164062,1140.3025563558,441.24243164062,1116.3025563558,437.90909830729,1116.3025563558,437.90909830729,1093.3025563558,434.24243164062,1093.3025563558,434.24243164062,1073.3025563558,431.07576497396,1073.3025563558,431.07576497396,1056.8025563558,426.40909830729,1056.8025563558,426.40909830729,1049.6358896891,423.74243164062,1049.6358896891,423.74243164062,1043.8025563558,421.57576497396,1043.8025563558,421.57576497396,1038.4692230225,418.40909830729,1038.4692230225,418.40909830729,1034.8025563558,414.90909830729,1034.8025563558,414.90909830729,1030.9692230225,409.57576497396,1030.9692230225,409.57576497396,921.49768575033,410.5370686849,921.49768575033,410.5370686849,912.99768575033,420.20373535156,912.99768575033,420.20373535156,907.16435241699,422.87040201823,907.16435241699,422.87040201823,899.99768575033,425.87040201823,899.99768575033,425.87040201823,891.30255635579,428.28788248698,891.30255635579,428.28788248698,880.30255635579,430.78788248698,880.30255635579,430.78788248698,867.96922302246,432.45454915365,867.96922302246,432.45454915365,854.13588968913,434.12121582031,854.13588968913,434.12121582031,839.30255635579,435.62121582031,839.30255635579,435.62121582031,805.80255635579,437.95454915365,805.80255635579,437.95454915365,767.63588968913,440.28788248698,767.63588968913,440.28788248698,726.63588968913,442.12121582031,726.63588968913,442.12121582031,707.63588968913,442.16666666667,707.63588968913,442.16666666667"></polygon><polygon  data-sec="1" data-build="1" data-floor="25" class="s3d-svg__house js-s3d-svg__house" points="707.66435241699,398.72224934896,707.66435241699,398.72224934896,747.16435241699,397.05558268229,747.16435241699,397.05558268229,768.16435241699,395.72224934896,768.16435241699,395.72224934896,805.33101908366,393.05558268229,805.33101908366,393.05558268229,838.49768575033,390.05558268229,838.49768575033,390.05558268229,853.49768575033,388.05558268229,853.49768575033,388.05558268229,867.33101908366,385.72224934896,867.33101908366,385.72224934896,878.99768575033,383.38891601562,878.99768575033,383.38891601562,890.49768575033,380.88891601562,890.49768575033,380.88891601562,899.66435241699,378.88891601562,899.66435241699,378.88891601562,907.66435241699,375.55558268229,907.66435241699,375.55558268229,912.66435241699,372.05558268229,912.66435241699,372.05558268229,921.66666666667,359.72220865885,921.66666666667,359.72220865885,1030.6358896891,358.74243164062,1030.6358896891,358.74243164062,1034.6358896891,366.54545084635,1034.6358896891,366.54545084635,1038.6358896891,370.04545084635,1038.6358896891,370.04545084635,1042.9692230225,373.21211751302,1042.9692230225,373.21211751302,1048.9692230225,376.04545084635,1048.9692230225,376.04545084635,1056.1358896891,379.21211751302,1056.1358896891,379.21211751302,1073.1358896891,383.87878417969,1073.1358896891,383.87878417969,1094.1358896891,389.54545084635,1094.1358896891,389.54545084635,1115.6358896891,393.87878417969,1115.6358896891,393.87878417969,1140.3025563558,397.87878417969,1140.3025563558,397.87878417969,1169.4692230225,401.54545084635,1169.4692230225,401.54545084635,1198.3025563558,404.04545084635,1198.3025563558,404.04545084635,1219.6358896891,405.71211751302,1219.6358896891,405.71211751302,1219.5,428.16666666667,1219.5,428.16666666667,1199.3333333333,426.5,1199.3333333333,426.5,1169.1666666667,423.33333333333,1169.1666666667,423.33333333333,1141,419.5,1141,419.5,1116,415.33333333333,1116,415.33333333333,1093.5,411,1093.5,411,1073.5,407.33333333333,1073.5,407.33333333333,1056.3333333333,402.72220865885,1056.3333333333,402.72220865885,1049.5,400.38887532552,1049.5,400.38887532552,1043.6666666667,397.38887532552,1043.6666666667,397.38887532552,1039,394.72220865885,1039,394.72220865885,1034.6666666667,391.88887532552,1034.6666666667,391.88887532552,1031.3333333333,384.27779134115,1031.3333333333,384.27779134115,921.5,384.5,921.5,384.5,912.83333333333,396.16666666667,912.83333333333,396.16666666667,907,399.16666666667,907,399.16666666667,900,402.33333333333,900,402.33333333333,891.33333333333,404.33333333333,891.33333333333,404.33333333333,881,407.33333333333,881,407.33333333333,854.33333333333,411.66666666667,854.33333333333,411.66666666667,823,414.33333333333,823,414.33333333333,788.16666666667,417,788.16666666667,417,747.5,419.16666666667,747.5,419.16666666667,726.33333333333,419.66666666667,726.33333333333,419.66666666667,707,420.5,707,420.5"></polygon><polygon  data-sec="1" data-build="1" data-floor="26" class="s3d-svg__house js-s3d-svg__house" points="708,377.16666666667,708,377.16666666667,748.66666666667,375,748.66666666667,375,787.66666666667,372.83333333333,787.66666666667,372.83333333333,822.83333333333,368.83333333333,822.83333333333,368.83333333333,854.16666666667,365.16666666667,854.16666666667,365.16666666667,868,363,868,363,881,360.83333333333,881,360.83333333333,892,356.66666666667,892,356.66666666667,901.33333333333,352.83333333333,901.33333333333,352.83333333333,907.66666666667,349,907.66666666667,349,913.16666666667,344.66666666667,913.16666666667,344.66666666667,921.33333333333,334.5,921.33333333333,334.5,1031,333,1031,333,1035.1666666667,338.5,1035.1666666667,338.5,1039,342.5,1039,342.5,1043.6666666667,345.5,1043.6666666667,345.5,1049.6666666667,349.66666666667,1049.6666666667,349.66666666667,1056.1666666667,352.83333333333,1056.1666666667,352.83333333333,1064.5,356.5,1064.5,356.5,1082.5,361.66666666667,1082.5,361.66666666667,1103.3333333333,366.83333333333,1103.3333333333,366.83333333333,1115.5,369.66666666667,1115.5,369.66666666667,1127.6666666667,371.66666666667,1127.6666666667,371.66666666667,1140,374.33333333333,1140,374.33333333333,1154.5,376,1154.5,376,1168.5,378,1168.5,378,1183.3333333333,380.16666666667,1183.3333333333,380.16666666667,1199.1666666667,382.66666666667,1199.1666666667,382.66666666667,1219.8333333333,384.16666666667,1219.8333333333,384.16666666667,1219.6358896891,405.71211751302,1219.6358896891,405.71211751302,1198.3025563558,404.04545084635,1198.3025563558,404.04545084635,1169.4692230225,401.54545084635,1169.4692230225,401.54545084635,1140.3025563558,397.87878417969,1140.3025563558,397.87878417969,1115.6358896891,393.87878417969,1115.6358896891,393.87878417969,1094.1358896891,389.54545084635,1094.1358896891,389.54545084635,1073.1358896891,383.87878417969,1073.1358896891,383.87878417969,1056.1358896891,379.21211751302,1056.1358896891,379.21211751302,1048.9692230225,376.04545084635,1048.9692230225,376.04545084635,1042.9692230225,373.21211751302,1042.9692230225,373.21211751302,1038.6358896891,370.04545084635,1038.6358896891,370.04545084635,1034.6358896891,366.54545084635,1034.6358896891,366.54545084635,1030.6358896891,358.74243164062,1030.6358896891,358.74243164062,921.66666666667,359.72220865885,921.66666666667,359.72220865885,912.66435241699,372.05558268229,912.66435241699,372.05558268229,907.66435241699,375.55558268229,907.66435241699,375.55558268229,899.66435241699,378.88891601562,899.66435241699,378.88891601562,890.49768575033,380.88891601562,890.49768575033,380.88891601562,878.99768575033,383.38891601562,878.99768575033,383.38891601562,867.33101908366,385.72224934896,867.33101908366,385.72224934896,853.49768575033,388.05558268229,853.49768575033,388.05558268229,838.49768575033,390.05558268229,838.49768575033,390.05558268229,805.33101908366,393.05558268229,805.33101908366,393.05558268229,768.16435241699,395.72224934896,768.16435241699,395.72224934896,747.16435241699,397.05558268229,747.16435241699,397.05558268229,707.66435241699,398.72224934896,707.66435241699,398.72224934896"></polygon><polygon  data-sec="1" data-build="1" data-floor="27" class="s3d-svg__house js-s3d-svg__house" points="708,353,708,353,708,353,708,353,735.5,352.16666666667,735.5,352.16666666667,735.5,352.16666666667,735.5,352.16666666667,756.16666666667,350.83333333333,756.16666666667,350.83333333333,756.16666666667,350.83333333333,756.16666666667,350.83333333333,775.83333333333,349.5,775.83333333333,349.5,775.83333333333,349.5,775.83333333333,349.5,811.83333333333,345.5,811.83333333333,345.5,811.83333333333,345.5,811.83333333333,345.5,844.33333333333,340.66666666667,844.33333333333,340.66666666667,844.33333333333,340.66666666667,844.33333333333,340.66666666667,871.83333333333,336.33333333333,871.83333333333,336.33333333333,871.83333333333,336.33333333333,871.83333333333,336.33333333333,882,333.16666666667,882,333.16666666667,882,333.16666666667,882,333.16666666667,892.16666666667,330,892.16666666667,330,892.16666666667,330,892.16666666667,330,901.16666666667,326.16666666667,901.16666666667,326.16666666667,901.16666666667,326.16666666667,901.16666666667,326.16666666667,907.5,322,907.5,322,907.5,322,907.5,322,913.16666666667,318.66666666667,913.16666666667,318.66666666667,913.16666666667,318.66666666667,913.16666666667,318.66666666667,921.16666666667,307,921.16666666667,307,921.16666666667,307,921.16666666667,307,1030.8333333333,305.83333333333,1030.8333333333,305.83333333333,1030.8333333333,305.83333333333,1030.8333333333,305.83333333333,1034.6666666667,313.16666666667,1034.6666666667,313.16666666667,1034.6666666667,313.16666666667,1034.6666666667,313.16666666667,1038.8333333333,318.16666666667,1038.8333333333,318.16666666667,1038.8333333333,318.16666666667,1038.8333333333,318.16666666667,1043.8333333333,321.33333333333,1043.8333333333,321.33333333333,1043.8333333333,321.33333333333,1043.8333333333,321.33333333333,1050,325.5,1050,325.5,1050,325.5,1050,325.5,1057.1666666667,329.66666666667,1057.1666666667,329.66666666667,1057.1666666667,329.66666666667,1057.1666666667,329.66666666667,1064.3333333333,332.16666666667,1064.3333333333,332.16666666667,1064.3333333333,332.16666666667,1064.3333333333,332.16666666667,1073.8333333333,334.66666666667,1073.8333333333,334.66666666667,1073.8333333333,334.66666666667,1073.8333333333,334.66666666667,1083.3333333333,338.33333333333,1083.3333333333,338.33333333333,1083.3333333333,338.33333333333,1083.3333333333,338.33333333333,1107.8333333333,344.83333333333,1107.8333333333,344.83333333333,1107.8333333333,344.83333333333,1107.8333333333,344.83333333333,1131.3333333333,349.66666666667,1131.3333333333,349.66666666667,1131.3333333333,349.66666666667,1131.3333333333,349.66666666667,1159.6666666667,354.33333333333,1159.6666666667,354.33333333333,1159.6666666667,354.33333333333,1159.6666666667,354.33333333333,1189.3333333333,358,1189.3333333333,358,1189.3333333333,358,1189.3333333333,358,1205,360,1205,360,1205,360,1205,360,1219.5,361.16666666667,1219.5,361.16666666667,1219.5,361.16666666667,1219.5,361.16666666667,1219.8333333333,384.16666666667,1219.8333333333,384.16666666667,1219.8333333333,384.16666666667,1219.8333333333,384.16666666667,1199.1666666667,382.66666666667,1199.1666666667,382.66666666667,1199.1666666667,382.66666666667,1199.1666666667,382.66666666667,1183.3333333333,380.16666666667,1183.3333333333,380.16666666667,1183.3333333333,380.16666666667,1183.3333333333,380.16666666667,1168.5,378,1168.5,378,1168.5,378,1168.5,378,1154.5,376,1154.5,376,1154.5,376,1154.5,376,1140,374.33333333333,1140,374.33333333333,1140,374.33333333333,1140,374.33333333333,1127.6666666667,371.66666666667,1127.6666666667,371.66666666667,1127.6666666667,371.66666666667,1127.6666666667,371.66666666667,1115.5,369.66666666667,1115.5,369.66666666667,1115.5,369.66666666667,1115.5,369.66666666667,1103.3333333333,366.83333333333,1103.3333333333,366.83333333333,1103.3333333333,366.83333333333,1103.3333333333,366.83333333333,1082.5,361.66666666667,1082.5,361.66666666667,1082.5,361.66666666667,1082.5,361.66666666667,1064.5,356.5,1064.5,356.5,1064.5,356.5,1064.5,356.5,1056.1666666667,352.83333333333,1056.1666666667,352.83333333333,1056.1666666667,352.83333333333,1056.1666666667,352.83333333333,1049.6666666667,349.66666666667,1049.6666666667,349.66666666667,1049.6666666667,349.66666666667,1049.6666666667,349.66666666667,1043.6666666667,345.5,1043.6666666667,345.5,1043.6666666667,345.5,1043.6666666667,345.5,1039,342.5,1039,342.5,1039,342.5,1039,342.5,1035.1666666667,338.5,1035.1666666667,338.5,1035.1666666667,338.5,1035.1666666667,338.5,1031,333,1031,333,1031,333,1031,333,921.33333333333,334.5,921.33333333333,334.5,921.33333333333,334.5,921.33333333333,334.5,913.16666666667,344.66666666667,913.16666666667,344.66666666667,913.16666666667,344.66666666667,913.16666666667,344.66666666667,907.66666666667,349,907.66666666667,349,907.66666666667,349,907.66666666667,349,901.33333333333,352.83333333333,901.33333333333,352.83333333333,901.33333333333,352.83333333333,901.33333333333,352.83333333333,892,356.66666666667,892,356.66666666667,892,356.66666666667,892,356.66666666667,881,360.83333333333,881,360.83333333333,881,360.83333333333,881,360.83333333333,868,363,868,363,868,363,868,363,854.16666666667,365.16666666667,854.16666666667,365.16666666667,854.16666666667,365.16666666667,854.16666666667,365.16666666667,822.83333333333,368.83333333333,822.83333333333,368.83333333333,822.83333333333,368.83333333333,822.83333333333,368.83333333333,787.66666666667,372.83333333333,787.66666666667,372.83333333333,787.66666666667,372.83333333333,787.66666666667,372.83333333333,748.66666666667,375,748.66666666667,375,748.66666666667,375,748.66666666667,375,708,377.16666666667,708,377.16666666667,708,377.16666666667,708,377.16666666667"></polygon></svg>