<svg preserveAspectRatio="xMidYMid slice" id="floor--svg"  viewBox="0 0 1920 1213" version="1.0" xmlns="http://www.w3.org/2000/svg"><polygon  data-sec="1" data-build="1" data-floor="2" class="s3d-svg__house js-s3d-svg__house" points="708.5,922.25,708.5,922.25,708,899.5,708,899.5,735.5,898.75,735.5,898.75,755.75,900.25,755.75,900.25,775.5,902,775.5,902,793.5,904,793.5,904,811.5,906,811.5,906,828.5,909,828.5,909,844,911.75,844,911.75,870.5,918,870.5,918,892.25,923.25,892.25,923.25,908,930.25,908,930.25,916,936.5,916,936.5,921,943.25,921,943.25,1031,941.25,1031,941.25,1043,934,1043,934,1055,927.25,1055,927.25,1072.25,920,1072.25,920,1086.75,915.25,1086.75,915.25,1103.5,910.5,1103.5,910.5,1120.75,907,1120.75,907,1136.25,903.25,1136.25,903.25,1154.75,899,1154.75,899,1174.75,895.25,1174.75,895.25,1191.25,893.75,1191.25,893.75,1220.25,890.5,1220.25,890.5,1219.25,911,1219.25,911,1195.5,914.5,1195.5,914.5,1174.75,917.25,1174.75,917.25,1153.25,922,1153.25,922,1121.5,929.25,1121.5,929.25,1095.75,939,1095.75,939,1072,946.75,1072,946.75,1049.5,957,1049.5,957,1037.75,966.25,1037.75,966.25,1027,971,1027,971,919,971.75,919,971.75,916,966,916,966,913.5,960.5,913.5,960.5,908.25,955.75,908.25,955.75,902.25,952.5,902.25,952.5,890.75,948.25,890.75,948.25,877,943.25,877,943.25,849.25,936.5,849.25,936.5,808.5,931.25,808.5,931.25,770,926.25,770,926.25"></polygon><polygon  data-sec="1" data-build="1" data-floor="3" class="s3d-svg__house js-s3d-svg__house" points="707.70383453369,899.5,707.70383453369,899.5,707.70383453369,878,707.70383453369,878,735.20383453369,877,735.20383453369,877,755.95383453369,878.5,755.95383453369,878.5,775.95383453369,880,775.95383453369,880,793.95383453369,882.02270507812,793.95383453369,882.02270507812,811.70383453369,884.27270507812,811.70383453369,884.27270507812,829.20383453369,887.52270507812,829.20383453369,887.52270507812,844.45383453369,889.77270507812,844.45383453369,889.77270507812,858.20383453369,892.27270507812,858.20383453369,892.27270507812,871.20383453369,895.27270507812,871.20383453369,895.27270507812,892.95383453369,899.52270507812,892.95383453369,899.52270507812,901.45383453369,903.02270507812,901.45383453369,903.02270507812,907.70383453369,906.02270507812,907.70383453369,906.02270507812,913.45383453369,908.27270507812,913.45383453369,908.27270507812,921.20383453369,917.02270507812,921.20383453369,917.02270507812,1030.2038345337,917.02270507812,1030.2038345337,917.02270507812,1034.7038345337,912.77270507812,1034.7038345337,912.77270507812,1045.7038345337,906.52270507812,1045.7038345337,906.52270507812,1060.2038345337,899.77270507812,1060.2038345337,899.77270507812,1076.9538345337,894.27270507812,1076.9538345337,894.27270507812,1097.4538345337,887.77270507812,1097.4538345337,887.77270507812,1121.2038345337,883.52270507812,1121.2038345337,883.52270507812,1152.4538345337,877.52270507812,1152.4538345337,877.52270507812,1174.9538345337,874.27270507812,1174.9538345337,874.27270507812,1190.9538345337,873.02270507812,1190.9538345337,873.02270507812,1219.7038345337,869.27270507812,1219.7038345337,869.27270507812,1219.4538345337,890.52270507812,1219.4538345337,890.52270507812,1190.9538345337,894.52270507812,1190.9538345337,894.52270507812,1174.4538345337,895.77270507812,1174.4538345337,895.77270507812,1154.7038345337,899.52270507812,1154.7038345337,899.52270507812,1135.7038345337,902.77270507812,1135.7038345337,902.77270507812,1120.4538345337,907.27270507812,1120.4538345337,907.27270507812,1103.4538345337,910.77270507812,1103.4538345337,910.77270507812,1086.7038345337,915.52270507812,1086.7038345337,915.52270507812,1071.2038345337,920.52270507812,1071.2038345337,920.52270507812,1054.2038345337,927.27270507812,1054.2038345337,927.27270507812,1041.9538345337,934.02270507812,1041.9538345337,934.02270507812,1030.7038345337,940.77270507812,1030.7038345337,940.77270507812,920.20383453369,943.77270507812,920.20383453369,943.77270507812,916.45383453369,937.02270507812,916.45383453369,937.02270507812,907.70383453369,929.77270507812,907.70383453369,929.77270507812,891.95383453369,923.27270507812,891.95383453369,923.27270507812,870.20383453369,918.27270507812,870.20383453369,918.27270507812,843.20383453369,912.02270507812,843.20383453369,912.02270507812,828.70383453369,908.77270507812,828.70383453369,908.77270507812,810.70383453369,906.27270507812,810.70383453369,906.27270507812,793.20383453369,904.52270507812,793.20383453369,904.52270507812,775.95383453369,902.02270507812,775.95383453369,902.02270507812,755.45383453369,899.77270507812,755.45383453369,899.77270507812,735.45383453369,899.02270507812,735.45383453369,899.02270507812"></polygon><polygon  data-sec="1" data-build="1" data-floor="4" class="s3d-svg__house js-s3d-svg__house" points="706.95383453369,878.34088134766,706.95383453369,878.34088134766,707.45383453369,854.84088134766,707.45383453369,854.84088134766,736.20383453369,854.84088134766,736.20383453369,854.84088134766,755.95383453369,856.84088134766,755.95383453369,856.84088134766,775.45383453369,857.34088134766,775.45383453369,857.34088134766,793.70383453369,860.09088134766,793.70383453369,860.09088134766,811.95383453369,862.34088134766,811.95383453369,862.34088134766,829.20383453369,864.59088134766,829.20383453369,864.59088134766,858.70383453369,869.09088134766,858.70383453369,869.09088134766,882.45383453369,874.09088134766,882.45383453369,874.09088134766,900.95383453369,879.84088134766,900.95383453369,879.84088134766,909.45383453369,884.09088134766,909.45383453369,884.09088134766,920.95383453369,890.84088134766,920.95383453369,890.84088134766,1030.2038345337,891.84088134766,1030.2038345337,891.84088134766,1034.7038345337,889.59088134766,1034.7038345337,889.59088134766,1039.4538345337,886.34088134766,1039.4538345337,886.34088134766,1045.9538345337,882.34088134766,1045.9538345337,882.34088134766,1053.7038345337,879.09088134766,1053.7038345337,879.09088134766,1063.7038345337,874.84088134766,1063.7038345337,874.84088134766,1077.4538345337,870.84088134766,1077.4538345337,870.84088134766,1091.9538345337,867.09088134766,1091.9538345337,867.09088134766,1103.7038345337,864.84088134766,1103.7038345337,864.84088134766,1120.4538345337,861.34088134766,1120.4538345337,861.34088134766,1145.9538345337,857.09088134766,1145.9538345337,857.09088134766,1176.2038345337,852.59088134766,1176.2038345337,852.59088134766,1205.9538345337,849.59088134766,1205.9538345337,849.59088134766,1219.4538345337,847.09088134766,1219.4538345337,847.09088134766,1219.7038345337,869.09088134766,1219.7038345337,869.09088134766,1190.7038345337,872.52270507812,1190.7038345337,872.52270507812,1174.2038345337,874.02270507812,1174.2038345337,874.02270507812,1151.9538345337,878.27270507812,1151.9538345337,878.27270507812,1119.9538345337,883.52270507812,1119.9538345337,883.52270507812,1096.4538345337,888.27270507812,1096.4538345337,888.27270507812,1076.7038345337,894.52270507812,1076.7038345337,894.52270507812,1058.7038345337,899.02270507812,1058.7038345337,899.02270507812,1044.7038345337,907.27270507812,1044.7038345337,907.27270507812,1034.4538345337,913.52270507812,1034.4538345337,913.52270507812,1029.9538345337,917.02270507812,1029.9538345337,917.02270507812,921.20383453369,917.02270507812,921.20383453369,917.02270507812,912.95383453369,907.77270507812,912.95383453369,907.77270507812,907.20383453369,906.02270507812,907.20383453369,906.02270507812,901.45383453369,903.52270507812,901.45383453369,903.52270507812,893.20383453369,899.52270507812,893.20383453369,899.52270507812,870.95383453369,895.27270507812,870.95383453369,895.27270507812,857.45383453369,892.02270507812,857.45383453369,892.02270507812,843.70383453369,890.27270507812,843.70383453369,890.27270507812,829.45383453369,887.52270507812,829.45383453369,887.52270507812,811.45383453369,884.02270507812,811.45383453369,884.02270507812,793.45383453369,882.02270507812,793.45383453369,882.02270507812,776.20383453369,880.27270507812,776.20383453369,880.27270507812,755.20383453369,879.02270507812,755.20383453369,879.02270507812,734.20383453369,878.02270507812,734.20383453369,878.02270507812"></polygon><polygon  data-sec="1" data-build="1" data-floor="5" class="s3d-svg__house js-s3d-svg__house" points="707.70383453369,854.43182373047,707.70383453369,854.43182373047,707.45383453369,834.43182373047,707.45383453369,834.43182373047,707.45383453369,832.43182373047,707.45383453369,832.43182373047,735.95383453369,834.18182373047,735.95383453369,834.18182373047,755.95383453369,834.68182373047,755.95383453369,834.68182373047,793.45383453369,836.93182373047,793.45383453369,836.93182373047,811.70383453369,838.43182373047,811.70383453369,838.43182373047,828.45383453369,840.68182373047,828.45383453369,840.68182373047,857.45383453369,845.18182373047,857.45383453369,845.18182373047,874.95383453369,847.68182373047,874.95383453369,847.68182373047,893.20383453369,852.18182373047,893.20383453369,852.18182373047,907.70383453369,856.93182373047,907.70383453369,856.93182373047,915.95383453369,862.18182373047,915.95383453369,862.18182373047,920.95383453369,866.68182373047,920.95383453369,866.68182373047,1030.4538345337,865.93182373047,1030.4538345337,865.93182373047,1037.2038345337,862.43182373047,1037.2038345337,862.43182373047,1045.2038345337,858.18182373047,1045.2038345337,858.18182373047,1054.4538345337,854.68182373047,1054.4538345337,854.68182373047,1063.9538345337,851.68182373047,1063.9538345337,851.68182373047,1072.4538345337,848.68182373047,1072.4538345337,848.68182373047,1082.4538345337,846.93182373047,1082.4538345337,846.93182373047,1097.7038345337,843.18182373047,1097.7038345337,843.18182373047,1109.7038345337,841.18182373047,1109.7038345337,841.18182373047,1121.9538345337,839.43182373047,1121.9538345337,839.43182373047,1139.7038345337,836.18182373047,1139.7038345337,836.18182373047,1161.2038345337,833.43182373047,1161.2038345337,833.43182373047,1182.2038345337,830.93182373047,1182.2038345337,830.93182373047,1218.2038345337,827.68182373047,1218.2038345337,827.68182373047,1219.4538345337,846.43182373047,1219.4538345337,846.43182373047,1205.7038345337,849.43182373047,1205.7038345337,849.43182373047,1176.2038345337,852.43182373047,1176.2038345337,852.43182373047,1145.4538345337,856.93182373047,1145.4538345337,856.93182373047,1118.9538345337,861.18182373047,1118.9538345337,861.18182373047,1103.4538345337,865.11358642578,1103.4538345337,865.11358642578,1091.4538345337,866.86358642578,1091.4538345337,866.86358642578,1076.9538345337,870.86358642578,1076.9538345337,870.86358642578,1063.7038345337,875.11358642578,1063.7038345337,875.11358642578,1053.2038345337,879.11358642578,1053.2038345337,879.11358642578,1045.2038345337,881.86358642578,1045.2038345337,881.86358642578,1038.9538345337,886.86358642578,1038.9538345337,886.86358642578,1033.9538345337,888.86358642578,1033.9538345337,888.86358642578,1029.9538345337,892.11358642578,1029.9538345337,892.11358642578,920.45383453369,890.86358642578,920.45383453369,890.86358642578,909.45383453369,884.36358642578,909.45383453369,884.36358642578,900.70383453369,879.36358642578,900.70383453369,879.36358642578,881.95383453369,874.36358642578,881.95383453369,874.36358642578,858.45383453369,869.11358642578,858.45383453369,869.11358642578,829.20383453369,864.86358642578,829.20383453369,864.86358642578,811.95383453369,862.11358642578,811.95383453369,862.11358642578,793.45383453369,859.36358642578,793.45383453369,859.36358642578,774.45383453369,857.11358642578,774.45383453369,857.11358642578,755.95383453369,856.86358642578,755.95383453369,856.86358642578,735.45383453369,855.61358642578,735.45383453369,855.61358642578"></polygon><polygon  data-sec="1" data-build="1" data-floor="6" class="s3d-svg__house js-s3d-svg__house" points="707.45383453369,832.45452880859,707.45383453369,832.45452880859,707.70383453369,811.45452880859,707.70383453369,811.45452880859,735.95383453369,811.95452880859,735.95383453369,811.95452880859,756.20383453369,812.45452880859,756.20383453369,812.45452880859,775.70383453369,813.95452880859,775.70383453369,813.95452880859,793.70383453369,814.95452880859,793.70383453369,814.95452880859,810.95383453369,816.95452880859,810.95383453369,816.95452880859,828.70383453369,818.95452880859,828.70383453369,818.95452880859,844.45383453369,820.70452880859,844.45383453369,820.70452880859,870.70383453369,824.45452880859,870.70383453369,824.45452880859,892.45383453369,828.95452880859,892.45383453369,828.95452880859,904.45383453369,831.95452880859,904.45383453369,831.95452880859,911.95383453369,834.70452880859,911.95383453369,834.70452880859,917.70383453369,839.45452880859,917.70383453369,839.45452880859,920.70383453369,842.45452880859,920.70383453369,842.45452880859,1030.4538345337,841.20452880859,1030.4538345337,841.20452880859,1035.4538345337,838.70452880859,1035.4538345337,838.70452880859,1039.9538345337,836.95452880859,1039.9538345337,836.95452880859,1044.9538345337,834.70452880859,1044.9538345337,834.70452880859,1051.2038345337,831.95452880859,1051.2038345337,831.95452880859,1059.7038345337,828.45452880859,1059.7038345337,828.45452880859,1072.2038345337,824.20452880859,1072.2038345337,824.20452880859,1088.4538345337,820.95452880859,1088.4538345337,820.95452880859,1107.4538345337,817.70452880859,1107.4538345337,817.70452880859,1133.2038345337,814.45452880859,1133.2038345337,814.45452880859,1159.7038345337,810.95452880859,1159.7038345337,810.95452880859,1190.7038345337,808.20452880859,1190.7038345337,808.20452880859,1218.7038345337,806.95452880859,1218.7038345337,806.95452880859,1219.2038345337,826.95452880859,1219.2038345337,826.95452880859,1182.2038345337,830.45452880859,1182.2038345337,830.45452880859,1160.2038345337,832.95452880859,1160.2038345337,832.95452880859,1139.2038345337,835.70452880859,1139.2038345337,835.70452880859,1121.9538345337,839.45452880859,1121.9538345337,839.45452880859,1109.2038345337,840.95452880859,1109.2038345337,840.95452880859,1096.9538345337,843.65905761719,1096.9538345337,843.65905761719,1081.9538345337,847.40905761719,1081.9538345337,847.40905761719,1072.4538345337,848.90905761719,1072.4538345337,848.90905761719,1063.4538345337,851.15905761719,1063.4538345337,851.15905761719,1053.4538345337,854.40905761719,1053.4538345337,854.40905761719,1044.7038345337,857.40905761719,1044.7038345337,857.40905761719,1036.9538345337,861.90905761719,1036.9538345337,861.90905761719,1029.4538345337,866.15905761719,1029.4538345337,866.15905761719,920.20383453369,866.90905761719,920.20383453369,866.90905761719,915.20383453369,862.40905761719,915.20383453369,862.40905761719,907.70383453369,857.65905761719,907.70383453369,857.65905761719,892.20383453369,852.15905761719,892.20383453369,852.15905761719,874.45383453369,847.65905761719,874.45383453369,847.65905761719,856.70383453369,845.15905761719,856.70383453369,845.15905761719,826.95383453369,840.65905761719,826.95383453369,840.65905761719,811.95383453369,838.65905761719,811.95383453369,838.65905761719,792.70383453369,837.15905761719,792.70383453369,837.15905761719,756.70383453369,834.65905761719,756.70383453369,834.65905761719,735.45383453369,834.40905761719,735.45383453369,834.40905761719,707.20383453369,834.15905761719,707.20383453369,834.15905761719"></polygon><polygon  data-sec="1" data-build="1" data-floor="7" class="s3d-svg__house js-s3d-svg__house" points="707.70383453369,811.18182373047,707.70383453369,811.18182373047,707.95383453369,788.18182373047,707.95383453369,788.18182373047,736.20383453369,788.68182373047,736.20383453369,788.68182373047,755.95383453369,789.43182373047,755.95383453369,789.43182373047,775.45383453369,790.68182373047,775.45383453369,790.68182373047,793.20383453369,791.68182373047,793.20383453369,791.68182373047,811.20383453369,793.43182373047,811.20383453369,793.43182373047,828.20383453369,795.18182373047,828.20383453369,795.18182373047,844.45383453369,796.68182373047,844.45383453369,796.68182373047,858.45383453369,799.18182373047,858.45383453369,799.18182373047,871.45383453369,801.18182373047,871.45383453369,801.18182373047,882.95383453369,803.18182373047,882.95383453369,803.18182373047,900.70383453369,806.93182373047,900.70383453369,806.93182373047,909.20383453369,809.43182373047,909.20383453369,809.43182373047,914.45383453369,811.93182373047,914.45383453369,811.93182373047,920.45383453369,816.68182373047,920.45383453369,816.68182373047,1029.9538345337,816.18182373047,1029.9538345337,816.18182373047,1035.2038345337,814.43182373047,1035.2038345337,814.43182373047,1039.9538345337,812.43182373047,1039.9538345337,812.43182373047,1044.4538345337,810.18182373047,1044.4538345337,810.18182373047,1049.7038345337,808.18182373047,1049.7038345337,808.18182373047,1054.4538345337,806.93182373047,1054.4538345337,806.93182373047,1060.4538345337,804.43182373047,1060.4538345337,804.43182373047,1069.7038345337,801.93182373047,1069.7038345337,801.93182373047,1080.9538345337,799.93182373047,1080.9538345337,799.93182373047,1090.9538345337,797.68182373047,1090.9538345337,797.68182373047,1109.2038345337,795.68182373047,1109.2038345337,795.68182373047,1133.4538345337,791.93182373047,1133.4538345337,791.93182373047,1148.9538345337,791.43182373047,1148.9538345337,791.43182373047,1173.2038345337,788.68182373047,1173.2038345337,788.68182373047,1188.9538345337,787.43182373047,1188.9538345337,787.43182373047,1218.2038345337,785.93182373047,1218.2038345337,785.93182373047,1218.9538345337,807.18182373047,1218.9538345337,807.18182373047,1204.4538345337,807.18182373047,1204.4538345337,807.18182373047,1190.2038345337,808.43182373047,1190.2038345337,808.43182373047,1158.9538345337,810.68182373047,1158.9538345337,810.68182373047,1131.9538345337,814.43182373047,1131.9538345337,814.43182373047,1107.9538345337,818.18182373047,1107.9538345337,818.18182373047,1087.7038345337,821.18182373047,1087.7038345337,821.18182373047,1072.9538345337,824.43182373047,1072.9538345337,824.43182373047,1058.9538345337,828.93182373047,1058.9538345337,828.93182373047,1050.9538345337,832.18182373047,1050.9538345337,832.18182373047,1044.4538345337,834.43182373047,1044.4538345337,834.43182373047,1039.4538345337,837.43182373047,1039.4538345337,837.43182373047,1034.2038345337,839.43182373047,1034.2038345337,839.43182373047,1029.2038345337,841.93182373047,1029.2038345337,841.93182373047,920.45383453369,843.18182373047,920.45383453369,843.18182373047,917.95383453369,839.93182373047,917.95383453369,839.93182373047,911.95383453369,835.18182373047,911.95383453369,835.18182373047,903.95383453369,832.43182373047,903.95383453369,832.43182373047,891.70383453369,829.18182373047,891.70383453369,829.18182373047,869.70383453369,824.43182373047,869.70383453369,824.43182373047,843.45383453369,820.43182373047,843.45383453369,820.43182373047,827.95383453369,819.68182373047,827.95383453369,819.68182373047,810.45383453369,816.93182373047,810.45383453369,816.93182373047,793.20383453369,815.18182373047,793.20383453369,815.18182373047,774.45383453369,814.43182373047,774.45383453369,814.43182373047,755.95383453369,812.68182373047,755.95383453369,812.68182373047,735.45383453369,812.68182373047,735.45383453369,812.68182373047"></polygon><polygon  data-sec="1" data-build="1" data-floor="8" class="s3d-svg__house js-s3d-svg__house" points="707.45383453369,788.25,707.45383453369,788.25,707.70383453369,767,707.70383453369,767,735.70383453369,767.25,735.70383453369,767.25,755.70383453369,767.5,755.70383453369,767.5,775.70383453369,768.75,775.70383453369,768.75,793.70383453369,770.25,793.70383453369,770.25,812.45383453369,771,812.45383453369,771,829.45383453369,772.75,829.45383453369,772.75,844.45383453369,774.5,844.45383453369,774.5,882.20383453369,779.5,882.20383453369,779.5,900.70383453369,783.25,900.70383453369,783.25,907.45383453369,785,907.45383453369,785,912.70383453369,786.75,912.70383453369,786.75,920.95383453369,791.25,920.95383453369,791.25,1031.4538345337,791.52270507812,1031.4538345337,791.52270507812,1036.4538345337,789.02270507812,1036.4538345337,789.02270507812,1041.4538345337,787.27270507812,1041.4538345337,787.27270507812,1046.4538345337,785.52270507812,1046.4538345337,785.52270507812,1053.7038345337,783.27270507812,1053.7038345337,783.27270507812,1062.2038345337,780.02270507812,1062.2038345337,780.02270507812,1071.9538345337,777.27270507812,1071.9538345337,777.27270507812,1082.9538345337,775.77270507812,1082.9538345337,775.77270507812,1098.9538345337,774.02270507812,1098.9538345337,774.02270507812,1124.2038345337,771.27270507812,1124.2038345337,771.27270507812,1148.4538345337,769.52270507812,1148.4538345337,769.52270507812,1177.4538345337,767.02270507812,1177.4538345337,767.02270507812,1204.7038345337,765.27270507812,1204.7038345337,765.27270507812,1218.4538345337,765.02270507812,1218.4538345337,765.02270507812,1218.7038345337,786.02270507812,1218.7038345337,786.02270507812,1188.7038345337,787.27270507812,1188.7038345337,787.27270507812,1172.4538345337,789.27270507812,1172.4538345337,789.27270507812,1148.9538345337,791.27270507812,1148.9538345337,791.27270507812,1132.9538345337,792.52270507812,1132.9538345337,792.52270507812,1108.2038345337,796.27270507812,1108.2038345337,796.27270507812,1090.2038345337,798.77270507812,1090.2038345337,798.77270507812,1080.9538345337,800.02270507812,1080.9538345337,800.02270507812,1069.4538345337,802.52270507812,1069.4538345337,802.52270507812,1059.7038345337,805.02270507812,1059.7038345337,805.02270507812,1053.7038345337,807.02270507812,1053.7038345337,807.02270507812,1049.2038345337,808.02270507812,1049.2038345337,808.02270507812,1044.4538345337,810.27270507812,1044.4538345337,810.27270507812,1039.4538345337,813.27270507812,1039.4538345337,813.27270507812,1034.4538345337,814.52270507812,1034.4538345337,814.52270507812,1029.4538345337,816.77270507812,1029.4538345337,816.77270507812,919.70383453369,817.02270507812,919.70383453369,817.02270507812,914.45383453369,812.02270507812,914.45383453369,812.02270507812,908.45383453369,809.52270507812,908.45383453369,809.52270507812,900.45383453369,807.52270507812,900.45383453369,807.52270507812,882.20383453369,803.02270507812,882.20383453369,803.02270507812,870.70383453369,801.52270507812,870.70383453369,801.52270507812,858.20383453369,799.54541015625,858.20383453369,799.54541015625,844.45383453369,797.04541015625,844.45383453369,797.04541015625,827.95383453369,795.29541015625,827.95383453369,795.29541015625,811.20383453369,794.54541015625,811.20383453369,794.54541015625,792.45383453369,791.79541015625,792.45383453369,791.79541015625,774.95383453369,791.04541015625,774.95383453369,791.04541015625,754.95383453369,790.04541015625,754.95383453369,790.04541015625,735.45383453369,788.79541015625,735.45383453369,788.79541015625"></polygon><polygon  data-sec="1" data-build="1" data-floor="9" class="s3d-svg__house js-s3d-svg__house" points="707.20383453369,767.06817626953,707.20383453369,767.06817626953,707.70383453369,745.31817626953,707.70383453369,745.31817626953,735.45383453369,746.06817626953,735.45383453369,746.06817626953,755.95383453369,746.56817626953,755.95383453369,746.56817626953,775.70383453369,747.06817626953,775.70383453369,747.06817626953,793.45383453369,748.06817626953,793.45383453369,748.06817626953,811.95383453369,749.81817626953,811.95383453369,749.81817626953,828.70383453369,750.56817626953,828.70383453369,750.56817626953,844.20383453369,752.31817626953,844.20383453369,752.31817626953,858.20383453369,753.31817626953,858.20383453369,753.31817626953,871.70383453369,755.06817626953,871.70383453369,755.06817626953,882.45383453369,755.56817626953,882.45383453369,755.56817626953,893.20383453369,757.31817626953,893.20383453369,757.31817626953,901.95383453369,759.06817626953,901.95383453369,759.06817626953,910.45383453369,761.31817626953,910.45383453369,761.31817626953,914.70383453369,763.06817626953,914.70383453369,763.06817626953,921.45383453369,766.56817626953,921.45383453369,766.56817626953,1030.2038345337,765.06817626953,1030.2038345337,765.06817626953,1034.7038345337,765.31817626953,1034.7038345337,765.31817626953,1039.2038345337,763.31817626953,1039.2038345337,763.31817626953,1044.7038345337,761.56817626953,1044.7038345337,761.56817626953,1050.9538345337,759.31817626953,1050.9538345337,759.31817626953,1059.9538345337,757.06817626953,1059.9538345337,757.06817626953,1071.4538345337,755.31817626953,1071.4538345337,755.31817626953,1085.9538345337,752.81817626953,1085.9538345337,752.81817626953,1108.4538345337,751.31817626953,1108.4538345337,751.31817626953,1131.9538345337,748.56817626953,1131.9538345337,748.56817626953,1161.7038345337,745.81817626953,1161.7038345337,745.81817626953,1189.7038345337,744.56817626953,1189.7038345337,744.56817626953,1218.7038345337,742.56817626953,1218.7038345337,742.56817626953,1218.9538345337,765.06817626953,1218.9538345337,765.06817626953,1203.9538345337,765.31817626953,1203.9538345337,765.31817626953,1176.9538345337,767.06817626953,1176.9538345337,767.06817626953,1149.4538345337,769.06817626953,1149.4538345337,769.06817626953,1123.4538345337,771.31817626953,1123.4538345337,771.31817626953,1098.7038345337,774.56817626953,1098.7038345337,774.56817626953,1081.9538345337,776.06817626953,1081.9538345337,776.06817626953,1071.7038345337,777.56817626953,1071.7038345337,777.56817626953,1061.4538345337,780.06817626953,1061.4538345337,780.06817626953,1053.2038345337,783.81817626953,1053.2038345337,783.81817626953,1046.7038345337,786.31817626953,1046.7038345337,786.31817626953,1040.9538345337,787.81817626953,1040.9538345337,787.81817626953,1035.4538345337,789.56817626953,1035.4538345337,789.56817626953,1030.4538345337,792.06817626953,1030.4538345337,792.06817626953,920.70383453369,791.56817626953,920.70383453369,791.56817626953,912.45383453369,787.31817626953,912.45383453369,787.31817626953,907.20383453369,785.56817626953,907.20383453369,785.56817626953,899.95383453369,783.56817626953,899.95383453369,783.56817626953,881.95383453369,779.81817626953,881.95383453369,779.81817626953,843.95383453369,775.31817626953,843.95383453369,775.31817626953,828.45383453369,773.06817626953,828.45383453369,773.06817626953,811.45383453369,771.56817626953,811.45383453369,771.56817626953,793.70383453369,771.06817626953,793.70383453369,771.06817626953,774.45383453369,769.06817626953,774.45383453369,769.06817626953,754.45383453369,768.06817626953,754.45383453369,768.06817626953,734.70383453369,767.31817626953,734.70383453369,767.31817626953"></polygon><polygon  data-sec="1" data-build="1" data-floor="10" class="s3d-svg__house js-s3d-svg__house" points="707.20383453369,745.20452880859,707.20383453369,745.20452880859,707.45383453369,722.95452880859,707.45383453369,722.95452880859,735.70383453369,724.20452880859,735.70383453369,724.20452880859,755.45383453369,724.70452880859,755.45383453369,724.70452880859,793.45383453369,725.95452880859,793.45383453369,725.95452880859,811.20383453369,726.95452880859,811.20383453369,726.95452880859,843.45383453369,729.20452880859,843.45383453369,729.20452880859,858.70383453369,729.95452880859,858.70383453369,729.95452880859,882.70383453369,731.95452880859,882.70383453369,731.95452880859,901.95383453369,734.45452880859,901.95383453369,734.45452880859,912.20383453369,736.95452880859,912.20383453369,736.95452880859,916.70383453369,738.95452880859,916.70383453369,738.95452880859,920.20383453369,741.20452880859,920.20383453369,741.20452880859,1030.4538345337,741.45452880859,1030.4538345337,741.45452880859,1035.4538345337,739.95452880859,1035.4538345337,739.95452880859,1041.4538345337,737.95452880859,1041.4538345337,737.95452880859,1046.9538345337,736.20452880859,1046.9538345337,736.20452880859,1055.7038345337,734.45452880859,1055.7038345337,734.45452880859,1065.4538345337,732.45452880859,1065.4538345337,732.45452880859,1077.9538345337,730.70452880859,1077.9538345337,730.70452880859,1091.7038345337,728.95452880859,1091.7038345337,728.95452880859,1103.2038345337,728.20452880859,1103.2038345337,728.20452880859,1116.9538345337,727.45452880859,1116.9538345337,727.45452880859,1132.4538345337,726.20452880859,1132.4538345337,726.20452880859,1146.4538345337,725.20452880859,1146.4538345337,725.20452880859,1161.7038345337,724.20452880859,1161.7038345337,724.20452880859,1182.7038345337,722.95452880859,1182.7038345337,722.95452880859,1218.4538345337,721.20452880859,1218.4538345337,721.20452880859,1218.9538345337,742.70452880859,1218.9538345337,742.70452880859,1189.4538345337,743.95452880859,1189.4538345337,743.95452880859,1161.2038345337,746.20452880859,1161.2038345337,746.20452880859,1131.4538345337,748.95452880859,1131.4538345337,748.95452880859,1108.4538345337,750.95452880859,1108.4538345337,750.95452880859,1085.4538345337,752.45452880859,1085.4538345337,752.45452880859,1071.7038345337,755.45452880859,1071.7038345337,755.45452880859,1059.4538345337,756.95452880859,1059.4538345337,756.95452880859,1050.4538345337,759.20452880859,1050.4538345337,759.20452880859,1043.7038345337,761.45452880859,1043.7038345337,761.45452880859,1038.7038345337,762.95452880859,1038.7038345337,762.95452880859,1034.4538345337,765.20452880859,1034.4538345337,765.20452880859,1029.4538345337,764.95452880859,1029.4538345337,764.95452880859,920.70383453369,766.95452880859,920.70383453369,766.95452880859,914.70383453369,763.20452880859,914.70383453369,763.20452880859,909.70383453369,761.45452880859,909.70383453369,761.45452880859,901.95383453369,759.20452880859,901.95383453369,759.20452880859,892.45383453369,756.95452880859,892.45383453369,756.95452880859,881.70383453369,756.20452880859,881.70383453369,756.20452880859,871.45383453369,754.95452880859,871.45383453369,754.95452880859,857.70383453369,753.70452880859,857.70383453369,753.70452880859,843.45383453369,752.45452880859,843.45383453369,752.45452880859,828.70383453369,750.95452880859,828.70383453369,750.95452880859,811.95383453369,750.20452880859,811.95383453369,750.20452880859,793.70383453369,748.70452880859,793.70383453369,748.70452880859,775.70383453369,747.45452880859,775.70383453369,747.45452880859,756.45383453369,746.70452880859,756.45383453369,746.70452880859,735.45383453369,746.70452880859,735.45383453369,746.70452880859"></polygon><polygon  data-sec="1" data-build="1" data-floor="11" class="s3d-svg__house js-s3d-svg__house" points="706.95383453369,722.97723388672,706.95383453369,722.97723388672,707.45383453369,702.22723388672,707.45383453369,702.22723388672,736.20383453369,702.22723388672,736.20383453369,702.22723388672,755.45383453369,702.22723388672,755.45383453369,702.22723388672,774.70383453369,702.72723388672,774.70383453369,702.72723388672,794.20383453369,703.47723388672,794.20383453369,703.47723388672,811.95383453369,704.22723388672,811.95383453369,704.22723388672,827.45383453369,705.97723388672,827.45383453369,705.97723388672,843.45383453369,706.47723388672,843.45383453369,706.47723388672,858.95383453369,707.97723388672,858.95383453369,707.97723388672,870.70383453369,708.47723388672,870.70383453369,708.47723388672,882.45383453369,709.72723388672,882.45383453369,709.72723388672,894.45383453369,710.72723388672,894.45383453369,710.72723388672,902.20383453369,710.97723388672,902.20383453369,710.97723388672,909.20383453369,712.47723388672,909.20383453369,712.47723388672,914.70383453369,713.47723388672,914.70383453369,713.47723388672,920.20383453369,715.97723388672,920.20383453369,715.97723388672,1031.2038345337,716.47723388672,1031.2038345337,716.47723388672,1035.9538345337,714.97723388672,1035.9538345337,714.97723388672,1042.7038345337,713.47723388672,1042.7038345337,713.47723388672,1049.4538345337,711.97723388672,1049.4538345337,711.97723388672,1060.7038345337,710.47723388672,1060.7038345337,710.47723388672,1076.4538345337,707.72723388672,1076.4538345337,707.72723388672,1087.9538345337,706.97723388672,1087.9538345337,706.97723388672,1097.7038345337,706.47723388672,1097.7038345337,706.47723388672,1110.4538345337,705.22723388672,1110.4538345337,705.22723388672,1123.2038345337,704.47723388672,1123.2038345337,704.47723388672,1133.9538345337,702.97723388672,1133.9538345337,702.97723388672,1161.9538345337,701.97723388672,1161.9538345337,701.97723388672,1189.4538345337,700.97723388672,1189.4538345337,700.97723388672,1217.2038345337,700.97723388672,1217.2038345337,700.97723388672,1218.2038345337,720.72723388672,1218.2038345337,720.72723388672,1181.9538345337,722.97723388672,1181.9538345337,722.97723388672,1160.7038345337,724.47723388672,1160.7038345337,724.47723388672,1146.2038345337,725.72723388672,1146.2038345337,725.72723388672,1132.9538345337,725.72723388672,1132.9538345337,725.72723388672,1117.2038345337,726.97723388672,1117.2038345337,726.97723388672,1102.2038345337,727.72723388672,1102.2038345337,727.72723388672,1091.4538345337,729.47723388672,1091.4538345337,729.47723388672,1076.9538345337,730.72723388672,1076.9538345337,730.72723388672,1064.7038345337,732.47723388672,1064.7038345337,732.47723388672,1055.7038345337,734.22723388672,1055.7038345337,734.22723388672,1046.9538345337,736.47723388672,1046.9538345337,736.47723388672,1040.4538345337,738.22723388672,1040.4538345337,738.22723388672,1036.2038345337,739.97723388672,1036.2038345337,739.97723388672,1029.7038345337,741.97723388672,1029.7038345337,741.97723388672,919.70383453369,740.97723388672,919.70383453369,740.97723388672,916.70383453369,739.22723388672,916.70383453369,739.22723388672,911.70383453369,736.97723388672,911.70383453369,736.97723388672,901.70383453369,734.47723388672,901.70383453369,734.47723388672,881.95383453369,731.72723388672,881.95383453369,731.72723388672,858.20383453369,729.47723388672,858.20383453369,729.47723388672,842.95383453369,728.72723388672,842.95383453369,728.72723388672,792.70383453369,725.97723388672,792.70383453369,725.97723388672,735.95383453369,724.47723388672,735.95383453369,724.47723388672"></polygon><polygon  data-sec="1" data-build="1" data-floor="12" class="s3d-svg__house js-s3d-svg__house" points="707.45383453369,702.45452880859,707.45383453369,702.45452880859,707.70383453369,679.95452880859,707.70383453369,679.95452880859,735.70383453369,679.45452880859,735.70383453369,679.45452880859,756.20383453369,679.70452880859,756.20383453369,679.70452880859,776.20383453369,680.45452880859,776.20383453369,680.45452880859,793.95383453369,681.45452880859,793.95383453369,681.45452880859,811.45383453369,682.45452880859,811.45383453369,682.45452880859,828.70383453369,683.20452880859,828.70383453369,683.20452880859,844.45383453369,684.20452880859,844.45383453369,684.20452880859,858.45383453369,684.70452880859,858.45383453369,684.70452880859,871.45383453369,685.45452880859,871.45383453369,685.45452880859,892.45383453369,687.20452880859,892.45383453369,687.20452880859,902.20383453369,687.45452880859,902.20383453369,687.45452880859,908.70383453369,688.45452880859,908.70383453369,688.45452880859,913.70383453369,689.45452880859,913.70383453369,689.45452880859,921.20383453369,690.45452880859,921.20383453369,690.45452880859,1031.2038345337,690.59088134766,1031.2038345337,690.59088134766,1034.4538345337,690.34088134766,1034.4538345337,690.34088134766,1038.7038345337,689.59088134766,1038.7038345337,689.59088134766,1044.9538345337,688.34088134766,1044.9538345337,688.34088134766,1054.4538345337,687.59088134766,1054.4538345337,687.59088134766,1061.9538345337,686.84088134766,1061.9538345337,686.84088134766,1069.9538345337,685.84088134766,1069.9538345337,685.84088134766,1080.7038345337,684.84088134766,1080.7038345337,684.84088134766,1092.4538345337,684.84088134766,1092.4538345337,684.84088134766,1107.2038345337,683.34088134766,1107.2038345337,683.34088134766,1124.2038345337,682.34088134766,1124.2038345337,682.34088134766,1134.9538345337,682.34088134766,1134.9538345337,682.34088134766,1146.9538345337,681.59088134766,1146.9538345337,681.59088134766,1157.4538345337,681.59088134766,1157.4538345337,681.59088134766,1166.2038345337,680.34088134766,1166.2038345337,680.34088134766,1173.9538345337,681.09088134766,1173.9538345337,681.09088134766,1184.9538345337,680.09088134766,1184.9538345337,680.09088134766,1218.4538345337,679.59088134766,1218.4538345337,679.59088134766,1217.4538345337,700.59088134766,1217.4538345337,700.59088134766,1189.7038345337,701.84088134766,1189.7038345337,701.84088134766,1161.7038345337,702.09088134766,1161.7038345337,702.09088134766,1133.2038345337,703.59088134766,1133.2038345337,703.59088134766,1121.9538345337,704.84088134766,1121.9538345337,704.84088134766,1110.2038345337,705.09088134766,1110.2038345337,705.09088134766,1096.9538345337,706.09088134766,1096.9538345337,706.09088134766,1087.2038345337,707.34088134766,1087.2038345337,707.34088134766,1075.9538345337,707.34088134766,1075.9538345337,707.34088134766,1060.7038345337,710.09088134766,1060.7038345337,710.09088134766,1049.4538345337,711.84088134766,1049.4538345337,711.84088134766,1042.2038345337,713.59088134766,1042.2038345337,713.59088134766,1035.7038345337,714.59088134766,1035.7038345337,714.59088134766,1030.2038345337,716.34088134766,1030.2038345337,716.34088134766,920.45383453369,716.34088134766,920.45383453369,716.34088134766,914.45383453369,713.34088134766,914.45383453369,713.34088134766,907.95383453369,712.34088134766,907.95383453369,712.34088134766,901.70383453369,711.09088134766,901.70383453369,711.09088134766,893.95383453369,711.09088134766,893.95383453369,711.09088134766,881.95383453369,709.59088134766,881.95383453369,709.59088134766,869.95383453369,708.84088134766,869.95383453369,708.84088134766,858.20383453369,708.09088134766,858.20383453369,708.09088134766,842.95383453369,706.84088134766,842.95383453369,706.84088134766,827.95383453369,706.59088134766,827.95383453369,706.59088134766,811.45383453369,704.59088134766,811.45383453369,704.59088134766,793.20383453369,704.34088134766,793.20383453369,704.34088134766,774.20383453369,703.09088134766,774.20383453369,703.09088134766,754.70383453369,702.34088134766,754.70383453369,702.34088134766,735.20383453369,702.34088134766,735.20383453369,702.34088134766"></polygon><polygon  data-sec="1" data-build="1" data-floor="13" class="s3d-svg__house js-s3d-svg__house" points="707.70383453369,679.84088134766,707.70383453369,679.84088134766,707.70383453369,657.59088134766,707.70383453369,657.59088134766,735.95383453369,657.09088134766,735.95383453369,657.09088134766,755.20383453369,657.09088134766,755.20383453369,657.09088134766,775.20383453369,657.09088134766,775.20383453369,657.09088134766,793.70383453369,658.09088134766,793.70383453369,658.09088134766,812.20383453369,659.09088134766,812.20383453369,659.09088134766,828.45383453369,659.84088134766,828.45383453369,659.84088134766,844.70383453369,660.59088134766,844.70383453369,660.59088134766,871.45383453369,661.59088134766,871.45383453369,661.59088134766,891.95383453369,663.34088134766,891.95383453369,663.34088134766,904.95383453369,664.59088134766,904.95383453369,664.59088134766,916.45383453369,664.59088134766,916.45383453369,664.59088134766,920.45383453369,664.84088134766,920.45383453369,664.84088134766,1029.7038345337,664.59088134766,1029.7038345337,664.59088134766,1035.7038345337,664.84088134766,1035.7038345337,664.84088134766,1039.4538345337,664.59088134766,1039.4538345337,664.59088134766,1043.9538345337,664.34088134766,1043.9538345337,664.34088134766,1047.7038345337,663.59088134766,1047.7038345337,663.59088134766,1054.9538345337,663.84088134766,1054.9538345337,663.84088134766,1060.7038345337,662.84088134766,1060.7038345337,662.84088134766,1066.9538345337,663.34088134766,1066.9538345337,663.34088134766,1076.9538345337,662.09088134766,1076.9538345337,662.09088134766,1089.4538345337,662.09088134766,1089.4538345337,662.09088134766,1101.9538345337,660.84088134766,1101.9538345337,660.84088134766,1116.9538345337,660.59088134766,1116.9538345337,660.59088134766,1131.9538345337,659.84088134766,1131.9538345337,659.84088134766,1159.7038345337,659.09088134766,1159.7038345337,659.09088134766,1175.2038345337,659.34088134766,1175.2038345337,659.34088134766,1190.4538345337,659.09088134766,1190.4538345337,659.09088134766,1217.4538345337,659.09088134766,1217.4538345337,659.09088134766,1218.2038345337,679.59088134766,1218.2038345337,679.59088134766,1184.4538345337,680.59088134766,1184.4538345337,680.59088134766,1174.2038345337,680.84088134766,1174.2038345337,680.84088134766,1156.7038345337,680.59088134766,1156.7038345337,680.59088134766,1146.9538345337,681.84088134766,1146.9538345337,681.84088134766,1134.4538345337,682.09088134766,1134.4538345337,682.09088134766,1123.7038345337,682.09088134766,1123.7038345337,682.09088134766,1105.7038345337,682.59088134766,1105.7038345337,682.59088134766,1091.9538345337,684.34088134766,1091.9538345337,684.34088134766,1080.9538345337,685.09088134766,1080.9538345337,685.09088134766,1069.2038345337,686.34088134766,1069.2038345337,686.34088134766,1061.4538345337,687.34088134766,1061.4538345337,687.34088134766,1053.9538345337,687.59088134766,1053.9538345337,687.59088134766,1044.7038345337,688.84088134766,1044.7038345337,688.84088134766,1038.7038345337,690.09088134766,1038.7038345337,690.09088134766,1034.4538345337,690.34088134766,1034.4538345337,690.34088134766,1030.2038345337,689.84088134766,1030.2038345337,689.84088134766,921.20383453369,691.09088134766,921.20383453369,691.09088134766,913.20383453369,689.59088134766,913.20383453369,689.59088134766,908.45383453369,688.84088134766,908.45383453369,688.84088134766,900.95383453369,687.59088134766,900.95383453369,687.59088134766,891.20383453369,687.34088134766,891.20383453369,687.34088134766,870.95383453369,685.59088134766,870.95383453369,685.59088134766,857.70383453369,685.09088134766,857.70383453369,685.09088134766,844.20383453369,684.34088134766,844.20383453369,684.34088134766,829.20383453369,684.09088134766,829.20383453369,684.09088134766,811.20383453369,682.59088134766,811.20383453369,682.59088134766,793.20383453369,682.09088134766,793.20383453369,682.09088134766,775.20383453369,680.84088134766,775.20383453369,680.84088134766,755.70383453369,680.34088134766,755.70383453369,680.34088134766"></polygon><polygon  data-sec="1" data-build="1" data-floor="14" class="s3d-svg__house js-s3d-svg__house" points="707.20383453369,657.25,707.20383453369,657.25,707.70383453369,636.75,707.70383453369,636.75,735.70383453369,636.75,735.70383453369,636.75,755.20383453369,636.25,755.20383453369,636.25,775.70383453369,636.25,775.70383453369,636.25,793.45383453369,636.25,793.45383453369,636.25,811.95383453369,636.75,811.95383453369,636.75,828.70383453369,637.25,828.70383453369,637.25,844.45383453369,638.25,844.45383453369,638.25,859.20383453369,638.25,859.20383453369,638.25,871.95383453369,639.5,871.95383453369,639.5,882.20383453369,639.5,882.20383453369,639.5,891.95383453369,639.25,891.95383453369,639.25,902.70383453369,640.25,902.70383453369,640.25,909.70383453369,640,909.70383453369,640,913.70383453369,640,913.70383453369,640,920.45383453369,639.5,920.45383453369,639.5,1030.9538345337,640,1030.9538345337,640,1034.2038345337,640,1034.2038345337,640,1039.7038345337,639.5,1039.7038345337,639.5,1046.9538345337,640,1046.9538345337,640,1053.7038345337,639.5,1053.7038345337,639.5,1059.4538345337,639.5,1059.4538345337,639.5,1065.9538345337,639.5,1065.9538345337,639.5,1075.9538345337,638.25,1075.9538345337,638.25,1091.9538345337,638.75,1091.9538345337,638.75,1104.7038345337,638.75,1104.7038345337,638.75,1116.9538345337,638.25,1116.9538345337,638.25,1129.7038345337,638.25,1129.7038345337,638.25,1141.7038345337,638.25,1141.7038345337,638.25,1154.9538345337,639,1154.9538345337,639,1166.4538345337,639,1166.4538345337,639,1177.7038345337,638,1177.7038345337,638,1187.7038345337,637.5,1187.7038345337,637.5,1196.9538345337,637.5,1196.9538345337,637.5,1203.2038345337,638,1203.2038345337,638,1217.2038345337,637.25,1217.2038345337,637.25,1216.9538345337,659,1216.9538345337,659,1189.4538345337,659.5,1189.4538345337,659.5,1174.9538345337,659.5,1174.9538345337,659.5,1159.4538345337,659.75,1159.4538345337,659.75,1130.9538345337,660.25,1130.9538345337,660.25,1116.9538345337,660.75,1116.9538345337,660.75,1101.7038345337,661.5,1101.7038345337,661.5,1089.4538345337,662,1089.4538345337,662,1076.7038345337,662,1076.7038345337,662,1066.4538345337,662.5,1066.4538345337,662.5,1060.7038345337,663.25,1060.7038345337,663.25,1054.2038345337,663.75,1054.2038345337,663.75,1043.9538345337,664.25,1043.9538345337,664.25,1035.4538345337,664.5,1035.4538345337,664.5,1029.4538345337,664.5,1029.4538345337,664.5,919.95383453369,665.25,919.95383453369,665.25,916.20383453369,664.75,916.20383453369,664.75,904.45383453369,665,904.45383453369,665,892.20383453369,663.75,892.20383453369,663.75,871.70383453369,661.75,871.70383453369,661.75,844.20383453369,660.75,844.20383453369,660.75,827.70383453369,660.5,827.70383453369,660.5,811.45383453369,659,811.45383453369,659,793.20383453369,658.5,793.20383453369,658.5,774.45383453369,657.25,774.45383453369,657.25,754.45383453369,657.25,754.45383453369,657.25,735.45383453369,657.5,735.45383453369,657.5"></polygon><polygon  data-sec="1" data-build="1" data-floor="15" class="s3d-svg__house js-s3d-svg__house" points="707.45383453369,637.04541015625,707.45383453369,637.04541015625,707.70383453369,615.79541015625,707.70383453369,615.79541015625,735.70383453369,615.29541015625,735.70383453369,615.29541015625,755.70383453369,614.54541015625,755.70383453369,614.54541015625,775.95383453369,615.29541015625,775.95383453369,615.29541015625,793.70383453369,616.04541015625,793.70383453369,616.04541015625,810.70383453369,616.29541015625,810.70383453369,616.29541015625,828.45383453369,616.79541015625,828.45383453369,616.79541015625,843.70383453369,616.79541015625,843.70383453369,616.79541015625,857.70383453369,616.79541015625,857.70383453369,616.79541015625,871.45383453369,616.54541015625,871.45383453369,616.54541015625,882.20383453369,616.29541015625,882.20383453369,616.29541015625,893.45383453369,616.79541015625,893.45383453369,616.79541015625,903.20383453369,616.04541015625,903.20383453369,616.04541015625,909.70383453369,616.04541015625,909.70383453369,616.04541015625,914.45383453369,616.04541015625,914.45383453369,616.04541015625,921.45383453369,616.79541015625,921.45383453369,616.79541015625,1029.9538345337,616.79541015625,1029.9538345337,616.79541015625,1035.9538345337,615.79541015625,1035.9538345337,615.79541015625,1042.4538345337,616.04541015625,1042.4538345337,616.04541015625,1049.2038345337,616.04541015625,1049.2038345337,616.04541015625,1055.2038345337,616.04541015625,1055.2038345337,616.04541015625,1063.4538345337,616.04541015625,1063.4538345337,616.04541015625,1070.9538345337,616.04541015625,1070.9538345337,616.04541015625,1078.7038345337,616.04541015625,1078.7038345337,616.04541015625,1086.2038345337,616.04541015625,1086.2038345337,616.04541015625,1103.7038345337,615.79541015625,1103.7038345337,615.79541015625,1121.9538345337,616.04541015625,1121.9538345337,616.04541015625,1135.2038345337,615.54541015625,1135.2038345337,615.54541015625,1148.2038345337,615.54541015625,1148.2038345337,615.54541015625,1161.4538345337,616.04541015625,1161.4538345337,616.04541015625,1175.4538345337,615.29541015625,1175.4538345337,615.29541015625,1190.9538345337,616.54541015625,1190.9538345337,616.54541015625,1217.4538345337,616.04541015625,1217.4538345337,616.04541015625,1216.9538345337,636.79541015625,1216.9538345337,636.79541015625,1202.4538345337,638.29541015625,1202.4538345337,638.29541015625,1196.9538345337,637.25,1196.9538345337,637.25,1187.4538345337,638,1187.4538345337,638,1177.4538345337,638.25,1177.4538345337,638.25,1165.7038345337,638.75,1165.7038345337,638.75,1154.4538345337,638.5,1154.4538345337,638.5,1141.2038345337,639,1141.2038345337,639,1129.2038345337,638.5,1129.2038345337,638.5,1116.4538345337,638.75,1116.4538345337,638.75,1104.7038345337,639,1104.7038345337,639,1091.4538345337,639,1091.4538345337,639,1075.2038345337,638.25,1075.2038345337,638.25,1064.7038345337,639.5,1064.7038345337,639.5,1053.4538345337,639.5,1053.4538345337,639.5,1038.9538345337,640.25,1038.9538345337,640.25,1031.4538345337,640.25,1031.4538345337,640.25,919.45383453369,639.5,919.45383453369,639.5,913.45383453369,640.25,913.45383453369,640.25,910.45383453369,640.25,910.45383453369,640.25,901.95383453369,639.5,901.95383453369,639.5,891.95383453369,639.5,891.95383453369,639.5,881.70383453369,639.5,881.70383453369,639.5,871.45383453369,639.75,871.45383453369,639.75,858.45383453369,638.25,858.45383453369,638.25,843.95383453369,638.25,843.95383453369,638.25,828.70383453369,637.5,828.70383453369,637.5,811.45383453369,637.25,811.45383453369,637.25,793.20383453369,636.5,793.20383453369,636.5,774.45383453369,636.5,774.45383453369,636.5,755.20383453369,636.25,755.20383453369,636.25,735.45383453369,636.5,735.45383453369,636.5"></polygon><polygon  data-sec="1" data-build="1" data-floor="16" class="s3d-svg__house js-s3d-svg__house" points="707.45383453369,615.86364746094,707.45383453369,615.86364746094,707.95383453369,593.11364746094,707.95383453369,593.11364746094,735.70383453369,592.86364746094,735.70383453369,592.86364746094,755.45383453369,592.36364746094,755.45383453369,592.36364746094,775.70383453369,591.86364746094,775.70383453369,591.86364746094,793.45383453369,592.36364746094,793.45383453369,592.36364746094,811.20383453369,592.86364746094,811.20383453369,592.86364746094,843.20383453369,592.61364746094,843.20383453369,592.61364746094,870.95383453369,592.86364746094,870.95383453369,592.86364746094,891.95383453369,592.36364746094,891.95383453369,592.36364746094,902.45383453369,591.86364746094,902.45383453369,591.86364746094,908.20383453369,591.61364746094,908.20383453369,591.61364746094,914.20383453369,591.11364746094,914.20383453369,591.11364746094,920.45383453369,590.36364746094,920.45383453369,590.36364746094,1031.3499984741,589.79998779297,1031.3499984741,589.79998779297,1037.5999984741,591.54998779297,1037.5999984741,591.54998779297,1042.5999984741,591.54998779297,1042.5999984741,591.54998779297,1047.8499984741,591.79998779297,1047.8499984741,591.79998779297,1052.3499984741,592.04998779297,1052.3499984741,592.04998779297,1058.5999984741,592.04998779297,1058.5999984741,592.04998779297,1068.3499984741,592.29998779297,1068.3499984741,592.29998779297,1078.5999984741,592.29998779297,1078.5999984741,592.29998779297,1086.8499984741,592.54998779297,1086.8499984741,592.54998779297,1104.3499984741,592.54998779297,1104.3499984741,592.54998779297,1121.5999984741,594.04998779297,1121.5999984741,594.04998779297,1146.3499984741,594.04998779297,1146.3499984741,594.04998779297,1162.0999984741,594.54998779297,1162.0999984741,594.54998779297,1177.5999984741,594.54998779297,1177.5999984741,594.54998779297,1191.0999984741,594.54998779297,1191.0999984741,594.54998779297,1199.0999984741,594.54998779297,1199.0999984741,594.54998779297,1218.3499984741,594.29998779297,1218.3499984741,594.29998779297,1218.3499984741,616.29998779297,1218.3499984741,616.29998779297,1190.5999984741,616.29998779297,1190.5999984741,616.29998779297,1175.8499984741,615.29998779297,1175.8499984741,615.29998779297,1160.5999984741,616.79998779297,1160.5999984741,616.79998779297,1147.0999984741,616.04998779297,1147.0999984741,616.04998779297,1135.3499984741,616.29998779297,1135.3499984741,616.29998779297,1121.5999984741,616.79998779297,1121.5999984741,616.79998779297,1104.0999984741,616.04998779297,1104.0999984741,616.04998779297,1086.3499984741,616.29998779297,1086.3499984741,616.29998779297,1079.5999984741,616.29998779297,1079.5999984741,616.29998779297,1072.3499984741,616.29998779297,1072.3499984741,616.29998779297,1062.8499984741,616.54998779297,1062.8499984741,616.54998779297,1054.8499984741,616.04998779297,1054.8499984741,616.04998779297,1048.5999984741,616.29998779297,1048.5999984741,616.29998779297,1042.0999984741,616.04998779297,1042.0999984741,616.04998779297,1036.0999984741,616.29998779297,1036.0999984741,616.29998779297,1030.5999984741,616.54998779297,1030.5999984741,616.54998779297,921.34999847412,616.79998779297,921.34999847412,616.79998779297,914.59999847412,616.29998779297,914.59999847412,616.29998779297,909.59999847412,616.29998779297,909.59999847412,616.29998779297,903.09999847412,616.29998779297,903.09999847412,616.29998779297,893.59999847412,617.29998779297,893.59999847412,617.29998779297,882.59999847412,616.29998779297,882.59999847412,616.29998779297,870.84999847412,616.54998779297,870.84999847412,616.54998779297,857.59999847412,617.29998779297,857.59999847412,617.29998779297,843.84999847412,617.29998779297,843.84999847412,617.29998779297,828.34999847412,617.29998779297,828.34999847412,617.29998779297,810.59999847412,616.29998779297,810.59999847412,616.29998779297,793.59999847412,616.29998779297,793.59999847412,616.29998779297,775.59999847412,615.29998779297,775.59999847412,615.29998779297,755.84999847412,614.79998779297,755.84999847412,614.79998779297,735.59999847412,615.54998779297,735.59999847412,615.54998779297"></polygon><polygon  data-sec="1" data-build="1" data-floor="17" class="s3d-svg__house js-s3d-svg__house" points="708.09999847412,593.54998779297,708.09999847412,593.54998779297,708.09999847412,573.04998779297,708.09999847412,573.04998779297,735.09999847412,572.04998779297,735.09999847412,572.04998779297,755.59999847412,571.29998779297,755.59999847412,571.29998779297,776.09999847412,571.04998779297,776.09999847412,571.04998779297,794.59999847412,571.04998779297,794.59999847412,571.04998779297,812.59999847412,570.54998779297,812.59999847412,570.54998779297,829.59999847412,570.54998779297,829.59999847412,570.54998779297,859.59999847412,570.54998779297,859.59999847412,570.54998779297,871.09999847412,570.04998779297,871.09999847412,570.04998779297,882.84999847412,569.54998779297,882.84999847412,569.54998779297,900.59999847412,567.79998779297,900.59999847412,567.79998779297,921.09999847412,566.29998779297,921.09999847412,566.29998779297,1030.8499984741,564.29998779297,1030.8499984741,564.29998779297,1035.8499984741,566.79998779297,1035.8499984741,566.79998779297,1042.3499984741,567.54998779297,1042.3499984741,567.54998779297,1048.3499984741,567.54998779297,1048.3499984741,567.54998779297,1054.3499984741,568.29998779297,1054.3499984741,568.29998779297,1061.5999984741,569.29998779297,1061.5999984741,569.29998779297,1068.3499984741,569.29998779297,1068.3499984741,569.29998779297,1075.5999984741,569.29998779297,1075.5999984741,569.29998779297,1080.5999984741,569.29998779297,1080.5999984741,569.29998779297,1102.5999984741,570.29998779297,1102.5999984741,570.29998779297,1116.5999984741,571.79998779297,1116.5999984741,571.79998779297,1129.8499984741,572.79998779297,1129.8499984741,572.79998779297,1144.0999984741,572.29998779297,1144.0999984741,572.29998779297,1159.0999984741,573.29998779297,1159.0999984741,573.29998779297,1172.0999984741,573.79998779297,1172.0999984741,573.79998779297,1185.5999984741,573.79998779297,1185.5999984741,573.79998779297,1202.0999984741,573.04998779297,1202.0999984741,573.04998779297,1218.5999984741,573.54998779297,1218.5999984741,573.54998779297,1218.5999984741,594.54998779297,1218.5999984741,594.54998779297,1199.0999984741,594.04998779297,1199.0999984741,594.04998779297,1190.8499984741,594.04998779297,1190.8499984741,594.04998779297,1178.3499984741,593.79998779297,1178.3499984741,593.79998779297,1162.0999984741,594.29998779297,1162.0999984741,594.29998779297,1145.5999984741,593.79998779297,1145.5999984741,593.79998779297,1121.0999984741,593.79998779297,1121.0999984741,593.79998779297,1104.0999984741,592.79998779297,1104.0999984741,592.79998779297,1086.0999984741,592.29998779297,1086.0999984741,592.29998779297,1079.0999984741,592.29998779297,1079.0999984741,592.29998779297,1068.5999984741,592.04998779297,1068.5999984741,592.04998779297,1058.3499984741,592.04998779297,1058.3499984741,592.04998779297,1052.5999984741,592.54998779297,1052.5999984741,592.54998779297,1047.3499984741,592.29998779297,1047.3499984741,592.29998779297,1041.5999984741,591.29998779297,1041.5999984741,591.29998779297,1037.8499984741,591.54998779297,1037.8499984741,591.54998779297,1031.3499984741,589.54998779297,1031.3499984741,589.54998779297,920.09999847412,590.54998779297,920.09999847412,590.54998779297,914.34999847412,591.29998779297,914.34999847412,591.29998779297,908.09999847412,591.54998779297,908.09999847412,591.54998779297,902.59999847412,592.29998779297,902.59999847412,592.29998779297,892.09999847412,592.54998779297,892.09999847412,592.54998779297,871.09999847412,593.04998779297,871.09999847412,593.04998779297,842.59999847412,593.29998779297,842.59999847412,593.29998779297,811.34999847412,592.79998779297,811.34999847412,592.79998779297,775.84999847412,591.79998779297,775.84999847412,591.79998779297,755.84999847412,592.79998779297,755.84999847412,592.79998779297,736.34999847412,593.04998779297,736.34999847412,593.04998779297"></polygon><polygon  data-sec="1" data-build="1" data-floor="18" class="s3d-svg__house js-s3d-svg__house" points="708.09999847412,573.29998779297,708.09999847412,573.29998779297,708.09999847412,551.04998779297,708.09999847412,551.04998779297,736.59999847412,549.54998779297,736.59999847412,549.54998779297,756.09999847412,549.29998779297,756.09999847412,549.29998779297,775.59999847412,548.29998779297,775.59999847412,548.29998779297,794.09999847412,548.04998779297,794.09999847412,548.04998779297,812.34999847412,548.29998779297,812.34999847412,548.29998779297,829.09999847412,548.54998779297,829.09999847412,548.54998779297,844.34999847412,547.79998779297,844.34999847412,547.79998779297,858.84999847412,547.29998779297,858.84999847412,547.29998779297,871.84999847412,546.54998779297,871.84999847412,546.54998779297,882.59999847412,546.79998779297,882.59999847412,546.79998779297,893.59999847412,546.04998779297,893.59999847412,546.04998779297,903.09999847412,544.79998779297,903.09999847412,544.79998779297,910.34999847412,544.29998779297,910.34999847412,544.29998779297,915.84999847412,542.79998779297,915.84999847412,542.79998779297,920.84999847412,542.04998779297,920.84999847412,542.04998779297,1030.8499984741,541.04998779297,1030.8499984741,541.04998779297,1036.8499984741,542.04998779297,1036.8499984741,542.04998779297,1043.0999984741,542.79998779297,1043.0999984741,542.79998779297,1048.5999984741,544.04998779297,1048.5999984741,544.04998779297,1055.3499984741,545.04998779297,1055.3499984741,545.04998779297,1062.3499984741,545.29998779297,1062.3499984741,545.29998779297,1069.3499984741,546.29998779297,1069.3499984741,546.29998779297,1075.0999984741,546.79998779297,1075.0999984741,546.79998779297,1083.8499984741,548.29998779297,1083.8499984741,548.29998779297,1094.5999984741,548.29998779297,1094.5999984741,548.29998779297,1106.0999984741,548.29998779297,1106.0999984741,548.29998779297,1116.0999984741,548.79998779297,1116.0999984741,548.79998779297,1146.3499984741,550.29998779297,1146.3499984741,550.29998779297,1175.0999984741,551.54998779297,1175.0999984741,551.54998779297,1219.3499984741,551.54998779297,1219.3499984741,551.54998779297,1218.8499984741,574.29998779297,1218.8499984741,574.29998779297,1203.0999984741,573.29998779297,1203.0999984741,573.29998779297,1185.5999984741,574.29998779297,1185.5999984741,574.29998779297,1172.0999984741,573.79998779297,1172.0999984741,573.79998779297,1159.3499984741,573.29998779297,1159.3499984741,573.29998779297,1143.5999984741,572.29998779297,1143.5999984741,572.29998779297,1130.0999984741,572.54998779297,1130.0999984741,572.54998779297,1116.3499984741,571.54998779297,1116.3499984741,571.54998779297,1101.5999984741,570.04998779297,1101.5999984741,570.04998779297,1081.0999984741,568.79998779297,1081.0999984741,568.79998779297,1075.0999984741,569.54998779297,1075.0999984741,569.54998779297,1068.5999984741,569.29998779297,1068.5999984741,569.29998779297,1062.3499984741,569.04998779297,1062.3499984741,569.04998779297,1053.5999984741,568.29998779297,1053.5999984741,568.29998779297,1048.3499984741,567.54998779297,1048.3499984741,567.54998779297,1041.5999984741,567.04998779297,1041.5999984741,567.04998779297,1035.5999984741,567.04998779297,1035.5999984741,567.04998779297,1030.3499984741,564.29998779297,1030.3499984741,564.29998779297,920.84999847412,566.04998779297,920.84999847412,566.04998779297,900.59999847412,568.29998779297,900.59999847412,568.29998779297,882.34999847412,569.29998779297,882.34999847412,569.29998779297,870.59999847412,570.29998779297,870.59999847412,570.29998779297,860.09999847412,570.29998779297,860.09999847412,570.29998779297,829.59999847412,570.54998779297,829.59999847412,570.54998779297,812.59999847412,571.04998779297,812.59999847412,571.04998779297,794.59999847412,571.04998779297,794.59999847412,571.04998779297,775.84999847412,571.04998779297,775.84999847412,571.04998779297,755.84999847412,571.29998779297,755.84999847412,571.29998779297,735.09999847412,572.29998779297,735.09999847412,572.29998779297"></polygon><polygon  data-sec="1" data-build="1" data-floor="19" class="s3d-svg__house js-s3d-svg__house" points="708,550.75,708,550.75,708.75,526.5,708.75,526.5,736,526.25,736,526.25,755.75,526.25,755.75,526.25,776,526.25,776,526.25,793.5,526.5,793.5,526.5,811.5,526.5,811.5,526.5,844.25,525.25,844.25,525.25,858.5,525.25,858.5,525.25,871.5,524.25,871.5,524.25,881.75,523.5,881.75,523.5,892.25,523,892.25,523,901.75,520.75,901.75,520.75,910.5,519.5,910.5,519.5,915.75,518,915.75,518,920.75,517.75,920.75,517.75,1030.5,517.75,1030.5,517.75,1037,518.5,1037,518.5,1042.25,519,1042.25,519,1047.75,519.75,1047.75,519.75,1054,521,1054,521,1060.5,521.75,1060.5,521.75,1066,522.25,1066,522.25,1072,523.25,1072,523.25,1083.75,524,1083.75,524,1093.75,525.75,1093.75,525.75,1105.25,526.75,1105.25,526.75,1123.5,527.25,1123.5,527.25,1136.25,528.75,1136.25,528.75,1146.5,528.75,1146.5,528.75,1155.5,528.75,1155.5,528.75,1163.5,529.75,1163.5,529.75,1175.25,529.5,1175.25,529.5,1190.75,530,1190.75,530,1204.75,530,1204.75,530,1218.5,530.5,1218.5,530.5,1219.25,551.5,1219.25,551.5,1199,551.25,1199,551.25,1174.5,551.25,1174.5,551.25,1145.75,549.75,1145.75,549.75,1132.25,549.75,1132.25,549.75,1115.75,548.75,1115.75,548.75,1106.75,548.5,1106.75,548.5,1094.75,547.5,1094.75,547.5,1084.5,548.25,1084.5,548.25,1075,546.5,1075,546.5,1070,546.25,1070,546.25,1062.25,545.25,1062.25,545.25,1054.75,544.25,1054.75,544.25,1048.5,543.75,1048.5,543.75,1043.25,542.5,1043.25,542.5,1036,541.75,1036,541.75,1031,540.75,1031,540.75,921,542.5,921,542.5,916,543.25,916,543.25,909.5,544.75,909.5,544.75,902.25,545,902.25,545,893,546,893,546,882.75,546.75,882.75,546.75,870.5,547.25,870.5,547.25,858.5,547.25,858.5,547.25,844,548.25,844,548.25,828.75,548.75,828.75,548.75,811.75,548.75,811.75,548.75,792.75,548.5,792.75,548.5,775.25,548.5,775.25,548.5,756,549.5,756,549.5,736.25,549.75,736.25,549.75"></polygon><polygon  data-sec="1" data-build="1" data-floor="20" class="s3d-svg__house js-s3d-svg__house" points="708,526.25,708,526.25,708,506.75,708,506.75,737.25,505.75,737.25,505.75,758.25,505.5,758.25,505.5,777,504.75,777,504.75,800,505.25,800,505.25,829,504.5,829,504.5,858.5,501.5,858.5,501.5,883.25,499,883.25,499,901.75,497.5,901.75,497.5,910.5,495.25,910.5,495.25,916.25,493.25,916.25,493.25,921,492,921,492,1030.5,491,1030.5,491,1036.75,493.25,1036.75,493.25,1043.5,494.75,1043.5,494.75,1049,496,1049,496,1056.25,497,1056.25,497,1062.5,498.5,1062.5,498.5,1070.75,499.75,1070.75,499.75,1079,501,1079,501,1092.25,502.75,1092.25,502.75,1108.75,504.25,1108.75,504.25,1122,504.75,1122,504.75,1135.5,506.5,1135.5,506.5,1159.5,507.5,1159.5,507.5,1191,510,1191,510,1219,509.5,1219,509.5,1219,530.25,1219,530.25,1204.25,530.25,1204.25,530.25,1190.5,529.25,1190.5,529.25,1174.5,529.25,1174.5,529.25,1163.25,529,1163.25,529,1156,528.5,1156,528.5,1146.25,528.5,1146.25,528.5,1136.5,528.5,1136.5,528.5,1122.75,526.5,1122.75,526.5,1105,526.25,1105,526.25,1093.25,525.5,1093.25,525.5,1083.75,524,1083.75,524,1071.75,523.25,1071.75,523.25,1065.75,522,1065.75,522,1060,521.25,1060,521.25,1053.5,520.5,1053.5,520.5,1047.5,519.5,1047.5,519.5,1037.5,518,1037.5,518,1030.5,518,1030.5,518,920.25,517.75,920.25,517.75,915.75,518,915.75,518,910.25,519.75,910.25,519.75,901.75,521.25,901.75,521.25,892.25,522.75,892.25,522.75,881.5,523.5,881.5,523.5,870.75,524.25,870.75,524.25,857.75,525.25,857.75,525.25,843.5,525.5,843.5,525.5,811.25,526.75,811.25,526.75,793.5,526.75,793.5,526.75,775.5,526.25,775.5,526.25,756,526.25,756,526.25,736,525.75,736,525.75"></polygon><polygon  data-sec="1" data-build="1" data-floor="21" class="s3d-svg__house js-s3d-svg__house" points="707.75,507,707.75,507,707.75,486.5,707.75,486.5,736.5,484.75,736.5,484.75,758.25,484,758.25,484,776.75,483,776.75,483,794,482.75,794,482.75,811.25,481.75,811.25,481.75,828.5,481.25,828.5,481.25,845.5,480.25,845.5,480.25,870.75,478.25,870.75,478.25,892,475.75,892,475.75,903.75,473.5,903.75,473.5,909.25,472.5,909.25,472.5,915,471.25,915,471.25,920.75,469.25,920.75,469.25,1031.25,467.75,1031.25,467.75,1035.25,469,1035.25,469,1043.75,472,1043.75,472,1051.25,474.25,1051.25,474.25,1060.5,475.75,1060.5,475.75,1074.5,478.5,1074.5,478.5,1088.75,480,1088.75,480,1108,482,1108,482,1134.5,484.75,1134.5,484.75,1168.25,487.5,1168.25,487.5,1219.5,488.5,1219.5,488.5,1219,509.25,1219,509.25,1190.75,509.25,1190.75,509.25,1158.5,507.5,1158.5,507.5,1135.75,506,1135.75,506,1121.75,505,1121.75,505,1108.75,504,1108.75,504,1092,503.25,1092,503.25,1078.25,501,1078.25,501,1069.5,499.25,1069.5,499.25,1062.5,498.5,1062.5,498.5,1048.25,495.5,1048.25,495.5,1041,494,1041,494,1029.5,490.75,1029.5,490.75,921.5,492.25,921.5,492.25,915.25,494.25,915.25,494.25,910.25,495.5,910.25,495.5,901,496.75,901,496.75,890.75,498.5,890.75,498.5,881.75,498.75,881.75,498.75,858.25,501.75,858.25,501.75,829.25,504.25,829.25,504.25,800,505,800,505,757.75,505.25,757.75,505.25,736.75,507,736.75,507"></polygon><polygon  data-sec="1" data-build="1" data-floor="22" class="s3d-svg__house js-s3d-svg__house" points="707.5,486.25,707.5,486.25,707.75,463.25,707.75,463.25,736.75,462,736.75,462,756.75,461.5,756.75,461.5,776.5,460.25,776.5,460.25,794,459.75,794,459.75,812,459,812,459,827.75,458.75,827.75,458.75,844,457.75,844,457.75,859,456,859,456,871.5,455,871.5,455,883,453.75,883,453.75,894,451.25,894,451.25,905.75,449,905.75,449,912.75,446.5,912.75,446.5,920.75,444,920.75,444,1030.75,443,1030.75,443,1036.25,444.75,1036.25,444.75,1042.5,447.25,1042.5,447.25,1048.25,448.5,1048.25,448.5,1053.25,449.75,1053.25,449.75,1060.5,451.75,1060.5,451.75,1069,453.25,1069,453.25,1076.25,455,1076.25,455,1086,456.5,1086,456.5,1095.5,458,1095.5,458,1104.75,459,1104.75,459,1112.5,460.5,1112.5,460.5,1126.75,462.5,1126.75,462.5,1134.75,463.25,1134.75,463.25,1145.25,464.5,1145.25,464.5,1156.25,464.5,1156.25,464.5,1165,465.75,1165,465.75,1173.75,465.75,1173.75,465.75,1190.75,468,1190.75,468,1219.5,466.75,1219.5,466.75,1219.5,487.75,1219.5,487.75,1185.75,487.5,1185.75,487.5,1168.5,487,1168.5,487,1135.25,485,1135.25,485,1108.5,482,1108.5,482,1088.75,480.5,1088.75,480.5,1074,478.5,1074,478.5,1059.75,476.25,1059.75,476.25,1050.75,474,1050.75,474,1043.25,471.75,1043.25,471.75,1035.5,469.5,1035.5,469.5,1031.5,468.25,1031.5,468.25,921,468.75,921,468.75,914.5,471.75,914.5,471.75,909,473.25,909,473.25,903.5,473.5,903.5,473.5,892,475.5,892,475.5,870.25,478,870.25,478,845.25,479.5,845.25,479.5,828.5,480.75,828.5,480.75,810.5,482,810.5,482,794.5,482.5,794.5,482.5,758.25,484,758.25,484"></polygon><polygon  data-sec="1" data-build="1" data-floor="23" class="s3d-svg__house js-s3d-svg__house" points="707.25,463.5,707.25,463.5,708,442.75,708,442.75,736.25,440.5,736.25,440.5,756.25,439.75,756.25,439.75,776.5,438.5,776.5,438.5,794.5,438.25,794.5,438.25,812.25,438,812.25,438,829,436,829,436,844.5,434,844.5,434,860,432.25,860,432.25,882.5,430,882.5,430,903.25,426.25,903.25,426.25,915,421.25,915,421.25,920,418.5,920,418.5,1030.75,416.75,1030.75,416.75,1036.75,419.5,1036.75,419.5,1043.25,422.75,1043.25,422.75,1050.25,425.25,1050.25,425.25,1056.5,426.75,1056.5,426.75,1065.75,428.75,1065.75,428.75,1080,432,1080,432,1089.25,433.25,1089.25,433.25,1101.75,436.25,1101.75,436.25,1114.75,438.25,1114.75,438.25,1127.5,438.75,1127.5,438.75,1163,443.5,1163,443.5,1187.5,446.5,1187.5,446.5,1219,446.25,1219,446.25,1219.75,466.75,1219.75,466.75,1190.75,467.75,1190.75,467.75,1172.5,466,1172.5,466,1156,463.75,1156,463.75,1145,463.5,1145,463.5,1127.5,462.75,1127.5,462.75,1110.5,459.75,1110.5,459.75,1086.5,456.5,1086.5,456.5,1068,453,1068,453,1052,449.5,1052,449.5,1036.25,444.5,1036.25,444.5,1030.5,443.25,1030.5,443.25,920.5,444,920.5,444,913,446.25,913,446.25,906,449,906,449,883,453.25,883,453.25,871.25,455,871.25,455,858.5,456.75,858.5,456.75,812.25,459,812.25,459,757.25,462.25,757.25,462.25"></polygon><polygon  data-sec="1" data-build="1" data-floor="24" class="s3d-svg__house js-s3d-svg__house" points="707.5,442.75,707.5,442.75,708,420.25,708,420.25,735.75,419.25,735.75,419.25,757.5,418.5,757.5,418.5,775.25,417,775.25,417,793.5,415.75,793.5,415.75,812,415,812,415,829,413.75,829,413.75,858,410.25,858,410.25,882.75,406,882.75,406,901,402.75,901,402.75,915.25,398.5,915.25,398.5,920.5,397,920.5,397,1031,394.5,1031,394.5,1039,398,1039,398,1045.75,400.5,1045.75,400.5,1056,403.5,1056,403.5,1065.5,406.5,1065.5,406.5,1078.25,409.75,1078.25,409.75,1091.75,413,1091.75,413,1106.5,415,1106.5,415,1126.75,418.75,1126.75,418.75,1143,421.25,1143,421.25,1161.25,423,1161.25,423,1178.25,424.5,1178.25,424.5,1193.25,426,1193.25,426,1205.5,426,1205.5,426,1219.25,426.25,1219.25,426.25,1219.5,445.25,1219.5,445.25,1187,446.25,1187,446.25,1162.75,443,1162.75,443,1127.5,438.5,1127.5,438.5,1114.75,438.25,1114.75,438.25,1101.5,436,1101.5,436,1089,433.25,1089,433.25,1080,432.5,1080,432.5,1065.5,429.25,1065.5,429.25,1056.5,426.75,1056.5,426.75,1049.5,425,1049.5,425,1042.75,422.25,1042.75,422.25,1036,419.75,1036,419.75,1031.25,416.75,1031.25,416.75,920.25,418.25,920.25,418.25,915,421.5,915,421.5,902.25,426.25,902.25,426.25,881.5,430,881.5,430,859.75,432.5,859.75,432.5,843.75,433.5,843.75,433.5,828.75,436.25,828.75,436.25,811.75,437.75,811.75,437.75,794.25,438.75,794.25,438.75,776.25,438.75,776.25,438.75,756.5,440.25,756.5,440.25,735.25,440.75,735.25,440.75"></polygon><polygon  data-sec="1" data-build="1" data-floor="25" class="s3d-svg__house js-s3d-svg__house" points="707.5,419.5,707.5,419.5,707.25,398.5,707.25,398.5,735.5,397.25,735.5,397.25,756.25,397.25,756.25,397.25,775.75,395,775.75,395,794,394.75,794,394.75,812,392.75,812,392.75,828.25,391.25,828.25,391.25,843.25,389.75,843.25,389.75,858,388.75,858,388.75,871.25,385,871.25,385,882.25,384.25,882.25,384.25,892.75,380.75,892.75,380.75,901,378.5,901,378.5,907.75,376,907.75,376,914.5,374.25,914.5,374.25,920.75,371.5,920.75,371.5,1031,369.5,1031,369.5,1038.75,372.75,1038.75,372.75,1048,377,1048,377,1057,380.5,1057,380.5,1065.25,382.75,1065.25,382.75,1075,385.25,1075,385.25,1086.75,388,1086.75,388,1096.5,390.5,1096.5,390.5,1107.5,393,1107.5,393,1118.75,394.5,1118.75,394.5,1131.75,397.5,1131.75,397.5,1146,400.25,1146,400.25,1164.25,401.5,1164.25,401.5,1183.5,403.75,1183.5,403.75,1195.5,405.25,1195.5,405.25,1219.25,405.25,1219.25,405.25,1219.5,426,1219.5,426,1192.75,426,1192.75,426,1178.25,423.75,1178.25,423.75,1160.25,422.75,1160.25,422.75,1143,421.25,1143,421.25,1127,419.5,1127,419.5,1106.75,414.5,1106.75,414.5,1092.5,413,1092.5,413,1078,409.5,1078,409.5,1065,405.5,1065,405.5,1055.25,402.5,1055.25,402.5,1045.5,399.75,1045.5,399.75,1038.5,397.25,1038.5,397.25,1031.5,394.25,1031.5,394.25,921,396.75,921,396.75,914.25,398.5,914.25,398.5,900.75,403,900.75,403,881.75,406.5,881.75,406.5,857.5,410.5,857.5,410.5,828,413.5,828,413.5,793.25,416,793.25,416,736,419,736,419"></polygon><polygon  data-sec="1" data-build="1" data-floor="26" class="s3d-svg__house js-s3d-svg__house" points="707.25,398.5,707.25,398.5,708,376.25,708,376.25,736,374.75,736,374.75,757,374.25,757,374.25,776.75,372.75,776.75,372.75,794.5,371.25,794.5,371.25,813,370.5,813,370.5,828.75,368,828.75,368,844,367.5,844,367.5,872,362.25,872,362.25,901,353.25,901,353.25,920.75,341.75,920.75,341.75,1030.25,339.75,1030.25,339.75,1037.25,344.75,1037.25,344.75,1044.25,349.75,1044.25,349.75,1051.75,353.5,1051.75,353.5,1063.25,358.75,1063.25,358.75,1082.25,364.25,1082.25,364.25,1110.25,370,1110.25,370,1145.25,376.5,1145.25,376.5,1173.25,380.5,1173.25,380.5,1219.5,383.75,1219.5,383.75,1220,404.25,1220,404.25,1196.75,404.25,1196.75,404.25,1183,403.5,1183,403.5,1164.75,401.25,1164.75,401.25,1145.5,399.75,1145.5,399.75,1131.25,397.25,1131.25,397.25,1118.25,394.5,1118.25,394.5,1107.25,392.5,1107.25,392.5,1095.75,390,1095.75,390,1086,388,1086,388,1075.25,385.25,1075.25,385.25,1065,383.5,1065,383.5,1057,380.25,1057,380.25,1047.5,376.5,1047.5,376.5,1039.25,372.75,1039.25,372.75,1031,368.5,1031,368.5,921.5,371.25,921.5,371.25,915,374.25,915,374.25,907.5,376.75,907.5,376.75,901.25,379,901.25,379,892.5,381.25,892.5,381.25,882.25,383.75,882.25,383.75,870.25,386.25,870.25,386.25,858,388.5,858,388.5,828.5,391.75,828.5,391.75,775.5,395.5,775.5,395.5,735.25,397.5,735.25,397.5"></polygon><polygon  data-sec="1" data-build="1" data-floor="27" class="s3d-svg__house js-s3d-svg__house" points="707.83333333333,375.33333333333,735.66666666667,374.16666666667,757.16666666667,373.5,777,372.33333333333,794.33333333333,370.66666666667,812.5,369.66666666667,828.5,367.83333333333,843.5,366.83333333333,871.83333333333,361.66666666667,901.16666666667,352.5,920.83333333333,341.16666666667,1029.8333333333,339.66666666667,1036.8333333333,344.5,1044.8333333333,349.66666666667,1052.3333333333,353.33333333333,1063.3333333333,358.83333333333,1082,363.66666666667,1110.6666666667,370,1144.8333333333,376,1173,379.33333333333,1218.5,383.66666666667,1219.1666666667,358.5,1198.3333333333,358.16666666667,1183.5,356.5,1168.3333333333,354.5,1154.5,352.16666666667,1140.8333333333,349.5,1126.8333333333,347.66666666667,1102.8333333333,342.16666666667,1082.5,337.16666666667,1056.1666666667,328.5,1031.8333333333,312,921.16666666667,313.16666666667,907,323.83333333333,893,332,872,336.83333333333,843.83333333333,341.33333333333,812.33333333333,345.66666666667,775.66666666667,349.5,756,350.83333333333,708,353.33333333333"></polygon></svg>