<svg xmlns="http://www.w3.org/2000/svg" viewBox="0 0 76 72"><defs>
    <style>.cls-1{fill:#1A2941;}.cls-2,.cls-3{fill:#FCFCFC;}.cls-3{font-size:18px;font-family:gilroy;font-weight:600;}</style>
</defs><title>Asset 4</title>
    <g id="Layer_2" data-name="Layer 2"><g id="Layer_1-2" data-name="Layer 1">
        <path class="cls-1" d="M39,0,30,12H48Z"/>
        <path class="cls-2" d="M76,32H71.93A34,34,0,0,0,48.11,1.54l-.59,1.91A32,32,0,0,1,69.93,32H66v2h4A32,32,0,0,1,38.43,66H38V62H36v3.93A31.94,31.94,0,0,1,6,34h4V32H6.07A32,32,0,0,1,27.66,3.72L27,1.82A34,34,0,0,0,4.06,32H0v2H4a33.21,33.21,0,0,0,.5,5.79A34,34,0,0,0,36,67.93V72h2V68h.46A34,34,0,0,0,71.65,38.89,35,35,0,0,0,72,34h4Z"/>
        <text class="cls-3" transform="translate(23.02 39)">ПН</text></g>
    </g></svg>
