<svg width="59" height="56" viewBox="0 0 59 56" fill="none" xmlns="http://www.w3.org/2000/svg">
<path d="M28.25 23.4402V33.2402H26.64V24.9802H22.65V33.2402H21.04V23.4402H28.25ZM36.0238 23.4402H37.6338V33.2402H36.0238V28.9982H31.8238V33.2402H30.2138V23.4402H31.8238V27.4582H36.0238V23.4402Z" fill="#FCFCFC"/>
<mask id="path-2-inside-1" fill="white">
<path d="M37.7871 1.19567C43.7842 3.06441 48.9183 7.01066 52.2667 12.3253C55.6151 17.6399 56.9584 23.9745 56.0551 30.1907C55.1519 36.4069 52.0614 42.0972 47.3389 46.2391C42.6164 50.381 36.5715 52.7029 30.2906 52.7876C24.0097 52.8723 17.9045 50.7143 13.072 46.7012C8.23952 42.6882 4.99666 37.0833 3.92612 30.8937C2.85559 24.7041 4.02757 18.3356 7.23146 12.9326C10.4354 7.52961 15.4611 3.44635 21.4056 1.41658L21.9077 2.88711C16.3132 4.79739 11.5833 8.64026 8.56804 13.7252C5.55276 18.8101 4.44978 24.8036 5.45729 30.6288C6.4648 36.4541 9.51675 41.729 14.0647 45.5058C18.6127 49.2826 24.3585 51.3136 30.2697 51.2339C36.1808 51.1542 41.8698 48.9689 46.3143 45.0709C50.7587 41.1728 53.6673 35.8175 54.5174 29.9673C55.3675 24.117 54.1033 18.1554 50.952 13.1536C47.8007 8.15186 42.9689 4.43794 37.3249 2.67921L37.7871 1.19567Z"/>
</mask>
<path d="M37.7871 1.19567C43.7842 3.06441 48.9183 7.01066 52.2667 12.3253C55.6151 17.6399 56.9584 23.9745 56.0551 30.1907C55.1519 36.4069 52.0614 42.0972 47.3389 46.2391C42.6164 50.381 36.5715 52.7029 30.2906 52.7876C24.0097 52.8723 17.9045 50.7143 13.072 46.7012C8.23952 42.6882 4.99666 37.0833 3.92612 30.8937C2.85559 24.7041 4.02757 18.3356 7.23146 12.9326C10.4354 7.52961 15.4611 3.44635 21.4056 1.41658L21.9077 2.88711C16.3132 4.79739 11.5833 8.64026 8.56804 13.7252C5.55276 18.8101 4.44978 24.8036 5.45729 30.6288C6.4648 36.4541 9.51675 41.729 14.0647 45.5058C18.6127 49.2826 24.3585 51.3136 30.2697 51.2339C36.1808 51.1542 41.8698 48.9689 46.3143 45.0709C50.7587 41.1728 53.6673 35.8175 54.5174 29.9673C55.3675 24.117 54.1033 18.1554 50.952 13.1536C47.8007 8.15186 42.9689 4.43794 37.3249 2.67921L37.7871 1.19567Z" stroke="#FCFCFC" stroke-width="2.63158" mask="url(#path-2-inside-1)"/>
<path d="M30.2763 0L23.2894 9.31579H37.2631L30.2763 0Z" fill="#1A2941"/>
<line x1="5.7515e-08" y1="25.7366" x2="7.76316" y2="25.7366" stroke="#FCFCFC" stroke-width="1.31579"/>
<line x1="51.2368" y1="25.7366" x2="59" y2="25.7366" stroke="#FCFCFC" stroke-width="1.31579"/>
<line x1="28.8421" y1="55.8945" x2="28.8421" y2="48.1314" stroke="#FCFCFC" stroke-width="1.31579"/>
</svg>
