<svg width="25" height="23" viewBox="0 0 25 23" fill="none" xmlns="http://www.w3.org/2000/svg">
<mask id="path-1-inside-1" fill="white">
<path d="M10.4172 21.8319C5.03135 21.3663 0.969926 19.0375 0.969926 16.4148C0.969926 15.8017 1.18932 15.1955 1.62206 14.6129C1.78175 14.3979 1.73694 14.0942 1.52191 13.9344C1.30688 13.7748 1.00315 13.8196 0.843399 14.0346C0.283752 14.7881 0 15.5889 0 16.4148C0 18.0136 1.09286 19.5388 3.07733 20.7097C4.94847 21.8138 7.52551 22.5555 10.3336 22.7983C10.3479 22.7995 10.362 22.8001 10.376 22.8001C10.6249 22.8001 10.8367 22.6095 10.8586 22.3568C10.8816 22.09 10.684 21.855 10.4172 21.8319Z"/>
<path d="M12.5363 21.917L12.5074 21.9171C12.2396 21.9186 12.0236 22.1369 12.0251 22.4047C12.0265 22.6717 12.2433 22.8871 12.51 22.8871H12.5126L12.5363 22.887C12.8041 22.887 13.0212 22.6698 13.0212 22.402C13.0212 22.1342 12.8042 21.917 12.5363 21.917Z"/>
<path d="M24.1836 14.3195C24.4438 14.3108 24.6522 14.0977 24.6522 13.8354C24.6522 13.5676 24.435 13.3504 24.1672 13.3504H23.1902C22.9224 13.3504 22.7053 13.5676 22.7053 13.8354V14.8124C22.7053 15.0802 22.9224 15.2973 23.1902 15.2973C23.3285 15.2973 23.4529 15.2392 23.5413 15.1464C23.7532 15.5622 23.8603 15.9873 23.8603 16.415C23.8603 19.0381 19.7979 21.367 14.4109 21.8323C14.144 21.8554 13.9464 22.0904 13.9694 22.3572C13.9912 22.6098 14.2031 22.8005 14.452 22.8005C14.466 22.8005 14.4801 22.7999 14.4943 22.7986C17.303 22.5561 19.8805 21.8144 21.7522 20.7103C23.7371 19.5393 24.8302 18.0138 24.8302 16.415C24.8303 15.6935 24.6127 14.9893 24.1836 14.3195Z"/>
<path d="M12.4147 3.95285C12.1469 3.95285 11.9298 4.17001 11.9298 4.43781V5.49639C11.9298 5.76419 12.1469 5.98135 12.4147 5.98135C12.6826 5.98135 12.8997 5.76419 12.8997 5.49639V4.43781C12.8997 4.17001 12.6826 3.95285 12.4147 3.95285Z"/>
<path d="M20.7601 4.74339L12.6569 0.0649972C12.5069 -0.0216657 12.322 -0.0216657 12.1719 0.0649972L4.06878 4.74339C3.91874 4.83 3.8263 4.99014 3.8263 5.16337V14.5201C3.8263 14.6933 3.91869 14.8535 4.06878 14.9401L12.1719 19.6185C12.247 19.6618 12.3307 19.6835 12.4144 19.6835C12.4982 19.6835 12.5819 19.6618 12.6569 19.6185L20.7601 14.9401C20.9101 14.8535 21.0025 14.6933 21.0025 14.5201V5.16337C21.0025 4.99014 20.9101 4.83 20.7601 4.74339ZM11.9295 18.3585L5.28119 14.5201L5.73982 14.2553C5.97178 14.1214 6.05126 13.8248 5.91732 13.5929C5.78342 13.3609 5.48682 13.2814 5.25486 13.4154L4.79618 13.6801V6.00366L11.4405 9.84404L10.6077 10.3248C10.3758 10.4588 10.2963 10.7553 10.4302 10.9873C10.5201 11.1429 10.6831 11.2299 10.8507 11.2299C10.9329 11.2299 11.0163 11.2089 11.0927 11.1648L11.9295 10.6817V18.3585ZM12.4144 7.57262C12.1466 7.57262 11.9295 7.78978 11.9295 8.05758V9.00631L5.28095 5.16351L11.9295 1.32498V1.87663C11.9295 2.14442 12.1466 2.36159 12.4144 2.36159C12.6823 2.36159 12.8994 2.14442 12.8994 1.87663V1.32498L19.5479 5.16351L12.8994 9.00631V8.05758C12.8994 7.78978 12.6823 7.57262 12.4144 7.57262ZM20.0326 13.6801L19.5739 13.4154C19.342 13.2815 19.0454 13.3609 18.9115 13.5929C18.7775 13.8248 18.857 14.1214 19.089 14.2553L19.5476 14.5201L12.8994 18.3585V10.6817L13.7361 11.1648C13.8125 11.2089 13.8959 11.2299 13.9782 11.2299C14.1458 11.2299 14.3088 11.1429 14.3986 10.9873C14.5325 10.7553 14.4531 10.4588 14.2211 10.3248L13.3883 9.84404L20.0326 6.00366V13.6801Z"/>
<path d="M17.3572 12.1347L16.4405 11.6054C16.2085 11.4715 15.9119 11.551 15.778 11.7829C15.6441 12.0148 15.7236 12.3114 15.9555 12.4453L16.8723 12.9746C16.9486 13.0187 17.032 13.0397 17.1143 13.0397C17.2819 13.0397 17.4449 12.9527 17.5347 12.7971C17.6687 12.5652 17.5892 12.2686 17.3572 12.1347Z"/>
<path d="M9.05353 11.7829C8.91959 11.551 8.62303 11.4715 8.39107 11.6054L7.4743 12.1347C7.24234 12.2687 7.16285 12.5652 7.2968 12.7972C7.38662 12.9527 7.54961 13.0398 7.71722 13.0398C7.79947 13.0398 7.88288 13.0188 7.95926 12.9747L8.87604 12.4454C9.10799 12.3114 9.18748 12.0149 9.05353 11.7829Z"/>
</mask>
<path d="M10.4172 21.8319C5.03135 21.3663 0.969926 19.0375 0.969926 16.4148C0.969926 15.8017 1.18932 15.1955 1.62206 14.6129C1.78175 14.3979 1.73694 14.0942 1.52191 13.9344C1.30688 13.7748 1.00315 13.8196 0.843399 14.0346C0.283752 14.7881 0 15.5889 0 16.4148C0 18.0136 1.09286 19.5388 3.07733 20.7097C4.94847 21.8138 7.52551 22.5555 10.3336 22.7983C10.3479 22.7995 10.362 22.8001 10.376 22.8001C10.6249 22.8001 10.8367 22.6095 10.8586 22.3568C10.8816 22.09 10.684 21.855 10.4172 21.8319Z" fill="white"/>
<path d="M12.5363 21.917L12.5074 21.9171C12.2396 21.9186 12.0236 22.1369 12.0251 22.4047C12.0265 22.6717 12.2433 22.8871 12.51 22.8871H12.5126L12.5363 22.887C12.8041 22.887 13.0212 22.6698 13.0212 22.402C13.0212 22.1342 12.8042 21.917 12.5363 21.917Z" fill="white"/>
<path d="M24.1836 14.3195C24.4438 14.3108 24.6522 14.0977 24.6522 13.8354C24.6522 13.5676 24.435 13.3504 24.1672 13.3504H23.1902C22.9224 13.3504 22.7053 13.5676 22.7053 13.8354V14.8124C22.7053 15.0802 22.9224 15.2973 23.1902 15.2973C23.3285 15.2973 23.4529 15.2392 23.5413 15.1464C23.7532 15.5622 23.8603 15.9873 23.8603 16.415C23.8603 19.0381 19.7979 21.367 14.4109 21.8323C14.144 21.8554 13.9464 22.0904 13.9694 22.3572C13.9912 22.6098 14.2031 22.8005 14.452 22.8005C14.466 22.8005 14.4801 22.7999 14.4943 22.7986C17.303 22.5561 19.8805 21.8144 21.7522 20.7103C23.7371 19.5393 24.8302 18.0138 24.8302 16.415C24.8303 15.6935 24.6127 14.9893 24.1836 14.3195Z" fill="white"/>
<path d="M12.4147 3.95285C12.1469 3.95285 11.9298 4.17001 11.9298 4.43781V5.49639C11.9298 5.76419 12.1469 5.98135 12.4147 5.98135C12.6826 5.98135 12.8997 5.76419 12.8997 5.49639V4.43781C12.8997 4.17001 12.6826 3.95285 12.4147 3.95285Z" fill="white"/>
<path d="M20.7601 4.74339L12.6569 0.0649972C12.5069 -0.0216657 12.322 -0.0216657 12.1719 0.0649972L4.06878 4.74339C3.91874 4.83 3.8263 4.99014 3.8263 5.16337V14.5201C3.8263 14.6933 3.91869 14.8535 4.06878 14.9401L12.1719 19.6185C12.247 19.6618 12.3307 19.6835 12.4144 19.6835C12.4982 19.6835 12.5819 19.6618 12.6569 19.6185L20.7601 14.9401C20.9101 14.8535 21.0025 14.6933 21.0025 14.5201V5.16337C21.0025 4.99014 20.9101 4.83 20.7601 4.74339ZM11.9295 18.3585L5.28119 14.5201L5.73982 14.2553C5.97178 14.1214 6.05126 13.8248 5.91732 13.5929C5.78342 13.3609 5.48682 13.2814 5.25486 13.4154L4.79618 13.6801V6.00366L11.4405 9.84404L10.6077 10.3248C10.3758 10.4588 10.2963 10.7553 10.4302 10.9873C10.5201 11.1429 10.6831 11.2299 10.8507 11.2299C10.9329 11.2299 11.0163 11.2089 11.0927 11.1648L11.9295 10.6817V18.3585ZM12.4144 7.57262C12.1466 7.57262 11.9295 7.78978 11.9295 8.05758V9.00631L5.28095 5.16351L11.9295 1.32498V1.87663C11.9295 2.14442 12.1466 2.36159 12.4144 2.36159C12.6823 2.36159 12.8994 2.14442 12.8994 1.87663V1.32498L19.5479 5.16351L12.8994 9.00631V8.05758C12.8994 7.78978 12.6823 7.57262 12.4144 7.57262ZM20.0326 13.6801L19.5739 13.4154C19.342 13.2815 19.0454 13.3609 18.9115 13.5929C18.7775 13.8248 18.857 14.1214 19.089 14.2553L19.5476 14.5201L12.8994 18.3585V10.6817L13.7361 11.1648C13.8125 11.2089 13.8959 11.2299 13.9782 11.2299C14.1458 11.2299 14.3088 11.1429 14.3986 10.9873C14.5325 10.7553 14.4531 10.4588 14.2211 10.3248L13.3883 9.84404L20.0326 6.00366V13.6801Z" fill="white"/>
<path d="M17.3572 12.1347L16.4405 11.6054C16.2085 11.4715 15.9119 11.551 15.778 11.7829C15.6441 12.0148 15.7236 12.3114 15.9555 12.4453L16.8723 12.9746C16.9486 13.0187 17.032 13.0397 17.1143 13.0397C17.2819 13.0397 17.4449 12.9527 17.5347 12.7971C17.6687 12.5652 17.5892 12.2686 17.3572 12.1347Z" fill="white"/>
<path d="M9.05353 11.7829C8.91959 11.551 8.62303 11.4715 8.39107 11.6054L7.4743 12.1347C7.24234 12.2687 7.16285 12.5652 7.2968 12.7972C7.38662 12.9527 7.54961 13.0398 7.71722 13.0398C7.79947 13.0398 7.88288 13.0188 7.95926 12.9747L8.87604 12.4454C9.10799 12.3114 9.18748 12.0149 9.05353 11.7829Z" fill="white"/>
<path d="M10.4172 21.8319C5.03135 21.3663 0.969926 19.0375 0.969926 16.4148C0.969926 15.8017 1.18932 15.1955 1.62206 14.6129C1.78175 14.3979 1.73694 14.0942 1.52191 13.9344C1.30688 13.7748 1.00315 13.8196 0.843399 14.0346C0.283752 14.7881 0 15.5889 0 16.4148C0 18.0136 1.09286 19.5388 3.07733 20.7097C4.94847 21.8138 7.52551 22.5555 10.3336 22.7983C10.3479 22.7995 10.362 22.8001 10.376 22.8001C10.6249 22.8001 10.8367 22.6095 10.8586 22.3568C10.8816 22.09 10.684 21.855 10.4172 21.8319Z" stroke="white" stroke-width="2" mask="url(#path-1-inside-1)"/>
<path d="M12.5363 21.917L12.5074 21.9171C12.2396 21.9186 12.0236 22.1369 12.0251 22.4047C12.0265 22.6717 12.2433 22.8871 12.51 22.8871H12.5126L12.5363 22.887C12.8041 22.887 13.0212 22.6698 13.0212 22.402C13.0212 22.1342 12.8042 21.917 12.5363 21.917Z" stroke="white" stroke-width="2" mask="url(#path-1-inside-1)"/>
<path d="M24.1836 14.3195C24.4438 14.3108 24.6522 14.0977 24.6522 13.8354C24.6522 13.5676 24.435 13.3504 24.1672 13.3504H23.1902C22.9224 13.3504 22.7053 13.5676 22.7053 13.8354V14.8124C22.7053 15.0802 22.9224 15.2973 23.1902 15.2973C23.3285 15.2973 23.4529 15.2392 23.5413 15.1464C23.7532 15.5622 23.8603 15.9873 23.8603 16.415C23.8603 19.0381 19.7979 21.367 14.4109 21.8323C14.144 21.8554 13.9464 22.0904 13.9694 22.3572C13.9912 22.6098 14.2031 22.8005 14.452 22.8005C14.466 22.8005 14.4801 22.7999 14.4943 22.7986C17.303 22.5561 19.8805 21.8144 21.7522 20.7103C23.7371 19.5393 24.8302 18.0138 24.8302 16.415C24.8303 15.6935 24.6127 14.9893 24.1836 14.3195Z" stroke="white" stroke-width="2" mask="url(#path-1-inside-1)"/>
<path d="M12.4147 3.95285C12.1469 3.95285 11.9298 4.17001 11.9298 4.43781V5.49639C11.9298 5.76419 12.1469 5.98135 12.4147 5.98135C12.6826 5.98135 12.8997 5.76419 12.8997 5.49639V4.43781C12.8997 4.17001 12.6826 3.95285 12.4147 3.95285Z" stroke="white" stroke-width="2" mask="url(#path-1-inside-1)"/>
<path d="M20.7601 4.74339L12.6569 0.0649972C12.5069 -0.0216657 12.322 -0.0216657 12.1719 0.0649972L4.06878 4.74339C3.91874 4.83 3.8263 4.99014 3.8263 5.16337V14.5201C3.8263 14.6933 3.91869 14.8535 4.06878 14.9401L12.1719 19.6185C12.247 19.6618 12.3307 19.6835 12.4144 19.6835C12.4982 19.6835 12.5819 19.6618 12.6569 19.6185L20.7601 14.9401C20.9101 14.8535 21.0025 14.6933 21.0025 14.5201V5.16337C21.0025 4.99014 20.9101 4.83 20.7601 4.74339ZM11.9295 18.3585L5.28119 14.5201L5.73982 14.2553C5.97178 14.1214 6.05126 13.8248 5.91732 13.5929C5.78342 13.3609 5.48682 13.2814 5.25486 13.4154L4.79618 13.6801V6.00366L11.4405 9.84404L10.6077 10.3248C10.3758 10.4588 10.2963 10.7553 10.4302 10.9873C10.5201 11.1429 10.6831 11.2299 10.8507 11.2299C10.9329 11.2299 11.0163 11.2089 11.0927 11.1648L11.9295 10.6817V18.3585ZM12.4144 7.57262C12.1466 7.57262 11.9295 7.78978 11.9295 8.05758V9.00631L5.28095 5.16351L11.9295 1.32498V1.87663C11.9295 2.14442 12.1466 2.36159 12.4144 2.36159C12.6823 2.36159 12.8994 2.14442 12.8994 1.87663V1.32498L19.5479 5.16351L12.8994 9.00631V8.05758C12.8994 7.78978 12.6823 7.57262 12.4144 7.57262ZM20.0326 13.6801L19.5739 13.4154C19.342 13.2815 19.0454 13.3609 18.9115 13.5929C18.7775 13.8248 18.857 14.1214 19.089 14.2553L19.5476 14.5201L12.8994 18.3585V10.6817L13.7361 11.1648C13.8125 11.2089 13.8959 11.2299 13.9782 11.2299C14.1458 11.2299 14.3088 11.1429 14.3986 10.9873C14.5325 10.7553 14.4531 10.4588 14.2211 10.3248L13.3883 9.84404L20.0326 6.00366V13.6801Z" stroke="white" stroke-width="2" mask="url(#path-1-inside-1)"/>
<path d="M17.3572 12.1347L16.4405 11.6054C16.2085 11.4715 15.9119 11.551 15.778 11.7829C15.6441 12.0148 15.7236 12.3114 15.9555 12.4453L16.8723 12.9746C16.9486 13.0187 17.032 13.0397 17.1143 13.0397C17.2819 13.0397 17.4449 12.9527 17.5347 12.7971C17.6687 12.5652 17.5892 12.2686 17.3572 12.1347Z" stroke="white" stroke-width="2" mask="url(#path-1-inside-1)"/>
<path d="M9.05353 11.7829C8.91959 11.551 8.62303 11.4715 8.39107 11.6054L7.4743 12.1347C7.24234 12.2687 7.16285 12.5652 7.2968 12.7972C7.38662 12.9527 7.54961 13.0398 7.71722 13.0398C7.79947 13.0398 7.88288 13.0188 7.95926 12.9747L8.87604 12.4454C9.10799 12.3114 9.18748 12.0149 9.05353 11.7829Z" stroke="white" stroke-width="2" mask="url(#path-1-inside-1)"/>
</svg>
