<?xml version="1.0" encoding="utf-8"?>
<!-- Generator: Adobe Illustrator 22.0.0, SVG Export Plug-In . SVG Version: 6.00 Build 0)  -->
<svg version="1.1" id="Layer_1" xmlns="http://www.w3.org/2000/svg" xmlns:xlink="http://www.w3.org/1999/xlink" x="0px" y="0px"
	 viewBox="0 0 25 23" style="enable-background:new 0 0 25 23;" xml:space="preserve">
<g>
	<path d="M20.8,13.8l0-7.8c0-0.7-0.4-1.3-1-1.7l-6.9-4C12.3,0,11.6,0,11,0.4L4.2,4.2c-0.6,0.3-1,1-1,1.7l0,7.8c0,0.7,0.4,1.3,1,1.7
		l6.9,4c0.3,0.2,0.6,0.2,0.9,0.2c0,0,0,0,0.1,0c0,0,0,0,0,0c0,0,0,0,0,0c0.3,0,0.7-0.1,1-0.3l6.8-3.9C20.4,15.1,20.8,14.5,20.8,13.8
		z M4.7,5.1l6.8-3.9c0,0,0.1,0,0.1,0V3c0,0.3,0.2,0.5,0.5,0.5s0.5-0.2,0.5-0.5V1.3l6.8,3.9c0.1,0,0.1,0.1,0.2,0.1l-7,4V8.5
		C12.5,8.2,12.3,8,12,8s-0.5,0.2-0.5,0.5v0.9l-7-4.1c0,0,0,0,0,0C4.5,5.2,4.6,5.1,4.7,5.1z M5,14.7L6,14.1c0.2-0.1,0.3-0.4,0.2-0.7
		c-0.1-0.2-0.4-0.3-0.7-0.2L4.3,14c0-0.1,0-0.2,0-0.3l0-7.6l6.8,4l-0.9,0.5c-0.2,0.1-0.3,0.4-0.2,0.7c0.1,0.2,0.3,0.2,0.4,0.2
		c0.1,0,0.2,0,0.2-0.1l1-0.6v7.6L5,14.7z M12.5,18.5C12.5,18.5,12.5,18.5,12.5,18.5l0-7.5l0.8,0.5c0.1,0,0.2,0.1,0.2,0.1
		c0.2,0,0.3-0.1,0.4-0.2c0.1-0.2,0.1-0.5-0.2-0.7l-0.9-0.5l6.9-3.9l0,7.6c0,0.1,0,0.1,0,0.2l-1.3-0.7c-0.2-0.1-0.5-0.1-0.7,0.2
		c-0.1,0.2-0.1,0.5,0.2,0.7l1.1,0.6L12.5,18.5z"/>
	<path d="M10.9,21.8c-1.9,0-7.4-1-9.1-3.3c-1.5-2.1,0-3.7,0.1-3.8c0.2-0.2,0.2-0.5,0-0.7c-0.2-0.2-0.5-0.2-0.7,0
		c-0.8,0.8-1.8,2.8-0.2,5c1.9,2.7,7.8,3.7,9.9,3.7c0.3,0,0.5-0.2,0.5-0.5S11.2,21.8,10.9,21.8z"/>
	<path d="M12,7.2c0.3,0,0.5-0.2,0.5-0.5v-2c0-0.3-0.2-0.5-0.5-0.5s-0.5,0.2-0.5,0.5v2C11.6,7,11.8,7.2,12,7.2z"/>
	<path d="M8.7,11.5l-1.7,1c-0.2,0.1-0.3,0.4-0.2,0.7c0.1,0.2,0.3,0.2,0.4,0.2c0.1,0,0.2,0,0.2-0.1l1.7-1c0.2-0.1,0.3-0.4,0.2-0.7
		C9.2,11.5,8.9,11.4,8.7,11.5z"/>
	<path d="M17,12.5l-1.7-1c-0.2-0.1-0.5,0-0.7,0.2c-0.1,0.2,0,0.5,0.2,0.7l1.7,1c0.1,0,0.2,0.1,0.2,0.1c0.2,0,0.3-0.1,0.4-0.2
		C17.3,12.9,17.2,12.6,17,12.5z"/>
	<path d="M24.1,14l-1.8-0.7l-0.4,1.8c-0.1,0.3,0.1,0.5,0.4,0.6c0,0,0.1,0,0.1,0c0.2,0,0.4-0.2,0.5-0.4l0-0.1
		c0.2,0.5,0.3,1.2,0.2,1.9c-0.2,1.1-1.1,2-2.5,2.7c-4,2-6.8,1.8-6.9,1.8c-0.3,0-0.5,0.2-0.5,0.4c0,0.3,0.2,0.5,0.4,0.5
		c0,0,0.2,0,0.4,0c1,0,3.6-0.2,7-1.9c1.7-0.9,2.7-2,3-3.4c0.2-0.9,0-1.8-0.3-2.6l0.1,0c0.3,0.1,0.5,0,0.6-0.3
		C24.5,14.4,24.4,14.1,24.1,14z"/>
</g>
</svg>
