<svg width="12" height="9" viewBox="0 0 12 9" fill="none" xmlns="http://www.w3.org/2000/svg">
<path fill-rule="evenodd" clip-rule="evenodd" d="M12 7.03125H0V6.28125H12V7.03125Z" />
<path fill-rule="evenodd" clip-rule="evenodd" d="M12 2.53125H0V1.78125H12V2.53125Z" />
<path d="M4.5 6.65625C4.5 7.27757 3.99632 7.78125 3.375 7.78125C2.75368 7.78125 2.25 7.27757 2.25 6.65625C2.25 6.03493 2.75368 5.53125 3.375 5.53125C3.99632 5.53125 4.5 6.03493 4.5 6.65625Z" />
<path fill-rule="evenodd" clip-rule="evenodd" d="M3.375 5.90625C2.96079 5.90625 2.625 6.24204 2.625 6.65625C2.625 7.07046 2.96079 7.40625 3.375 7.40625C3.78921 7.40625 4.125 7.07046 4.125 6.65625C4.125 6.24204 3.78921 5.90625 3.375 5.90625ZM1.875 6.65625C1.875 5.82782 2.54657 5.15625 3.375 5.15625C4.20343 5.15625 4.875 5.82782 4.875 6.65625C4.875 7.48468 4.20343 8.15625 3.375 8.15625C2.54657 8.15625 1.875 7.48468 1.875 6.65625Z" />
<path d="M9.75 2.15625C9.75 2.77757 9.24632 3.28125 8.625 3.28125C8.00368 3.28125 7.5 2.77757 7.5 2.15625C7.5 1.53493 8.00368 1.03125 8.625 1.03125C9.24632 1.03125 9.75 1.53493 9.75 2.15625Z" />
<path fill-rule="evenodd" clip-rule="evenodd" d="M8.625 1.40625C8.21079 1.40625 7.875 1.74204 7.875 2.15625C7.875 2.57046 8.21079 2.90625 8.625 2.90625C9.03921 2.90625 9.375 2.57046 9.375 2.15625C9.375 1.74204 9.03921 1.40625 8.625 1.40625ZM7.125 2.15625C7.125 1.32782 7.79657 0.65625 8.625 0.65625C9.45343 0.65625 10.125 1.32782 10.125 2.15625C10.125 2.98468 9.45343 3.65625 8.625 3.65625C7.79657 3.65625 7.125 2.98468 7.125 2.15625Z" />
</svg>
